<?xml version="1.0" standalone="no"?><!DOCTYPE svg PUBLIC "-//W3C//DTD SVG 1.1//EN" "http://www.w3.org/Graphics/SVG/1.1/DTD/svg11.dtd"><svg t="1644307971773" class="icon" viewBox="0 0 1057 1024" version="1.1" xmlns="http://www.w3.org/2000/svg" p-id="39211" xmlns:xlink="http://www.w3.org/1999/xlink" width="206.4453125" height="200"><defs><style type="text/css"></style></defs><path d="M1055.361041 489.238894c0-81.229008-65.893984-147.547577-147.073041-147.547577H680.893398V177.285203c0-69.565398-20.238569-119.683122-60.291122-149.062764C557.289106-18.440325 470.290732 8.133724 466.627642 9.42413a26.440846 26.440846 0 0 0-18.523577 25.283642v184.70296c0 145.39135-168.169106 194.868033-175.278829 197.02426-2.156228 0.649366-4.096 1.298732-5.819317 2.372683-12.487805-25.058862-38.329236-42.341984-68.041886-42.341984H75.800976C34.025106 376.465691 0 410.599024 0 452.516423v449.128065c0 41.909073 34.025106 76.042407 75.800976 76.042406h71.272065a26.507447 26.507447 0 0 0 26.490796-26.565723c0-14.693984-12.06322-26.357593-26.490796-26.357594H75.800976a23.102439 23.102439 0 0 1-23.044163-23.119089V452.516423a23.102439 23.102439 0 0 1 23.044163-23.11909h123.379512a23.102439 23.102439 0 0 1 23.044162 23.11909v423.636292c0 81.229008 65.893984 147.555902 147.073041 147.555903H819.782764c99.919089 0 163.44039-52.498732 174.637789-143.235122l60.724032-382.376585a26.557398 26.557398 0 0 0 0.432911-4.104326v-4.753691h-0.216455z m-52.756813 2.372683l-60.507578 381.302634c-7.96722 64.811707-49.093724 97.862764-122.313886 97.862765H369.306016c-51.890992 0-94.316228-42.341984-94.316227-94.624261v-408.517723c3.879545 0.865821 7.96722 0.649366 12.063219-0.432911 8.824715-2.372683 213.82452-61.997789 213.82452-248.007805V55.878764c22.394797-3.463285 60.724033-5.411382 88.505236 14.902114 25.624976 19.014764 38.762146 54.654959 38.762147 106.504325v190.980163a26.507447 26.507447 0 0 0 26.482471 26.565723h253.885398c51.890992 0 94.316228 42.341984 94.316228 94.624261v2.164552h-0.216455z" fill="#409EFF" p-id="39212"></path></svg>