<?xml version="1.0" standalone="no"?><!DOCTYPE svg PUBLIC "-//W3C//DTD SVG 1.1//EN" "http://www.w3.org/Graphics/SVG/1.1/DTD/svg11.dtd"><svg t="1644918735761" class="icon" viewBox="0 0 1024 1024" version="1.1" xmlns="http://www.w3.org/2000/svg" p-id="5140" xmlns:xlink="http://www.w3.org/1999/xlink" width="200" height="200"><defs><style type="text/css"></style></defs><path d="M325.973333 94.933333c114.453333-52.693333 255.04-56.213333 368.853334-0.426666-8.32 5.333333-16.64 10.666667-24.746667 16.106666-98.88-43.306667-216.106667-41.6-315.413333-0.32-9.386667-5.546667-19.093333-10.453333-28.693334-15.36z" fill="#EEA44E" p-id="5141"></path><path d="M354.666667 110.293333c99.306667-41.28 216.533333-42.986667 315.413333 0.32-13.12 10.133333-26.666667 19.946667-37.653333 32.533334-6.08 13.76 10.026667 21.973333 16.746666 31.146666 19.413333-14.4 37.973333-30.186667 58.88-42.56 29.12-1.386667 31.893333 40 49.28 56.96 7.253333-3.84 21.653333-11.52 28.8-15.36 51.626667 49.6 99.946667 104.746667 126.826667 172.16 21.866667 48.96 28.053333 102.613333 36.693333 154.986667-50.88-26.453333-111.893333-36.8-166.4-14.933333-22.72 8.64-52.266667 26.88-44.266666 55.68 12.8 31.786667 51.413333 40.853333 81.92 46.506666 40.64 8.533333 80.96-4.48 118.72-18.346666l2.986666 18.133333c-10.026667 35.306667-21.44 70.293333-35.2 104.426667l-23.893333-20.053334c-67.84 20.053333-139.84 15.573333-207.146667 37.333334 12.906667-24.213333 32.96-50.346667 27.84-79.146667-4.693333-1.066667-13.973333-3.093333-18.666666-4.16-9.066667 44.266667-36.906667 97.813333-88.64 97.92-38.506667 2.026667-56.746667-35.626667-78.506667-60.16-22.08-12.48-33.173333 17.28-47.573333 28.16 0.32-25.493333 14.613333-47.68 41.28-50.453333 34.133333 13.226667 43.84 66.453333 85.546666 62.186666 25.386667 4.053333 40.426667-16.64 53.866667-34.026666-42.133333-11.306667-86.613333-20.053333-122.453333-46.613334-40.426667-29.866667-76.586667-65.493333-107.946667-104.746666-33.813333-41.386667-43.413333-106.773333-103.04-120.213334l-5.866667-10.56c34.88 5.653333 75.52-18.773333 76.373334-56.32 2.133333-18.88-9.6-34.666667-19.2-49.6-23.146667-15.786667-54.293333-16.32-77.333334 0.32l-3.52 3.946667c19.626667-30.08 53.333333-54.613333 53.546667-93.76 3.093333-16.64-14.186667-27.52-21.653333-40.533333-13.973333 8.746667-28.053333 17.386667-42.346667 25.6 8-17.706667 18.026667-34.346667 30.186667-49.6 24 14.4 46.293333 31.36 67.2 49.813333 7.68-8.96 15.36-17.92 23.04-26.986667-14.186667-13.866667-28.586667-27.413333-43.84-40M661.44 276.266667c-15.68 17.6-31.466667 39.893333-22.72 64.746666 10.133333 39.04 63.893333 57.173333 93.546667 28.693334 28.16-21.013333 25.493333-63.253333 3.52-87.786667-22.4-15.893333-49.813333-20.16-74.346667-5.653333z" fill="#FDED78" p-id="5142"></path><path d="M254.826667 135.04c13.333333-25.6 40.64-46.933333 71.146666-40.106667 9.6 4.906667 19.306667 9.813333 28.693334 15.36 15.253333 12.586667 29.653333 26.133333 43.84 40-7.68 9.066667-15.36 18.026667-23.04 26.986667-20.906667-18.453333-43.2-35.413333-67.2-49.813333a233.621333 233.621333 0 0 0-30.186667 49.6l-21.44 12.48c-3.413333-5.12-10.346667-15.466667-13.866667-20.693334 3.946667-11.306667 7.893333-22.613333 12.053334-33.813333z" fill="#A13B0B" p-id="5143"></path><path d="M694.826667 94.506667l2.026666-1.173334c29.973333-3.306667 60.693333 11.093333 71.786667 40.32 5.973333 13.12 11.306667 26.666667 17.493333 39.68-7.146667 3.84-21.546667 11.52-28.8 15.36-17.386667-16.96-20.16-58.346667-49.28-56.96-20.906667 12.373333-39.466667 28.16-58.88 42.56-6.72-9.173333-22.826667-17.386667-16.746666-31.146666 10.986667-12.586667 24.533333-22.4 37.653333-32.533334 8.106667-5.44 16.426667-10.773333 24.746667-16.106666z" fill="#A63E0E" p-id="5144"></path><path d="M768.64 133.653333C893.866667 214.506667 973.226667 362.666667 970.026667 511.893333c2.666667 97.386667-29.973333 194.346667-87.68 272.533334-84.373333 116.053333-226.24 189.866667-370.453334 185.813333-115.626667 2.773333-229.973333-44.586667-313.706666-123.52C116.16 770.346667 66.346667 663.466667 54.613333 552.533333c6.72 3.306667 19.946667 9.92 26.666667 13.226667 15.146667 120.32 81.706667 232.853333 181.44 302.08 110.08 79.146667 258.453333 101.013333 386.773333 57.493333 94.186667-32 178.56-95.893333 229.973334-181.546666 10.346667-16.746667 19.733333-34.026667 27.946666-51.84 13.76-34.133333 25.173333-69.12 35.2-104.426667 9.493333-28.053333 12.906667-57.813333 7.04-87.04-8.64-52.373333-14.826667-106.026667-36.693333-154.986667-26.88-67.413333-75.2-122.56-126.826667-172.16-6.186667-13.013333-11.52-26.56-17.493333-39.68z" fill="#EFA951" p-id="5145"></path><path d="M54.506667 538.133333c-9.066667-156.8 67.946667-317.12 200.32-403.093333-4.16 11.2-8.106667 22.506667-12.053334 33.813333-48.853333 48.32-97.386667 99.306667-125.013333 163.306667-25.813333 52.693333-31.893333 111.466667-42.666667 168.32-5.546667 10.453333-11.093333 20.693333-16.746666 30.933333l-3.84 6.72z" fill="#EEAA50" p-id="5146"></path><path d="M278.08 177.066667c14.293333-8.213333 28.373333-16.853333 42.346667-25.6 7.466667 13.013333 24.746667 23.893333 21.653333 40.533333-0.213333 39.146667-33.92 63.68-53.546667 93.76-30.826667 33.92-12.16 81.066667 23.68 101.653333l5.866667 10.56c59.626667 13.44 69.226667 78.826667 103.04 120.213334 31.36 39.253333 67.52 74.88 107.946667 104.746666 35.84 26.56 80.32 35.306667 122.453333 46.613334-13.44 17.386667-28.48 38.08-53.866667 34.026666-41.706667 4.266667-51.413333-48.96-85.546666-62.186666-26.666667 2.773333-40.96 24.96-41.28 50.453333-15.786667 22.293333-47.36 34.026667-72.213334 19.52-33.92-17.706667-44.48-56.533333-58.026666-89.28l-20.373334-0.853333c-9.813333-12.266667-18.453333-26.133333-31.466666-35.306667-19.52-2.56-39.36 2.56-58.88 2.986667 26.346667-12.586667 51.2-29.653333 66.24-55.466667-16.96-44.48-66.773333-55.253333-108.373334-63.36 18.773333-5.226667 37.226667-11.626667 55.68-17.813333-1.493333-44.16-9.173333-88.533333-2.133333-132.48 5.44-43.306667 18.986667-86.186667 15.36-130.24l21.44-12.48z" fill="#FED975" p-id="5147"></path><path d="M117.76 332.16c27.626667-64 76.16-114.986667 125.013333-163.306667 3.52 5.226667 10.453333 15.573333 13.866667 20.693334 3.626667 44.053333-9.92 86.933333-15.36 130.24-7.04 43.946667 0.64 88.32 2.133333 132.48-18.453333 6.186667-36.906667 12.586667-55.68 17.813333-39.04 4.053333-76.8 14.72-112.64 30.4 10.773333-56.853333 16.853333-115.626667 42.666667-168.32z" fill="#FFCB73" p-id="5148"></path><path d="M292.053333 281.813333c23.04-16.64 54.186667-16.106667 77.333334-0.32-10.56 14.613333-22.293333 35.093333-43.626667 31.146667-18.346667 0.426667-24.213333-18.986667-33.706667-30.826667z" fill="#818181" p-id="5149"></path><path d="M661.44 276.266667c24.533333-14.506667 51.946667-10.24 74.346667 5.653333-13.12 34.88-69.76 34.986667-74.346667-5.653333z" fill="#8B8B8B" p-id="5150"></path><path d="M288.533333 285.76l3.52-3.946667c9.493333 11.84 15.36 31.253333 33.706667 30.826667 21.333333 3.946667 33.066667-16.533333 43.626667-31.146667 9.6 14.933333 21.333333 30.72 19.2 49.6-0.853333 37.546667-41.493333 61.973333-76.373334 56.32-35.84-20.586667-54.506667-67.733333-23.68-101.653333zM638.72 341.013333c-8.746667-24.853333 7.04-47.146667 22.72-64.746666 4.586667 40.64 61.226667 40.533333 74.346667 5.653333 21.973333 24.533333 24.64 66.773333-3.52 87.786667-29.653333 28.48-83.413333 10.346667-93.546667-28.693334z" fill="#1F1F1F" p-id="5151"></path><path d="M75.093333 500.48c35.84-15.68 73.6-26.346667 112.64-30.4 41.6 8.106667 91.413333 18.88 108.373334 63.36-15.04 25.813333-39.893333 42.88-66.24 55.466667-50.453333 3.413333-102.826667 0.106667-148.586667-23.146667-6.72-3.306667-19.946667-9.92-26.666667-13.226667 0.96-5.333333 2.773333-15.786667 3.733334-21.12 5.653333-10.24 11.2-20.48 16.746666-30.933333m38.826667 33.6c28.16 40.213333 97.6 41.173333 125.333333-0.106667-24.106667-48-101.546667-47.68-125.333333 0.106667z" fill="#F3965C" p-id="5152"></path><path d="M783.253333 485.546667c54.506667-21.866667 115.52-11.52 166.4 14.933333 5.866667 29.226667 2.453333 58.986667-7.04 87.04l-2.986666-18.133333c-37.76 13.866667-78.08 26.88-118.72 18.346666-30.506667-5.653333-69.12-14.72-81.92-46.506666-8-28.8 21.546667-47.04 44.266666-55.68m19.306667 29.12c-13.653333 7.04-16.106667 31.04 0.533333 36.053333 36.053333 20.266667 97.493333 20.053333 109.333334-28.48-30.613333-24.426667-77.013333-32.96-109.866667-7.573333z" fill="#F2A65D" p-id="5153"></path><path d="M113.92 534.08c23.786667-47.786667 101.226667-48.106667 125.333333-0.106667-27.733333 41.28-97.173333 40.32-125.333333 0.106667z" fill="#ED8639" p-id="5154"></path><path d="M802.56 514.666667c32.853333-25.386667 79.253333-16.853333 109.866667 7.573333-11.84 48.533333-73.28 48.746667-109.333334 28.48-16.64-5.013333-14.186667-29.013333-0.533333-36.053333z" fill="#EC963B" p-id="5155"></path><path d="M81.28 565.76c45.76 23.253333 98.133333 26.56 148.586667 23.146667 19.52-0.426667 39.36-5.546667 58.88-2.986667 13.013333 9.173333 21.653333 23.04 31.466666 35.306667 5.76 47.573333 31.466667 91.306667 72.64 116.48 2.56 6.08 7.786667 18.24 10.346667 24.32 46.72 5.013333 91.946667 17.6 136.533333 31.786666 75.52 13.973333 155.2 10.133333 227.626667-16.106666 37.226667-11.733333 71.573333-36.16 112.106667-33.92-51.413333 85.653333-135.786667 149.546667-229.973334 181.546666-128.32 43.52-276.693333 21.653333-386.773333-57.493333-99.733333-69.226667-166.293333-181.76-181.44-302.08z" fill="#FFCA73" p-id="5156"></path><path d="M320.213333 621.226667l20.373334 0.853333c13.546667 32.746667 24.106667 71.573333 58.026666 89.28 24.853333 14.506667 56.426667 2.773333 72.213334-19.52 14.4-10.88 25.493333-40.64 47.573333-28.16 21.76 24.533333 40 62.186667 78.506667 60.16 51.733333-0.106667 79.573333-53.653333 88.64-97.92 4.693333 1.066667 13.973333 3.093333 18.666666 4.16 5.12 28.8-14.933333 54.933333-27.84 79.146667-25.813333 26.026667-62.613333 49.6-100.693333 37.226666-31.146667-7.253333-50.773333-34.026667-67.2-59.306666-25.493333 37.013333-68.8 68.053333-115.626667 50.56-41.173333-25.173333-66.88-68.906667-72.64-116.48z" fill="#7B2214" p-id="5157"></path><path d="M676.373333 709.226667c67.306667-21.76 139.306667-17.28 207.146667-37.333334l23.893333 20.053334c-8.213333 17.813333-17.6 35.093333-27.946666 51.84-40.533333-2.24-74.88 22.186667-112.106667 33.92-72.426667 26.24-152.106667 30.08-227.626667 16.106666-44.586667-14.186667-89.813333-26.773333-136.533333-31.786666-2.56-6.08-7.786667-18.24-10.346667-24.32 46.826667 17.493333 90.133333-13.546667 115.626667-50.56 16.426667 25.28 36.053333 52.053333 67.2 59.306666 38.08 12.373333 74.88-11.2 100.693333-37.226666z" fill="#FED675" p-id="5158"></path></svg>