<svg xmlns:xlink="http://www.w3.org/1999/xlink" xmlns="http://www.w3.org/2000/svg" version="1.1" viewBox="0 0 184 206" height="206px" width="184px">
    <title>7.一代宗师</title>
    <defs>
        <linearGradient id="linearGradient-1" y2="11.4748444%" x2="28.8879517%" y1="76.3146197%" x1="73.6884166%">
            <stop offset="0%" stop-color="#35BCA1"></stop>
            <stop offset="100%" stop-color="#74FFDA"></stop>
        </linearGradient>
        <path id="path-2" d="M96.9205726,1.29437161 L178.920573,47.6421977 C182.059262,49.4162396 184,52.7424694 184,56.3478261 L184,148.678531 C184,152.283887 182.059262,155.610117 178.920573,157.384159 L96.9205726,203.731985 C93.8671831,205.457814 90.1328169,205.457814 87.0794274,203.731985 L5.07942743,157.384159 C1.94073784,155.610117 0,152.283887 0,148.678531 L0,56.3478261 C0,52.7424694 1.94073784,49.4162396 5.07942743,47.6421977 L87.0794274,1.29437161 C90.1328169,-0.431457204 93.8671831,-0.431457204 96.9205726,1.29437161 Z"></path>
        <filter id="filter-4" filterUnits="objectBoundingBox" height="190.0%" width="181.4%" y="-45.0%" x="-40.7%">
            <feGaussianBlur in="SourceGraphic" stdDeviation="22"></feGaussianBlur>
        </filter>
        <linearGradient id="linearGradient-5" y2="13.0023533%" x2="25.2720595%" y1="88.8600417%" x1="73.8665507%">
            <stop offset="0%" stop-color="#85FFD0"></stop>
            <stop offset="17.9961742%" stop-color="#66EA77"></stop>
            <stop offset="57.574188%" stop-color="#2EDCF1"></stop>
            <stop offset="100%" stop-color="#36C8A8"></stop>
        </linearGradient>
        <linearGradient id="linearGradient-6" y2="2.42033681%" x2="50%" y1="82.4947543%" x1="75.9111923%">
            <stop offset="0%" stop-color="#11AF66"></stop>
            <stop offset="7.16568146%" stop-color="#11A7AC"></stop>
            <stop offset="52.1722689%" stop-color="#188480"></stop>
            <stop offset="100%" stop-color="#16A589"></stop>
        </linearGradient>
        <path id="path-7" d="M81.968229,4.92302001 L152.97401,45.0567221 C154.226399,45.7645941 155.002203,47.0904665 155.005768,48.5290588 L155.207348,129.854498 C155.21004,130.94061 154.625482,131.943357 153.679032,132.476159 L81.4783122,173.121477 C80.561024,173.637863 79.4401966,173.635705 78.524904,173.115789 L7.0243559,132.501179 C5.77304531,131.790394 5,130.462224 5,129.023129 L5,48.5357062 C5,47.0935635 5.77629514,45.7630716 7.03177097,45.0534548 L78.031771,4.92302001 C79.2531268,4.23268849 80.7468732,4.23268849 81.968229,4.92302001 Z"></path>
        <filter id="filter-9" filterUnits="objectBoundingBox" height="225.0%" width="225.0%" y="-62.5%" x="-62.5%">
            <feGaussianBlur in="SourceGraphic" stdDeviation="20"></feGaussianBlur>
        </filter>
        <linearGradient id="linearGradient-10" y2="48.2953543%" x2="18.9779453%" y1="43.3860311%" x1="105.182688%">
            <stop offset="0%" stop-color="#6BEC71"></stop>
            <stop offset="55.4608156%" stop-color="#4AC88E"></stop>
            <stop offset="100%" stop-color="#24AFCA"></stop>
        </linearGradient>
        <linearGradient id="linearGradient-11" y2="100%" x2="50%" y1="0%" x1="50%">
            <stop offset="0%" stop-color="#8CFFB5"></stop>
            <stop offset="100%" stop-color="#26B6D1"></stop>
        </linearGradient>
        <linearGradient id="linearGradient-12" y2="50%" x2="0%" y1="47.2550715%" x1="100%">
            <stop offset="0%" stop-color="#EDFFF8"></stop>
            <stop offset="100%" stop-color="#D5FFEE"></stop>
        </linearGradient>
        <linearGradient id="linearGradient-13" y2="0%" x2="0%" y1="0%" x1="105.15356%">
            <stop offset="0%" stop-opacity="0.154558088" stop-color="#FFFFFF"></stop>
            <stop offset="100%" stop-color="#3EBB99"></stop>
        </linearGradient>
        <path id="path-14" d="M138.614641,61.512436 L136.651397,62.8341704 C136.42233,62.9883874 136.111617,62.9277095 135.957399,62.6986424 C135.874628,62.5756972 135.850666,62.4223663 135.891981,62.2800296 L136.509215,60.1535552 C136.730214,59.3921791 136.480621,58.5721374 135.872918,58.0629901 L133.951312,56.4530249 C133.739641,56.2756826 133.711813,55.9603256 133.889155,55.7486553 C133.984156,55.6352649 134.124491,55.5697618 134.272418,55.5697618 L136.597292,55.5697618 C137.451277,55.5697618 138.211048,55.0275274 138.488664,54.2199267 L139.276448,51.9282126 C139.366217,51.6670687 139.650688,51.5281419 139.911832,51.617911 C140.053604,51.6666457 140.166028,51.7764225 140.218127,51.9169936 L141.088273,54.2648028 C141.378975,55.0491695 142.127114,55.5697618 142.963618,55.5697618 L145.12582,55.5697618 C145.401962,55.5697618 145.62582,55.7936194 145.62582,56.0697618 C145.62582,56.2227864 145.555746,56.3673854 145.435639,56.4622054 L143.458079,58.0234139 C142.792188,58.5491094 142.530423,59.4377257 142.804992,60.2404576 L143.474249,62.1971066 C143.563618,62.4583876 143.424256,62.7426457 143.162975,62.832015 C143.01493,62.8826528 142.851716,62.861068 142.721923,62.7736865 L140.848519,61.512436 C140.173277,61.0578365 139.289883,61.0578365 138.614641,61.512436 Z"></path>
        <filter id="filter-15" filterUnits="objectBoundingBox" height="102.5%" width="101.3%" y="-0.1%" x="-0.9%">
            <feGaussianBlur result="shadowBlurInner1" in="SourceAlpha" stdDeviation="1"></feGaussianBlur>
            <feOffset result="shadowOffsetInner1" in="shadowBlurInner1" dy="0" dx="0"></feOffset>
            <feComposite result="shadowInnerInner1" k3="1" k2="-1" operator="arithmetic" in2="SourceAlpha" in="shadowOffsetInner1"></feComposite>
            <feColorMatrix in="shadowInnerInner1" type="matrix" values="0 0 0 0 0.360784314   0 0 0 0 0.811764706   0 0 0 0 0.68627451  0 0 0 1 0"></feColorMatrix>
        </filter>
        <path id="path-16" d="M145.883061,114.581361 L144.894576,115.246849 C144.665509,115.401066 144.354796,115.340388 144.200579,115.111321 C144.117807,114.988375 144.093845,114.835045 144.13516,114.692708 L144.437341,113.651644 C144.65834,112.890267 144.408747,112.070226 143.801044,111.561078 L142.796925,110.719805 C142.585255,110.542463 142.557426,110.227106 142.734769,110.015435 C142.82977,109.902045 142.970104,109.836542 143.118032,109.836542 L144.259618,109.836542 C145.113603,109.836542 145.873374,109.294308 146.15099,108.486707 L146.544868,107.340891 C146.634637,107.079747 146.919108,106.94082 147.180252,107.030589 C147.322024,107.079324 147.434448,107.189101 147.486547,107.329672 L147.932,108.531583 C148.222702,109.31595 148.97084,109.836542 149.807344,109.836542 L150.817046,109.836542 C151.093189,109.836542 151.317046,110.0604 151.317046,110.336542 C151.317046,110.489567 151.246973,110.634166 151.126866,110.728986 L150.122996,111.521502 C149.457105,112.047198 149.195341,112.935814 149.469909,113.738546 L149.76791,114.609785 C149.857279,114.871066 149.717917,115.155324 149.456636,115.244693 C149.308591,115.295331 149.145377,115.273746 149.015584,115.186365 L148.116939,114.581361 C147.441697,114.126761 146.558303,114.126761 145.883061,114.581361 Z"></path>
        <filter id="filter-17" filterUnits="objectBoundingBox" height="113.3%" width="111.3%" y="-5.1%" x="-5.9%">
            <feGaussianBlur result="shadowBlurInner1" in="SourceAlpha" stdDeviation="1"></feGaussianBlur>
            <feOffset result="shadowOffsetInner1" in="shadowBlurInner1" dy="1" dx="0"></feOffset>
            <feComposite result="shadowInnerInner1" k3="1" k2="-1" operator="arithmetic" in2="SourceAlpha" in="shadowOffsetInner1"></feComposite>
            <feColorMatrix in="shadowInnerInner1" type="matrix" values="0 0 0 0 1   0 0 0 0 1   0 0 0 0 1  0 0 0 0.5 0"></feColorMatrix>
        </filter>
        <linearGradient id="linearGradient-18" y2="84.6180657%" x2="2.94562209%" y1="13.3267251%" x1="104.82957%">
            <stop offset="0%" stop-color="#D1FFE8"></stop>
            <stop offset="37.4469207%" stop-color="#E6FFF0"></stop>
            <stop offset="56.3204187%" stop-color="#63EBA8"></stop>
            <stop offset="72.2321621%" stop-color="#44DDDD"></stop>
            <stop offset="100%" stop-color="#60D3EA"></stop>
        </linearGradient>
        <linearGradient id="linearGradient-19" y2="84.046283%" x2="2.94562209%" y1="15.953717%" x1="101.872865%">
            <stop offset="0%" stop-color="#DCFFF0"></stop>
            <stop offset="21.5847671%" stop-color="#CBFFE3"></stop>
            <stop offset="47.3200786%" stop-color="#36BC7A"></stop>
            <stop offset="65.7270175%" stop-color="#14ADAD"></stop>
            <stop offset="100%" stop-color="#22ADC9"></stop>
        </linearGradient>
        <linearGradient id="linearGradient-20" y2="56.4716447%" x2="-4.19821806%" y1="49.4578191%" x1="105.348205%">
            <stop offset="0%" stop-color="#25C5D7"></stop>
            <stop offset="29.2155538%" stop-color="#2BD162"></stop>
            <stop offset="53.748451%" stop-color="#15867E"></stop>
            <stop offset="100%" stop-color="#0A9381"></stop>
        </linearGradient>
        <path id="path-21" d="M33.432,135.513178 L33.432,67.1611784 L20.568,67.1611784 L10.104,75.3211784 L10.104,89.7211784 L20.568,82.2331784 L20.568,135.513178 L33.432,135.513178 Z M64.056,136.281178 C68.664,136.281178 73.176,134.841178 76.248,131.865178 C79.32,128.985178 80.952,125.529178 80.952,119.577178 L80.952,83.0971784 C80.952,77.1451784 79.32,73.6891784 76.248,70.8091784 C73.176,67.8331784 68.664,66.3931784 64.056,66.3931784 C59.448,66.3931784 54.936,67.8331784 51.864,70.8091784 C48.792,73.6891784 47.16,77.1451784 47.16,83.0971784 L47.16,119.577178 C47.16,125.529178 48.792,128.985178 51.864,131.865178 C54.936,134.841178 59.448,136.281178 64.056,136.281178 Z M64.056,124.761178 C61.752,124.761178 60.024,123.225178 60.024,120.057178 L60.024,82.6171784 C60.024,79.4491784 61.752,77.9131784 64.056,77.9131784 C66.36,77.9131784 68.088,79.4491784 68.088,82.6171784 L68.088,120.057178 C68.088,123.225178 66.36,124.761178 64.056,124.761178 Z M104.76,136.281178 C109.368,136.281178 113.88,134.841178 116.952,131.865178 C120.024,128.985178 121.656,125.529178 121.656,119.577178 L121.656,83.0971784 C121.656,77.1451784 120.024,73.6891784 116.952,70.8091784 C113.88,67.8331784 109.368,66.3931784 104.76,66.3931784 C100.152,66.3931784 95.64,67.8331784 92.568,70.8091784 C89.496,73.6891784 87.864,77.1451784 87.864,83.0971784 L87.864,119.577178 C87.864,125.529178 89.496,128.985178 92.568,131.865178 C95.64,134.841178 100.152,136.281178 104.76,136.281178 Z M104.76,124.761178 C102.456,124.761178 100.728,123.225178 100.728,120.057178 L100.728,82.6171784 C100.728,79.4491784 102.456,77.9131784 104.76,77.9131784 C107.064,77.9131784 108.792,79.4491784 108.792,82.6171784 L108.792,120.057178 C108.792,123.225178 107.064,124.761178 104.76,124.761178 Z M145.464,136.281178 C150.072,136.281178 154.584,134.841178 157.656,131.865178 C160.728,128.985178 162.36,125.529178 162.36,119.577178 L162.36,83.0971784 C162.36,77.1451784 160.728,73.6891784 157.656,70.8091784 C154.584,67.8331784 150.072,66.3931784 145.464,66.3931784 C140.856,66.3931784 136.344,67.8331784 133.272,70.8091784 C130.2,73.6891784 128.568,77.1451784 128.568,83.0971784 L128.568,119.577178 C128.568,125.529178 130.2,128.985178 133.272,131.865178 C136.344,134.841178 140.856,136.281178 145.464,136.281178 Z M145.464,124.761178 C143.16,124.761178 141.432,123.225178 141.432,120.057178 L141.432,82.6171784 C141.432,79.4491784 143.16,77.9131784 145.464,77.9131784 C147.768,77.9131784 149.496,79.4491784 149.496,82.6171784 L149.496,120.057178 C149.496,123.225178 147.768,124.761178 145.464,124.761178 Z"></path>
        <linearGradient id="linearGradient-22" y2="57.2674615%" x2="-7.19180366%" y1="42.1508042%" x1="96.8878313%">
            <stop offset="0%" stop-color="#EFFFF8"></stop>
            <stop offset="27.1821147%" stop-color="#D8FFEA"></stop>
            <stop offset="52.0904208%" stop-color="#6CF8C7"></stop>
            <stop offset="100%" stop-color="#30CEF8"></stop>
        </linearGradient>
        <path id="path-23" d="M37.432,135.513178 L37.432,67.1611784 L24.568,67.1611784 L14.104,75.3211784 L14.104,89.7211784 L24.568,82.2331784 L24.568,135.513178 L37.432,135.513178 Z M68.056,136.281178 C72.664,136.281178 77.176,134.841178 80.248,131.865178 C83.32,128.985178 84.952,125.529178 84.952,119.577178 L84.952,83.0971784 C84.952,77.1451784 83.32,73.6891784 80.248,70.8091784 C77.176,67.8331784 72.664,66.3931784 68.056,66.3931784 C63.448,66.3931784 58.936,67.8331784 55.864,70.8091784 C52.792,73.6891784 51.16,77.1451784 51.16,83.0971784 L51.16,119.577178 C51.16,125.529178 52.792,128.985178 55.864,131.865178 C58.936,134.841178 63.448,136.281178 68.056,136.281178 Z M68.056,124.761178 C65.752,124.761178 64.024,123.225178 64.024,120.057178 L64.024,82.6171784 C64.024,79.4491784 65.752,77.9131784 68.056,77.9131784 C70.36,77.9131784 72.088,79.4491784 72.088,82.6171784 L72.088,120.057178 C72.088,123.225178 70.36,124.761178 68.056,124.761178 Z M108.76,136.281178 C113.368,136.281178 117.88,134.841178 120.952,131.865178 C124.024,128.985178 125.656,125.529178 125.656,119.577178 L125.656,83.0971784 C125.656,77.1451784 124.024,73.6891784 120.952,70.8091784 C117.88,67.8331784 113.368,66.3931784 108.76,66.3931784 C104.152,66.3931784 99.64,67.8331784 96.568,70.8091784 C93.496,73.6891784 91.864,77.1451784 91.864,83.0971784 L91.864,119.577178 C91.864,125.529178 93.496,128.985178 96.568,131.865178 C99.64,134.841178 104.152,136.281178 108.76,136.281178 Z M108.76,124.761178 C106.456,124.761178 104.728,123.225178 104.728,120.057178 L104.728,82.6171784 C104.728,79.4491784 106.456,77.9131784 108.76,77.9131784 C111.064,77.9131784 112.792,79.4491784 112.792,82.6171784 L112.792,120.057178 C112.792,123.225178 111.064,124.761178 108.76,124.761178 Z M149.464,136.281178 C154.072,136.281178 158.584,134.841178 161.656,131.865178 C164.728,128.985178 166.36,125.529178 166.36,119.577178 L166.36,83.0971784 C166.36,77.1451784 164.728,73.6891784 161.656,70.8091784 C158.584,67.8331784 154.072,66.3931784 149.464,66.3931784 C144.856,66.3931784 140.344,67.8331784 137.272,70.8091784 C134.2,73.6891784 132.568,77.1451784 132.568,83.0971784 L132.568,119.577178 C132.568,125.529178 134.2,128.985178 137.272,131.865178 C140.344,134.841178 144.856,136.281178 149.464,136.281178 Z M149.464,124.761178 C147.16,124.761178 145.432,123.225178 145.432,120.057178 L145.432,82.6171784 C145.432,79.4491784 147.16,77.9131784 149.464,77.9131784 C151.768,77.9131784 153.496,79.4491784 153.496,82.6171784 L153.496,120.057178 C153.496,123.225178 151.768,124.761178 149.464,124.761178 Z"></path>
        <filter id="filter-24" filterUnits="objectBoundingBox" height="104.3%" width="102.0%" y="-2.1%" x="-1.0%">
            <feOffset result="shadowOffsetInner1" in="SourceAlpha" dy="-3" dx="3"></feOffset>
            <feComposite result="shadowInnerInner1" k3="1" k2="-1" operator="arithmetic" in2="SourceAlpha" in="shadowOffsetInner1"></feComposite>
            <feColorMatrix in="shadowInnerInner1" type="matrix" values="0 0 0 0 1   0 0 0 0 1   0 0 0 0 1  0 0 0 0.604458042 0"></feColorMatrix>
        </filter>
        <path id="path-25" d="M48.5894005,56.7964246 L43.8708922,59.9731119 C43.4127581,60.281546 42.7913318,60.1601901 42.4828977,59.702056 C42.3173545,59.4561656 42.2694312,59.1495038 42.352061,58.8648303 L43.8451507,53.7208892 C44.0661491,52.9595131 43.8165561,52.1394714 43.2088531,51.6303241 L38.6715338,47.8288549 C38.2481931,47.4741704 38.1925362,46.8434564 38.5472207,46.4201157 C38.7372227,46.193335 39.0178918,46.0623287 39.3137469,46.0623287 L44.996427,46.0623287 C45.8504113,46.0623287 46.610183,45.5200943 46.8877983,44.7124936 L48.7960745,39.1611963 C48.9756126,38.6389085 49.5445549,38.361055 50.0668426,38.5405931 C50.3503874,38.6380625 50.5752355,38.8576161 50.6794326,39.1387583 L52.7618046,44.7573697 C53.0525069,45.5417364 53.8006454,46.0623287 54.6371494,46.0623287 L59.9690875,46.0623287 C60.5213722,46.0623287 60.9690875,46.510044 60.9690875,47.0623287 C60.9690875,47.3683779 60.8289402,47.657576 60.5887261,47.847216 L55.8468484,51.5907479 C55.1809576,52.1164434 54.9191928,53.0050597 55.1937613,53.8077916 L56.8667574,58.6989843 C57.0454958,59.2215463 56.7667717,59.7900626 56.2442098,59.9688011 C55.9481188,60.0700768 55.6216911,60.0269072 55.3621059,59.8521441 L50.8232777,56.7964246 C50.1480361,56.341825 49.2646421,56.341825 48.5894005,56.7964246 Z"></path>
        <filter id="filter-26" filterUnits="objectBoundingBox" height="98.6%" width="97.6%" y="1.9%" x="1.0%">
            <feGaussianBlur result="shadowBlurInner1" in="SourceAlpha" stdDeviation="1"></feGaussianBlur>
            <feOffset result="shadowOffsetInner1" in="shadowBlurInner1" dy="1" dx="1"></feOffset>
            <feComposite result="shadowInnerInner1" k3="1" k2="-1" operator="arithmetic" in2="SourceAlpha" in="shadowOffsetInner1"></feComposite>
            <feColorMatrix in="shadowInnerInner1" type="matrix" values="0 0 0 0 0.534332127   0 0 0 0 1   0 0 0 0 0.563436369  0 0 0 1 0"></feColorMatrix>
        </filter>
    </defs>
    <g fill-rule="evenodd" fill="none" stroke-width="1" stroke="none" id="页面-1">
        <g transform="translate(-2328.000000, -477.000000)" id="勋章">
            <g transform="translate(2328.000000, 477.486822)" id="7.一代宗师">
                <mask fill="white" id="mask-3">
                    <use xlink:href="#path-2"></use>
                </mask>
                <use xlink:href="#path-2" fill="url(#linearGradient-1)" id="蒙版"></use>
                <polygon points="-21.275089 59.9826636 100.866578 -35.444865 140.884574 15.7758339 18.7429069 111.203363" mask="url(#mask-3)" filter="url(#filter-4)" opacity="0.5" fill="#FFFFFF" id="矩形"></polygon>
                <g mask="url(#mask-3)" id="矩形-+-矩形-+-矩形-+-矩形蒙版">
                    <g transform="translate(12.000000, 13.702636)">
                        <path fill-rule="nonzero" fill="url(#linearGradient-5)" stroke="none" id="蒙版" d="M83.9364581,1.03549729 L155.936458,41.7311495 C158.44741,43.150383 160,45.8113668 160,48.6956522 L160,129.794999 C160,132.679284 158.44741,135.340268 155.936458,136.759501 L83.9364581,177.455153 C81.4937465,178.835816 78.5062535,178.835816 76.0635419,177.455153 L4.06354195,136.759501 C1.55259028,135.340268 0,132.679284 0,129.794999 L0,48.6956522 C0,45.8113668 1.55259028,43.150383 4.06354195,41.7311495 L76.0635419,1.03549729 C78.5062535,-0.345165763 81.4937465,-0.345165763 83.9364581,1.03549729 Z M81.4761718,5.38831148 C80.6212227,4.90507942 79.5883117,4.87286394 78.7096344,5.29166507 L78.5238282,5.38831148 L6.52382823,46.0839637 C5.64107178,46.582913 5.07418152,47.4911305 5.0067685,48.4939254 L5,48.6956522 L5,129.794999 C5,130.809005 5.51171799,131.749414 6.35154289,132.301534 L6.52382823,132.406687 L78.5238282,173.102339 C79.3787773,173.585571 80.4116883,173.617787 81.2903656,173.198986 L81.4761718,173.102339 L153.476172,132.406687 C154.358928,131.907738 154.925818,130.99952 154.993231,129.996725 L155,129.794999 L155,48.6956522 C155,47.6816456 154.488282,46.741237 153.648457,46.1891172 L153.476172,46.0839637 L81.4761718,5.38831148 Z"></path>
                        <mask fill="white" id="mask-8">
                            <use xlink:href="#path-7"></use>
                        </mask>
                        <use xlink:href="#path-7" fill-rule="evenodd" fill="url(#linearGradient-6)" stroke="none" id="蒙版"></use>
                        <circle r="48" cy="83.3105427" cx="79.5" mask="url(#mask-8)" filter="url(#filter-9)" opacity="0.800000012" fill-rule="evenodd" fill="#19817A" stroke="none" id="椭圆形"></circle>
                        <g mask="url(#mask-8)" fill-rule="evenodd" fill="none" stroke-width="1" stroke="none" id="编组-5">
                            <g id="矩形" transform="translate(1.000000, 122.564274)">
                                <path fill="url(#linearGradient-10)" d="M0,2 L144,2 C139.160763,11.2985498 136.741145,19.6617479 136.741145,27.0895945 C136.741145,34.5174411 138.494096,43.6119544 142,54.3731343 L0,54.3731343 L0,2 Z"></path>
                                <polygon points="0 2.95534741e-14 145 8.69619468e-14 141.994642 6.11940299 0 6.11940299" fill="url(#linearGradient-11)"></polygon>
                                <path fill="url(#linearGradient-12)" d="M36,10.238806 L140.223445,10.238806 C137.85213,16.9523612 136.666473,22.7402372 136.666473,27.6024338 C136.666473,32.4646304 137.59778,37.3139192 139.460394,42.1503002 L36,42.1641791 L36,10.238806 Z"></path>
                                <polygon points="36 16.261194 134 16.261194 134 19.3507463 36 19.3507463" opacity="0.600000024" fill="url(#linearGradient-13)"></polygon>
                                <polygon points="36 24.5 134 24.5 134 27.5895522 36 27.5895522" opacity="0.400000006" fill="url(#linearGradient-13)"></polygon>
                                <polygon points="36 31.7089552 134 31.7089552 134 34.7985075 36 34.7985075" opacity="0.200000003" fill="url(#linearGradient-13)"></polygon>
                            </g>
                        </g>
                        <g mask="url(#mask-8)" opacity="0.800000012" fill="none" stroke="none" id="星形">
                            <use xlink:href="#path-14" fill-rule="evenodd" fill="#FFFFFF"></use>
                            <use xlink:href="#path-14" filter="url(#filter-15)" fill-opacity="1" fill="black"></use>
                        </g>
                        <g mask="url(#mask-8)" opacity="0.400000006" fill="none" stroke="none" id="星形">
                            <use xlink:href="#path-16" fill-rule="evenodd" fill="#FFFFFF"></use>
                            <use xlink:href="#path-16" filter="url(#filter-17)" fill-opacity="1" fill="black"></use>
                        </g>
                    </g>
                </g>
                <path fill-rule="nonzero" fill="url(#linearGradient-18)" id="xiewenzhang" d="M143.581296,30.4567935 C144.192803,30.4242568 144.71953,30.8196186 144.757775,31.3398596 C144.762024,31.3976673 144.759917,31.4556846 144.751757,31.5131784 C144.10037,39.1936115 133.932833,45.7359346 108.599939,55.3732472 C108.073259,55.6102885 107.872172,56.165684 108.150798,56.6137611 C108.197458,56.6887988 108.25613,56.7579665 108.325134,56.8192863 C110.727127,58.732898 108.784565,75.669691 75.9302213,81.696301 C75.3297236,81.8002077 75.3907913,82.6314612 76.0014668,82.7180503 C70.1085177,93.6187333 58.6622821,101.024645 41.66276,104.935784 C38.8134791,107.522991 26.6818307,129.16654 22,136.267724 C22,136.267724 20.6019603,136.267724 19.3839566,136.267724 C18.0618629,136.264921 16.7980691,136.244777 16.8288281,136.140966 C19.9994431,125.636978 32.1462593,90.7793179 57,66.045097 C77.2255427,45.9168175 114.07378,25.9673564 143.581296,30.4567935 Z"></path>
                <path fill-rule="nonzero" fill="url(#linearGradient-19)" id="xiewenzhang" d="M142.82191,31.5150509 C143.433417,31.4825142 143.960144,31.877876 143.998389,32.398117 C144.002638,32.4559247 144.000531,32.5139421 143.992372,32.5714359 C143.340984,40.2518689 133.932833,52.7359346 108.599939,62.3732472 C108.073259,62.6102885 107.872172,63.165684 108.150798,63.6137611 C108.197458,63.6887988 108.25613,63.7579665 108.325134,63.8192863 C110.727127,65.732898 120.393328,65.841021 124.474726,65.2089217 C124.873026,65.1874499 125.216373,65.4447398 125.241612,65.7835944 C125.251036,65.9101208 125.214249,66.0360324 125.136292,66.1440818 C121.543478,71.3394172 111.784565,82.669691 78.9302213,88.696301 C78.3297236,88.8002077 78.3907913,89.6314612 79.0014668,89.7180503 L83.5127719,90.8177329 C84.2334162,90.9680476 84.6743817,91.5869088 84.4976971,92.1999942 C84.4676405,92.3042897 84.4204575,92.4044614 84.3575403,92.497554 C80.9581159,97.3898329 67.1620432,106.069075 41.66276,111.935784 C38.8134791,114.522991 26.6818307,129.167354 22,136.267724 C22,136.267724 20.6019603,136.269556 19.3839566,136.267724 C18.0618629,136.265735 16.9686705,136.370721 16.9993429,136.26691 C22.7497715,117.214959 56.8795579,41.7584979 142.82191,31.5150509 Z"></path>
                <g fill-rule="nonzero" opacity="0.900000036" id="1000">
                    <use xlink:href="#path-21" fill="#222222"></use>
                    <use xlink:href="#path-21" fill="url(#linearGradient-20)"></use>
                </g>
                <g fill-rule="nonzero" id="1000">
                    <use xlink:href="#path-23" fill="#222222"></use>
                    <use xlink:href="#path-23" fill="url(#linearGradient-22)"></use>
                    <use xlink:href="#path-23" filter="url(#filter-24)" fill-opacity="1" fill="black"></use>
                </g>
                <g id="星形">
                    <use xlink:href="#path-25" fill-rule="evenodd" fill="#FFFFFF"></use>
                    <use xlink:href="#path-25" filter="url(#filter-26)" fill-opacity="1" fill="black"></use>
                </g>
            </g>
        </g>
    </g>
</svg>