<svg xmlns:xlink="http://www.w3.org/1999/xlink" xmlns="http://www.w3.org/2000/svg" version="1.1" viewBox="0 0 184 209" height="209px" width="184px">
    <title>27.一眼万年</title>
    <defs>
        <linearGradient id="linearGradient-1" y2="11.4748444%" x2="28.8879517%" y1="81.7846509%" x1="77.1968072%">
            <stop offset="0%" stop-color="#6863FF"></stop>
            <stop offset="100%" stop-color="#A896FF"></stop>
        </linearGradient>
        <path id="path-2" d="M96.9205726,2.78119319 L178.920573,49.1290193 C182.059262,50.9030612 184,54.2292909 184,57.8346477 L184,150.165352 C184,153.770709 182.059262,157.096939 178.920573,158.870981 L96.9205726,205.218807 C93.8671831,206.944636 90.1328169,206.944636 87.0794274,205.218807 L5.07942743,158.870981 C1.94073784,157.096939 0,153.770709 0,150.165352 L0,57.8346477 C0,54.2292909 1.94073784,50.9030612 5.07942743,49.1290193 L87.0794274,2.78119319 C90.1328169,1.05536437 93.8671831,1.05536437 96.9205726,2.78119319 Z"></path>
        <filter id="filter-4" filterUnits="objectBoundingBox" height="190.0%" width="181.4%" y="-45.0%" x="-40.7%">
            <feGaussianBlur in="SourceGraphic" stdDeviation="22"></feGaussianBlur>
        </filter>
        <linearGradient id="linearGradient-5" y2="13.0023533%" x2="25.9182578%" y1="86.9472949%" x1="76.2299463%">
            <stop offset="0%" stop-color="#D1A9FF"></stop>
            <stop offset="53.4691344%" stop-color="#B15FFF"></stop>
            <stop offset="100%" stop-color="#8B61FF"></stop>
        </linearGradient>
        <path id="path-6" d="M83.9364581,2.22495455 L155.936458,42.9206067 C158.44741,44.3398403 160,47.0008241 160,49.8851094 L160,130.984456 C160,133.868741 158.44741,136.529725 155.936458,137.948958 L83.9364581,178.644611 C81.4937465,180.025274 78.5062535,180.025274 76.0635419,178.644611 L4.06354195,137.948958 C1.55259028,136.529725 3.53223086e-16,133.868741 0,130.984456 L0,49.8851094 C8.52856111e-15,47.0008241 1.55259028,44.3398403 4.06354195,42.9206067 L76.0635419,2.22495455 C78.5062535,0.844291498 81.4937465,0.844291498 83.9364581,2.22495455 Z"></path>
        <linearGradient id="linearGradient-8" y2="2.42033681%" x2="50%" y1="93.8552641%" x1="75.512595%">
            <stop offset="0%" stop-color="#EF4F83"></stop>
            <stop offset="50.0195344%" stop-color="#743FF7"></stop>
            <stop offset="100%" stop-color="#5949D4"></stop>
        </linearGradient>
        <path id="path-9" d="M81.968229,6.11247728 L152.968229,46.2429121 C154.223705,46.9525288 155,48.2830207 155,49.7251634 L155,130.987544 C155,132.06928 154.417641,133.067247 153.475858,133.59941 L81.4758576,174.283636 C80.5600024,174.801148 79.4399976,174.801148 78.5241424,174.283636 L6.52414238,133.59941 C5.58235912,133.067247 5,132.06928 5,130.987544 L5,49.7251634 C5,48.2830207 5.77629514,46.9525288 7.03177097,46.2429121 L78.031771,6.11247728 C79.2531268,5.42214575 80.7468732,5.42214575 81.968229,6.11247728 Z"></path>
        <filter id="filter-11" filterUnits="objectBoundingBox" height="199.2%" width="199.2%" y="-49.6%" x="-49.6%">
            <feGaussianBlur in="SourceGraphic" stdDeviation="20"></feGaussianBlur>
        </filter>
        <linearGradient id="linearGradient-12" y2="46.8976087%" x2="97.8325017%" y1="58.4728796%" x1="43.1948559%">
            <stop offset="0%" stop-color="#3E17DA"></stop>
            <stop offset="100%" stop-color="#6C43F2"></stop>
        </linearGradient>
        <linearGradient id="linearGradient-13" y2="33.1237557%" x2="-22.737555%" y1="63.9558388%" x1="69.3010274%">
            <stop offset="0%" stop-color="#3B15D3"></stop>
            <stop offset="100%" stop-color="#8928D0"></stop>
        </linearGradient>
        <linearGradient id="linearGradient-14" y2="75.8831633%" x2="5.58636786%" y1="27.1800026%" x1="100%">
            <stop offset="0%" stop-color="#9A55FD"></stop>
            <stop offset="100%" stop-color="#4247F9"></stop>
        </linearGradient>
        <linearGradient id="linearGradient-15" y2="86.8296067%" x2="-23.4415852%" y1="29.1469896%" x1="100%">
            <stop offset="0%" stop-color="#F4C8EB"></stop>
            <stop offset="100%" stop-color="#E2E1FF"></stop>
        </linearGradient>
        <linearGradient id="linearGradient-16" y2="44.6550089%" x2="100%" y1="55.3884591%" x1="6.22831145%">
            <stop offset="0%" stop-color="#4D2AFF"></stop>
            <stop offset="100%" stop-color="#892CFA"></stop>
        </linearGradient>
        <linearGradient id="linearGradient-17" y2="73.4174255%" x2="63.0242985%" y1="18.7244829%" x1="29.6993795%">
            <stop offset="0%" stop-color="#FFFFFF"></stop>
            <stop offset="100%" stop-color="#CCBCFB"></stop>
        </linearGradient>
        <linearGradient id="linearGradient-18" y2="85.1935997%" x2="70.3006205%" y1="24.7861956%" x1="17.6633151%">
            <stop offset="0%" stop-color="#BAB0FF"></stop>
            <stop offset="100%" stop-color="#8447EC"></stop>
        </linearGradient>
        <linearGradient id="linearGradient-19" y2="63.9324131%" x2="86.2547846%" y1="50%" x1="66.9115932%">
            <stop offset="0%" stop-color="#4C18FF"></stop>
            <stop offset="100%" stop-color="#B536EE"></stop>
        </linearGradient>
        <linearGradient id="linearGradient-20" y2="54.5179127%" x2="17.0539309%" y1="60.2442757%" x1="103.393314%">
            <stop offset="0%" stop-color="#CC5EEC"></stop>
            <stop offset="100%" stop-color="#9849F6"></stop>
        </linearGradient>
        <linearGradient id="linearGradient-21" y2="51.1726255%" x2="13.1870176%" y1="58.1069255%" x1="103.087941%">
            <stop offset="0%" stop-color="#FF78B8"></stop>
            <stop offset="100%" stop-color="#C75BF0"></stop>
        </linearGradient>
        <linearGradient id="linearGradient-22" y2="82.0588383%" x2="100%" y1="21.6299783%" x1="-5.17794741%">
            <stop offset="0%" stop-color="#C75BF0"></stop>
            <stop offset="100%" stop-color="#FDE3C8"></stop>
        </linearGradient>
        <linearGradient id="linearGradient-23" y2="82.6169112%" x2="0%" y1="30.3262448%" x1="100%">
            <stop offset="0%" stop-color="#FCA0B6"></stop>
            <stop offset="100%" stop-color="#FFCE8E"></stop>
        </linearGradient>
        <linearGradient id="linearGradient-24" y2="73.43973%" x2="-6.79745893%" y1="32.7980428%" x1="105.80426%">
            <stop offset="0%" stop-color="#FFD087"></stop>
            <stop offset="100%" stop-color="#D57DE6"></stop>
        </linearGradient>
        <linearGradient id="linearGradient-25" y2="53.9375229%" x2="34.0918692%" y1="42.1714335%" x1="54.7469509%">
            <stop offset="0%" stop-color="#E8E4FF"></stop>
            <stop offset="65.0482755%" stop-color="#FBF3E6"></stop>
            <stop offset="100%" stop-color="#FFFCF7"></stop>
        </linearGradient>
        <linearGradient id="linearGradient-26" y2="56.9675062%" x2="20.8483091%" y1="27.9025923%" x1="59.9675803%">
            <stop offset="0%" stop-color="#EDDCCA"></stop>
            <stop offset="53.1163655%" stop-color="#FFF6EC"></stop>
            <stop offset="100%" stop-color="#FFFFFF"></stop>
        </linearGradient>
        <linearGradient id="linearGradient-27" y2="53.5379025%" x2="2.5420575%" y1="37.5090725%" x1="95.949371%">
            <stop offset="0%" stop-color="#FFAC4C"></stop>
            <stop offset="42.2215586%" stop-color="#B73CF7"></stop>
            <stop offset="65.2929103%" stop-color="#5F34F6"></stop>
            <stop offset="80.407244%" stop-color="#5A51FF"></stop>
            <stop offset="100%" stop-color="#B160FF"></stop>
        </linearGradient>
        <linearGradient id="linearGradient-28" y2="28.4532922%" x2="100%" y1="67.6633806%" x1="22.3358329%">
            <stop offset="0%" stop-color="#FF4951"></stop>
            <stop offset="30.5731294%" stop-color="#FFB14B"></stop>
            <stop offset="63.6696314%" stop-color="#FFD63E"></stop>
            <stop offset="100%" stop-color="#FFF7B5"></stop>
        </linearGradient>
        <path id="path-29" d="M129.532013,19.1951519 L87.5431068,60.5024471 C86.844028,61.1901777 85.7494278,61.2695921 84.9584012,60.6899702 L57.158409,40.319627 C56.2900975,39.683375 55.0739578,39.8485266 54.4067693,40.6932993 L39.1288573,60.0377041 C38.4442512,60.9045305 38.5919699,62.1622152 39.4587964,62.8468214 C39.487368,62.8693868 39.5165504,62.8911678 39.5463111,62.9121401 L87.3721627,96.6149546 C88.9507957,97.7274153 91.0988364,97.5531194 92.4774648,96.2007014 L150.351916,39.4265547 C151.140425,38.6530376 151.152577,37.3867659 150.37906,36.5982578 C150.366155,36.5851023 150.353068,36.5721258 150.339804,36.5593321 L132.323071,19.1813878 C131.542761,18.4287437 130.304862,18.4348483 129.532013,19.1951519 Z"></path>
        <filter id="filter-30" filterUnits="objectBoundingBox" height="124.8%" width="116.9%" y="-5.8%" x="-8.4%">
            <feOffset result="shadowOffsetOuter1" in="SourceAlpha" dy="6" dx="0"></feOffset>
            <feGaussianBlur result="shadowBlurOuter1" in="shadowOffsetOuter1" stdDeviation="2.5"></feGaussianBlur>
            <feColorMatrix in="shadowBlurOuter1" type="matrix" values="0 0 0 0 0.185966192   0 0 0 0 0.0945260898   0 0 0 0 0.712326271  0 0 0 0.12 0"></feColorMatrix>
        </filter>
        <filter id="filter-31" filterUnits="objectBoundingBox" height="116.1%" width="110.7%" y="-1.5%" x="-5.4%">
            <feGaussianBlur result="shadowBlurInner1" in="SourceAlpha" stdDeviation="1.5"></feGaussianBlur>
            <feOffset result="shadowOffsetInner1" in="shadowBlurInner1" dy="1" dx="0"></feOffset>
            <feComposite result="shadowInnerInner1" k3="1" k2="-1" operator="arithmetic" in2="SourceAlpha" in="shadowOffsetInner1"></feComposite>
            <feColorMatrix in="shadowInnerInner1" type="matrix" values="0 0 0 0 1   0 0 0 0 0.92701575   0 0 0 0 0.591951696  0 0 0 1 0"></feColorMatrix>
        </filter>
    </defs>
    <g fill-rule="evenodd" fill="none" stroke-width="1" stroke="none" id="页面-1">
        <g transform="translate(-932.000000, -4160.000000)" id="勋章">
            <g transform="translate(932.000000, 4160.958043)" id="27.一眼万年">
                <g id="矩形">
                    <mask fill="white" id="mask-3">
                        <use xlink:href="#path-2"></use>
                    </mask>
                    <use xlink:href="#path-2" fill="url(#linearGradient-1)" id="蒙版"></use>
                    <polygon points="-21.275089 61.4694852 100.866578 -33.9580435 140.884574 17.2626555 18.7429069 112.690184" mask="url(#mask-3)" filter="url(#filter-4)" opacity="0.5" fill="#FFFFFF"></polygon>
                </g>
                <g transform="translate(12.000000, 14.000000)" id="矩形-+-矩形-+-矩形-+-矩形蒙版">
                    <mask fill="white" id="mask-7">
                        <use xlink:href="#path-6"></use>
                    </mask>
                    <path d="M77.2936851,4.40136165 C78.9730493,3.4521558 81.0269507,3.4521558 82.7063149,4.40136165 L82.7063149,4.40136165 L154.706315,45.0970138 C155.569455,45.5848754 156.267876,46.2861627 156.750512,47.113353 C157.233149,47.9405432 157.5,48.8936363 157.5,49.8851094 L157.5,49.8851094 L157.5,130.984456 C157.5,131.975929 157.233149,132.929022 156.750512,133.756212 C156.267876,134.583403 155.569455,135.28469 154.706315,135.772551 L154.706315,135.772551 L82.7063149,176.468204 C81.0269507,177.417409 78.9730493,177.417409 77.2936851,176.468204 L77.2936851,176.468204 L5.29368509,135.772551 C4.43054545,135.28469 3.73212418,134.583403 3.24948782,133.756212 C2.76685145,132.929022 2.5,131.975929 2.5,130.984456 L2.5,130.984456 L2.5,49.8851094 C2.5,48.8936363 2.76685145,47.9405432 3.24948782,47.113353 C3.73212418,46.2861627 4.43054545,45.5848754 5.29368509,45.0970138 L5.29368509,45.0970138 Z" stroke-width="5" stroke="url(#linearGradient-5)"></path>
                    <mask fill="white" id="mask-10">
                        <use xlink:href="#path-9"></use>
                    </mask>
                    <use xlink:href="#path-9" fill="url(#linearGradient-8)" id="蒙版"></use>
                    <polygon points="97 5 86.342 77.869 130.204581 18.753788 154.246212 42.7954185 94.888 86.83 168 76 168 110 94.891 99.164 154.246212 143.204581 130.204581 167.246212 86.17 107.889 97 181 63 181 73.792 108.183 29.7954185 167.246212 5.75378798 143.204581 64.581 99.389 -8 110 -8 76 64.578 86.615 5.75378798 42.7954185 29.7954185 18.753788 73.609 77.58 63 5" mask="url(#mask-10)" opacity="0.149999991" fill="#FFFFFF" id="路径"></polygon>
                    <circle r="60.5" cy="80.5" cx="79.5" mask="url(#mask-10)" filter="url(#filter-11)" fill="#4428EE" id="椭圆形"></circle>
                    <g mask="url(#mask-10)" id="编组-16">
                        <g id="矩形" transform="translate(88.000000, 136.803801) scale(-1, 1) translate(-88.000000, -136.803801) translate(19.000000, 93.303801)">
                            <polygon points="62.714873 0.696198857 138 36.4093212 81.0383133 69.6961989 7 30.3940057" fill="url(#linearGradient-12)"></polygon>
                            <polygon points="-4.8316906e-13 25.6099453 81 68.8481007 81 86.6961989 -4.8316906e-13 43.4580435" fill="url(#linearGradient-13)"></polygon>
                            <path fill="url(#linearGradient-14)" d="M81.0307982,67.782172 L138,35.6961989 L138,35.6961989 L138,54.3052034 L82.5657269,84.4680573 C81.1103658,85.259932 79.2886169,84.7220847 78.4967304,83.26673 C78.2740345,82.8574522 78.1497329,82.4019277 78.133678,81.9362626 C78.0933166,80.7655927 78.0731358,79.4954761 78.0731358,78.1259125 C78.0731358,74.8297958 78.7833689,71.6780315 80.2038351,68.6706197 C80.3808073,68.2959609 80.6697688,67.9855095 81.0307982,67.782172 Z"></path>
                            <path fill="url(#linearGradient-15)" d="M83.5237178,71.1277291 L138,39.8609418 L138,49.2646686 L82.7780277,82.6430286 C82.6602476,79.9145659 82.6013575,78.5066938 82.6013575,78.4194123 C82.6013575,76.9103564 82.908811,74.4797953 83.5237178,71.1277291 Z"></path>
                        </g>
                    </g>
                    <g mask="url(#mask-10)" id="编组-18">
                        <g id="矩形" transform="translate(38.000000, 85.000000)">
                            <polygon points="32.6007792 58 122 29 122 42.6076712 32.0498958 71.5511927" fill="url(#linearGradient-16)" stroke="none"></polygon>
                            <path fill="url(#linearGradient-17)" stroke-width="3" stroke="url(#linearGradient-18)" d="M10,37.2323743 L31.162169,58.4183359 C31.4257625,61.7095993 31.5179523,64.2703648 31.4322449,66.1006256 C31.3982848,66.825833 31.3456008,67.5464509 31.2741778,68.2624776 L31.2741778,68.2624776 L10,47.3706962 L10,37.2323743 Z"></path>
                            <polygon points="0 26.9330833 93.6137303 4.12114787e-13 122 28.9848326 32.6007792 58" fill="url(#linearGradient-19)" stroke="none"></polygon>
                        </g>
                    </g>
                    <g mask="url(#mask-10)" id="编组">
                        <g transform="translate(-8.153758, 28.137516)">
                            <path transform="translate(84.917836, 68.702174) rotate(-21.000000) translate(-84.917836, -68.702174)" fill="url(#linearGradient-20)" id="矩形" d="M11.8699231,34.2776033 L134.134891,40.8949294 L134.134891,40.8949294 L160.094609,100.37048 C160.536472,101.382819 160.07401,102.561683 159.06167,103.003546 C158.781783,103.12571 158.477638,103.182158 158.172554,103.16856 L43.4376966,98.0547822 C41.2505626,97.9573008 39.2901437,96.6762928 38.3225953,94.7123917 L9.96774946,37.1585667 C9.47959255,36.1677203 9.88710291,34.9687512 10.8779493,34.4805943 C11.1857222,34.3289649 11.5273274,34.2590611 11.8699231,34.2776033 Z"></path>
                            <path transform="translate(85.966261, 63.802426) rotate(-21.000000) translate(-85.966261, -63.802426)" opacity="0.800000012" fill="url(#linearGradient-21)" id="矩形" d="M12.9183473,29.3778556 L135.183315,35.9951817 L135.183315,35.9951817 L161.143033,95.4707322 C161.584896,96.4830715 161.122434,97.6619354 160.110095,98.1037983 C159.830208,98.2259626 159.526062,98.28241 159.220978,98.2688123 L44.4861208,93.1550345 C42.2989868,93.0575531 40.3385679,91.7765451 39.3710195,89.812644 L11.0161737,32.258819 C10.5280168,31.2679726 10.9355271,30.0690035 11.9263735,29.5808466 C12.2341464,29.4292172 12.5757516,29.3593134 12.9183473,29.3778556 Z"></path>
                            <path transform="translate(85.485482, 63.304104) rotate(-21.000000) translate(-85.485482, -63.304104)" opacity="0.200000003" fill="#9D42CC" id="矩形" d="M12.653058,31.3793421 L137.023693,41.4574924 L158.317906,95.2288652 L103.832654,93.8111479 C102.989272,92.3090952 101.991088,91.537614 100.838101,91.4967045 C99.6851137,91.455795 98.6938294,91.8962127 97.864248,92.8179574 L42.3945234,91.5156874 L12.653058,31.3793421 Z"></path>
                            <path transform="translate(32.542242, 76.114972) rotate(12.000000) translate(-32.542242, -76.114972)" fill="url(#linearGradient-22)" id="矩形" d="M4.5698828,53.4362124 L60.5312071,85.1983659 L60.8646651,98.7937309 L4.21981935,65.1920615 C4.79235726,63.9674234 5.19559325,62.2651756 5.42952733,60.0853182 C5.66346141,57.9054608 5.37691323,55.6890922 4.5698828,53.4362124 Z"></path>
                            <path transform="translate(136.398423, 70.247363) rotate(12.000000) translate(-136.398423, -70.247363)" fill="url(#linearGradient-23)" id="形状结合" d="M162.435724,49.1111466 C161.853148,50.7294118 161.496235,52.6942179 161.364984,55.0055652 C161.233734,57.3169124 161.634621,59.2336709 162.567646,60.7558407 L117.368944,88.7894895 L115.760481,88.036205 C114.916852,87.8012758 114.053332,87.8146523 113.169921,88.0763345 C111.945855,88.4389248 111.058122,89.5413396 110.506723,91.3835791 L110.229199,86.9915277 C111.030135,86.7353193 111.737394,86.5512249 112.350977,86.4392448 L112.305589,86.4198683 C124.903117,74.3304028 134.696515,65.8053269 141.685781,60.8446408 C148.675047,55.8839547 155.591695,51.97279 162.435724,49.1111466 Z"></path>
                            <path transform="translate(82.375731, 92.684736) rotate(12.000000) translate(-82.375731, -92.684736)" fill="url(#linearGradient-24)" id="矩形" d="M57.7921196,96.9075769 C60.8169727,92.6469502 66.6510778,88.5463945 75.2944349,84.6059098 C83.937792,80.6654251 94.4927611,77.7476844 106.959342,75.8526875 C106.062564,76.9519332 105.468613,77.8241318 105.177489,78.4692834 C104.886365,79.114435 104.770641,79.9806362 104.830316,81.067887 L58.5085986,109.516785 L57.7921196,96.9075769 Z"></path>
                            <path transform="translate(60.108281, 64.429983) rotate(12.000000) translate(-60.108281, -64.429983)" fill="#FFF5E7" id="矩形" d="M55.9085203,37.9566867 L112.615469,71.0695891 C98.6655691,73.2289774 88.3653494,75.8399823 81.7148096,78.9026039 C75.0642697,81.9652254 68.8392157,86.2618287 63.0396474,91.7924137 L7.60109269,58.9121669 C14.9269898,52.0825271 23.363073,46.3911008 32.9093425,41.837888 C42.4556119,37.2846752 50.1220045,35.9909414 55.9085203,37.9566867 Z"></path>
                            <path transform="translate(63.038043, 62.826065) rotate(12.000000) translate(-63.038043, -62.826065)" opacity="0.219999999" fill="#C54D94" id="矩形" d="M56.305809,38.5307683 L113.012964,71.6436714 C107.617036,72.5993765 103.688994,73.3233404 101.228839,73.8155634 C94.6973252,75.1223755 87.8223434,76.9363604 82.9982839,79.2788398 C75.4486843,82.9447942 70.7405423,85.7787029 68.873858,87.7805659 L13.063121,55.037204 C17.408854,51.488072 24.3548726,47.4368997 33.901177,42.883687 C43.4474814,38.3304743 50.9156921,36.8795014 56.305809,38.5307683 Z"></path>
                            <path transform="translate(61.716909, 57.648033) rotate(12.000000) translate(-61.716909, -57.648033)" fill="url(#linearGradient-25)" id="矩形" d="M57.9669684,37.0765262 L114.060668,71.2558398 C107.215461,69.3326088 99.5165468,69.2190108 90.9639265,70.9150458 C82.4113062,72.6110809 74.3999192,75.3871228 66.9297656,79.2431716 L9.37315014,46.2552608 C18.9782279,41.3700973 27.3047508,38.2844526 34.3527187,36.9983269 C41.4006866,35.7122012 49.2721032,35.7382676 57.9669684,37.0765262 Z"></path>
                            <path transform="translate(115.309635, 46.368559) rotate(12.000000) translate(-115.309635, -46.368559)" fill="url(#linearGradient-26)" id="矩形备份-7" d="M113.467064,10.5852069 L169.136038,44.0617675 C158.878423,48.4115772 149.437076,54.1869161 140.811996,61.3877844 C132.186917,68.5886527 124.441896,75.5100281 117.576932,82.1519106 L61.4832326,47.972597 C71.6932722,35.8614598 80.4191225,27.744281 87.6607834,23.6210606 C94.9024443,19.4978402 103.504538,15.1525556 113.467064,10.5852069 Z"></path>
                        </g>
                    </g>
                    <path fill-rule="nonzero" fill="url(#linearGradient-27)" id="形状结合" d="M127.409189,17.0780269 L127.526397,17.1298565 L127.741905,17.2411636 L127.766059,17.2508266 L132.278739,19.2206212 L132.117905,19.5151636 L132.890164,19.9163629 L148.254987,34.8630128 C148.266976,34.8746756 148.278818,34.8864884 148.290511,34.8984483 C149.022048,35.6466984 149.047715,36.8225474 148.37683,37.6008079 L148.258568,37.7266951 L90.6628921,94.0359052 C89.3332047,95.3358924 87.2919765,95.5423566 85.7346493,94.5602877 L85.5571732,94.4416921 L41.2355669,63.1013004 L40.013905,61.9461636 L38.9956196,62.1341926 L37.1024004,59.1812994 C36.4954525,58.4980364 36.4302671,57.485314 36.9449169,56.729825 L37.0483223,56.5912004 L50.0284888,40.6571624 L52.0041605,38.1564819 C52.5858411,37.4202273 53.594255,37.1929805 54.4284668,37.5882038 L54.5826934,37.6696305 L54.8842843,37.8459022 L82.3570655,57.831211 C83.0985022,58.3705754 84.1041807,58.3333151 84.8018148,57.7604675 L84.9288716,57.6467922 L126.453309,17.2132533 L126.561102,17.1439373 C126.820443,16.9993659 127.130626,16.9752595 127.409189,17.0780269 Z"></path>
                    <g fill-rule="nonzero" id="路径">
                        <use xlink:href="#path-29" filter="url(#filter-30)" fill-opacity="1" fill="black"></use>
                        <use xlink:href="#path-29" fill="url(#linearGradient-28)"></use>
                        <use xlink:href="#path-29" filter="url(#filter-31)" fill-opacity="1" fill="black"></use>
                    </g>
                </g>
            </g>
        </g>
    </g>
</svg>