<svg xmlns:xlink="http://www.w3.org/1999/xlink" xmlns="http://www.w3.org/2000/svg" version="1.1" viewBox="0 0 184 206" height="206px" width="184px">
    <title>2.初学乍练</title>
    <defs>
        <linearGradient id="linearGradient-1" y2="14.0319111%" x2="22.157416%" y1="88.0621668%" x1="76.7823015%">
            <stop offset="0%" stop-color="#2AAEFF"></stop>
            <stop offset="100%" stop-color="#89F2FF"></stop>
        </linearGradient>
        <path id="path-2" d="M96.9205726,1.29437161 L178.920573,47.6421977 C182.059262,49.4162396 184,52.7424694 184,56.3478261 L184,148.678531 C184,152.283887 182.059262,155.610117 178.920573,157.384159 L96.9205726,203.731985 C93.8671831,205.457814 90.1328169,205.457814 87.0794274,203.731985 L5.07942743,157.384159 C1.94073784,155.610117 0,152.283887 0,148.678531 L0,56.3478261 C0,52.7424694 1.94073784,49.4162396 5.07942743,47.6421977 L87.0794274,1.29437161 C90.1328169,-0.431457204 93.8671831,-0.431457204 96.9205726,1.29437161 Z"></path>
        <filter id="filter-4" filterUnits="objectBoundingBox" height="190.0%" width="181.4%" y="-45.0%" x="-40.7%">
            <feGaussianBlur in="SourceGraphic" stdDeviation="22"></feGaussianBlur>
        </filter>
        <linearGradient id="linearGradient-5" y2="16.3043788%" x2="25.1101777%" y1="93.7769779%" x1="66.712846%">
            <stop offset="0%" stop-color="#8EEEFF"></stop>
            <stop offset="35.879332%" stop-color="#59FF80"></stop>
            <stop offset="100%" stop-color="#2EB1FF"></stop>
        </linearGradient>
        <linearGradient id="linearGradient-6" y2="2.70498442%" x2="50%" y1="103.513333%" x1="50%">
            <stop offset="0%" stop-color="#32B6FF"></stop>
            <stop offset="58.3048901%" stop-color="#009DFC"></stop>
            <stop offset="100%" stop-color="#0280FC"></stop>
        </linearGradient>
        <path id="path-7" d="M93.968229,19.2972485 L164.968229,59.4276832 C166.223705,60.1373 167,61.4677919 167,62.9099346 L167,143.353232 C167,144.795375 166.223705,146.125867 164.968229,146.835484 L93.968229,186.965919 C92.7468732,187.65625 91.2531268,187.65625 90.031771,186.965919 L19.031771,146.835484 C17.7762951,146.125867 17,144.795375 17,143.353232 L17,62.9099346 C17,61.4677919 17.7762951,60.1373 19.031771,59.4276832 L90.031771,19.2972485 C91.2531268,18.6069169 92.7468732,18.6069169 93.968229,19.2972485 Z"></path>
        <filter id="filter-9" filterUnits="objectBoundingBox" height="179.5%" width="191.6%" y="-39.7%" x="-45.8%">
            <feGaussianBlur in="SourceGraphic" stdDeviation="20"></feGaussianBlur>
        </filter>
        <linearGradient id="linearGradient-10" y2="100%" x2="5.80219666%" y1="0%" x1="50%">
            <stop offset="0%" stop-color="#32B8FF"></stop>
            <stop offset="100%" stop-color="#1B70EF"></stop>
        </linearGradient>
        <path id="path-11" d="M36.3530605,59.988903 L65.648531,59.988903 L65.648531,59.988903 L65.648531,100.513178 L27.5480377,100.513178 L28.3554951,67.7915506 C28.4625933,63.4514771 32.0116658,59.988903 36.3530605,59.988903 Z"></path>
        <filter id="filter-12" filterUnits="objectBoundingBox" height="112.3%" width="113.1%" y="-6.2%" x="-6.6%">
            <feGaussianBlur result="shadowBlurInner1" in="SourceAlpha" stdDeviation="1.5"></feGaussianBlur>
            <feOffset result="shadowOffsetInner1" in="shadowBlurInner1" dy="2" dx="2"></feOffset>
            <feComposite result="shadowInnerInner1" k3="1" k2="-1" operator="arithmetic" in2="SourceAlpha" in="shadowOffsetInner1"></feComposite>
            <feColorMatrix in="shadowInnerInner1" type="matrix" values="0 0 0 0 0.317647059   0 0 0 0 0.792156863   0 0 0 0 1  0 0 0 0.702288434 0"></feColorMatrix>
        </filter>
        <linearGradient id="linearGradient-13" y2="24.1129833%" x2="93.5019371%" y1="57.3829171%" x1="21.0538927%">
            <stop offset="0%" stop-color="#A2C8FF"></stop>
            <stop offset="40.4020562%" stop-color="#E1F0FF"></stop>
            <stop offset="72.0431824%" stop-color="#E7FBF1"></stop>
            <stop offset="100%" stop-color="#CDFFDB"></stop>
        </linearGradient>
        <path id="path-14" d="M35.614757,59.988903 L138.525448,59.988903 C140.846073,60.9186629 142.574571,62.1319239 143.71094,63.628686 C145.415494,65.873829 145.767057,67.418278 145.842215,70.329766 C145.892321,72.2707579 145.892321,113.509913 145.842215,194.047232 L43.5593061,194.047232 C43.7137326,119.454746 43.7137326,80.1257178 43.5593061,76.060148 C43.3276663,69.9617933 43.5593061,68.0867437 41.2580892,64.5885817 C39.7239447,62.2564737 37.8428339,60.7232475 35.614757,59.988903 Z"></path>
        <filter id="filter-15" filterUnits="objectBoundingBox" height="104.5%" width="105.4%" y="-2.2%" x="-2.7%">
            <feGaussianBlur result="shadowBlurInner1" in="SourceAlpha" stdDeviation="1.5"></feGaussianBlur>
            <feOffset result="shadowOffsetInner1" in="shadowBlurInner1" dy="3" dx="3"></feOffset>
            <feComposite result="shadowInnerInner1" k3="1" k2="-1" operator="arithmetic" in2="SourceAlpha" in="shadowOffsetInner1"></feComposite>
            <feColorMatrix in="shadowInnerInner1" type="matrix" values="0 0 0 0 0.896236662   0 0 0 0 0.955129367   0 0 0 0 1  0 0 0 1 0"></feColorMatrix>
        </filter>
        <linearGradient id="linearGradient-16" y2="100%" x2="50%" y1="0%" x1="50%">
            <stop offset="0%" stop-color="#A9F2FF"></stop>
            <stop offset="100%" stop-color="#0D86F4"></stop>
        </linearGradient>
        <linearGradient id="linearGradient-17" y2="100%" x2="50%" y1="0%" x1="50%">
            <stop offset="0%" stop-color="#AAF2FF"></stop>
            <stop offset="100%" stop-color="#0C89F7"></stop>
        </linearGradient>
        <linearGradient id="linearGradient-18" y2="85.0209616%" x2="-2.52391475%" y1="33.3877712%" x1="104.52744%">
            <stop offset="0%" stop-color="#289AEF"></stop>
            <stop offset="36.4181818%" stop-color="#1C8AEF"></stop>
            <stop offset="63.7037451%" stop-color="#0066F0"></stop>
            <stop offset="100%" stop-color="#21C272"></stop>
        </linearGradient>
        <path id="path-19" d="M75,166.513178 L75,83.5131784 L58.3581822,83.5131784 L47,91.5850476 L47,109.534197 L58.3581822,102.299955 L58.3581822,162.513178 L75,166.513178 Z M113.5,167.513178 C119.363636,167.513178 125.105114,165.716414 129.014205,162.003101 C132.923295,158.409573 135,154.097339 135,146.670713 L135,103.355643 C135,95.929018 132.923295,91.6167839 129.014205,88.0232554 C125.105114,84.3099427 119.363636,82.5131784 113.5,82.5131784 C107.636364,82.5131784 101.894886,84.3099427 97.9857955,88.0232554 C94.0767045,91.6167839 92,95.929018 92,103.355643 L92,146.670713 C92,154.097339 94.0767045,158.409573 97.9857955,162.003101 C101.894886,165.716414 107.636364,167.513178 113.5,167.513178 Z M114,152.513178 C111.142857,152.513178 109,150.605524 109,146.670988 L109,102.355369 C109,98.4208326 111.142857,96.5131784 114,96.5131784 C116.857143,96.5131784 119,98.4208326 119,102.355369 L119,146.670988 C119,150.605524 116.857143,152.513178 114,152.513178 Z"></path>
        <linearGradient id="linearGradient-20" y2="69.8437137%" x2="18.7057458%" y1="39.7965723%" x1="100%">
            <stop offset="0%" stop-color="#ABFFEA"></stop>
            <stop offset="29.5374006%" stop-color="#72FD98"></stop>
            <stop offset="65.599597%" stop-color="#1EE6CA"></stop>
            <stop offset="100%" stop-color="#3BAEFF"></stop>
        </linearGradient>
        <path id="path-21" d="M79,166.513178 L79,82.5131784 L62.3581822,82.5131784 L51,90.5801624 L51,108.518449 L62.3581822,101.288585 L62.3581822,166.513178 L79,166.513178 Z M118.5,167.513178 C124.363636,167.513178 130.105114,165.717499 134.014205,162.006428 C137.923295,158.415069 140,154.105438 140,146.683295 L140,102.343061 C140,94.9209192 137.923295,90.6112882 134.014205,87.0199291 C130.105114,83.308858 124.363636,81.5131784 118.5,81.5131784 C112.636364,81.5131784 106.894886,83.308858 102.985795,87.0199291 C99.0767045,90.6112882 97,94.9209192 97,102.343061 L97,146.683295 C97,154.105438 99.0767045,158.415069 102.985795,162.006428 C106.894886,165.717499 112.636364,167.513178 118.5,167.513178 Z M119,152.513178 C116.142857,152.513178 114,150.607114 114,146.675855 L114,101.350502 C114,97.4192432 116.142857,95.5131784 119,95.5131784 C121.857143,95.5131784 124,97.4192432 124,101.350502 L124,146.675855 C124,150.607114 121.857143,152.513178 119,152.513178 Z"></path>
        <filter id="filter-22" filterUnits="objectBoundingBox" height="104.7%" width="104.5%" y="-2.3%" x="-2.2%">
            <feGaussianBlur result="shadowBlurInner1" in="SourceAlpha" stdDeviation="1"></feGaussianBlur>
            <feOffset result="shadowOffsetInner1" in="shadowBlurInner1" dy="0" dx="2"></feOffset>
            <feComposite result="shadowInnerInner1" k3="1" k2="-1" operator="arithmetic" in2="SourceAlpha" in="shadowOffsetInner1"></feComposite>
            <feColorMatrix in="shadowInnerInner1" type="matrix" values="0 0 0 0 0.487553592   0 0 0 0 1   0 0 0 0 0.992014788  0 0 0 1 0"></feColorMatrix>
        </filter>
        <linearGradient id="linearGradient-23" y2="60.0643681%" x2="30.3820332%" y1="46.1861952%" x1="49.9606063%">
            <stop offset="0%" stop-color="#8BD7FF"></stop>
            <stop offset="100%" stop-color="#599BFF"></stop>
        </linearGradient>
        <path id="path-24" d="M57.6792975,162.513178 C62.8165945,175.513178 60.2568287,182.013178 50,182.013178 C39.7431713,182.013178 53.7431713,185.691196 92,193.047232 L157,193.047232 L157,162.513178 L57.6792975,162.513178 Z"></path>
        <filter id="filter-25" filterUnits="objectBoundingBox" height="116.4%" width="104.5%" y="-8.2%" x="-2.3%">
            <feGaussianBlur result="shadowBlurInner1" in="SourceAlpha" stdDeviation="2"></feGaussianBlur>
            <feOffset result="shadowOffsetInner1" in="shadowBlurInner1" dy="1" dx="1"></feOffset>
            <feComposite result="shadowInnerInner1" k3="1" k2="-1" operator="arithmetic" in2="SourceAlpha" in="shadowOffsetInner1"></feComposite>
            <feColorMatrix in="shadowInnerInner1" type="matrix" values="0 0 0 0 0.967101158   0 0 0 0 1   0 0 0 0 0.999240796  0 0 0 1 0"></feColorMatrix>
        </filter>
    </defs>
    <g fill-rule="evenodd" fill="none" stroke-width="1" stroke="none" id="页面-1">
        <g transform="translate(-555.000000, -477.000000)" id="勋章">
            <g transform="translate(555.000000, 477.486822)" id="2.初学乍练">
                <mask fill="white" id="mask-3">
                    <use xlink:href="#path-2"></use>
                </mask>
                <use xlink:href="#path-2" fill="url(#linearGradient-1)" id="蒙版"></use>
                <polygon points="-21.275089 59.9826636 100.866578 -35.444865 140.884574 15.7758339 18.7429069 111.203363" mask="url(#mask-3)" filter="url(#filter-4)" opacity="0.400000006" fill="#FFFFFF" id="矩形"></polygon>
                <path mask="url(#mask-3)" fill-rule="nonzero" fill="url(#linearGradient-5)" id="蒙版" d="M95.9364581,14.738133 L167.936458,55.4337851 C170.44741,56.8530187 172,59.5140025 172,62.3982879 L172,143.497634 C172,146.38192 170.44741,149.042903 167.936458,150.462137 L95.9364581,191.157789 C93.4937465,192.538452 90.5062535,192.538452 88.0635419,191.157789 L16.0635419,150.462137 C13.5525903,149.042903 12,146.38192 12,143.497634 L12,62.3982879 C12,59.5140025 13.5525903,56.8530187 16.0635419,55.4337851 L88.0635419,14.738133 C90.5062535,13.3574699 93.4937465,13.3574699 95.9364581,14.738133 Z M93.4761718,19.0909472 C92.6212227,18.6077151 91.5883117,18.5754996 90.7096344,18.9943008 L90.5238282,19.0909472 L18.5238282,59.7865993 C17.6410718,60.2855486 17.0741815,61.1937662 17.0067685,62.1965611 L17,62.3982879 L17,143.497634 C17,144.511641 17.511718,145.452049 18.3515429,146.004169 L18.5238282,146.109323 L90.5238282,186.804975 C91.3787773,187.288207 92.4116883,187.320422 93.2903656,186.901621 L93.4761718,186.804975 L165.476172,146.109323 C166.358928,145.610373 166.925818,144.702156 166.993231,143.699361 L167,143.497634 L167,62.3982879 C167,61.3842813 166.488282,60.4438726 165.648457,59.8917529 L165.476172,59.7865993 L93.4761718,19.0909472 Z"></path>
                <mask fill="white" id="mask-8">
                    <use xlink:href="#path-7"></use>
                </mask>
                <use xlink:href="#path-7" fill="url(#linearGradient-6)" id="蒙版"></use>
                <polygon points="110 15.5131784 99.342 88.3821784 143.204581 29.2669664 167.246212 53.308597 107.888 97.3431784 181 86.5131784 181 120.513178 107.891 109.677178 167.246212 153.71776 143.204581 177.75939 99.17 118.402178 110 191.513178 76 191.513178 86.792 118.696178 42.7954185 177.75939 18.753788 153.71776 77.581 109.902178 5 120.513178 5 86.5131784 77.578 97.1281784 18.753788 53.308597 42.7954185 29.2669664 86.609 88.0931784 76 15.5131784" mask="url(#mask-8)" opacity="0.179999992" fill="#FFFFFF" id="路径"></polygon>
                <path mask="url(#mask-8)" filter="url(#filter-9)" fill="#0A4CDF" id="椭圆形" d="M92.5,183.013178 C128.674651,183.013178 158,143.68783 158,107.513178 C158,71.3385273 128.674651,32.0131784 92.5,32.0131784 C56.3253489,32.0131784 27,71.3385273 27,107.513178 C27,143.68783 56.3253489,183.013178 92.5,183.013178 Z"></path>
                <g mask="url(#mask-8)" id="矩形">
                    <use xlink:href="#path-11" fill-rule="evenodd" fill="url(#linearGradient-10)"></use>
                    <use xlink:href="#path-11" filter="url(#filter-12)" fill-opacity="1" fill="black"></use>
                </g>
                <g mask="url(#mask-8)" id="矩形">
                    <use xlink:href="#path-14" fill-rule="evenodd" fill="url(#linearGradient-13)"></use>
                    <use xlink:href="#path-14" filter="url(#filter-15)" fill-opacity="1" fill="black"></use>
                </g>
                <path mask="url(#mask-8)" opacity="0.100000001" fill="url(#linearGradient-16)" id="矩形" d="M56,81.5131784 L110,81.5131784 C111.656854,81.5131784 113,82.8563242 113,84.5131784 C113,86.1700327 111.656854,87.5131784 110,87.5131784 L56,87.5131784 C54.3431458,87.5131784 53,86.1700327 53,84.5131784 C53,82.8563242 54.3431458,81.5131784 56,81.5131784 Z"></path>
                <path mask="url(#mask-8)" opacity="0.200000003" fill="url(#linearGradient-17)" id="矩形" d="M56,69.5131784 L128,69.5131784 C129.656854,69.5131784 131,70.8563242 131,72.5131784 C131,74.1700327 129.656854,75.5131784 128,75.5131784 L56,75.5131784 C54.3431458,75.5131784 53,74.1700327 53,72.5131784 C53,70.8563242 54.3431458,69.5131784 56,69.5131784 Z"></path>
                <g mask="url(#mask-8)" fill-rule="nonzero" opacity="0.900000036" id="10">
                    <use xlink:href="#path-19" fill="#077EF6"></use>
                    <use xlink:href="#path-19" fill="url(#linearGradient-18)"></use>
                </g>
                <g mask="url(#mask-8)" fill-rule="nonzero" id="10">
                    <use xlink:href="#path-21" fill="#077EF6"></use>
                    <use xlink:href="#path-21" fill="url(#linearGradient-20)"></use>
                    <use xlink:href="#path-21" filter="url(#filter-22)" fill-opacity="1" fill="black"></use>
                </g>
                <g mask="url(#mask-8)" id="路径-6">
                    <use xlink:href="#path-24" fill-rule="evenodd" fill="url(#linearGradient-23)"></use>
                    <use xlink:href="#path-24" filter="url(#filter-25)" fill-opacity="1" fill="black"></use>
                </g>
            </g>
        </g>
    </g>
</svg>