<svg xmlns:xlink="http://www.w3.org/1999/xlink" xmlns="http://www.w3.org/2000/svg" version="1.1" viewBox="0 0 184 209" height="209px" width="184px">
    <title>22.初见码名</title>
    <defs>
        <linearGradient id="linearGradient-1" y2="14.0319111%" x2="22.157416%" y1="88.0621668%" x1="76.7823015%">
            <stop offset="0%" stop-color="#FFAA00"></stop>
            <stop offset="100%" stop-color="#FFEC45"></stop>
        </linearGradient>
        <path id="path-2" d="M96.9205726,2.78119319 L178.920573,49.1290193 C182.059262,50.9030612 184,54.2292909 184,57.8346477 L184,150.165352 C184,153.770709 182.059262,157.096939 178.920573,158.870981 L96.9205726,205.218807 C93.8671831,206.944636 90.1328169,206.944636 87.0794274,205.218807 L5.07942743,158.870981 C1.94073784,157.096939 0,153.770709 0,150.165352 L0,57.8346477 C0,54.2292909 1.94073784,50.9030612 5.07942743,49.1290193 L87.0794274,2.78119319 C90.1328169,1.05536437 93.8671831,1.05536437 96.9205726,2.78119319 Z"></path>
        <filter id="filter-4" filterUnits="objectBoundingBox" height="190.0%" width="181.4%" y="-45.0%" x="-40.7%">
            <feGaussianBlur in="SourceGraphic" stdDeviation="22"></feGaussianBlur>
        </filter>
        <linearGradient id="linearGradient-5" y2="18.1691683%" x2="23.9600092%" y1="84.7725295%" x1="85.4955967%">
            <stop offset="0%" stop-color="#FEE464"></stop>
            <stop offset="45.0170647%" stop-color="#FFAA11"></stop>
            <stop offset="100%" stop-color="#FF9413"></stop>
        </linearGradient>
        <linearGradient id="linearGradient-6" y2="2.70498442%" x2="50%" y1="113.506108%" x1="50.3496363%">
            <stop offset="0%" stop-color="#FFE658"></stop>
            <stop offset="50.4971665%" stop-color="#F09715"></stop>
            <stop offset="100%" stop-color="#EA6E14"></stop>
            <stop offset="100%" stop-color="#F46701"></stop>
        </linearGradient>
        <path id="path-7" d="M88.8953258,6.11247728 L159.895326,46.2429121 C161.150802,46.9525288 161.927097,48.2830207 161.927097,49.7251634 L161.927097,130.168461 C161.927097,131.610604 161.150802,132.941096 159.895326,133.650713 L88.8953258,173.781147 C87.6739701,174.471479 86.1802236,174.471479 84.9588678,173.781147 L13.9588678,133.650713 C12.703392,132.941096 11.9270968,131.610604 11.9270968,130.168461 L11.9270968,49.7251634 C11.9270968,48.2830207 12.703392,46.9525288 13.9588678,46.2429121 L84.9588678,6.11247728 C86.1802236,5.42214575 87.6739701,5.42214575 88.8953258,6.11247728 Z"></path>
        <linearGradient id="linearGradient-9" y2="21.1507782%" x2="47.4906482%" y1="95.5433412%" x1="34.0999993%">
            <stop offset="0%" stop-color="#F03E1B"></stop>
            <stop offset="100%" stop-color="#FDA406"></stop>
        </linearGradient>
        <linearGradient id="linearGradient-10" y2="71.0698553%" x2="43.7343045%" y1="25.3754558%" x1="78.7014009%">
            <stop offset="0%" stop-color="#EE331D"></stop>
            <stop offset="79.6382995%" stop-color="#FDB43C"></stop>
            <stop offset="100%" stop-color="#FEDB57"></stop>
        </linearGradient>
        <linearGradient id="linearGradient-11" y2="77.3266532%" x2="29.3333614%" y1="19.9372266%" x1="58.2023215%">
            <stop offset="0%" stop-color="#FEDB57"></stop>
            <stop offset="28.357934%" stop-color="#FA9D35"></stop>
            <stop offset="100%" stop-color="#EF421B"></stop>
        </linearGradient>
        <linearGradient id="linearGradient-12" y2="23.8937268%" x2="75.3653299%" y1="99.5316621%" x1="38.6947425%">
            <stop offset="0%" stop-color="#FFEB9D"></stop>
            <stop offset="100%" stop-color="#FFF3D4"></stop>
        </linearGradient>
        <linearGradient id="linearGradient-13" y2="100%" x2="53.9295659%" y1="-13.0666327%" x1="58.866481%">
            <stop offset="0%" stop-color="#F56012"></stop>
            <stop offset="100%" stop-color="#FFC13D"></stop>
        </linearGradient>
        <ellipse ry="43" rx="42.875" cy="48.9580435" cx="43.0358852" id="path-14"></ellipse>
        <linearGradient id="linearGradient-16" y2="100%" x2="50%" y1="11.8330453%" x1="50%">
            <stop offset="0%" stop-color="#FFB31E"></stop>
            <stop offset="100%" stop-color="#EE461D"></stop>
        </linearGradient>
        <filter id="filter-17" filterUnits="objectBoundingBox" height="123.5%" width="123.2%" y="-11.8%" x="-11.6%">
            <feOffset result="shadowOffsetOuter1" in="SourceAlpha" dy="4" dx="0"></feOffset>
            <feColorMatrix result="shadowMatrixOuter1" in="shadowOffsetOuter1" type="matrix" values="0 0 0 0 0.879746368   0 0 0 0 0.188521131   0 0 0 0 0.087179944  0 0 0 0.8 0"></feColorMatrix>
            <feMerge>
                <feMergeNode in="shadowMatrixOuter1"></feMergeNode>
                <feMergeNode in="SourceGraphic"></feMergeNode>
            </feMerge>
        </filter>
        <linearGradient id="linearGradient-18" y2="112.739324%" x2="54.5289644%" y1="-25.2815466%" x1="63.8114135%">
            <stop offset="0%" stop-color="#FFEEA0"></stop>
            <stop offset="48.7506755%" stop-color="#FFD22B"></stop>
            <stop offset="100%" stop-color="#FF5235"></stop>
            <stop offset="100%" stop-color="#FF5235"></stop>
        </linearGradient>
        <path id="path-19" d="M8.47412232,0 L14,0 C16.7614237,-5.07265313e-16 19,2.23857625 19,5 L19,39 C19,41.7614237 16.7614237,44 14,44 L5.46246731,44 C2.70104356,44 0.462467312,41.7614237 0.462467312,39 C0.462467312,38.8527302 0.468973828,38.7055323 0.481967829,38.5588369 L3.49362284,4.55883688 C3.72218512,1.97848902 5.88367144,4.91675021e-15 8.47412232,0 Z"></path>
        <linearGradient id="linearGradient-21" y2="111.119683%" x2="50%" y1="0%" x1="50%">
            <stop offset="0%" stop-color="#FFEF7A"></stop>
            <stop offset="100%" stop-color="#F72714"></stop>
        </linearGradient>
        <linearGradient id="linearGradient-22" y2="93.3867576%" x2="50%" y1="10.0377026%" x1="52.1845241%">
            <stop offset="0%" stop-color="#FFD63B"></stop>
            <stop offset="100%" stop-color="#F8352D"></stop>
        </linearGradient>
        <linearGradient id="linearGradient-23" y2="77.8558025%" x2="67.2280608%" y1="13.6307987%" x1="30.7562063%">
            <stop offset="0%" stop-color="#FFF6D3"></stop>
            <stop offset="44.8894713%" stop-color="#FFF8BB"></stop>
            <stop offset="78.4404499%" stop-color="#FFECA6"></stop>
            <stop offset="100%" stop-color="#FFEA81"></stop>
        </linearGradient>
        <path id="path-24" d="M18.6895548,0.958043461 C22.1864682,0.958043461 25.0212766,3.79285188 25.0212766,7.28976529 L25.0212766,17.2224094 C25.0212766,17.3502491 25.0174417,17.4771932 25.0098805,17.6031328 C25.0109193,19.1575007 25.0132879,20.8822843 25.0162774,22.775877 C25.0188901,24.4308852 26.361273,25.7711504 28.0162832,25.7711408 L28.0162832,25.7711408 L42.5123328,25.7711408 C45.2583903,25.7711408 47.4845107,28.4555947 47.4844647,31.1356258 C47.4844647,33.8157153 45.2583443,35.9883583 42.512287,35.9883582 L42.512287,35.9883582 L38.9391831,35.9886903 C39.9563331,35.9927936 42.3857631,36.0370127 43.7553366,36.235847 C46.722482,36.6653174 48.7275145,38.1202164 48.7275145,41.1446811 C48.7275145,43.8247707 46.5013941,45.9974137 43.7553367,45.9974135 L43.7553367,45.9974135 L40.0262084,45.9974135 C42.7722659,45.9974135 44.9983861,48.4575433 44.9983863,51.1376328 C44.9983863,53.8177224 42.7722659,55.990365 40.0262081,55.9903652 L40.0262081,55.9903652 L36.2970797,55.9903652 C39.0431372,55.9903652 41.2692575,58.4252215 41.2692577,61.1053111 C41.2692577,63.7854006 39.0431372,65.9580435 36.2970795,65.9580435 L36.2970795,65.9580435 L0.248791103,65.9580435 L0.248791103,27.1361976 L2.73910426,27.1367618 C2.90753166,27.1586932 8.06794709,27.7810838 10.9202482,22.106059 C11.7857863,20.383958 12.2062584,18.0792539 12.3588121,15.0006648 L12.3578329,7.28976529 C12.3578329,3.79285188 15.1926414,0.958043461 18.6895548,0.958043461 Z"></path>
        <filter id="filter-26" filterUnits="objectBoundingBox" height="109.2%" width="112.4%" y="-4.6%" x="-6.2%">
            <feOffset result="shadowOffsetInner1" in="SourceAlpha" dy="4" dx="6"></feOffset>
            <feComposite result="shadowInnerInner1" k3="1" k2="-1" operator="arithmetic" in2="SourceAlpha" in="shadowOffsetInner1"></feComposite>
            <feColorMatrix in="shadowInnerInner1" type="matrix" values="0 0 0 0 1   0 0 0 0 1   0 0 0 0 1  0 0 0 0.5 0"></feColorMatrix>
        </filter>
        <linearGradient id="linearGradient-27" y2="85.839638%" x2="28.0133577%" y1="66.608451%" x1="45.4307283%">
            <stop offset="0%" stop-color="#FFECA6"></stop>
            <stop offset="100%" stop-color="#FF9020"></stop>
        </linearGradient>
        <linearGradient id="linearGradient-28" y2="100%" x2="50%" y1="0%" x1="50%">
            <stop offset="0%" stop-color="#FFCF52"></stop>
            <stop offset="100%" stop-color="#FA872D"></stop>
        </linearGradient>
        <linearGradient id="linearGradient-29" y2="93.0250903%" x2="50%" y1="11.6361679%" x1="50%">
            <stop offset="0%" stop-opacity="0" stop-color="#FEA019"></stop>
            <stop offset="100%" stop-color="#F53611"></stop>
        </linearGradient>
    </defs>
    <g fill-rule="evenodd" fill="none" stroke-width="1" stroke="none" id="页面-1">
        <g transform="translate(-199.000000, -3365.000000)" id="勋章">
            <g transform="translate(199.000000, 3365.958043)" id="22.初见码名">
                <g id="矩形">
                    <mask fill="white" id="mask-3">
                        <use xlink:href="#path-2"></use>
                    </mask>
                    <use xlink:href="#path-2" fill="url(#linearGradient-1)" id="蒙版"></use>
                    <polygon points="-21.275089 61.4694852 100.866578 -33.9580435 140.884574 17.2626555 18.7429069 112.690184" mask="url(#mask-3)" filter="url(#filter-4)" opacity="0.400000006" fill="#FFFFFF"></polygon>
                </g>
                <g transform="translate(5.072903, 14.000000)" id="矩形-+-矩形-+-矩形-+-矩形蒙版">
                    <path fill-rule="nonzero" fill="url(#linearGradient-5)" id="蒙版" d="M90.8635549,2.22495455 L162.863555,42.9206067 C165.374507,44.3398403 166.927097,47.0008241 166.927097,49.8851094 L166.927097,130.984456 C166.927097,133.868741 165.374507,136.529725 162.863555,137.948958 L90.8635549,178.644611 C88.4208433,180.025274 85.4333503,180.025274 82.9906388,178.644611 L10.9906388,137.948958 C8.4796871,136.529725 6.92709682,133.868741 6.92709682,130.984456 L6.92709682,49.8851094 C6.92709682,47.0008241 8.4796871,44.3398403 10.9906388,42.9206067 L82.9906388,2.22495455 C85.4333503,0.844291498 88.4208433,0.844291498 90.8635549,2.22495455 Z M88.4032686,6.57776875 C87.5483195,6.09453668 86.5154086,6.06232121 85.6367313,6.48112233 L85.4509251,6.57776875 L13.4509251,47.2734209 C12.5681686,47.7723702 12.0012783,48.6805878 11.9338653,49.6833827 L11.9270968,49.8851094 L11.9270968,130.984456 C11.9270968,131.998462 12.4388148,132.938871 13.2786397,133.490991 L13.4509251,133.596144 L85.4509251,174.291796 C86.3058741,174.775029 87.3387851,174.807244 88.2174624,174.388443 L88.4032686,174.291796 L160.403269,133.596144 C161.286025,133.097195 161.852915,132.188977 161.920328,131.186183 L161.927097,130.984456 L161.927097,49.8851094 C161.927097,48.8711029 161.415379,47.9306942 160.575554,47.3785744 L160.403269,47.2734209 L88.4032686,6.57776875 Z"></path>
                    <mask fill="white" id="mask-8">
                        <use xlink:href="#path-7"></use>
                    </mask>
                    <use xlink:href="#path-7" fill="url(#linearGradient-6)" id="蒙版"></use>
                    <polygon points="104.927097 3 94.2690968 75.869 138.131678 16.753788 162.173309 40.7954185 102.815097 84.83 175.927097 74 175.927097 108 102.818097 97.164 162.173309 141.204581 138.131678 165.246212 92.8330968 97.354 104.927097 179 70.9270968 179 81.7190968 106.183 37.7225154 165.246212 13.6808848 141.204581 72.5080968 97.389 -0.0729031782 108 -0.0729031782 74 81.4230968 85.919 11.9270968 42.309163 37.7225154 16.753788 81.5360968 75.58 70.9270968 3" mask="url(#mask-8)" opacity="0.219999999" fill="#FFFFFF" id="路径"></polygon>
                    <path mask="url(#mask-8)" fill="url(#linearGradient-9)" id="矩形" d="M29.6705942,71.2041234 C42.6575547,65.0602162 51.5193332,60.2872985 56.2559297,56.8853703 C61.1015159,53.4051632 68.959248,45.931743 79.8291257,34.4651096 C83.628678,30.456962 89.9580694,30.2878622 93.9662169,34.0874146 C94.0107123,34.1295943 94.0548188,34.1721823 94.0985309,34.2151732 C106.532074,46.4435915 114.690198,54.0003239 118.572904,56.8853703 C122.402569,59.7310045 131.517974,64.726824 145.919119,71.8728291 L145.91912,71.8728287 C150.86638,74.3277134 152.88685,80.3283378 150.431966,85.2755984 C150.387655,85.3648966 150.342011,85.4535271 150.29505,85.5414604 C142.217741,100.666008 137.598401,109.981828 136.437031,113.488919 C135.258429,117.048047 133.240096,127.915112 130.382032,146.090114 C129.524094,151.545917 124.405795,155.273223 118.949991,154.415285 C118.940975,154.413867 118.931961,154.412437 118.922949,154.410994 L88.2148161,149.495867 C87.7004283,149.413534 87.1763337,149.412093 86.6615009,149.491596 L55.0216119,154.377562 C49.5634608,155.220432 44.4554732,151.479009 43.6126024,146.020857 C43.5854381,145.84495 43.5629751,145.668349 43.5452375,145.491243 C41.9913957,129.976466 40.3100051,119.309025 38.5010656,113.488919 C36.7055616,107.712041 32.2515902,98.2086478 25.1391512,84.9787393 C22.5240082,80.1142895 24.3474317,74.0508816 29.2118815,71.4357386 C29.3627765,71.354617 29.5157312,71.2773864 29.6705942,71.2041234 Z"></path>
                    <polygon points="51.5992333 8 84.8904072 18 53.7346209 68.3012523 2.92709682 46.4765541" transform="translate(43.908752, 38.150626) scale(-1, 1) rotate(-174.000000) translate(-43.908752, -38.150626)" fill="url(#linearGradient-10)" id="矩形"></polygon>
                    <polygon points="122.631411 8.99551977 168.612771 28.6779217 117.835666 75.6228061 90.1893705 57.4024238" transform="translate(129.401071, 42.309163) rotate(6.000000) translate(-129.401071, -42.309163)" fill="url(#linearGradient-11)" id="矩形"></polygon>
                    <path fill="url(#linearGradient-12)" id="矩形" d="M29.6705942,62.2041234 C42.6575547,56.0602162 51.5193332,51.2872985 56.2559297,47.8853703 C61.1015159,44.4051632 68.959248,36.931743 79.8291257,25.4651096 C83.628678,21.456962 89.9580694,21.2878622 93.9662169,25.0874146 C94.0107123,25.1295943 94.0548188,25.1721823 94.0985309,25.2151732 C106.532074,37.4435915 114.690198,45.0003239 118.572904,47.8853703 C122.402569,50.7310045 131.517974,55.726824 145.919119,62.8728291 L145.91912,62.8728287 C150.86638,65.3277134 152.88685,71.3283378 150.431966,76.2755984 C150.387655,76.3648966 150.342011,76.4535271 150.29505,76.5414604 C142.217741,91.6660084 137.598401,100.981828 136.437031,104.488919 C135.258429,108.048047 133.240096,118.915112 130.382032,137.090114 C129.524094,142.545917 124.405795,146.273223 118.949991,145.415285 C118.940975,145.413867 118.931961,145.412437 118.922949,145.410994 L88.2148161,140.495867 C87.7004283,140.413534 87.1763337,140.412093 86.6615009,140.491596 L55.0216119,145.377562 C49.5634608,146.220432 44.4554732,142.479009 43.6126024,137.020857 C43.5854381,136.84495 43.5629751,136.668349 43.5452375,136.491243 C41.9913957,120.976466 40.3100051,110.309025 38.5010656,104.488919 C36.7055616,98.712041 32.2515902,89.2086478 25.1391512,75.9787393 C22.5240082,71.1142895 24.3474317,65.0508816 29.2118815,62.4357386 C29.3627765,62.354617 29.5157312,62.2773864 29.6705942,62.2041234 Z"></path>
                    <g transform="translate(43.891212, 44.041957)" id="椭圆形">
                        <mask fill="white" id="mask-15">
                            <use xlink:href="#path-14"></use>
                        </mask>
                        <use xlink:href="#path-14" opacity="0.699999988" fill="url(#linearGradient-13)" id="蒙版"></use>
                        <ellipse ry="43" rx="42.875" cy="43.9580435" cx="43.0358852" fill="url(#linearGradient-16)"></ellipse>
                    </g>
                    <g transform="translate(54.927097, 48.041957)" filter="url(#filter-17)" id="赞">
                        <g transform="translate(0.000000, 23.958043)" id="路径">
                            <mask fill="white" id="mask-20">
                                <use xlink:href="#path-19"></use>
                            </mask>
                            <use xlink:href="#path-19" fill-rule="nonzero" fill="url(#linearGradient-18)" id="蒙版"></use>
                            <path mask="url(#mask-20)" fill-rule="nonzero" fill="url(#linearGradient-21)" id="蒙版" d="M14,-4.54747351e-13 C16.7614237,-4.54747351e-13 19,2.23857625 19,5 L19,39 C19,41.7614237 16.7614237,44 14,44 L5.46246731,44 C2.70104356,44 0.462467312,41.7614237 0.462467312,39 C0.462467312,38.8527302 0.468973828,38.7055323 0.481967829,38.5588369 L3.49362284,4.55883688 C3.72218512,1.97848902 5.88367144,-4.54747351e-13 8.47412232,-4.54747351e-13 L14,-4.54747351e-13 Z M14,2 L8.47412232,2 C6.97963143,2 5.72310165,3.09753459 5.50674167,4.55831224 L5.48582263,4.73530213 L2.47416762,38.7353021 C2.46637122,38.8233194 2.46246731,38.9116381 2.46246731,39 C2.46246731,40.5976809 3.71138728,41.9036609 5.28619452,41.9949073 L5.46246731,42 L14,42 C15.5976809,42 16.9036609,40.75108 16.9949073,39.1762728 L17,39 L17,5 C17,3.40231912 15.75108,2.09633912 14.1762728,2.00509269 L14,2 Z"></path>
                            <rect height="8.18604651" width="19.4871795" y="37.3488372" x="4.38461538" mask="url(#mask-20)" opacity="0.800000012" fill="#F25215" id="矩形"></rect>
                            <polygon points="3.41025641 -3.58139535 8.28205128 -3.58139535 4.87179487 38.372093 -0.487179487 38.372093" mask="url(#mask-20)" opacity="0.600000024" fill="url(#linearGradient-22)" id="矩形"></polygon>
                        </g>
                        <g transform="translate(20.000000, 0.000000)" id="椭圆形">
                            <mask fill="white" id="mask-25">
                                <use xlink:href="#path-24"></use>
                            </mask>
                            <g fill-rule="nonzero" id="形状结合">
                                <use xlink:href="#path-24" fill="url(#linearGradient-23)"></use>
                                <use xlink:href="#path-24" filter="url(#filter-26)" fill-opacity="1" fill="black"></use>
                            </g>
                            <path mask="url(#mask-25)" fill="url(#linearGradient-27)" id="路径-26" d="M1.71361684,26.9058822 C2.86067099,28.4459581 3.43844094,29.2115613 3.4469267,29.2026917 C3.13179099,46.7224974 6.2278181,56.3995374 11.7947462,58.9346941 C17.5941972,61.5757407 27.2415909,63.9168572 40.7369273,65.9580435 L-4.49506657,75.9942553 L-6.46899559,34.4816655 L-1.93862059,24.5013505 L1.71361684,26.9058822 Z"></path>
                        </g>
                        <path fill-rule="nonzero" fill="url(#linearGradient-28)" id="形状" d="M49.7624641,34.9580435 C49.0857982,34.9580435 48.5372504,35.5191808 48.5372504,36.2113782 C48.5372504,36.903575 49.0857975,37.464713 49.7624641,37.464713 L67,37.464713 C66.3041782,36.8855823 65.1774914,36.4099213 64.1721502,36.2113796 C62.4175919,35.8648774 59.2260512,36.2113789 58.3389929,36.2113796 L61.9709994,36.0975889 C63.1545834,36.0939994 64.3397704,35.762084 65.2246979,34.9580435 L49.7624641,34.9580435 Z M49.7487204,44.9847217 C49.0796449,44.9847217 48.5372504,45.545859 48.5372504,46.2380564 C48.5372504,46.9302531 49.0796443,47.491391 49.7487205,47.491391 L63.8902399,47.7472237 C63.5001202,47.180693 62.2002489,45.5916678 60.7805455,46.2380564 L63.0749243,46.2380566 C64.2452318,46.2344671 65.3739792,45.7191608 66.2489802,44.9151217 L49.7487204,44.9847217 Z M47.2261086,54.4513742 C46.5489484,54.4513742 46,55.0125114 46,55.7047088 C46,56.3969055 46.5489478,56.9580435 47.2261086,56.9580435 L59.9078544,56.9580435 C58.8380115,55.9115432 58.192082,55.44624 56.861845,55.7047091 L59.4872089,55.7047091 C60.6716575,55.7011196 61.8427394,55.2554133 62.7283133,54.4513742 L47.2261086,54.4513742 Z"></path>
                    </g>
                    <path opacity="0.600000024" fill="url(#linearGradient-29)" id="路径-3" d="M12.9270968,134.005744 L84.2718135,173.929373 C86.0886856,174.946072 88.3027472,174.948223 90.1215909,173.935055 L159.120355,135.5 L159.120355,135.5 L159.120355,120.945284 L13.6808848,118.806367 L12.9270968,134.005744 Z"></path>
                </g>
            </g>
        </g>
    </g>
</svg>