<svg xmlns:xlink="http://www.w3.org/1999/xlink" xmlns="http://www.w3.org/2000/svg" version="1.1" viewBox="0 0 184 206" height="206px" width="184px">
    <title>5.博闻强识</title>
    <defs>
        <linearGradient id="linearGradient-1" y2="12.7274735%" x2="25.2178103%" y1="84.7046849%" x1="79.8436889%">
            <stop offset="0%" stop-color="#5F57FF"></stop>
            <stop offset="100%" stop-color="#9190FF"></stop>
        </linearGradient>
        <path id="path-2" d="M96.9205726,1.29437161 L178.920573,47.6421977 C182.059262,49.4162396 184,52.7424694 184,56.3478261 L184,148.678531 C184,152.283887 182.059262,155.610117 178.920573,157.384159 L96.9205726,203.731985 C93.8671831,205.457814 90.1328169,205.457814 87.0794274,203.731985 L5.07942743,157.384159 C1.94073784,155.610117 0,152.283887 0,148.678531 L0,56.3478261 C0,52.7424694 1.94073784,49.4162396 5.07942743,47.6421977 L87.0794274,1.29437161 C90.1328169,-0.431457204 93.8671831,-0.431457204 96.9205726,1.29437161 Z"></path>
        <filter id="filter-4" filterUnits="objectBoundingBox" height="190.0%" width="181.4%" y="-45.0%" x="-40.7%">
            <feGaussianBlur in="SourceGraphic" stdDeviation="22"></feGaussianBlur>
        </filter>
        <linearGradient id="linearGradient-5" y2="13.0023533%" x2="25.2720595%" y1="88.8600417%" x1="73.8665507%">
            <stop offset="0%" stop-color="#937FFF"></stop>
            <stop offset="28.2501697%" stop-color="#C692FF"></stop>
            <stop offset="61.0015848%" stop-color="#9D52FD"></stop>
            <stop offset="100%" stop-color="#6B63FF"></stop>
        </linearGradient>
        <linearGradient id="linearGradient-6" y2="1.06830038%" x2="50.322674%" y1="90.384724%" x1="77.3001909%">
            <stop offset="0%" stop-color="#4048FE"></stop>
            <stop offset="52.1722689%" stop-color="#8056E0"></stop>
            <stop offset="100%" stop-color="#6240DD"></stop>
        </linearGradient>
        <path id="path-7" d="M81.968229,6.11247728 L152.97367,46.2459872 C154.22624,46.9539619 155.002073,48.2801059 155.00543,49.7189074 L155.195024,130.992192 C155.197555,132.077412 154.613805,133.079394 153.668498,133.612407 L81.4790512,174.316534 C80.5614098,174.833947 79.439619,174.83213 78.5236591,174.311745 L7.02409818,133.690688 C5.77293242,132.979863 5,131.651773 5,130.212785 L5,49.7251634 C5,48.2830207 5.77629514,46.9525288 7.03177097,46.2429121 L78.031771,6.11247728 C79.2531268,5.42214575 80.7468732,5.42214575 81.968229,6.11247728 Z"></path>
        <filter id="filter-9" filterUnits="objectBoundingBox" height="225.0%" width="225.0%" y="-62.5%" x="-62.5%">
            <feGaussianBlur in="SourceGraphic" stdDeviation="20"></feGaussianBlur>
        </filter>
        <linearGradient id="linearGradient-10" y2="47.1673501%" x2="5.81669089%" y1="46.4658816%" x1="100%">
            <stop offset="0%" stop-color="#86FDFF"></stop>
            <stop offset="28.9795013%" stop-color="#62FFEC"></stop>
            <stop offset="65.5913348%" stop-color="#4BD9F8"></stop>
            <stop offset="100%" stop-color="#49C0F6"></stop>
        </linearGradient>
        <linearGradient id="linearGradient-11" y2="99.1108501%" x2="50%" y1="0%" x1="50%">
            <stop offset="0%" stop-color="#85E7FF"></stop>
            <stop offset="100%" stop-color="#6895FF"></stop>
        </linearGradient>
        <linearGradient id="linearGradient-12" y2="49.9946899%" x2="0.267191742%" y1="48.1508477%" x1="93.0449969%">
            <stop offset="0%" stop-color="#F1FAFF"></stop>
            <stop offset="100%" stop-color="#F9F5FF"></stop>
        </linearGradient>
        <linearGradient id="linearGradient-13" y2="0%" x2="0%" y1="0%" x1="105.15356%">
            <stop offset="0%" stop-opacity="0.103618062" stop-color="#FFFFFF"></stop>
            <stop offset="100%" stop-color="#6161E3"></stop>
        </linearGradient>
        <linearGradient id="linearGradient-14" y2="85.5652257%" x2="30.4996152%" y1="23.2586654%" x1="53.1352989%">
            <stop offset="0%" stop-color="#D8FDFF"></stop>
            <stop offset="18.8178543%" stop-color="#C2FCFF"></stop>
            <stop offset="100%" stop-color="#BFF6FF"></stop>
        </linearGradient>
        <linearGradient id="linearGradient-15" y2="98.113456%" x2="21.0293535%" y1="1.42108547e-12%" x1="97.0266979%">
            <stop offset="0%" stop-color="#AAFBFF"></stop>
            <stop offset="25.6611012%" stop-color="#E8FEFF"></stop>
            <stop offset="60.8734771%" stop-color="#6DA2FF"></stop>
            <stop offset="100%" stop-color="#59D2DA"></stop>
        </linearGradient>
        <linearGradient id="linearGradient-16" y2="72.1091033%" x2="100%" y1="28.9119396%" x1="15.7497249%">
            <stop offset="0%" stop-color="#5598F0"></stop>
            <stop offset="66.0930287%" stop-color="#309BC5"></stop>
            <stop offset="100%" stop-color="#2B26B5"></stop>
        </linearGradient>
        <linearGradient id="linearGradient-17" y2="64.8760331%" x2="85.616788%" y1="35.1239669%" x1="38.2024592%">
            <stop offset="0%" stop-color="#68AFFF"></stop>
            <stop offset="100%" stop-color="#2E6DBF"></stop>
        </linearGradient>
        <linearGradient id="linearGradient-18" y2="99.674593%" x2="50%" y1="0.961308818%" x1="50%">
            <stop offset="0%" stop-color="#46A2CC"></stop>
            <stop offset="100%" stop-color="#BBF7E9"></stop>
        </linearGradient>
        <linearGradient id="linearGradient-19" y2="65.2244544%" x2="14.7220062%" y1="38.9452823%" x1="70.1294722%">
            <stop offset="0%" stop-color="#FCCBE6"></stop>
            <stop offset="43.5022064%" stop-color="#FFF1F7"></stop>
            <stop offset="68.6972132%" stop-color="#599FCF"></stop>
            <stop offset="100%" stop-color="#545DD9"></stop>
        </linearGradient>
        <linearGradient id="linearGradient-20" y2="66.5916013%" x2="10.0564937%" y1="43.4367887%" x1="100%">
            <stop offset="0%" stop-color="#A4C7E0"></stop>
            <stop offset="49.2172829%" stop-color="#4A94D8"></stop>
            <stop offset="100%" stop-color="#4C4ECD"></stop>
        </linearGradient>
        <linearGradient id="linearGradient-21" y2="60.9067245%" x2="4.79349614%" y1="50%" x1="93.9606953%">
            <stop offset="0%" stop-color="#0A23D3"></stop>
            <stop offset="24.663325%" stop-color="#1B3FAD"></stop>
            <stop offset="46.6487871%" stop-color="#004697"></stop>
            <stop offset="100%" stop-color="#5611B1"></stop>
        </linearGradient>
        <path id="path-22" d="M51.432,135.513178 L51.432,67.1611784 L38.568,67.1611784 L28.104,75.3211784 L28.104,89.7211784 L38.568,82.2331784 L38.568,135.513178 L51.432,135.513178 Z M82.056,136.281178 C86.664,136.281178 91.176,134.841178 94.248,131.865178 C97.32,128.985178 98.952,125.529178 98.952,119.577178 L98.952,83.0971784 C98.952,77.1451784 97.32,73.6891784 94.248,70.8091784 C91.176,67.8331784 86.664,66.3931784 82.056,66.3931784 C77.448,66.3931784 72.936,67.8331784 69.864,70.8091784 C66.792,73.6891784 65.16,77.1451784 65.16,83.0971784 L65.16,119.577178 C65.16,125.529178 66.792,128.985178 69.864,131.865178 C72.936,134.841178 77.448,136.281178 82.056,136.281178 Z M82.056,124.761178 C79.752,124.761178 78.024,123.225178 78.024,120.057178 L78.024,82.6171784 C78.024,79.4491784 79.752,77.9131784 82.056,77.9131784 C84.36,77.9131784 86.088,79.4491784 86.088,82.6171784 L86.088,120.057178 C86.088,123.225178 84.36,124.761178 82.056,124.761178 Z M122.76,136.281178 C127.368,136.281178 131.88,134.841178 134.952,131.865178 C138.024,128.985178 139.656,125.529178 139.656,119.577178 L139.656,83.0971784 C139.656,77.1451784 138.024,73.6891784 134.952,70.8091784 C131.88,67.8331784 127.368,66.3931784 122.76,66.3931784 C118.152,66.3931784 113.64,67.8331784 110.568,70.8091784 C107.496,73.6891784 105.864,77.1451784 105.864,83.0971784 L105.864,119.577178 C105.864,125.529178 107.496,128.985178 110.568,131.865178 C113.64,134.841178 118.152,136.281178 122.76,136.281178 Z M122.76,124.761178 C120.456,124.761178 118.728,123.225178 118.728,120.057178 L118.728,82.6171784 C118.728,79.4491784 120.456,77.9131784 122.76,77.9131784 C125.064,77.9131784 126.792,79.4491784 126.792,82.6171784 L126.792,120.057178 C126.792,123.225178 125.064,124.761178 122.76,124.761178 Z"></path>
        <linearGradient id="linearGradient-23" y2="61.1096493%" x2="8.62702593%" y1="45.6754324%" x1="92.0610756%">
            <stop offset="0%" stop-color="#FAFFEA"></stop>
            <stop offset="30.8784175%" stop-color="#BCEBED"></stop>
            <stop offset="63.753816%" stop-color="#649BFF"></stop>
            <stop offset="100%" stop-color="#50FFBC"></stop>
        </linearGradient>
        <path id="path-24" d="M56.432,135.513178 L56.432,67.1611784 L43.568,67.1611784 L33.104,75.3211784 L33.104,89.7211784 L43.568,82.2331784 L43.568,135.513178 L56.432,135.513178 Z M87.056,136.281178 C91.664,136.281178 96.176,134.841178 99.248,131.865178 C102.32,128.985178 103.952,125.529178 103.952,119.577178 L103.952,83.0971784 C103.952,77.1451784 102.32,73.6891784 99.248,70.8091784 C96.176,67.8331784 91.664,66.3931784 87.056,66.3931784 C82.448,66.3931784 77.936,67.8331784 74.864,70.8091784 C71.792,73.6891784 70.16,77.1451784 70.16,83.0971784 L70.16,119.577178 C70.16,125.529178 71.792,128.985178 74.864,131.865178 C77.936,134.841178 82.448,136.281178 87.056,136.281178 Z M87.056,124.761178 C84.752,124.761178 83.024,123.225178 83.024,120.057178 L83.024,82.6171784 C83.024,79.4491784 84.752,77.9131784 87.056,77.9131784 C89.36,77.9131784 91.088,79.4491784 91.088,82.6171784 L91.088,120.057178 C91.088,123.225178 89.36,124.761178 87.056,124.761178 Z M127.76,136.281178 C132.368,136.281178 136.88,134.841178 139.952,131.865178 C143.024,128.985178 144.656,125.529178 144.656,119.577178 L144.656,83.0971784 C144.656,77.1451784 143.024,73.6891784 139.952,70.8091784 C136.88,67.8331784 132.368,66.3931784 127.76,66.3931784 C123.152,66.3931784 118.64,67.8331784 115.568,70.8091784 C112.496,73.6891784 110.864,77.1451784 110.864,83.0971784 L110.864,119.577178 C110.864,125.529178 112.496,128.985178 115.568,131.865178 C118.64,134.841178 123.152,136.281178 127.76,136.281178 Z M127.76,124.761178 C125.456,124.761178 123.728,123.225178 123.728,120.057178 L123.728,82.6171784 C123.728,79.4491784 125.456,77.9131784 127.76,77.9131784 C130.064,77.9131784 131.792,79.4491784 131.792,82.6171784 L131.792,120.057178 C131.792,123.225178 130.064,124.761178 127.76,124.761178 Z"></path>
        <filter id="filter-25" filterUnits="objectBoundingBox" height="104.3%" width="102.7%" y="-2.1%" x="-1.3%">
            <feOffset result="shadowOffsetInner1" in="SourceAlpha" dy="-3" dx="3"></feOffset>
            <feComposite result="shadowInnerInner1" k3="1" k2="-1" operator="arithmetic" in2="SourceAlpha" in="shadowOffsetInner1"></feComposite>
            <feColorMatrix in="shadowInnerInner1" type="matrix" values="0 0 0 0 1   0 0 0 0 1   0 0 0 0 1  0 0 0 0.604458042 0"></feColorMatrix>
        </filter>
    </defs>
    <g fill-rule="evenodd" fill="none" stroke-width="1" stroke="none" id="页面-1">
        <g transform="translate(-1639.000000, -477.000000)" id="勋章">
            <g transform="translate(1639.000000, 477.486822)" id="5.博闻强识">
                <mask fill="white" id="mask-3">
                    <use xlink:href="#path-2"></use>
                </mask>
                <use xlink:href="#path-2" fill="url(#linearGradient-1)" id="蒙版"></use>
                <polygon points="-21.275089 59.9826636 100.866578 -35.444865 140.884574 15.7758339 18.7429069 111.203363" mask="url(#mask-3)" filter="url(#filter-4)" opacity="0.5" fill="#FFFFFF" id="矩形"></polygon>
                <g mask="url(#mask-3)" id="矩形-+-矩形-+-矩形-+-矩形蒙版">
                    <g transform="translate(12.000000, 12.513178)">
                        <path fill-rule="nonzero" fill="url(#linearGradient-5)" stroke="none" id="蒙版" d="M83.9364581,2.22495455 L155.936458,42.9206067 C158.44741,44.3398403 160,47.0008241 160,49.8851094 L160,130.984456 C160,133.868741 158.44741,136.529725 155.936458,137.948958 L83.9364581,178.644611 C81.4937465,180.025274 78.5062535,180.025274 76.0635419,178.644611 L4.06354195,137.948958 C1.55259028,136.529725 0,133.868741 0,130.984456 L0,49.8851094 C0,47.0008241 1.55259028,44.3398403 4.06354195,42.9206067 L76.0635419,2.22495455 C78.5062535,0.844291498 81.4937465,0.844291498 83.9364581,2.22495455 Z M81.4761718,6.57776875 C80.6212227,6.09453668 79.5883117,6.06232121 78.7096344,6.48112233 L78.5238282,6.57776875 L6.52382823,47.2734209 C5.64107178,47.7723702 5.07418152,48.6805878 5.0067685,49.6833827 L5,49.8851094 L5,130.984456 C5,131.998462 5.51171799,132.938871 6.35154289,133.490991 L6.52382823,133.596144 L78.5238282,174.291796 C79.3787773,174.775029 80.4116883,174.807244 81.2903656,174.388443 L81.4761718,174.291796 L153.476172,133.596144 C154.358928,133.097195 154.925818,132.188977 154.993231,131.186183 L155,130.984456 L155,49.8851094 C155,48.8711029 154.488282,47.9306942 153.648457,47.3785744 L153.476172,47.2734209 L81.4761718,6.57776875 Z"></path>
                        <mask fill="white" id="mask-8">
                            <use xlink:href="#path-7"></use>
                        </mask>
                        <use xlink:href="#path-7" fill-rule="evenodd" fill="url(#linearGradient-6)" stroke="none" id="蒙版"></use>
                        <circle r="48" cy="85" cx="80" mask="url(#mask-8)" filter="url(#filter-9)" opacity="0.800000012" fill-rule="evenodd" fill="#4D26D7" stroke="none" id="椭圆形"></circle>
                        <g mask="url(#mask-8)" fill-rule="evenodd" fill="none" stroke-width="1" stroke="none" id="编组-5">
                            <g transform="translate(-1.036911, 36.156716)">
                                <path fill="url(#linearGradient-10)" id="矩形" d="M0.0369110107,89.5970149 L144.036911,89.5970149 C139.197674,98.8955647 136.778056,107.258763 136.778056,114.686609 C136.778056,122.114456 138.531007,131.208969 142.036911,141.970149 L0.0369110107,141.970149 L0.0369110107,89.5970149 Z"></path>
                                <g transform="translate(19.036911, 0.000000)" fill="none" stroke-width="1" id="xiewenzhang备份">
                                    <g id="xiewenzhang"></g>
                                </g>
                                <polygon points="-2.06057393e-12 87.8432836 145 87.8432836 141.994642 93.9626866 -2.06057393e-12 93.9626866" fill="url(#linearGradient-11)" id="矩形"></polygon>
                                <path fill="url(#linearGradient-12)" id="矩形" d="M36.036911,97.8358209 L140.260356,97.8358209 C137.889041,104.549376 136.703384,110.337252 136.703384,115.199449 C136.703384,120.061645 137.634691,124.910934 139.497305,129.747315 L36.036911,129.761194 L36.036911,97.8358209 Z"></path>
                                <polygon points="36.036911 103.858209 134.036911 103.858209 134.036911 106.947761 36.036911 106.947761" opacity="0.600000024" fill="url(#linearGradient-13)" id="矩形"></polygon>
                                <polygon points="36.036911 112.097015 134.036911 112.097015 134.036911 115.186567 36.036911 115.186567" opacity="0.400000006" fill="url(#linearGradient-13)" id="矩形"></polygon>
                                <polygon points="36.036911 119.30597 134.036911 119.30597 134.036911 122.395522 36.036911 122.395522" opacity="0.200000003" fill="url(#linearGradient-13)" id="矩形"></polygon>
                            </g>
                        </g>
                    </g>
                </g>
                <g mask="url(#mask-3)" id="编组-13">
                    <g transform="translate(14.965552, -7.536334)">
                        <polygon points="22.6308869 129.095353 55.4002354 56.1073422 129.095353 22.6308869 131.902475 25.4380089 96.8182968 99.83435 25.4380089 131.902475" transform="translate(77.266681, 77.266681) rotate(-315.000000) translate(-77.266681, -77.266681)" fill="url(#linearGradient-14)" id="矩形"></polygon>
                        <polygon points="56.8037965 55.5259682 130.498914 22.0495129 94.1940316 95.7446304 24.0344479 128.513979" transform="translate(77.266681, 75.281746) rotate(-315.000000) translate(-77.266681, -75.281746)" fill="url(#linearGradient-15)" id="矩形"></polygon>
                        <path fill="url(#linearGradient-16)" id="形状结合" d="M75.5681311,69.8326204 L142.705448,80.0486204 L143.034448,80.0495129 L143.033448,80.0986204 L143.061181,80.1028843 L143.033448,80.1636204 L143.034448,119.049513 L138.034448,119.049513 L138.033448,84.2136204 L73.5344479,74.4003477 L75.5681311,69.8326204 Z"></path>
                        <ellipse ry="4" rx="7.33333333" cy="73.0495129" cx="77.5344479" fill="url(#linearGradient-17)" id="椭圆形"></ellipse>
                        <polygon points="135.034448 118.654127 138.034448 107.484295 143.034448 107.484295 146.034448 118.654127 140.722924 124.049513" fill="url(#linearGradient-18)" id="矩形"></polygon>
                        <rect height="60" width="98" y="84.0495129" x="24.0344479" fill="url(#linearGradient-19)" id="矩形"></rect>
                        <polygon points="30.0344479 82.0495129 128.034448 82.0495129 128.034448 144.049513 30.0344479 144.049513" fill="url(#linearGradient-20)" id="矩形"></polygon>
                    </g>
                </g>
                <g mask="url(#mask-3)" fill-rule="nonzero" opacity="0.900000036" id="100">
                    <use xlink:href="#path-22" fill="#222222"></use>
                    <use xlink:href="#path-22" fill="url(#linearGradient-21)"></use>
                </g>
                <g mask="url(#mask-3)" fill-rule="nonzero" id="100">
                    <use xlink:href="#path-24" fill="#222222"></use>
                    <use xlink:href="#path-24" fill="url(#linearGradient-23)"></use>
                    <use xlink:href="#path-24" filter="url(#filter-25)" fill-opacity="1" fill="black"></use>
                </g>
            </g>
        </g>
    </g>
</svg>