<svg xmlns:xlink="http://www.w3.org/1999/xlink" xmlns="http://www.w3.org/2000/svg" version="1.1" viewBox="0 0 184 208" height="208px" width="184px">
    <title>33.大收藏家</title>
    <defs>
        <linearGradient id="linearGradient-1" y2="17.2876616%" x2="23.6365672%" y1="87.3144849%" x1="74.4510804%">
            <stop offset="0%" stop-color="#FF6952"></stop>
            <stop offset="100%" stop-color="#FF8B8B"></stop>
        </linearGradient>
        <path id="path-2" d="M96.9205726,2.78119319 L178.920573,49.1290193 C182.059262,50.9030612 184,54.2292909 184,57.8346477 L184,150.165352 C184,153.770709 182.059262,157.096939 178.920573,158.870981 L96.9205726,205.218807 C93.8671831,206.944636 90.1328169,206.944636 87.0794274,205.218807 L5.07942743,158.870981 C1.94073784,157.096939 0,153.770709 0,150.165352 L0,57.8346477 C0,54.2292909 1.94073784,50.9030612 5.07942743,49.1290193 L87.0794274,2.78119319 C90.1328169,1.05536437 93.8671831,1.05536437 96.9205726,2.78119319 Z"></path>
        <filter id="filter-4" filterUnits="objectBoundingBox" height="190.0%" width="181.4%" y="-45.0%" x="-40.7%">
            <feGaussianBlur in="SourceGraphic" stdDeviation="22"></feGaussianBlur>
        </filter>
        <linearGradient id="linearGradient-5" y2="15.8518925%" x2="24.2592966%" y1="88.1652425%" x1="72.9754903%">
            <stop offset="0%" stop-color="#FFACAC"></stop>
            <stop offset="39.8918969%" stop-color="#FF9342"></stop>
            <stop offset="100%" stop-color="#FF6853"></stop>
        </linearGradient>
        <path id="path-6" d="M83.9364581,2.22495455 L155.936458,42.9206067 C158.44741,44.3398403 160,47.0008241 160,49.8851094 L160,130.984456 C160,133.868741 158.44741,136.529725 155.936458,137.948958 L83.9364581,178.644611 C81.4937465,180.025274 78.5062535,180.025274 76.0635419,178.644611 L4.06354195,137.948958 C1.55259028,136.529725 3.53223086e-16,133.868741 0,130.984456 L0,49.8851094 C8.52856111e-15,47.0008241 1.55259028,44.3398403 4.06354195,42.9206067 L76.0635419,2.22495455 C78.5062535,0.844291498 81.4937465,0.844291498 83.9364581,2.22495455 Z"></path>
        <linearGradient id="linearGradient-8" y2="3.74285867%" x2="50%" y1="100%" x1="50%">
            <stop offset="0%" stop-color="#FDD13C"></stop>
            <stop offset="63.0879105%" stop-color="#F05F34"></stop>
            <stop offset="100%" stop-color="#EB292F"></stop>
        </linearGradient>
        <path id="path-9" d="M81.968229,6.11247728 L152.968229,46.2429121 C154.223705,46.9525288 155,48.2830207 155,49.7251634 L155,131.014174 C155,132.096074 154.417467,133.094165 153.475461,133.626265 L81.4793654,174.293848 C80.5616057,174.812252 79.4391143,174.81098 78.5225312,174.290499 L7.0248352,133.690539 C5.77325526,132.97983 5,131.651509 5,130.212217 L5,49.7251634 C5,48.2830207 5.77629514,46.9525288 7.03177097,46.2429121 L78.031771,6.11247728 C79.2531268,5.42214575 80.7468732,5.42214575 81.968229,6.11247728 Z"></path>
        <filter id="filter-11" filterUnits="objectBoundingBox" height="185.1%" width="191.6%" y="-42.6%" x="-45.8%">
            <feGaussianBlur in="SourceGraphic" stdDeviation="20"></feGaussianBlur>
        </filter>
        <linearGradient id="linearGradient-12" y2="109.009607%" x2="73.7517887%" y1="15.7541136%" x1="73.7517887%">
            <stop offset="0%" stop-color="#FFDA67"></stop>
            <stop offset="47.510166%" stop-color="#F6A251"></stop>
            <stop offset="100%" stop-color="#F74B27"></stop>
        </linearGradient>
        <linearGradient id="linearGradient-13" y2="80.5904346%" x2="71.7725564%" y1="-6.4114962%" x1="71.7725564%">
            <stop offset="0%" stop-color="#FFCD6F"></stop>
            <stop offset="100%" stop-color="#FA6A13"></stop>
        </linearGradient>
        <linearGradient id="linearGradient-14" y2="134.329993%" x2="71.7725564%" y1="0%" x1="71.7725564%">
            <stop offset="0%" stop-color="#FFF589"></stop>
            <stop offset="100%" stop-color="#F17E19"></stop>
        </linearGradient>
        <linearGradient id="linearGradient-15" y2="74.9134948%" x2="42.1187532%" y1="27.0038981%" x1="56.7828019%">
            <stop offset="0%" stop-color="#FFF6D9"></stop>
            <stop offset="66.5043196%" stop-color="#FFC34A"></stop>
            <stop offset="100%" stop-color="#FC6831"></stop>
        </linearGradient>
        <path id="path-16" d="M6.60550154,0 C2.50217505,0 -0.42895692,4.52255188 0.0515721793,10.0319372 L9.82806274,88.8186151 C10.1751878,92.8031483 13.234548,96 16.6643506,96 L119.335648,96 C122.765451,96 125.824812,92.8046421 126.171936,88.8186151 L135.948427,10.0319372 C136.428962,4.52253983 133.497824,0 129.394497,0 L6.60550154,0 Z"></path>
        <filter id="filter-17" filterUnits="objectBoundingBox" height="107.3%" width="105.1%" y="-3.6%" x="-2.6%">
            <feGaussianBlur result="shadowBlurInner1" in="SourceAlpha" stdDeviation="1.5"></feGaussianBlur>
            <feOffset result="shadowOffsetInner1" in="shadowBlurInner1" dy="4" dx="-1"></feOffset>
            <feComposite result="shadowInnerInner1" k3="1" k2="-1" operator="arithmetic" in2="SourceAlpha" in="shadowOffsetInner1"></feComposite>
            <feColorMatrix in="shadowInnerInner1" type="matrix" values="0 0 0 0 1   0 0 0 0 1   0 0 0 0 1  0 0 0 0.5 0"></feColorMatrix>
        </filter>
        <linearGradient id="linearGradient-18" y2="95.6455407%" x2="50%" y1="-12.4123199%" x1="50%">
            <stop offset="0%" stop-opacity="0" stop-color="#FEC319"></stop>
            <stop offset="100%" stop-color="#E83420"></stop>
        </linearGradient>
        <linearGradient id="linearGradient-19" y2="28.3681678%" x2="59.8431889%" y1="114.408173%" x1="43.8878035%">
            <stop offset="0%" stop-color="#FF441D"></stop>
            <stop offset="100%" stop-color="#FFA826"></stop>
        </linearGradient>
        <linearGradient id="linearGradient-20" y2="37.7640029%" x2="100%" y1="86.7695152%" x1="22.9791388%">
            <stop offset="0%" stop-color="#FFBE22"></stop>
            <stop offset="100%" stop-color="#F82F27"></stop>
        </linearGradient>
        <path id="path-21" d="M90.1698492,147.502814 L77.3652468,141.0394 L64.4621474,147.502814 C63.1816872,148.198874 61.5072392,148.099437 60.3252759,147.204503 C59.1433126,146.309568 58.453834,144.718574 58.7493248,143.227017 L61.4087422,129.305816 L51.2635573,119.75985 C50.1800909,118.666041 49.7861031,116.97561 50.1800909,115.58349 C50.6725756,114.091932 51.8545389,112.998124 53.43049,112.79925 L67.5155526,110.213884 L73.8193569,97.2870544 C74.5088355,95.8949343 75.8877927,95 77.3652468,95 C78.8427009,95 80.320155,95.8949343 80.9111367,97.2870544 L87.214941,110.213884 L101.300004,112.699812 C102.777458,112.898687 104.057918,113.992495 104.451906,115.484053 C104.94439,116.97561 104.550403,118.566604 103.466936,119.660413 L93.3217513,129.305816 L95.8826718,143.227017 C96.1781627,144.818011 95.4886841,146.309568 94.3067208,147.204503 C93.7157391,147.701689 92.9277636,148 92.0412911,148 C91.4503095,148 90.7608309,147.801126 90.1698492,147.502814 Z"></path>
        <filter id="filter-22" filterUnits="objectBoundingBox" height="107.5%" width="107.3%" y="-3.8%" x="-3.7%">
            <feGaussianBlur result="shadowBlurInner1" in="SourceAlpha" stdDeviation="1"></feGaussianBlur>
            <feOffset result="shadowOffsetInner1" in="shadowBlurInner1" dy="-2" dx="1"></feOffset>
            <feComposite result="shadowInnerInner1" k3="1" k2="-1" operator="arithmetic" in2="SourceAlpha" in="shadowOffsetInner1"></feComposite>
            <feColorMatrix in="shadowInnerInner1" type="matrix" values="0 0 0 0 1   0 0 0 0 0.933242123   0 0 0 0 0.318472513  0 0 0 1 0"></feColorMatrix>
        </filter>
        <linearGradient id="linearGradient-23" y2="81.7961479%" x2="24.282405%" y1="50%" x1="100%">
            <stop offset="0%" stop-color="#FFFFFF"></stop>
            <stop offset="100%" stop-color="#FF472B"></stop>
        </linearGradient>
        <path id="path-24" d="M114.397684,49.3769904 L111.303774,51.4599334 C110.84564,51.7683675 110.224213,51.6470117 109.915779,51.1888776 C109.750236,50.9429872 109.702313,50.6363253 109.784943,50.3516519 L110.752944,47.0167278 C110.973942,46.2553517 110.724349,45.43531 110.116646,44.9261626 L107.108473,42.4058464 C106.685132,42.0511619 106.629475,41.4204479 106.984159,40.9971072 C107.174161,40.7703265 107.45483,40.6393202 107.750686,40.6393202 L111.46122,40.6393202 C112.315205,40.6393202 113.074976,40.0970858 113.352592,39.2894852 L114.604358,35.6480179 C114.783896,35.1257301 115.352838,34.8478766 115.875126,35.0274147 C116.158671,35.1248841 116.383519,35.3444377 116.487716,35.6255798 L117.862266,39.3343613 C118.152968,40.1187279 118.901107,40.6393202 119.737611,40.6393202 L123.148715,40.6393202 C123.701,40.6393202 124.148715,41.0870355 124.148715,41.6393202 C124.148715,41.9453695 124.008568,42.2345676 123.768354,42.4242075 L120.649294,44.8865865 C119.983403,45.4122819 119.721638,46.3008983 119.996207,47.1036301 L121.050442,50.1858059 C121.22918,50.7083679 120.950456,51.2768842 120.427894,51.4556226 C120.131803,51.5568983 119.805376,51.5137288 119.545791,51.3389657 L116.631561,49.3769904 C115.956319,48.9223909 115.072925,48.9223909 114.397684,49.3769904 Z"></path>
        <filter id="filter-25" filterUnits="objectBoundingBox" height="93.3%" width="92.2%" y="4.9%" x="3.6%">
            <feGaussianBlur result="shadowBlurInner1" in="SourceAlpha" stdDeviation="0.5"></feGaussianBlur>
            <feOffset result="shadowOffsetInner1" in="shadowBlurInner1" dy="0" dx="-1"></feOffset>
            <feComposite result="shadowInnerInner1" k3="1" k2="-1" operator="arithmetic" in2="SourceAlpha" in="shadowOffsetInner1"></feComposite>
            <feColorMatrix in="shadowInnerInner1" type="matrix" values="0 0 0 0 1   0 0 0 0 0.726083127   0 0 0 0 0.335121713  0 0 0 1 0"></feColorMatrix>
        </filter>
        <linearGradient id="linearGradient-26" y2="109.037989%" x2="50%" y1="50%" x1="88.9040766%">
            <stop offset="0%" stop-color="#FFE8A9"></stop>
            <stop offset="100%" stop-color="#FF307C"></stop>
        </linearGradient>
        <path id="path-27" d="M82.8724398,49.8634586 L77.6349128,53.4386182 C77.178767,53.7499853 76.5565749,53.6326191 76.2452078,53.1764734 C76.07755,52.9308585 76.027906,52.6233664 76.1097525,52.3374696 L77.7891711,46.4711129 C78.0052765,45.7162377 77.7596732,44.9047449 77.1612445,44.3963935 L72.074378,40.0752183 C71.6534619,39.7176599 71.6021004,39.0865815 71.9596589,38.6656654 C72.1496594,38.4419977 72.4283201,38.3130823 72.7217949,38.3130823 L79.0697357,38.3130823 C79.9268256,38.3130823 80.6886374,37.7669601 80.9638363,36.9552528 L83.0884254,30.6887156 C83.2657559,30.1656742 83.8335196,29.8854201 84.356561,30.0627506 C84.6434022,30.1600004 84.8707111,30.3820133 84.9746949,30.6664827 L87.2897194,36.9997187 C87.5780326,37.7884601 88.3283735,38.3130823 89.1681577,38.3130823 L95.1504519,38.3130823 C95.7027366,38.3130823 96.1504519,38.7607976 96.1504519,39.3130823 C96.1504519,39.6167713 96.0124479,39.9040052 95.775358,40.0937822 L90.4496319,44.3567243 C89.7935562,44.8818757 89.5357487,45.7611473 89.8043734,46.5574263 L91.6982619,52.1714426 C91.8748003,52.6947519 91.593687,53.2620905 91.0703777,53.4386289 C90.773127,53.5389065 90.4460469,53.4938816 90.1869465,53.3170186 L85.1275602,49.8634586 C84.4475176,49.3992585 83.5524824,49.3992585 82.8724398,49.8634586 Z"></path>
        <filter id="filter-28" filterUnits="objectBoundingBox" height="94.8%" width="94.4%" y="3.7%" x="2.6%">
            <feGaussianBlur result="shadowBlurInner1" in="SourceAlpha" stdDeviation="0.5"></feGaussianBlur>
            <feOffset result="shadowOffsetInner1" in="shadowBlurInner1" dy="-1" dx="-1"></feOffset>
            <feComposite result="shadowInnerInner1" k3="1" k2="-1" operator="arithmetic" in2="SourceAlpha" in="shadowOffsetInner1"></feComposite>
            <feColorMatrix in="shadowInnerInner1" type="matrix" values="0 0 0 0 1   0 0 0 0 0.768815643   0 0 0 0 0.512520246  0 0 0 1 0"></feColorMatrix>
        </filter>
    </defs>
    <g fill-rule="evenodd" fill="none" stroke-width="1" stroke="none" id="页面-1">
        <g transform="translate(-563.000000, -5098.000000)" id="勋章">
            <g transform="translate(563.000000, 5098.000000)" id="33.大收藏家">
                <g id="矩形">
                    <mask fill="white" id="mask-3">
                        <use xlink:href="#path-2"></use>
                    </mask>
                    <use xlink:href="#path-2" fill="url(#linearGradient-1)" id="蒙版"></use>
                    <polygon points="-21.275089 61.4694852 100.866578 -33.9580435 140.884574 17.2626555 18.7429069 112.690184" mask="url(#mask-3)" filter="url(#filter-4)" opacity="0.5" fill="#FFFFFF"></polygon>
                </g>
                <g transform="translate(12.000000, 14.000000)" id="矩形-+-矩形-+-矩形-+-矩形蒙版">
                    <mask fill="white" id="mask-7">
                        <use xlink:href="#path-6"></use>
                    </mask>
                    <path d="M77.2936851,4.40136165 C78.9730493,3.4521558 81.0269507,3.4521558 82.7063149,4.40136165 L82.7063149,4.40136165 L154.706315,45.0970138 C155.569455,45.5848754 156.267876,46.2861627 156.750512,47.113353 C157.233149,47.9405432 157.5,48.8936363 157.5,49.8851094 L157.5,49.8851094 L157.5,130.984456 C157.5,131.975929 157.233149,132.929022 156.750512,133.756212 C156.267876,134.583403 155.569455,135.28469 154.706315,135.772551 L154.706315,135.772551 L82.7063149,176.468204 C81.0269507,177.417409 78.9730493,177.417409 77.2936851,176.468204 L77.2936851,176.468204 L5.29368509,135.772551 C4.43054545,135.28469 3.73212418,134.583403 3.24948782,133.756212 C2.76685145,132.929022 2.5,131.975929 2.5,130.984456 L2.5,130.984456 L2.5,49.8851094 C2.5,48.8936363 2.76685145,47.9405432 3.24948782,47.113353 C3.73212418,46.2861627 4.43054545,45.5848754 5.29368509,45.0970138 L5.29368509,45.0970138 Z" stroke-width="5" stroke="url(#linearGradient-5)"></path>
                    <mask fill="white" id="mask-10">
                        <use xlink:href="#path-9"></use>
                    </mask>
                    <use xlink:href="#path-9" fill="url(#linearGradient-8)" id="蒙版"></use>
                    <polygon points="98 4 87.342 76.869 131.204581 17.753788 155.246212 41.7954185 95.888 85.83 169 75 169 109 95.891 98.164 155.246212 142.204581 131.204581 166.246212 87.17 106.889 98 180 64 180 74.792 107.183 30.7954185 166.246212 6.75378798 142.204581 65.581 98.389 -7 109 -7 75 65.578 85.615 6.75378798 41.7954185 30.7954185 17.753788 74.609 76.58 64 4" mask="url(#mask-10)" opacity="0.219999999" fill="#FFFFFF" id="路径"></polygon>
                    <path mask="url(#mask-10)" filter="url(#filter-11)" opacity="0.800000012" fill="#C91820" id="椭圆形" d="M79.5,177.5 C115.674651,177.5 145,148.174651 145,112 C145,75.8253489 115.674651,36.5 79.5,36.5 C43.3253489,36.5 14,75.8253489 14,112 C14,148.174651 43.3253489,177.5 79.5,177.5 Z"></path>
                    <path mask="url(#mask-10)" fill-rule="nonzero" fill="url(#linearGradient-12)" id="路径-19" d="M128.812791,56.5475985 L71.6074412,56.5475985 C69.6762963,56.5475985 67.8631942,55.618095 66.7358736,54.0501446 L59.6888776,44.2487269 C59.1252172,43.4647517 58.2186662,43 57.2530938,43 L30.4581185,43 L30.4581185,43 C26.3382745,43 23.7621098,46.2669822 23,51.5074516 L22,68 L136,68 C135.10194,64.3065295 132.161416,56.543558 128.811073,56.5461151 L128.812791,56.5475985 Z"></path>
                    <polygon points="138.53537 78 139 66 19 66 19.4646297 78 138.534691 78" mask="url(#mask-10)" fill-rule="nonzero" fill="url(#linearGradient-13)" id="路径"></polygon>
                    <polygon points="141 74 16 74 16.3569623 83 140.642568 83" mask="url(#mask-10)" fill-rule="nonzero" fill="url(#linearGradient-14)" id="路径"></polygon>
                    <g mask="url(#mask-10)" id="文件夹">
                        <g transform="translate(11.000000, 82.000000)">
                            <g fill-rule="nonzero" id="形状">
                                <use xlink:href="#path-16" fill="url(#linearGradient-15)"></use>
                                <use xlink:href="#path-16" filter="url(#filter-17)" fill-opacity="1" fill="black"></use>
                            </g>
                            <g transform="translate(38.736842, 16.000000)" fill-rule="evenodd" stroke-width="1" id="收-藏"></g>
                        </g>
                    </g>
                    <path mask="url(#mask-10)" opacity="0.600000024" fill="url(#linearGradient-18)" id="路径-3" d="M21.4280694,143.38072 L77.3050259,174.894151 C79.1429357,175.930694 81.3902292,175.925625 83.2234447,174.880803 L136.249191,144.659318 L136.249191,144.659318 L140,90.9272109 L19.4663062,90.5652174 L21.4280694,143.38072 Z"></path>
                    <path mask="url(#mask-10)" fill-rule="nonzero" fill="url(#linearGradient-19)" id="形状结合" d="M78.3652468,100 C79.8427009,100 81.320155,100.894934 81.9111367,102.287054 L88.214941,115.213884 L101.465769,117.552 L104.661538,115.965381 L105.451906,120.484053 C105.551275,120.785007 105.614555,121.090009 105.643363,121.394159 L105.661538,121.5 L105.652293,121.504288 C105.730944,122.669744 105.305393,123.813953 104.466936,124.660413 L94.3217513,134.305816 L96.8826718,148.227017 C97.1781627,149.818011 96.4886841,151.309568 95.3067208,152.204503 C94.7157391,152.701689 93.9277636,153 93.0412911,153 C92.4503095,153 91.7608309,152.801126 91.1698492,152.502814 L78.3652468,146.0394 L65.4621474,152.502814 C64.1816872,153.198874 62.5072392,153.099437 61.3252759,152.204503 C60.7391524,151.760714 60.2741342,151.14576 59.9902761,150.456644 L59.9503193,150.463017 L59.8927804,150.195955 C59.7910275,149.893841 59.7238097,149.580363 59.6958313,149.263117 L58.6604193,144.38157 L60.4447692,144.585 L62.4087422,134.305816 L52.2635573,124.75985 C51.8220606,124.314139 51.4950479,123.769362 51.2891836,123.186071 L51.2527869,123.192636 L51.2085096,122.934313 C51.1138587,122.60638 51.0565419,122.269312 51.037686,121.933346 L50.0307692,116.039478 L52.6748186,118.486858 C53.1759038,118.124287 53.7684303,117.882797 54.43049,117.79925 L68.5155526,115.213884 L74.8193569,102.287054 C75.5088355,100.894934 76.8877927,100 78.3652468,100 Z"></path>
                    <g mask="url(#mask-10)" fill-rule="nonzero" id="路径">
                        <use xlink:href="#path-21" fill="url(#linearGradient-20)"></use>
                        <use xlink:href="#path-21" filter="url(#filter-22)" fill-opacity="1" fill="black"></use>
                    </g>
                    <g transform="translate(115.514622, 43.000000) rotate(22.000000) translate(-115.514622, -43.000000)" mask="url(#mask-10)" opacity="0.699999988" id="星形">
                        <use xlink:href="#path-24" fill-rule="evenodd" fill="url(#linearGradient-23)"></use>
                        <use xlink:href="#path-24" filter="url(#filter-25)" fill-opacity="1" fill="black"></use>
                    </g>
                </g>
                <g transform="translate(84.000000, 41.500000) rotate(22.000000) translate(-84.000000, -41.500000)" id="星形">
                    <use xlink:href="#path-27" fill-rule="evenodd" fill="url(#linearGradient-26)"></use>
                    <use xlink:href="#path-27" filter="url(#filter-28)" fill-opacity="1" fill="black"></use>
                </g>
            </g>
        </g>
    </g>
</svg>