<svg xmlns:xlink="http://www.w3.org/1999/xlink" xmlns="http://www.w3.org/2000/svg" version="1.1" viewBox="0 0 184 209" height="209px" width="184px">
    <title>25.崭露头角</title>
    <defs>
        <linearGradient id="linearGradient-1" y2="14.0319111%" x2="22.157416%" y1="88.0621668%" x1="76.7823015%">
            <stop offset="0%" stop-color="#2AAEFF"></stop>
            <stop offset="100%" stop-color="#89F2FF"></stop>
        </linearGradient>
        <path id="path-2" d="M96.9205726,2.78119319 L178.920573,49.1290193 C182.059262,50.9030612 184,54.2292909 184,57.8346477 L184,150.165352 C184,153.770709 182.059262,157.096939 178.920573,158.870981 L96.9205726,205.218807 C93.8671831,206.944636 90.1328169,206.944636 87.0794274,205.218807 L5.07942743,158.870981 C1.94073784,157.096939 0,153.770709 0,150.165352 L0,57.8346477 C0,54.2292909 1.94073784,50.9030612 5.07942743,49.1290193 L87.0794274,2.78119319 C90.1328169,1.05536437 93.8671831,1.05536437 96.9205726,2.78119319 Z"></path>
        <filter id="filter-4" filterUnits="objectBoundingBox" height="190.0%" width="181.4%" y="-45.0%" x="-40.7%">
            <feGaussianBlur in="SourceGraphic" stdDeviation="22"></feGaussianBlur>
        </filter>
        <linearGradient id="linearGradient-5" y2="16.3043788%" x2="25.1101777%" y1="93.7769779%" x1="66.712846%">
            <stop offset="0%" stop-color="#8EEEFF"></stop>
            <stop offset="35.879332%" stop-color="#59FF80"></stop>
            <stop offset="100%" stop-color="#2EB1FF"></stop>
        </linearGradient>
        <linearGradient id="linearGradient-6" y2="2.70498442%" x2="50%" y1="103.513333%" x1="50%">
            <stop offset="0%" stop-color="#32B6FF"></stop>
            <stop offset="58.3048901%" stop-color="#1E96DF"></stop>
            <stop offset="100%" stop-color="#1A7DDE"></stop>
        </linearGradient>
        <path id="path-7" d="M81.968229,4.92302001 L152.968229,45.0534548 C154.223705,45.7630716 155,47.0935635 155,48.5357062 L155,128.979004 C155,130.421147 154.223705,131.751639 152.968229,132.461255 L81.968229,172.59169 C80.7468732,173.282022 79.2531268,173.282022 78.031771,172.59169 L7.03177097,132.461255 C5.77629514,131.751639 5,130.421147 5,128.979004 L5,48.5357062 C5,47.0935635 5.77629514,45.7630716 7.03177097,45.0534548 L78.031771,4.92302001 C79.2531268,4.23268849 80.7468732,4.23268849 81.968229,4.92302001 Z"></path>
        <filter id="filter-9" filterUnits="objectBoundingBox" height="185.1%" width="191.6%" y="-42.6%" x="-45.8%">
            <feGaussianBlur in="SourceGraphic" stdDeviation="20"></feGaussianBlur>
        </filter>
        <linearGradient id="linearGradient-10" y2="90.1039219%" x2="50%" y1="0.152293314%" x1="106.684653%">
            <stop offset="0%" stop-color="#68FAA5"></stop>
            <stop offset="35.752734%" stop-color="#3C9FFE"></stop>
            <stop offset="100%" stop-color="#404AFD"></stop>
        </linearGradient>
        <linearGradient id="linearGradient-11" y2="12.6701597%" x2="103.43846%" y1="84.9779397%" x1="29.8898085%">
            <stop offset="0%" stop-color="#39BCFF"></stop>
            <stop offset="39.6459778%" stop-color="#407DFF"></stop>
            <stop offset="100%" stop-color="#403EFD"></stop>
        </linearGradient>
        <path id="path-12" d="M142.700909,21.7636542 L101.976265,123.675794 C101.08467,125.906981 98.7321126,127.188503 96.3740088,126.727543 L6.67477339,109.193191 C3.96464421,108.663417 2.19711741,106.036956 2.7268918,103.326827 C2.79244492,102.991481 2.89220066,102.663739 3.02459491,102.348738 L44.307615,4.12553788 C45.1974503,2.00838475 47.4150962,0.769634265 49.6844365,1.12210957 L138.825296,14.9675217 C141.554002,15.3913459 143.422477,17.9469762 142.998653,20.6756818 C142.940761,21.0484091 142.840878,21.4133884 142.700909,21.7636542 Z"></path>
        <filter id="filter-13" filterUnits="objectBoundingBox" height="100.6%" width="98.6%" y="-0.4%" x="0.7%">
            <feGaussianBlur result="shadowBlurInner1" in="SourceAlpha" stdDeviation="0.5"></feGaussianBlur>
            <feOffset result="shadowOffsetInner1" in="shadowBlurInner1" dy="-1" dx="-1"></feOffset>
            <feComposite result="shadowInnerInner1" k3="1" k2="-1" operator="arithmetic" in2="SourceAlpha" in="shadowOffsetInner1"></feComposite>
            <feColorMatrix in="shadowInnerInner1" type="matrix" values="0 0 0 0 0.423529412   0 0 0 0 0.854901961   0 0 0 0 1  0 0 0 1 0"></feColorMatrix>
        </filter>
        <linearGradient id="linearGradient-14" y2="101.585108%" x2="113.208122%" y1="19.3811384%" x1="107.890182%">
            <stop offset="0%" stop-color="#2477F5"></stop>
            <stop offset="100%" stop-color="#A3F2FF"></stop>
        </linearGradient>
        <linearGradient id="linearGradient-15" y2="77.3685149%" x2="27.8827731%" y1="17.7004071%" x1="85.7207153%">
            <stop offset="0%" stop-color="#EEFCFF"></stop>
            <stop offset="58.5263714%" stop-color="#DBF9FF"></stop>
            <stop offset="100%" stop-color="#A8FFE9"></stop>
        </linearGradient>
        <linearGradient id="linearGradient-16" y2="40.0893582%" x2="100%" y1="71.3171604%" x1="22.9896861%">
            <stop offset="0%" stop-color="#6939F5"></stop>
            <stop offset="53.7802896%" stop-color="#3E6CFD"></stop>
            <stop offset="100%" stop-color="#2DB0FF"></stop>
        </linearGradient>
        <path id="path-17" d="M95.7479155,38.9758235 C96.6058226,38.3931357 97.7668036,38.5628831 98.4219749,39.3667987 L98.4219749,39.3667987 L105.054909,47.5051978 L108.114119,45.1901702 L108.430591,51.9525858 C108.492815,52.2058614 108.503776,52.4659982 108.46682,52.7183859 L108.470203,52.811166 L108.451517,52.8085466 C108.350037,53.3337864 108.039365,53.8172206 107.550423,54.1238863 L107.550423,54.1238863 L67.8752893,79.0081883 C66.124714,80.1061517 63.8259596,79.6899783 62.5714383,78.0479631 L62.5714383,78.0479631 L46.4674636,56.9698269 C46.4444996,56.9397699 46.422393,56.9090675 46.4011704,56.8777567 C46.1159685,56.4569847 46.012592,55.9664777 46.0732021,55.4991306 L45.711909,48.5815666 L45.711909,48.4114303 L49.968909,52.0421978 L58.7315597,46.1040116 C59.5261924,45.5654046 60.5830113,45.6706086 61.2560086,46.3334231 L61.370657,46.4561611 L68.8169718,55.1226183 C69.4798525,55.8941177 70.6162112,56.0451978 71.457645,55.4736986 L71.457645,55.4736986 Z"></path>
        <filter id="filter-18" filterUnits="objectBoundingBox" height="139.0%" width="122.3%" y="-9.8%" x="-12.7%">
            <feOffset result="shadowOffsetOuter1" in="SourceAlpha" dy="5" dx="-1"></feOffset>
            <feGaussianBlur result="shadowBlurOuter1" in="shadowOffsetOuter1" stdDeviation="1.5"></feGaussianBlur>
            <feColorMatrix in="shadowBlurOuter1" type="matrix" values="0 0 0 0 0.198629851   0 0 0 0 0.232988523   0 0 0 0 0.84800875  0 0 0 0.2 0"></feColorMatrix>
        </filter>
        <linearGradient id="linearGradient-19" y2="2.79136613%" x2="128.180699%" y1="89.31462%" x1="12.1851942%">
            <stop offset="0%" stop-color="#5EBAFF"></stop>
            <stop offset="34.5066489%" stop-color="#56FB9D"></stop>
            <stop offset="68.6897697%" stop-color="#D5FF6F"></stop>
            <stop offset="100%" stop-color="#F5FFB9"></stop>
        </linearGradient>
        <path id="path-20" d="M95.7467164,31.987826 L71.4564459,48.4857011 C70.6150121,49.0572003 69.4786534,48.9061202 68.8157727,48.1346208 L61.3694579,39.4681636 C60.707051,38.6972158 59.5717363,38.5457243 58.7303606,39.1160141 L46.9333759,47.112084 C46.0190464,47.7318222 45.780233,48.9754298 46.3999712,49.8897592 C46.4211939,49.92107 46.4433005,49.9517724 46.4662645,49.9818294 L62.5702391,71.0599656 C63.8247604,72.7019808 66.1235149,73.1181542 67.8740901,72.0201909 L107.549224,47.1358888 C108.48497,46.5489875 108.767764,45.314638 108.180863,44.3788919 C108.137058,44.3090497 108.088976,44.2419828 108.036893,44.1780753 L98.4207757,32.3788012 C97.7656044,31.5748857 96.6046235,31.4051382 95.7467164,31.987826 Z"></path>
        <filter id="filter-21" filterUnits="objectBoundingBox" height="109.3%" width="106.4%" y="-5.4%" x="-3.3%">
            <feGaussianBlur result="shadowBlurInner1" in="SourceAlpha" stdDeviation="1.5"></feGaussianBlur>
            <feOffset result="shadowOffsetInner1" in="shadowBlurInner1" dy="-3" dx="0"></feOffset>
            <feComposite result="shadowInnerInner1" k3="1" k2="-1" operator="arithmetic" in2="SourceAlpha" in="shadowOffsetInner1"></feComposite>
            <feColorMatrix in="shadowInnerInner1" type="matrix" values="0 0 0 0 0.717081461   0 0 0 0 0.988235294   0 0 0 0 0.396078431  0 0 0 1 0"></feColorMatrix>
        </filter>
    </defs>
    <g fill-rule="evenodd" fill="none" stroke-width="1" stroke="none" id="页面-1">
        <g transform="translate(-199.000000, -4160.000000)" id="勋章">
            <g transform="translate(199.000000, 4160.958043)" id="编组-3备份-34">
                <g id="矩形">
                    <mask fill="white" id="mask-3">
                        <use xlink:href="#path-2"></use>
                    </mask>
                    <use xlink:href="#path-2" fill="url(#linearGradient-1)" id="蒙版"></use>
                    <polygon points="-21.275089 61.4694852 100.866578 -33.9580435 140.884574 17.2626555 18.7429069 112.690184" mask="url(#mask-3)" filter="url(#filter-4)" opacity="0.400000006" fill="#FFFFFF"></polygon>
                </g>
                <g transform="translate(12.000000, 15.189457)" id="矩形-+-矩形-+-矩形-+-矩形蒙版">
                    <path fill-rule="nonzero" fill="url(#linearGradient-5)" id="蒙版" d="M83.9364581,1.03549729 L155.936458,41.7311495 C158.44741,43.150383 160,45.8113668 160,48.6956522 L160,129.794999 C160,132.679284 158.44741,135.340268 155.936458,136.759501 L83.9364581,177.455153 C81.4937465,178.835816 78.5062535,178.835816 76.0635419,177.455153 L4.06354195,136.759501 C1.55259028,135.340268 0,132.679284 0,129.794999 L0,48.6956522 C0,45.8113668 1.55259028,43.150383 4.06354195,41.7311495 L76.0635419,1.03549729 C78.5062535,-0.345165763 81.4937465,-0.345165763 83.9364581,1.03549729 Z M81.4761718,5.38831148 C80.6212227,4.90507942 79.5883117,4.87286394 78.7096344,5.29166507 L78.5238282,5.38831148 L6.52382823,46.0839637 C5.64107178,46.582913 5.07418152,47.4911305 5.0067685,48.4939254 L5,48.6956522 L5,129.794999 C5,130.809005 5.51171799,131.749414 6.35154289,132.301534 L6.52382823,132.406687 L78.5238282,173.102339 C79.3787773,173.585571 80.4116883,173.617787 81.2903656,173.198986 L81.4761718,173.102339 L153.476172,132.406687 C154.358928,131.907738 154.925818,130.99952 154.993231,129.996725 L155,129.794999 L155,48.6956522 C155,47.6816456 154.488282,46.741237 153.648457,46.1891172 L153.476172,46.0839637 L81.4761718,5.38831148 Z"></path>
                    <mask fill="white" id="mask-8">
                        <use xlink:href="#path-7"></use>
                    </mask>
                    <use xlink:href="#path-7" fill="url(#linearGradient-6)" id="蒙版"></use>
                    <path mask="url(#mask-8)" opacity="0.179999992" fill="#FFFFFF" id="形状结合" d="M98,1.81054274 L87.342,74.6795427 L131.204581,15.5643307 L155.246212,39.6059613 L95.888,83.6405427 L169,72.8105427 L169,106.810543 L95.891,95.9745427 L155.246212,140.015124 L131.204581,164.056755 L87.17,104.699543 L98,177.810543 L64,177.810543 L74.792,104.993543 L30.7954185,164.056755 L6.75378798,140.015124 L65.581,96.1995427 L-7,106.810543 L-7,72.8105427 L65.578,83.4255427 L6.75378798,39.6059613 L30.7954185,15.5643307 L74.609,74.3905427 L64,1.81054274 L98,1.81054274 Z"></path>
                    <path mask="url(#mask-8)" filter="url(#filter-9)" fill="#0A4CDF" id="椭圆形" d="M80.5,159.310543 C116.674651,159.310543 146,129.985194 146,93.8105427 C146,57.6358916 116.674651,18.3105427 80.5,18.3105427 C44.3253489,18.3105427 15,57.6358916 15,93.8105427 C15,129.985194 44.3253489,159.310543 80.5,159.310543 Z"></path>
                    <g mask="url(#mask-8)" id="编组-12">
                        <g transform="translate(5.818859, 38.852499)">
                            <path fill-rule="evenodd" fill="url(#linearGradient-10)" id="形状结合" d="M53.9547127,8.58586729 L139.674811,21.9242073 L141.900019,16.9580435 L145.182929,23.2908457 C146.703131,24.3487358 147.573796,26.2135613 147.269863,28.1667395 C147.212103,28.5379287 147.112695,28.9014262 146.973521,29.2503508 L106.242036,131.36902 C105.351178,133.602508 102.996649,134.885546 100.636878,134.423402 L10.9348122,116.855913 C8.22486851,116.32519 6.45826071,113.698111 6.98898323,110.988168 C7.05432847,110.654506 7.15353665,110.328379 7.28506753,110.014851 L48.575216,11.5921343 C49.4643294,9.47276789 51.6837316,8.23248167 53.9547127,8.58586729 Z"></path>
                            <g fill="none" id="矩形">
                                <use xlink:href="#path-12" fill-rule="evenodd" fill="url(#linearGradient-11)"></use>
                                <use xlink:href="#path-12" filter="url(#filter-13)" fill-opacity="1" fill="black"></use>
                            </g>
                            <path opacity="0.800000012" fill-rule="evenodd" fill="url(#linearGradient-14)" id="矩形" d="M130.494489,27.3219015 L97.2866356,111.668461 C96.4065025,113.903962 94.0608301,115.197454 91.7005685,114.748828 L21.1141868,101.33215 C18.4013308,100.816509 16.6201398,98.1992922 17.1357847,95.4864369 C17.2178027,95.0549329 17.3563208,94.6361172 17.5477625,94.2408037 C25.1908386,78.4583932 30.8185976,66.2070142 34.4310394,57.4866666 C38.2395294,48.2930635 43.7121514,33.5996796 50.8489055,13.4065151 C51.6461447,11.1507577 53.9296546,9.77587248 56.2962901,10.1266831 L126.575227,20.5442565 C129.306803,20.9491631 131.192942,23.4917852 130.788036,26.223362 C130.732278,26.599513 130.633792,26.9680755 130.494489,27.3219015 Z"></path>
                            <path fill-rule="evenodd" fill="url(#linearGradient-15)" id="矩形" d="M57.3201383,9.35206011 L125.783736,19.1840099 C128.517119,19.5765449 130.41475,22.1106034 130.022213,24.8439862 C129.969463,25.2113075 129.875984,25.5716147 129.743504,25.9182507 C118.948027,54.1647695 111.256233,73.0271238 106.668121,82.5053137 C102.564216,90.9832212 98.1874956,97.9781947 93.5379587,103.490234 C91.9398942,105.384747 89.4591439,106.292955 87.0156078,105.878084 L18.2604386,94.2046146 C15.537975,93.7423866 13.7056925,91.1606837 14.1679209,88.4382203 C14.3013299,87.6524591 14.6206457,86.9099742 15.0992464,86.2726674 C21.4414194,77.8274023 26.6341702,69.8812735 30.6774987,62.434281 C35.389591,53.7555609 41.7281309,37.6245053 49.6931182,14.0411143 C50.7728911,10.844031 53.9799058,8.87237456 57.3201383,9.35206011 Z"></path>
                            <g transform="translate(77.099959, 59.125013) rotate(3.000000) translate(-77.099959, -59.125013)" fill-rule="nonzero" fill="none" id="形状结合">
                                <use xlink:href="#path-17" filter="url(#filter-18)" fill-opacity="1" fill="black"></use>
                                <use xlink:href="#path-17" fill="url(#linearGradient-16)"></use>
                            </g>
                            <g transform="translate(77.324123, 52.458043) rotate(3.000000) translate(-77.324123, -52.458043)" fill-rule="nonzero" fill="none" id="路径">
                                <use xlink:href="#path-20" fill="url(#linearGradient-19)"></use>
                                <use xlink:href="#path-20" filter="url(#filter-21)" fill-opacity="1" fill="black"></use>
                            </g>
                        </g>
                    </g>
                </g>
            </g>
        </g>
    </g>
</svg>