<svg xmlns:xlink="http://www.w3.org/1999/xlink" xmlns="http://www.w3.org/2000/svg" version="1.1" viewBox="0 0 184 206" height="206px" width="184px">
    <title>4.持之以恒</title>
    <defs>
        <linearGradient id="linearGradient-1" y2="17.2876616%" x2="23.6365672%" y1="87.3144849%" x1="74.4510804%">
            <stop offset="0%" stop-color="#506CFB"></stop>
            <stop offset="100%" stop-color="#89D1FF"></stop>
        </linearGradient>
        <path id="path-2" d="M96.9205726,1.29437161 L178.920573,47.6421977 C182.059262,49.4162396 184,52.7424694 184,56.3478261 L184,148.678531 C184,152.283887 182.059262,155.610117 178.920573,157.384159 L96.9205726,203.731985 C93.8671831,205.457814 90.1328169,205.457814 87.0794274,203.731985 L5.07942743,157.384159 C1.94073784,155.610117 0,152.283887 0,148.678531 L0,56.3478261 C0,52.7424694 1.94073784,49.4162396 5.07942743,47.6421977 L87.0794274,1.29437161 C90.1328169,-0.431457204 93.8671831,-0.431457204 96.9205726,1.29437161 Z"></path>
        <filter id="filter-4" filterUnits="objectBoundingBox" height="190.0%" width="181.4%" y="-45.0%" x="-40.7%">
            <feGaussianBlur in="SourceGraphic" stdDeviation="22"></feGaussianBlur>
        </filter>
        <linearGradient id="linearGradient-5" y2="15.8518925%" x2="23.5685826%" y1="88.1652425%" x1="73.592004%">
            <stop offset="0%" stop-color="#B8C9FF"></stop>
            <stop offset="39.8918969%" stop-color="#5EBBFC"></stop>
            <stop offset="100%" stop-color="#526EFC"></stop>
        </linearGradient>
        <linearGradient id="linearGradient-6" y2="3.74285867%" x2="50%" y1="103.48405%" x1="50%">
            <stop offset="0%" stop-color="#C66CFF"></stop>
            <stop offset="54.178599%" stop-color="#3162FB"></stop>
            <stop offset="100%" stop-color="#1332EA"></stop>
        </linearGradient>
        <path id="path-7" d="M81.968229,4.92302001 L152.972343,45.05578 C154.225622,45.7641553 155.001569,47.0913597 155.004108,48.530977 L155.147355,129.755969 C155.149267,130.84016 154.566047,131.841026 153.621844,132.373901 L81.4787458,173.088963 C80.5612954,173.60674 79.4394895,173.605354 78.5233221,173.08531 L7.02541414,132.500965 C5.77350889,131.790346 5,130.461844 5,129.022314 L5,48.5357062 C5,47.0935635 5.77629514,45.7630716 7.03177097,45.0534548 L78.031771,4.92302001 C79.2531268,4.23268849 80.7468732,4.23268849 81.968229,4.92302001 Z"></path>
        <filter id="filter-9" filterUnits="objectBoundingBox" height="191.6%" width="191.6%" y="-45.8%" x="-45.8%">
            <feGaussianBlur in="SourceGraphic" stdDeviation="20"></feGaussianBlur>
        </filter>
        <linearGradient id="linearGradient-10" y2="82.2268194%" x2="40.263822%" y1="50%" x1="90.97492%">
            <stop offset="0%" stop-color="#A23BFB"></stop>
            <stop offset="100%" stop-color="#2226EE"></stop>
        </linearGradient>
        <linearGradient id="linearGradient-11" y2="92.3916241%" x2="50%" y1="0%" x1="50%">
            <stop offset="0%" stop-color="#49BDFF"></stop>
            <stop offset="100%" stop-opacity="0" stop-color="#348EFF"></stop>
        </linearGradient>
        <linearGradient id="linearGradient-12" y2="100%" x2="50%" y1="21.174995%" x1="50%">
            <stop offset="0%" stop-color="#CB62FF"></stop>
            <stop offset="100%" stop-opacity="0" stop-color="#348EFF"></stop>
        </linearGradient>
        <linearGradient id="linearGradient-13" y2="15.2130875%" x2="87.1339811%" y1="89.9251086%" x1="12.8660189%">
            <stop offset="0%" stop-color="#1937EB"></stop>
            <stop offset="50.5009962%" stop-color="#5AA6FC"></stop>
            <stop offset="100%" stop-color="#AABDFE"></stop>
        </linearGradient>
        <path id="path-14" d="M35.3784357,41.4663354 L126.612571,41.4663354 C130.478564,41.4663354 133.612571,44.6003422 133.612571,48.4663354 C133.612571,48.4817596 133.61252,48.4971837 133.612418,48.5126075 L132.892098,157.479567 C132.866577,161.340365 129.719909,164.451518 125.85907,164.433216 L34.6693379,164.000959 C30.8033881,163.982634 27.6842722,160.833807 27.7025975,156.967857 C27.702614,156.964387 27.702633,156.960916 27.7026546,156.957445 L28.3785715,48.4227427 C28.4025411,44.5738373 31.5294556,41.4663354 35.3784357,41.4663354 Z"></path>
        <filter id="filter-15" filterUnits="objectBoundingBox" height="104.9%" width="105.6%" y="-2.4%" x="-2.8%">
            <feGaussianBlur result="shadowBlurInner1" in="SourceAlpha" stdDeviation="1.5"></feGaussianBlur>
            <feOffset result="shadowOffsetInner1" in="shadowBlurInner1" dy="3" dx="-2"></feOffset>
            <feComposite result="shadowInnerInner1" k3="1" k2="-1" operator="arithmetic" in2="SourceAlpha" in="shadowOffsetInner1"></feComposite>
            <feColorMatrix in="shadowInnerInner1" type="matrix" values="0 0 0 0 0.563586128   0 0 0 0 0.872537775   0 0 0 0 1  0 0 0 1 0"></feColorMatrix>
        </filter>
        <linearGradient id="linearGradient-16" y2="130.322154%" x2="50%" y1="4.5075679%" x1="85.6149996%">
            <stop offset="0%" stop-color="#FFFFFF"></stop>
            <stop offset="32.5510391%" stop-color="#FDEBFF"></stop>
            <stop offset="60.7357446%" stop-color="#E8F0FF"></stop>
            <stop offset="100%" stop-color="#AFC9FF"></stop>
        </linearGradient>
        <linearGradient id="linearGradient-17" y2="100%" x2="50%" y1="0%" x1="50%">
            <stop offset="0%" stop-color="#B3E1FF"></stop>
            <stop offset="100%" stop-color="#506CFB"></stop>
        </linearGradient>
        <linearGradient id="linearGradient-18" y2="84.8219902%" x2="50%" y1="0%" x1="50%">
            <stop offset="0%" stop-color="#B4E1FF"></stop>
            <stop offset="100%" stop-color="#5473FB"></stop>
        </linearGradient>
        <linearGradient id="linearGradient-19" y2="86.1141601%" x2="56.2364507%" y1="22.4480768%" x1="56.2364507%">
            <stop offset="0%" stop-color="#AA51FF"></stop>
            <stop offset="100%" stop-color="#4766FB"></stop>
        </linearGradient>
        <path id="path-20" d="M60.2,133.610543 C65,133.610543 69.7,132.010543 72.9,129.010543 C77.7125,124.460543 78.084375,118.226168 78.1023688,111.178316 L78.1023688,109.874865 C78.1019497,109.583265 78.1013575,109.290399 78.1008701,108.996325 L78.1,108.110543 L78.1,108.110543 C78.1,100.710543 77.9,92.9105427 74.8,89.1105427 C72.2,86.0105427 69.3,84.6105427 64.4,84.6105427 C62.7,84.6105427 60.8,85.1105427 59.3,85.9105427 C57.8,86.7105427 56.5,88.0105427 55.4,89.3105427 L55.4,73.6105427 L77.3,73.6105427 L77.3,61.6105427 L43.2,61.6105427 L43.2,102.010543 L56,102.010543 L56,101.510543 C56,98.2105427 57.8,96.6105427 60.2,96.6105427 C61.8,96.6105427 63,97.3105427 63.8,98.7105427 C64.865625,100.551168 64.7112305,105.30107 64.7005402,109.050908 L64.7,109.410543 C64.7,110.110543 64.7067867,110.902163 64.7091085,111.739773 L64.7097427,112.467922 C64.7049861,116.031457 64.5684211,120.160543 63.5,121.610543 C62.6,122.810543 61.7,123.210543 60.2,123.210543 C57.8,123.210543 56,121.610543 56,118.310543 L56,113.410543 L42.6,113.410543 L42.6,116.210543 C42.6,122.410543 44.3,126.010543 47.5,129.010543 C50.7,132.110543 55.4,133.610543 60.2,133.610543 Z M102.6,133.610543 C107.4,133.610543 112.1,132.110543 115.3,129.010543 C118.5,126.010543 120.2,122.410543 120.2,116.210543 L120.2,78.2105427 C120.2,72.0105427 118.5,68.4105427 115.3,65.4105427 C112.1,62.3105427 107.4,60.8105427 102.6,60.8105427 C97.8,60.8105427 93.1,62.3105427 89.9,65.4105427 C86.7,68.4105427 85,72.0105427 85,78.2105427 L85,116.210543 C85,122.410543 86.7,126.010543 89.9,129.010543 C93.1,132.110543 97.8,133.610543 102.6,133.610543 Z M102.6,121.610543 C100.2,121.610543 98.4,120.010543 98.4,116.710543 L98.4,77.7105427 C98.4,74.4105427 100.2,72.8105427 102.6,72.8105427 C105,72.8105427 106.8,74.4105427 106.8,77.7105427 L106.8,116.710543 C106.8,120.010543 105,121.610543 102.6,121.610543 Z"></path>
        <linearGradient id="linearGradient-21" y2="69.4132373%" x2="30.1361384%" y1="21.7711068%" x1="55.1464811%">
            <stop offset="0%" stop-color="#FFD5F5"></stop>
            <stop offset="47.6034758%" stop-color="#DA61FF"></stop>
            <stop offset="100%" stop-color="#765FFF"></stop>
        </linearGradient>
        <path id="path-22" d="M59.8842105,129.610543 C64.6842105,129.610543 69.3842105,128.010543 72.5842105,125.010543 C77.3967105,120.460543 77.7685855,114.226168 77.7865793,107.178316 L77.7865793,105.874865 C77.7861602,105.583265 77.785568,105.290399 77.7850806,104.996325 L77.7842105,104.110543 L77.7842105,104.110543 C77.7842105,96.7105427 77.5842105,88.9105427 74.4842105,85.1105427 C71.8842105,82.0105427 68.9842105,80.6105427 64.0842105,80.6105427 C62.3842105,80.6105427 60.4842105,81.1105427 58.9842105,81.9105427 C57.4842105,82.7105427 56.1842105,84.0105427 55.0842105,85.3105427 L55.0842105,69.6105427 L76.9842105,69.6105427 L76.9842105,57.6105427 L42.8842105,57.6105427 L42.8842105,98.0105427 L55.6842105,98.0105427 L55.6842105,97.5105427 C55.6842105,94.2105427 57.4842105,92.6105427 59.8842105,92.6105427 C61.4842105,92.6105427 62.6842105,93.3105427 63.4842105,94.7105427 C64.5498355,96.5511677 64.395441,101.30107 64.3847507,105.050908 L64.3842105,105.410543 C64.3842105,106.110543 64.3909972,106.902163 64.393319,107.739773 L64.3939532,108.467922 C64.3891967,112.031457 64.2526316,116.160543 63.1842105,117.610543 C62.2842105,118.810543 61.3842105,119.210543 59.8842105,119.210543 C57.4842105,119.210543 55.6842105,117.610543 55.6842105,114.310543 L55.6842105,109.410543 L42.2842105,109.410543 L42.2842105,112.210543 C42.2842105,118.410543 43.9842105,122.010543 47.1842105,125.010543 C50.3842105,128.110543 55.0842105,129.610543 59.8842105,129.610543 Z M102.284211,129.610543 C107.084211,129.610543 111.784211,128.110543 114.984211,125.010543 C118.184211,122.010543 119.884211,118.410543 119.884211,112.210543 L119.884211,74.2105427 C119.884211,68.0105427 118.184211,64.4105427 114.984211,61.4105427 C111.784211,58.3105427 107.084211,56.8105427 102.284211,56.8105427 C97.4842105,56.8105427 92.7842105,58.3105427 89.5842105,61.4105427 C86.3842105,64.4105427 84.6842105,68.0105427 84.6842105,74.2105427 L84.6842105,112.210543 C84.6842105,118.410543 86.3842105,122.010543 89.5842105,125.010543 C92.7842105,128.110543 97.4842105,129.610543 102.284211,129.610543 Z M102.284211,117.610543 C99.8842105,117.610543 98.0842105,116.010543 98.0842105,112.710543 L98.0842105,73.7105427 C98.0842105,70.4105427 99.8842105,68.8105427 102.284211,68.8105427 C104.684211,68.8105427 106.484211,70.4105427 106.484211,73.7105427 L106.484211,112.710543 C106.484211,116.010543 104.684211,117.610543 102.284211,117.610543 Z"></path>
        <filter id="filter-23" filterUnits="objectBoundingBox" height="103.4%" width="103.2%" y="-1.7%" x="-1.6%">
            <feGaussianBlur result="shadowBlurInner1" in="SourceAlpha" stdDeviation="0.5"></feGaussianBlur>
            <feOffset result="shadowOffsetInner1" in="shadowBlurInner1" dy="-1.5" dx="0"></feOffset>
            <feComposite result="shadowInnerInner1" k3="1" k2="-1" operator="arithmetic" in2="SourceAlpha" in="shadowOffsetInner1"></feComposite>
            <feColorMatrix in="shadowInnerInner1" type="matrix" values="0 0 0 0 0.894117647   0 0 0 0 0.505882353   0 0 0 0 0.988235294  0 0 0 1 0"></feColorMatrix>
        </filter>
    </defs>
    <g fill-rule="evenodd" fill="none" stroke-width="1" stroke="none" id="页面-1">
        <g transform="translate(-1295.000000, -477.000000)" id="勋章">
            <g transform="translate(1295.000000, 477.486822)" id="4.持之以恒">
                <mask fill="white" id="mask-3">
                    <use xlink:href="#path-2"></use>
                </mask>
                <use xlink:href="#path-2" fill="url(#linearGradient-1)" id="蒙版"></use>
                <polygon points="-21.275089 59.9826636 100.866578 -35.444865 140.884574 15.7758339 18.7429069 111.203363" mask="url(#mask-3)" filter="url(#filter-4)" opacity="0.5" fill="#FFFFFF" id="矩形"></polygon>
                <g mask="url(#mask-3)" id="矩形-+-矩形-+-矩形-+-矩形蒙版">
                    <g transform="translate(12.000000, 13.702636)">
                        <path fill-rule="nonzero" fill="url(#linearGradient-5)" stroke="none" id="蒙版" d="M83.9364581,1.03549729 L155.936458,41.7311495 C158.44741,43.150383 160,45.8113668 160,48.6956522 L160,129.794999 C160,132.679284 158.44741,135.340268 155.936458,136.759501 L83.9364581,177.455153 C81.4937465,178.835816 78.5062535,178.835816 76.0635419,177.455153 L4.06354195,136.759501 C1.55259028,135.340268 0,132.679284 0,129.794999 L0,48.6956522 C0,45.8113668 1.55259028,43.150383 4.06354195,41.7311495 L76.0635419,1.03549729 C78.5062535,-0.345165763 81.4937465,-0.345165763 83.9364581,1.03549729 Z M81.4761718,5.38831148 C80.6212227,4.90507942 79.5883117,4.87286394 78.7096344,5.29166507 L78.5238282,5.38831148 L6.52382823,46.0839637 C5.64107178,46.582913 5.07418152,47.4911305 5.0067685,48.4939254 L5,48.6956522 L5,129.794999 C5,130.809005 5.51171799,131.749414 6.35154289,132.301534 L6.52382823,132.406687 L78.5238282,173.102339 C79.3787773,173.585571 80.4116883,173.617787 81.2903656,173.198986 L81.4761718,173.102339 L153.476172,132.406687 C154.358928,131.907738 154.925818,130.99952 154.993231,129.996725 L155,129.794999 L155,48.6956522 C155,47.6816456 154.488282,46.741237 153.648457,46.1891172 L153.476172,46.0839637 L81.4761718,5.38831148 Z"></path>
                        <mask fill="white" id="mask-8">
                            <use xlink:href="#path-7"></use>
                        </mask>
                        <use xlink:href="#path-7" fill-rule="evenodd" fill="url(#linearGradient-6)" stroke="none" id="蒙版"></use>
                        <polygon points="98 2.81054274 87.342 75.6795427 131.204581 16.5643307 155.246212 40.6059613 95.888 84.6405427 169 73.8105427 169 107.810543 95.891 96.9745427 155.246212 141.015124 131.204581 165.056755 87.17 105.699543 98 178.810543 64 178.810543 74.792 105.993543 30.7954185 165.056755 6.75378798 141.015124 65.581 97.1995427 -7 107.810543 -7 73.8105427 65.578 84.4255427 6.75378798 40.6059613 30.7954185 16.5643307 74.609 75.3905427 64 2.81054274" mask="url(#mask-8)" opacity="0.149999991" fill-rule="evenodd" fill="#FFFFFF" stroke="none" id="路径"></polygon>
                        <circle r="65.5" cy="110.810543" cx="79.5" mask="url(#mask-8)" filter="url(#filter-9)" opacity="0.699999988" fill-rule="evenodd" fill="#4615D9" stroke="none" id="椭圆形"></circle>
                        <path mask="url(#mask-8)" opacity="0.600000024" fill-rule="evenodd" fill="url(#linearGradient-10)" stroke="none" id="矩形" d="M26.7053711,59.8105427 L133.294629,59.8105427 C136.608337,59.8105427 139.294629,62.4968342 139.294629,65.8105427 L139.294629,184.810543 C139.294629,188.124251 136.608337,190.810543 133.294629,190.810543 L26.7053711,190.810543 C23.3916626,190.810543 20.7053711,188.124251 20.7053711,184.810543 L20.7053711,65.8105427 C20.7053711,62.4968342 23.3916626,59.8105427 26.7053711,59.8105427 Z"></path>
                        <path mask="url(#mask-8)" opacity="0.5" fill-rule="evenodd" fill="url(#linearGradient-11)" stroke="none" id="路径备份" d="M13.6978178,110.960413 L13.6978178,127.960426 C13.6978178,128.968762 14.5228188,129.793763 15.5311547,129.793763 L19.1978242,129.793763 C20.2061601,129.793763 21.0311611,128.968762 21.0311611,127.960426 L21.0311611,110.960413 L24.0011645,110.960413 C24.4044985,110.960413 24.7345002,110.630413 24.7345002,110.227078 C24.7345002,110.043744 24.6795001,109.878744 24.5511665,109.750412 L17.9145064,102.068751 C17.6642411,101.765922 17.2158681,101.72331 16.9130412,101.973576 C16.9044711,101.980658 16.8960682,101.987941 16.8878394,101.995417 L16.8145059,102.068751 L10.1778458,109.750412 C9.92117899,110.062079 9.93951206,110.520413 10.2511794,110.795413 C10.379513,110.905413 10.5628463,110.960414 10.7278452,110.960414 L13.6978178,110.960413 Z"></path>
                        <path mask="url(#mask-8)" opacity="0.800000012" fill-rule="evenodd" fill="url(#linearGradient-12)" stroke="none" id="路径" d="M139.277845,77.3956312 L139.277845,106.689635 C139.277845,107.856135 140.232253,108.810543 141.398753,108.810543 L145.640564,108.810543 C146.807064,108.810543 147.761472,107.856135 147.761472,106.689635 L147.761472,77.3956312 L151.19734,77.3956312 C151.663939,77.3956312 152.045704,77.0138681 152.045704,76.547267 C152.045704,76.3351762 151.982077,76.1442947 151.833613,75.9958331 L144.155949,67.1092524 C143.866428,66.7589226 143.347725,66.7096275 142.997397,66.9991486 C142.987483,67.0073421 142.977762,67.0157669 142.968243,67.0244161 L142.883406,67.1092525 L135.205742,75.9958331 C134.908815,76.356387 134.930024,76.8866138 135.290579,77.2047497 C135.439042,77.3320041 135.651132,77.3956313 135.842012,77.3956313 L139.277845,77.3956312 Z"></path>
                        <g mask="url(#mask-8)" fill="none" stroke="none" id="矩形备份-5">
                            <use xlink:href="#path-14" fill-rule="evenodd" fill="url(#linearGradient-13)"></use>
                            <use xlink:href="#path-14" filter="url(#filter-15)" fill-opacity="1" fill="black"></use>
                        </g>
                        <path mask="url(#mask-8)" fill-rule="evenodd" fill="url(#linearGradient-16)" stroke="none" id="矩形备份-5" d="M39.9510041,48.465928 L121.658997,48.4592496 C124.42042,48.4546417 126.65918,50.693035 126.659405,53.4544587 C126.659405,53.4559201 126.659405,53.4573814 126.655022,53.4588393 L126.576319,152.4463 C126.574124,155.207723 124.333768,157.444518 121.572345,157.442323 C121.56568,157.442318 121.559014,157.442299 121.552348,157.442267 L39.6490941,157.049579 C36.89155,157.036358 34.6653006,154.793084 34.6730864,152.03552 L34.9514327,53.4518107 C34.9592134,50.696069 37.1952513,48.4661532 39.9510041,48.465928 Z"></path>
                        <path mask="url(#mask-8)" opacity="0.200000003" fill-rule="evenodd" fill="url(#linearGradient-17)" stroke="none" id="矩形备份-2" d="M45.658997,129.810543 L116.658997,129.810543 C118.315851,129.810543 119.658997,131.153688 119.658997,132.810543 C119.658997,134.467397 118.315851,135.810543 116.658997,135.810543 L45.658997,135.810543 C44.0021427,135.810543 42.658997,134.467397 42.658997,132.810543 C42.658997,131.153688 44.0021427,129.810543 45.658997,129.810543 Z"></path>
                        <path mask="url(#mask-8)" opacity="0.300000012" fill-rule="evenodd" fill="url(#linearGradient-18)" stroke="none" id="矩形备份-2" d="M45.658997,141.810543 L100.658997,141.810543 C102.315851,141.810543 103.658997,143.153688 103.658997,144.810543 C103.658997,146.467397 102.315851,147.810543 100.658997,147.810543 L45.658997,147.810543 C44.0021427,147.810543 42.658997,146.467397 42.658997,144.810543 C42.658997,143.153688 44.0021427,141.810543 45.658997,141.810543 Z"></path>
                        <g mask="url(#mask-8)" fill-rule="nonzero" fill="none" stroke="none" id="50">
                            <use xlink:href="#path-20" fill="#7AAEFD"></use>
                            <use xlink:href="#path-20" fill="url(#linearGradient-19)"></use>
                        </g>
                        <g mask="url(#mask-8)" fill-rule="nonzero" fill="none" stroke="none" id="50">
                            <use xlink:href="#path-22" fill="#222222"></use>
                            <use xlink:href="#path-22" fill="url(#linearGradient-21)"></use>
                            <use xlink:href="#path-22" filter="url(#filter-23)" fill-opacity="1" fill="black"></use>
                        </g>
                    </g>
                </g>
            </g>
        </g>
    </g>
</svg>