<svg xmlns:xlink="http://www.w3.org/1999/xlink" xmlns="http://www.w3.org/2000/svg" version="1.1" viewBox="0 0 184 206" height="206px" width="184px">
    <title>3.挑战自我</title>
    <defs>
        <linearGradient id="linearGradient-1" y2="17.2876616%" x2="23.6365672%" y1="87.3144849%" x1="74.4510804%">
            <stop offset="0%" stop-color="#509CFB"></stop>
            <stop offset="100%" stop-color="#89E1FF"></stop>
        </linearGradient>
        <path id="path-2" d="M96.9205726,1.29437161 L178.920573,47.6421977 C182.059262,49.4162396 184,52.7424694 184,56.3478261 L184,148.678531 C184,152.283887 182.059262,155.610117 178.920573,157.384159 L96.9205726,203.731985 C93.8671831,205.457814 90.1328169,205.457814 87.0794274,203.731985 L5.07942743,157.384159 C1.94073784,155.610117 0,152.283887 0,148.678531 L0,56.3478261 C0,52.7424694 1.94073784,49.4162396 5.07942743,47.6421977 L87.0794274,1.29437161 C90.1328169,-0.431457204 93.8671831,-0.431457204 96.9205726,1.29437161 Z"></path>
        <filter id="filter-4" filterUnits="objectBoundingBox" height="190.0%" width="181.4%" y="-45.0%" x="-40.7%">
            <feGaussianBlur in="SourceGraphic" stdDeviation="22"></feGaussianBlur>
        </filter>
        <linearGradient id="linearGradient-5" y2="15.8518925%" x2="23.5685826%" y1="88.1652425%" x1="73.592004%">
            <stop offset="0%" stop-color="#8ECFFF"></stop>
            <stop offset="39.8918969%" stop-color="#6AE2FF"></stop>
            <stop offset="100%" stop-color="#68D9FF"></stop>
        </linearGradient>
        <linearGradient id="linearGradient-6" y2="3.74285867%" x2="50%" y1="103.48405%" x1="50%">
            <stop offset="0%" stop-color="#A37CFF"></stop>
            <stop offset="53.5427707%" stop-color="#4D93FF"></stop>
            <stop offset="100%" stop-color="#2BA0FF"></stop>
        </linearGradient>
        <path id="path-7" d="M81.968229,4.92302001 L152.972343,45.05578 C154.225622,45.7641553 155.001569,47.0913597 155.004108,48.530977 L155.14736,129.755969 C155.149267,130.84016 154.566047,131.841026 153.621844,132.373901 L81.4787458,173.088963 C80.5612954,173.60674 79.4394895,173.605354 78.5233221,173.08531 L7.02541414,132.500965 C5.77350889,131.790346 5,130.461844 5,129.022314 L5,48.5357062 C5,47.0935635 5.77629514,45.7630716 7.03177097,45.0534548 L78.031771,4.92302001 C79.2531268,4.23268849 80.7468732,4.23268849 81.968229,4.92302001 Z"></path>
        <filter id="filter-9" filterUnits="objectBoundingBox" height="171.4%" width="191.6%" y="-35.7%" x="-45.8%">
            <feGaussianBlur in="SourceGraphic" stdDeviation="20"></feGaussianBlur>
        </filter>
        <linearGradient id="linearGradient-10" y2="0%" x2="7.89690379%" y1="95.5189929%" x1="86.095461%">
            <stop offset="0%" stop-color="#99D8FF"></stop>
            <stop offset="47.9632184%" stop-color="#F2FAFD"></stop>
            <stop offset="77.2198589%" stop-color="#F0F5FF"></stop>
            <stop offset="100%" stop-color="#FFFFFF"></stop>
        </linearGradient>
        <path id="path-11" d="M36.2882638,39.8175641 L133,39.8110088 C136.785451,39.805389 139.869302,42.8098517 139.996398,46.5644076 L140.000474,46.8050571 C140.000474,46.8068863 140.000474,46.8087156 139.994986,46.8105409 L139.923391,146.764879 C139.917928,154.392377 133.813734,160.590833 126.226015,160.75165 L125.867774,160.754741 L125.867774,160.754741 L35.9899396,160.397662 C32.1278863,160.382319 29.0079529,157.241991 29.0177494,153.37992 L29.2887604,46.7997661 C29.2985718,42.9409191 32.4294043,39.8178254 36.2882638,39.8175641 Z"></path>
        <filter id="filter-12" filterUnits="objectBoundingBox" height="123.2%" width="125.2%" y="-8.3%" x="-12.6%">
            <feOffset result="shadowOffsetOuter1" in="SourceAlpha" dy="4" dx="0"></feOffset>
            <feGaussianBlur result="shadowBlurOuter1" in="shadowOffsetOuter1" stdDeviation="4"></feGaussianBlur>
            <feColorMatrix in="shadowBlurOuter1" type="matrix" values="0 0 0 0 0.376470588   0 0 0 0 0.333333333   0 0 0 0 0.956862745  0 0 0 0.4 0"></feColorMatrix>
        </filter>
        <filter id="filter-13" filterUnits="objectBoundingBox" height="123.2%" width="125.2%" y="-8.3%" x="-12.6%">
            <feGaussianBlur result="shadowBlurInner1" in="SourceAlpha" stdDeviation="4"></feGaussianBlur>
            <feOffset result="shadowOffsetInner1" in="shadowBlurInner1" dy="4" dx="0"></feOffset>
            <feComposite result="shadowInnerInner1" k3="1" k2="-1" operator="arithmetic" in2="SourceAlpha" in="shadowOffsetInner1"></feComposite>
            <feColorMatrix in="shadowInnerInner1" type="matrix" values="0 0 0 0 0.431372549   0 0 0 0 0.874509804   0 0 0 0 1  0 0 0 0.5 0"></feColorMatrix>
        </filter>
        <linearGradient id="linearGradient-14" y2="98.6015693%" x2="50%" y1="0%" x1="50%">
            <stop offset="0.184556654%" stop-color="#C2F3FF"></stop>
            <stop offset="98.6082277%" stop-color="#41BCE2"></stop>
        </linearGradient>
        <linearGradient id="linearGradient-15" y2="98.6015693%" x2="50%" y1="0%" x1="50%">
            <stop offset="0.184556654%" stop-color="#C2F3FF"></stop>
            <stop offset="98.6082277%" stop-color="#41BCE2"></stop>
        </linearGradient>
        <polygon points="147 137.210216 123 150.773571 112 16.5643307 139.137939 20.5825383" id="path-16"></polygon>
        <linearGradient id="linearGradient-18" y2="50%" x2="1.15105316%" y1="50%" x1="76.5694754%">
            <stop offset="0%" stop-color="#4882D2"></stop>
            <stop offset="100%" stop-color="#96D4DB"></stop>
        </linearGradient>
        <filter id="filter-19" filterUnits="objectBoundingBox" height="110.7%" width="185.7%" y="-5.4%" x="-42.9%">
            <feGaussianBlur in="SourceGraphic" stdDeviation="2"></feGaussianBlur>
        </filter>
        <linearGradient id="linearGradient-20" y2="50%" x2="1.15105316%" y1="50%" x1="178.882801%">
            <stop offset="0%" stop-color="#2A6EC6"></stop>
            <stop offset="51.318242%" stop-color="#7FBDFF"></stop>
            <stop offset="100%" stop-color="#D7FBFF"></stop>
        </linearGradient>
        <path id="path-21" d="M126,22.8105427 C133.6275,22.8105427 139.830327,28.9102951 139.996578,36.4978977 L140,36.8105427 L140,147.810543 L139.996578,147.497898 C139.830327,139.910295 133.6275,133.810543 126,133.810543 L126,22.8105427 Z"></path>
        <filter id="filter-22" filterUnits="objectBoundingBox" height="102.4%" width="121.4%" y="-1.2%" x="-10.7%">
            <feGaussianBlur result="shadowBlurInner1" in="SourceAlpha" stdDeviation="0.5"></feGaussianBlur>
            <feOffset result="shadowOffsetInner1" in="shadowBlurInner1" dy="2" dx="1"></feOffset>
            <feComposite result="shadowInnerInner1" k3="1" k2="-1" operator="arithmetic" in2="SourceAlpha" in="shadowOffsetInner1"></feComposite>
            <feColorMatrix in="shadowInnerInner1" type="matrix" values="0 0 0 0 0.931021341   0 0 0 0 1   0 0 0 0 0.953736458  0 0 0 1 0"></feColorMatrix>
        </filter>
        <linearGradient id="linearGradient-23" y2="84.2424836%" x2="56.2364507%" y1="23.6279955%" x1="56.2364507%">
            <stop offset="0%" stop-color="#168FA8"></stop>
            <stop offset="100%" stop-color="#2992E1"></stop>
        </linearGradient>
        <path id="path-24" d="M69.3,144.313178 C74.1,144.313178 78.8,142.813178 82,139.813178 C86.9960784,135.105335 87.0996924,129.659007 87.1001357,123.562884 L87.1001357,122.813178 L87.1001357,122.813178 C87.1001357,118.813178 87.1001357,114.613178 85.2,110.913178 C84.2,109.013178 82.8,107.513178 81,106.113178 C82.7,104.913178 84,103.413178 84.9,101.613178 C86.5,98.2131784 86.6,94.5131784 86.6,90.8131784 C86.6,84.6131784 85,79.3131784 81.5,75.9131784 C78.7,73.1131784 74.7,71.5131784 69.3,71.5131784 C64.5,71.5131784 60.2,72.9131784 57,76.0131784 C53.8,79.0131784 52.1,82.9131784 52.1,88.7131784 L52.1,92.7131784 L65.5,92.7131784 L65.5,87.8131784 C65.5,84.9131784 67.2,83.5131784 69.3,83.5131784 C70.8,83.5131784 71.6,84.1131784 72.2,84.9131784 C73.4,86.6131784 73.2,89.8131784 73.2,91.8131784 C73.2,93.9131784 73.4,97.6131784 72,99.3131784 C71.4,100.013178 70.5,100.513178 69.2,100.513178 L66,100.513178 L66,111.713178 L69.2,111.713178 C70.9,111.713178 71.9,112.413178 72.6,113.413178 C73.7538462,115.240101 73.7057692,119.193504 73.7003641,121.539601 L73.7009348,122.322875 C73.7011645,122.413158 73.70139,122.505954 73.7015499,122.601034 L73.7012301,123.197081 C73.6928656,125.676199 73.5758621,129.206282 72.5,130.613178 C71.9,131.413178 70.9,132.313178 69.3,132.313178 C66.9,132.313178 65,130.713178 65,127.413178 L65,123.113178 L51.6,123.113178 L51.6,126.913178 C51.6,133.113178 53.3,136.713178 56.5,139.713178 C59.7,142.813178 64.5,144.313178 69.3,144.313178 Z M111.6,144.313178 C116.4,144.313178 121.1,142.813178 124.3,139.713178 C127.5,136.713178 129.2,133.113178 129.2,126.913178 L129.2,88.9131784 C129.2,82.7131784 127.5,79.1131784 124.3,76.1131784 C121.1,73.0131784 116.4,71.5131784 111.6,71.5131784 C106.8,71.5131784 102.1,73.0131784 98.9,76.1131784 C95.7,79.1131784 94,82.7131784 94,88.9131784 L94,126.913178 C94,133.113178 95.7,136.713178 98.9,139.713178 C102.1,142.813178 106.8,144.313178 111.6,144.313178 Z M111.6,132.313178 C109.2,132.313178 107.4,130.713178 107.4,127.413178 L107.4,88.4131784 C107.4,85.1131784 109.2,83.5131784 111.6,83.5131784 C114,83.5131784 115.8,85.1131784 115.8,88.4131784 L115.8,127.413178 C115.8,130.713178 114,132.313178 111.6,132.313178 Z"></path>
        <linearGradient id="linearGradient-25" y2="69.4132373%" x2="30.1361384%" y1="33.2927806%" x1="42.6114783%">
            <stop offset="0%" stop-color="#84FFE2"></stop>
            <stop offset="43.0914728%" stop-color="#73E7FF"></stop>
            <stop offset="100%" stop-color="#18BDFF"></stop>
        </linearGradient>
        <path id="path-26" d="M72.9842105,144.313178 C77.7842105,144.313178 82.4842105,142.813178 85.6842105,139.813178 C90.680289,135.105335 90.783903,129.659007 90.7843462,123.562884 L90.7843462,122.813178 L90.7843462,122.813178 C90.7843462,118.813178 90.7843462,114.613178 88.8842105,110.913178 C87.8842105,109.013178 86.4842105,107.513178 84.6842105,106.113178 C86.3842105,104.913178 87.6842105,103.413178 88.5842105,101.613178 C90.1842105,98.2131784 90.2842105,94.5131784 90.2842105,90.8131784 C90.2842105,84.6131784 88.6842105,79.3131784 85.1842105,75.9131784 C82.3842105,73.1131784 78.3842105,71.5131784 72.9842105,71.5131784 C68.1842105,71.5131784 63.8842105,72.9131784 60.6842105,76.0131784 C57.4842105,79.0131784 55.7842105,82.9131784 55.7842105,88.7131784 L55.7842105,92.7131784 L69.1842105,92.7131784 L69.1842105,87.8131784 C69.1842105,84.9131784 70.8842105,83.5131784 72.9842105,83.5131784 C74.4842105,83.5131784 75.2842105,84.1131784 75.8842105,84.9131784 C77.0842105,86.6131784 76.8842105,89.8131784 76.8842105,91.8131784 C76.8842105,93.9131784 77.0842105,97.6131784 75.6842105,99.3131784 C75.0842105,100.013178 74.1842105,100.513178 72.8842105,100.513178 L69.6842105,100.513178 L69.6842105,111.713178 L72.8842105,111.713178 C74.5842105,111.713178 75.5842105,112.413178 76.2842105,113.413178 C77.4380567,115.240101 77.3899798,119.193504 77.3845747,121.539601 L77.3851454,122.322875 C77.385375,122.413158 77.3856005,122.505954 77.3857604,122.601034 L77.3854406,123.197081 C77.3770762,125.676199 77.2600726,129.206282 76.1842105,130.613178 C75.5842105,131.413178 74.5842105,132.313178 72.9842105,132.313178 C70.5842105,132.313178 68.6842105,130.713178 68.6842105,127.413178 L68.6842105,123.113178 L55.2842105,123.113178 L55.2842105,126.913178 C55.2842105,133.113178 56.9842105,136.713178 60.1842105,139.713178 C63.3842105,142.813178 68.1842105,144.313178 72.9842105,144.313178 Z M115.284211,144.313178 C120.084211,144.313178 124.784211,142.813178 127.984211,139.713178 C131.184211,136.713178 132.884211,133.113178 132.884211,126.913178 L132.884211,88.9131784 C132.884211,82.7131784 131.184211,79.1131784 127.984211,76.1131784 C124.784211,73.0131784 120.084211,71.5131784 115.284211,71.5131784 C110.484211,71.5131784 105.784211,73.0131784 102.584211,76.1131784 C99.3842105,79.1131784 97.6842105,82.7131784 97.6842105,88.9131784 L97.6842105,126.913178 C97.6842105,133.113178 99.3842105,136.713178 102.584211,139.713178 C105.784211,142.813178 110.484211,144.313178 115.284211,144.313178 Z M115.284211,132.313178 C112.884211,132.313178 111.084211,130.713178 111.084211,127.413178 L111.084211,88.4131784 C111.084211,85.1131784 112.884211,83.5131784 115.284211,83.5131784 C117.684211,83.5131784 119.484211,85.1131784 119.484211,88.4131784 L119.484211,127.413178 C119.484211,130.713178 117.684211,132.313178 115.284211,132.313178 Z"></path>
        <filter id="filter-27" filterUnits="objectBoundingBox" height="103.4%" width="103.2%" y="-1.7%" x="-1.6%">
            <feGaussianBlur result="shadowBlurInner1" in="SourceAlpha" stdDeviation="0.5"></feGaussianBlur>
            <feOffset result="shadowOffsetInner1" in="shadowBlurInner1" dy="-1.5" dx="0"></feOffset>
            <feComposite result="shadowInnerInner1" k3="1" k2="-1" operator="arithmetic" in2="SourceAlpha" in="shadowOffsetInner1"></feComposite>
            <feColorMatrix in="shadowInnerInner1" type="matrix" values="0 0 0 0 0.36467702   0 0 0 0 0.956877765   0 0 0 0 1  0 0 0 1 0"></feColorMatrix>
        </filter>
    </defs>
    <g fill-rule="evenodd" fill="none" stroke-width="1" stroke="none" id="页面-1">
        <g transform="translate(-925.000000, -477.000000)" id="勋章">
            <g transform="translate(925.000000, 477.486822)" id="3.挑战自我">
                <mask fill="white" id="mask-3">
                    <use xlink:href="#path-2"></use>
                </mask>
                <use xlink:href="#path-2" fill="url(#linearGradient-1)" id="蒙版"></use>
                <polygon points="-21.275089 59.9826636 100.866578 -35.444865 140.884574 15.7758339 18.7429069 111.203363" mask="url(#mask-3)" filter="url(#filter-4)" opacity="0.5" fill="#FFFFFF" id="矩形"></polygon>
                <g mask="url(#mask-3)" id="矩形-+-矩形-+-矩形-+-矩形蒙版">
                    <g transform="translate(12.000000, 13.702636)">
                        <path fill-rule="nonzero" fill="url(#linearGradient-5)" stroke="none" id="蒙版" d="M83.9364581,1.03549729 L155.936458,41.7311495 C158.44741,43.150383 160,45.8113668 160,48.6956522 L160,129.794999 C160,132.679284 158.44741,135.340268 155.936458,136.759501 L83.9364581,177.455153 C81.4937465,178.835816 78.5062535,178.835816 76.0635419,177.455153 L4.06354195,136.759501 C1.55259028,135.340268 0,132.679284 0,129.794999 L0,48.6956522 C0,45.8113668 1.55259028,43.150383 4.06354195,41.7311495 L76.0635419,1.03549729 C78.5062535,-0.345165763 81.4937465,-0.345165763 83.9364581,1.03549729 Z M81.4761718,5.38831148 C80.6212227,4.90507942 79.5883117,4.87286394 78.7096344,5.29166507 L78.5238282,5.38831148 L6.52382823,46.0839637 C5.64107178,46.582913 5.07418152,47.4911305 5.0067685,48.4939254 L5,48.6956522 L5,129.794999 C5,130.809005 5.51171799,131.749414 6.35154289,132.301534 L6.52382823,132.406687 L78.5238282,173.102339 C79.3787773,173.585571 80.4116883,173.617787 81.2903656,173.198986 L81.4761718,173.102339 L153.476172,132.406687 C154.358928,131.907738 154.925818,130.99952 154.993231,129.996725 L155,129.794999 L155,48.6956522 C155,47.6816456 154.488282,46.741237 153.648457,46.1891172 L153.476172,46.0839637 L81.4761718,5.38831148 Z"></path>
                        <mask fill="white" id="mask-8">
                            <use xlink:href="#path-7"></use>
                        </mask>
                        <use xlink:href="#path-7" fill-rule="evenodd" fill="url(#linearGradient-6)" stroke="none" id="蒙版"></use>
                        <polygon points="98 2.81054274 87.342 75.6795427 131.204581 16.5643307 155.246212 40.6059613 95.888 84.6405427 169 73.8105427 169 107.810543 95.891 96.9745427 155.246212 141.015124 131.204581 165.056755 87.17 105.699543 98 178.810543 64 178.810543 74.792 105.993543 30.7954185 165.056755 6.75378798 141.015124 65.581 97.1995427 -7 107.810543 -7 73.8105427 65.578 84.4255427 6.75378798 40.6059613 30.7954185 16.5643307 74.609 75.3905427 64 2.81054274" mask="url(#mask-8)" opacity="0.149999991" fill-rule="evenodd" fill="#FFFFFF" stroke="none" id="路径"></polygon>
                        <path mask="url(#mask-8)" filter="url(#filter-9)" opacity="0.699999988" fill-rule="evenodd" fill="#4615D9" stroke="none" id="椭圆形" d="M79.5,186.310543 C115.674651,186.310543 145,156.985194 145,120.810543 C145,84.6358916 115.674651,18.1766131 79.5,18.1766131 C43.3253489,18.1766131 14,84.6358916 14,120.810543 C14,156.985194 43.3253489,186.310543 79.5,186.310543 Z"></path>
                        <g mask="url(#mask-8)" fill="none" stroke="none" id="矩形备份-5">
                            <use xlink:href="#path-11" filter="url(#filter-12)" fill-opacity="1" fill="black"></use>
                            <use xlink:href="#path-11" fill-rule="evenodd" fill="url(#linearGradient-10)"></use>
                            <use xlink:href="#path-11" filter="url(#filter-13)" fill-opacity="1" fill="black"></use>
                        </g>
                        <path mask="url(#mask-8)" opacity="0.22" fill-rule="evenodd" fill="url(#linearGradient-14)" stroke="none" id="矩形备份-14" d="M48.658997,138.810543 L82.658997,138.810543 C84.3158512,138.810543 85.658997,140.153688 85.658997,141.810543 C85.658997,143.467397 84.3158512,144.810543 82.658997,144.810543 L48.658997,144.810543 C47.0021427,144.810543 45.658997,143.467397 45.658997,141.810543 C45.658997,140.153688 47.0021427,138.810543 48.658997,138.810543 Z"></path>
                        <path mask="url(#mask-8)" opacity="0.22" fill-rule="evenodd" fill="url(#linearGradient-15)" stroke="none" id="矩形备份-14" d="M49.658997,122.810543 L101.658997,122.810543 C103.315851,122.810543 104.658997,124.153688 104.658997,125.810543 C104.658997,127.467397 103.315851,128.810543 101.658997,128.810543 L49.658997,128.810543 C48.0021427,128.810543 46.658997,127.467397 46.658997,125.810543 C46.658997,124.153688 48.0021427,122.810543 49.658997,122.810543 Z"></path>
                        <mask fill="white" id="mask-17">
                            <use xlink:href="#path-16"></use>
                        </mask>
                        <g fill="none" stroke="none" id="路径-2"></g>
                        <path mask="url(#mask-17)" filter="url(#filter-19)" opacity="0.32" fill-rule="evenodd" fill="url(#linearGradient-18)" stroke="none" id="形状结合" d="M126,35.8105427 C133.6275,35.8105427 139.830327,41.9102951 139.996578,49.4978977 L140,49.8105427 L140,147.810543 L139.858245,147.810702 C138.887854,141.026036 133.052999,135.810543 126,135.810543 L126,35.8105427 Z"></path>
                        <g mask="url(#mask-17)" fill="none" stroke="none" id="路径">
                            <use xlink:href="#path-21" fill-rule="evenodd" fill="url(#linearGradient-20)"></use>
                            <use xlink:href="#path-21" filter="url(#filter-22)" fill-opacity="1" fill="black"></use>
                        </g>
                    </g>
                </g>
                <g mask="url(#mask-3)" fill-rule="nonzero" id="30">
                    <use xlink:href="#path-24" fill="#7AAEFD"></use>
                    <use xlink:href="#path-24" fill="url(#linearGradient-23)"></use>
                </g>
                <g mask="url(#mask-3)" fill-rule="nonzero" id="30">
                    <use xlink:href="#path-26" fill="#222222"></use>
                    <use xlink:href="#path-26" fill="url(#linearGradient-25)"></use>
                    <use xlink:href="#path-26" filter="url(#filter-27)" fill-opacity="1" fill="black"></use>
                </g>
            </g>
        </g>
    </g>
</svg>