<svg xmlns:xlink="http://www.w3.org/1999/xlink" xmlns="http://www.w3.org/2000/svg" version="1.1" viewBox="0 0 184 208" height="208px" width="184px">
    <title>32.收藏入门</title>
    <defs>
        <linearGradient id="linearGradient-1" y2="14.0319111%" x2="22.157416%" y1="88.0621668%" x1="76.7823015%">
            <stop offset="0%" stop-color="#FFAA00"></stop>
            <stop offset="100%" stop-color="#FFEC45"></stop>
        </linearGradient>
        <path id="path-2" d="M96.9205726,2.78119319 L178.920573,49.1290193 C182.059262,50.9030612 184,54.2292909 184,57.8346477 L184,150.165352 C184,153.770709 182.059262,157.096939 178.920573,158.870981 L96.9205726,205.218807 C93.8671831,206.944636 90.1328169,206.944636 87.0794274,205.218807 L5.07942743,158.870981 C1.94073784,157.096939 0,153.770709 0,150.165352 L0,57.8346477 C0,54.2292909 1.94073784,50.9030612 5.07942743,49.1290193 L87.0794274,2.78119319 C90.1328169,1.05536437 93.8671831,1.05536437 96.9205726,2.78119319 Z"></path>
        <filter id="filter-4" filterUnits="objectBoundingBox" height="190.0%" width="181.4%" y="-45.0%" x="-40.7%">
            <feGaussianBlur in="SourceGraphic" stdDeviation="22"></feGaussianBlur>
        </filter>
        <linearGradient id="linearGradient-5" y2="18.1691683%" x2="24.6404944%" y1="84.7725295%" x1="84.5680147%">
            <stop offset="0%" stop-color="#FEE464"></stop>
            <stop offset="45.0170647%" stop-color="#FFAA11"></stop>
            <stop offset="100%" stop-color="#FF9413"></stop>
        </linearGradient>
        <path id="path-6" d="M83.9364581,2.22495455 L155.936458,42.9206067 C158.44741,44.3398403 160,47.0008241 160,49.8851094 L160,130.984456 C160,133.868741 158.44741,136.529725 155.936458,137.948958 L83.9364581,178.644611 C81.4937465,180.025274 78.5062535,180.025274 76.0635419,178.644611 L4.06354195,137.948958 C1.55259028,136.529725 3.53223086e-16,133.868741 0,130.984456 L0,49.8851094 C8.52856111e-15,47.0008241 1.55259028,44.3398403 4.06354195,42.9206067 L76.0635419,2.22495455 C78.5062535,0.844291498 81.4937465,0.844291498 83.9364581,2.22495455 Z"></path>
        <linearGradient id="linearGradient-8" y2="2.70498442%" x2="50%" y1="113.506108%" x1="50.3497349%">
            <stop offset="0%" stop-color="#FFE658"></stop>
            <stop offset="50.4971665%" stop-color="#F09715"></stop>
            <stop offset="100%" stop-color="#EA6E14"></stop>
            <stop offset="100%" stop-color="#F46701"></stop>
        </linearGradient>
        <path id="path-9" d="M81.968229,6.11247728 L152.974975,46.2467249 C154.226848,46.9543054 155.002569,48.2794066 155.006729,49.7174049 L155.241142,130.749871 C155.244275,131.832574 154.66377,132.832963 153.722202,133.367477 L81.6041525,174.307747 C80.6856305,174.829178 79.5605816,174.829178 78.6420595,174.307747 L7.0252713,133.652035 C5.77344631,132.941393 5,131.612936 5,130.173465 L5,49.7251634 C5,48.2830207 5.77629514,46.9525288 7.03177097,46.2429121 L78.031771,6.11247728 C79.2531268,5.42214575 80.7468732,5.42214575 81.968229,6.11247728 Z"></path>
        <linearGradient id="linearGradient-11" y2="56.9152945%" x2="104.89564%" y1="92.9515865%" x1="23.1057457%">
            <stop offset="0%" stop-color="#FFD944"></stop>
            <stop offset="100%" stop-color="#FFAC02"></stop>
        </linearGradient>
        <path id="path-12" d="M37.7856208,120.123164 C61.300136,138.61597 96.3902145,132.957308 116.161505,107.484188 C135.932795,82.0110686 132.898311,46.3696431 109.383796,27.8768364 C85.8692807,9.38402975 50.7792023,15.0426916 31.0079122,40.5158115 C11.236622,65.9889314 14.2711056,101.630357 37.7856208,120.123164 Z"></path>
        <filter id="filter-13" filterUnits="objectBoundingBox" height="144.7%" width="145.8%" y="-22.4%" x="-17.5%">
            <feOffset result="shadowOffsetOuter1" in="SourceAlpha" dy="0" dx="6"></feOffset>
            <feGaussianBlur result="shadowBlurOuter1" in="shadowOffsetOuter1" stdDeviation="7.5"></feGaussianBlur>
            <feColorMatrix in="shadowBlurOuter1" type="matrix" values="0 0 0 0 0.702663698   0 0 0 0 0.0447043195   0 0 0 0 0.0282553351  0 0 0 0.5 0"></feColorMatrix>
        </filter>
        <linearGradient id="linearGradient-14" y2="24.1571004%" x2="107.7718%" y1="74.3613387%" x1="-1.28388038%">
            <stop offset="0%" stop-color="#FFE789"></stop>
            <stop offset="100%" stop-color="#FFF2D0"></stop>
        </linearGradient>
        <linearGradient id="linearGradient-15" y2="67.2077038%" x2="84.6407525%" y1="33.1023114%" x1="10.9354948%">
            <stop offset="0%" stop-color="#FFD63A"></stop>
            <stop offset="100%" stop-color="#EE331D"></stop>
        </linearGradient>
        <ellipse ry="49.868215" rx="46.3277248" cy="68.4264232" cx="67.9243462" id="path-16"></ellipse>
        <linearGradient id="linearGradient-18" y2="67.2077038%" x2="84.6407525%" y1="33.0001893%" x1="13.9503626%">
            <stop offset="0%" stop-color="#FD9B04"></stop>
            <stop offset="100%" stop-color="#EE331D"></stop>
        </linearGradient>
        <linearGradient id="linearGradient-19" y2="41.2044576%" x2="95.6831711%" y1="100%" x1="21.7124683%">
            <stop offset="0%" stop-color="#FFDF6F"></stop>
            <stop offset="100%" stop-color="#FFB109"></stop>
        </linearGradient>
        <linearGradient id="linearGradient-20" y2="40.7059222%" x2="100%" y1="64.8250865%" x1="0%">
            <stop offset="0%" stop-color="#FFF9E3"></stop>
            <stop offset="100%" stop-color="#FFE48A"></stop>
        </linearGradient>
    </defs>
    <g fill-rule="evenodd" fill="none" stroke-width="1" stroke="none" id="页面-1">
        <g transform="translate(-201.000000, -5098.000000)" id="勋章">
            <g transform="translate(201.000000, 5098.000000)" id="32.收藏入门">
                <g id="矩形">
                    <mask fill="white" id="mask-3">
                        <use xlink:href="#path-2"></use>
                    </mask>
                    <use xlink:href="#path-2" fill="url(#linearGradient-1)" id="蒙版"></use>
                    <polygon points="-21.275089 61.4694852 100.866578 -33.9580435 140.884574 17.2626555 18.7429069 112.690184" mask="url(#mask-3)" filter="url(#filter-4)" opacity="0.400000006" fill="#FFFFFF"></polygon>
                </g>
                <g transform="translate(12.000000, 14.000000)" id="矩形-+-矩形-+-矩形-+-矩形蒙版">
                    <mask fill="white" id="mask-7">
                        <use xlink:href="#path-6"></use>
                    </mask>
                    <path d="M77.2936851,4.40136165 C78.9730493,3.4521558 81.0269507,3.4521558 82.7063149,4.40136165 L82.7063149,4.40136165 L154.706315,45.0970138 C155.569455,45.5848754 156.267876,46.2861627 156.750512,47.113353 C157.233149,47.9405432 157.5,48.8936363 157.5,49.8851094 L157.5,49.8851094 L157.5,130.984456 C157.5,131.975929 157.233149,132.929022 156.750512,133.756212 C156.267876,134.583403 155.569455,135.28469 154.706315,135.772551 L154.706315,135.772551 L82.7063149,176.468204 C81.0269507,177.417409 78.9730493,177.417409 77.2936851,176.468204 L77.2936851,176.468204 L5.29368509,135.772551 C4.43054545,135.28469 3.73212418,134.583403 3.24948782,133.756212 C2.76685145,132.929022 2.5,131.975929 2.5,130.984456 L2.5,130.984456 L2.5,49.8851094 C2.5,48.8936363 2.76685145,47.9405432 3.24948782,47.113353 C3.73212418,46.2861627 4.43054545,45.5848754 5.29368509,45.0970138 L5.29368509,45.0970138 Z" stroke-width="5" stroke="url(#linearGradient-5)"></path>
                    <mask fill="white" id="mask-10">
                        <use xlink:href="#path-9"></use>
                    </mask>
                    <use xlink:href="#path-9" fill="url(#linearGradient-8)" id="蒙版"></use>
                    <polygon points="98 3 87.342 75.869 131.204581 16.753788 155.246212 40.7954185 95.888 84.83 169 74 169 108 95.891 97.164 155.246212 141.204581 131.204581 165.246212 87.17 105.889 98 179 64 179 74.792 106.183 30.7954185 165.246212 6.75378798 141.204581 65.581 97.389 -7 108 -7 74 65.578 84.615 6.75378798 40.7954185 30.7954185 16.753788 74.609 75.58 64 3" mask="url(#mask-10)" opacity="0.219999999" fill="#FFFFFF" id="路径"></polygon>
                    <g mask="url(#mask-10)" id="编组-17">
                        <g transform="translate(9.053874, 20.344835)">
                            <g fill="none" id="椭圆形">
                                <use xlink:href="#path-12" filter="url(#filter-13)" fill-opacity="1" fill="black"></use>
                                <use xlink:href="#path-12" fill-rule="evenodd" fill="url(#linearGradient-11)"></use>
                            </g>
                            <path fill-rule="evenodd" fill="url(#linearGradient-14)" id="椭圆形" d="M32.639837,115.123164 C56.1543522,133.61597 91.2444307,127.957308 111.015721,102.484188 C130.787011,77.0110686 127.752527,41.3696431 104.238012,22.8768364 C80.7234969,4.38402975 45.6334185,10.0426916 25.8621284,35.5158115 C6.09083824,60.9889314 9.12532175,96.6303569 32.639837,115.123164 Z"></path>
                            <g fill-rule="evenodd" fill="none" stroke-width="1" id="椭圆形">
                                <mask fill="white" id="mask-17">
                                    <use xlink:href="#path-16"></use>
                                </mask>
                                <use xlink:href="#path-16" transform="translate(67.924346, 68.426423) rotate(38.000000) translate(-67.924346, -68.426423)" fill="url(#linearGradient-15)" id="蒙版"></use>
                                <ellipse ry="49.868215" rx="46.3277248" cy="73.5767991" cx="71.0118165" transform="translate(71.011816, 73.576799) rotate(38.000000) translate(-71.011816, -73.576799)" mask="url(#mask-17)" fill="url(#linearGradient-18)"></ellipse>
                            </g>
                            <g transform="translate(31.407174, 31.000000)" fill-rule="evenodd" fill="none" stroke-width="1" id="收集表">
                                <g fill-rule="nonzero" transform="translate(38.109471, 39.039853) rotate(8.000000) translate(-38.109471, -39.039853) translate(5.109471, 4.539853)" id="收-藏">
                                    <path transform="translate(36.098877, 38.768257) rotate(-8.000000) translate(-36.098877, -38.768257)" opacity="0.699999988" fill="#DE1611" id="路径" d="M43.0019015,63.9911273 L31.9384452,56.2024756 L18.5576129,60.5796708 C17.2203426,61.0655393 15.6452914,60.7496532 14.6753659,59.7496488 C13.7054404,58.7496444 13.323535,57.1592057 13.8610869,55.7931581 L18.7845816,43.0303099 L10.7801165,32.690364 C9.93805837,31.5160623 9.85422739,29.8711518 10.46833,28.6118589 C11.1931945,27.2719527 12.5052307,26.3982775 14.0379422,26.420041 L27.8755339,25.8533696 L36.0932555,14.5109777 C36.988327,13.290897 38.4534647,12.6307311 39.8583089,12.8267919 C41.263153,13.0228526 42.5140474,14.0620691 42.8365075,15.4520692 L46.6067895,28.4675126 L59.5719988,32.6787243 C60.9426319,33.062153 61.9720026,34.2625961 62.0900447,35.7201387 C62.301743,37.190752 61.6534293,38.6374129 60.4350493,39.5241588 L49.1292156,47.2652215 L49.1695037,60.7208175 C49.1767839,62.2589734 48.2646069,63.5727381 46.9867817,64.2590454 C46.3393164,64.649041 45.5387496,64.8255272 44.6958431,64.7078908 C44.1339054,64.6294665 43.5125225,64.3506035 43.0019015,63.9911273 Z"></path>
                                    <path fill="url(#linearGradient-19)" id="形状结合" d="M31.8862157,3.77115363 L36.3076223,8.25882293 L36.2931534,8.26235875 C36.5343898,8.54570032 36.730617,8.86962566 36.8665662,9.22703617 L42.4453978,21.8344288 L53.4724307,23.8397706 C54.5167398,22.488216 55.0388944,21.8124387 55.0388944,21.8124387 C55.0388944,21.8124387 55.9810412,22.9672246 57.8653348,25.2767965 C58.0263645,25.438088 58.1708043,25.6145119 58.2977008,25.8048144 C58.3355464,25.8531332 58.3754655,25.9020619 58.4157449,25.9514322 L58.3990061,25.9660226 C58.584193,26.2792155 58.7235285,26.625773 58.8062499,26.9975782 C59.2243808,28.4519056 58.7874703,30.0017332 57.7066588,31.0659537 L47.6082772,40.4495079 L49.5558022,54.0200089 C49.7810793,55.5709278 49.0640314,57.0233846 47.8959364,57.8936427 C47.3100602,58.3772234 46.5423022,58.6666859 45.6909181,58.665283 C45.1233287,58.6643477 44.4684557,58.4694501 43.9118383,58.1778052 L31.8517952,51.8588322 L19.2216981,58.1371192 C17.9663196,58.8134151 16.3618069,58.7138619 15.2595442,57.8398625 C14.7802029,57.4597861 14.3951516,56.9515782 14.1408824,56.3790567 L11.2833684,52.6420226 L14.4188743,51.6281536 L16.958448,40.3990013 L7.56593515,31.080238 C6.5655854,30.012588 6.24936741,28.3646101 6.67896328,27.0085888 C7.20681474,25.5558203 8.38222446,24.4917557 9.90311097,24.3004435 L23.5257502,21.8032518 L30.0554931,9.21581246 C30.7311759,7.93190955 31.984489,7.08363494 33.320743,6.999534 L31.8862157,3.77115363 Z"></path>
                                    <path transform="translate(30.295089, 29.688973) rotate(-8.000000) translate(-30.295089, -29.688973)" fill="url(#linearGradient-20)" id="路径" d="M37.1981136,54.9118434 L26.1346574,47.1231917 L12.7538251,51.5003869 C11.4165547,51.9862555 9.84150356,51.6703693 8.87157806,50.6703649 C7.90165255,49.6703605 7.5197472,48.0799218 8.05729909,46.7138742 L12.9807938,33.951026 L4.9763287,23.6110801 C4.13427055,22.4367784 4.05043957,20.7918679 4.66454219,19.532575 C5.38940664,18.1926688 6.70144288,17.3189936 8.2341544,17.3407571 L22.0717461,16.7740858 L30.2894677,5.43169384 C31.1845392,4.21161309 32.6496769,3.55144726 34.054521,3.74750798 C35.4593652,3.9435687 36.7102595,4.98278526 37.0327197,6.3727853 L40.8030017,19.3882287 L53.768211,23.5994405 C55.1388441,23.9828692 56.1682148,25.1833122 56.2862568,26.6408548 C56.4979552,28.1114681 55.8496415,29.558129 54.6312615,30.4448749 L43.3254278,38.1859376 L43.3657159,51.6415336 C43.3729961,53.1796895 42.4608191,54.4934542 41.1829939,55.1797615 C40.5355286,55.5697571 39.7349617,55.7462433 38.8920552,55.6286069 C38.3301176,55.5501826 37.7087347,55.2713197 37.1981136,54.9118434 Z"></path>
                                </g>
                            </g>
                        </g>
                    </g>
                </g>
            </g>
        </g>
    </g>
</svg>