<svg xmlns:xlink="http://www.w3.org/1999/xlink" xmlns="http://www.w3.org/2000/svg" version="1.1" viewBox="0 0 184 206" height="206px" width="184px">
    <title>1.新人报道</title>
    <defs>
        <linearGradient id="linearGradient-1" y2="14.0319111%" x2="22.157416%" y1="88.0621668%" x1="76.7823015%">
            <stop offset="0%" stop-color="#48A4FE"></stop>
            <stop offset="100%" stop-color="#B1E9FF"></stop>
        </linearGradient>
        <path id="path-2" d="M96.9205726,1.29437161 L178.920573,47.6421977 C182.059262,49.4162396 184,52.7424694 184,56.3478261 L184,148.678531 C184,152.283887 182.059262,155.610117 178.920573,157.384159 L96.9205726,203.731985 C93.8671831,205.457814 90.1328169,205.457814 87.0794274,203.731985 L5.07942743,157.384159 C1.94073784,155.610117 0,152.283887 0,148.678531 L0,56.3478261 C0,52.7424694 1.94073784,49.4162396 5.07942743,47.6421977 L87.0794274,1.29437161 C90.1328169,-0.431457204 93.8671831,-0.431457204 96.9205726,1.29437161 Z"></path>
        <filter id="filter-4" filterUnits="objectBoundingBox" height="190.0%" width="181.4%" y="-45.0%" x="-40.7%">
            <feGaussianBlur in="SourceGraphic" stdDeviation="22"></feGaussianBlur>
        </filter>
        <linearGradient id="linearGradient-5" y2="16.3043788%" x2="25.1101777%" y1="93.7769779%" x1="66.712846%">
            <stop offset="0%" stop-color="#B2E2FF"></stop>
            <stop offset="35.879332%" stop-color="#69F3FD"></stop>
            <stop offset="100%" stop-color="#4CA7FE"></stop>
        </linearGradient>
        <linearGradient id="linearGradient-6" y2="2.70498442%" x2="50%" y1="110.27233%" x1="50%">
            <stop offset="0%" stop-color="#1EEDFC"></stop>
            <stop offset="51.2108161%" stop-color="#3B96EE"></stop>
            <stop offset="100%" stop-color="#4734F5"></stop>
        </linearGradient>
        <path id="path-7" d="M81.968229,4.92302001 L152.968229,45.0534548 C154.223705,45.7630716 155,47.0935635 155,48.5357062 L155,129.994776 C155,131.07919 154.414779,132.079193 153.469336,132.610316 L81.4769566,173.053591 C80.5603411,173.56852 79.4410569,173.566044 78.5267282,173.047066 L7.02547713,132.462536 C5.77353649,131.751927 5,130.423405 5,128.983849 L5,48.5357062 C5,47.0935635 5.77629514,45.7630716 7.03177097,45.0534548 L78.031771,4.92302001 C79.2531268,4.23268849 80.7468732,4.23268849 81.968229,4.92302001 Z"></path>
        <filter id="filter-9" filterUnits="objectBoundingBox" height="185.1%" width="191.6%" y="-42.6%" x="-45.8%">
            <feGaussianBlur in="SourceGraphic" stdDeviation="20"></feGaussianBlur>
        </filter>
        <linearGradient id="linearGradient-10" y2="84.9034191%" x2="36.3015314%" y1="-46.1184438%" x1="77.2436904%">
            <stop offset="0%" stop-color="#335CED"></stop>
            <stop offset="100%" stop-color="#8B76FF"></stop>
        </linearGradient>
        <linearGradient id="linearGradient-11" y2="100%" x2="50%" y1="0%" x1="56.2006719%">
            <stop offset="0%" stop-color="#E9FBFF"></stop>
            <stop offset="45.8193704%" stop-color="#C9F6FF"></stop>
            <stop offset="79.0447645%" stop-color="#90D0FF"></stop>
            <stop offset="100%" stop-color="#45A8FF"></stop>
        </linearGradient>
        <path id="path-12" d="M89.2829094,0 C90.9397636,0 92.2829094,1.34314575 92.2829094,3 L92.2829094,131.965674 C92.2829094,133.622528 90.9397636,134.965674 89.2829094,134.965674 L3,134.965674 C1.34314575,134.965674 0,133.622528 0,131.965674 L0,3 C0,1.34314575 1.34314575,0 3,0 L89.2829094,0 Z M58.5,12 L33.5,12 C32.1192881,12 31,13.1192881 31,14.5 C31,15.8254834 32.0315359,16.9100387 33.3356243,16.9946823 L33.5,17 L58.5,17 C59.8807119,17 61,15.8807119 61,14.5 C61,13.1745166 59.9684641,12.0899613 58.6643757,12.0053177 L58.5,12 Z"></path>
        <filter id="filter-13" filterUnits="objectBoundingBox" height="104.4%" width="106.5%" y="-2.2%" x="-3.3%">
            <feGaussianBlur result="shadowBlurInner1" in="SourceAlpha" stdDeviation="1.5"></feGaussianBlur>
            <feOffset result="shadowOffsetInner1" in="shadowBlurInner1" dy="3" dx="0"></feOffset>
            <feComposite result="shadowInnerInner1" k3="1" k2="-1" operator="arithmetic" in2="SourceAlpha" in="shadowOffsetInner1"></feComposite>
            <feColorMatrix in="shadowInnerInner1" type="matrix" values="0 0 0 0 0.832240854   0 0 0 0 1   0 0 0 0 0.993244598  0 0 0 1 0"></feColorMatrix>
        </filter>
        <linearGradient id="linearGradient-14" y2="92.9367883%" x2="20.6389051%" y1="18.9013448%" x1="88.6273042%">
            <stop offset="0%" stop-color="#4BB5E1"></stop>
            <stop offset="44.6626625%" stop-color="#5E5BFA"></stop>
            <stop offset="100%" stop-color="#3442EF"></stop>
        </linearGradient>
        <circle r="32.5" cy="66.5" cx="46.5" id="path-15"></circle>
        <linearGradient id="linearGradient-17" y2="100%" x2="50%" y1="0%" x1="50%">
            <stop offset="0%" stop-color="#FEDA28"></stop>
            <stop offset="100%" stop-color="#FC7B0F"></stop>
        </linearGradient>
        <linearGradient id="linearGradient-18" y2="95.9330199%" x2="34.9119447%" y1="9.28022033%" x1="74.1313761%">
            <stop offset="0%" stop-color="#FDDF38"></stop>
            <stop offset="100%" stop-color="#FB9D17"></stop>
        </linearGradient>
        <path id="path-19" d="M25.5267101,28.7067863 C25.0144303,28.7067863 24.6011088,28.2888881 24.6011088,27.7709277 L24.6011088,24.8868401 C24.6011088,24.5042571 24.8397855,24.1687599 25.19489,24.0274982 C29.7122734,22.1852165 32.9082043,17.7295765 32.9256972,12.5088161 C32.9431613,5.80478232 27.4011931,0.101343108 20.7764829,0.00131547513 C13.8839837,-0.0987448938 8.2663493,5.52229519 8.2663493,12.4676229 C8.2663493,17.6413249 11.3866113,22.0616369 15.8224977,23.950977 C16.1717805,24.0981245 16.4046365,24.427736 16.4046365,24.810319 L16.4046365,27.7709232 C16.4046365,28.2888799 15.9913186,28.7067817 15.4790352,28.7067817 L3.72568109,28.7067817 C1.66491048,28.7067817 0,30.3960302 0,32.4737496 L0,36.0641415 C0,36.5820982 0.413317914,37 0.925601313,37 L40.0743835,37 C40.5866633,37 41.0000151,36.5821018 41.0000151,36.0641415 L41.0000151,32.4737496 C41.0058062,30.3901422 39.3350699,28.7067817 37.2743037,28.7067817 L25.5267101,28.7067863 Z"></path>
        <filter id="filter-21" filterUnits="objectBoundingBox" height="110.8%" width="109.8%" y="-5.4%" x="-4.9%">
            <feGaussianBlur result="shadowBlurInner1" in="SourceAlpha" stdDeviation="1.5"></feGaussianBlur>
            <feOffset result="shadowOffsetInner1" in="shadowBlurInner1" dy="1" dx="1"></feOffset>
            <feComposite result="shadowInnerInner1" k3="1" k2="-1" operator="arithmetic" in2="SourceAlpha" in="shadowOffsetInner1"></feComposite>
            <feColorMatrix in="shadowInnerInner1" type="matrix" values="0 0 0 0 1   0 0 0 0 0.912559056   0 0 0 0 0.443470131  0 0 0 1 0"></feColorMatrix>
        </filter>
        <linearGradient id="linearGradient-22" y2="90.7197797%" x2="35.0794965%" y1="81.4665523%" x1="36.6204848%">
            <stop offset="0%" stop-opacity="0" stop-color="#FDDF38"></stop>
            <stop offset="100%" stop-color="#D0169D"></stop>
        </linearGradient>
        <path id="path-23" d="M25.5267101,28.7067863 C25.0144303,28.7067863 24.6011088,28.2888881 24.6011088,27.7709277 L24.6011088,24.8868401 C24.6011088,24.5042571 24.8397855,24.1687599 25.19489,24.0274982 C29.7122734,22.1852165 32.9082043,17.7295765 32.9256972,12.5088161 C32.9431613,5.80478232 27.4011931,0.101343108 20.7764829,0.00131547513 C13.8839837,-0.0987448938 8.2663493,5.52229519 8.2663493,12.4676229 C8.2663493,17.6413249 11.3866113,22.0616369 15.8224977,23.950977 C16.1717805,24.0981245 16.4046365,24.427736 16.4046365,24.810319 L16.4046365,27.7709232 C16.4046365,28.2888799 15.9913186,28.7067817 15.4790352,28.7067817 L3.72568109,28.7067817 C1.66491048,28.7067817 -1.03028697e-13,30.3960302 -1.03028697e-13,32.4737496 L-1.03028697e-13,36.0641415 C-1.03028697e-13,36.5820982 0.413317914,37 0.925601313,37 L40.0743835,37 C40.5866633,37 41.0000151,36.5821018 41.0000151,36.0641415 L41.0000151,32.4737496 C41.0058062,30.3901422 39.3350699,28.7067817 37.2743037,28.7067817 L25.5267101,28.7067863 Z"></path>
        <linearGradient id="linearGradient-25" y2="105.043619%" x2="34.5852159%" y1="5.50241864%" x1="65.7849854%">
            <stop offset="0%" stop-color="#8FD0FF"></stop>
            <stop offset="100%" stop-color="#57AEFE"></stop>
        </linearGradient>
    </defs>
    <g fill-rule="evenodd" fill="none" stroke-width="1" stroke="none" id="页面-1">
        <g transform="translate(-201.000000, -477.000000)" id="勋章">
            <g transform="translate(201.000000, 477.444865)" id="1.新人报道">
                <mask fill="white" id="mask-3">
                    <use xlink:href="#path-2"></use>
                </mask>
                <use xlink:href="#path-2" fill="url(#linearGradient-1)" id="蒙版"></use>
                <polygon points="-21.275089 59.9826636 100.866578 -35.444865 140.884574 15.7758339 18.7429069 111.203363" mask="url(#mask-3)" filter="url(#filter-4)" opacity="0.400000006" fill="#FFFFFF" id="矩形"></polygon>
                <g mask="url(#mask-3)" id="矩形-+-矩形-+-矩形-+-矩形蒙版">
                    <g transform="translate(12.000000, 13.702636)">
                        <path fill-rule="nonzero" fill="url(#linearGradient-5)" stroke="none" id="蒙版" d="M83.9364581,1.03549729 L155.936458,41.7311495 C158.44741,43.150383 160,45.8113668 160,48.6956522 L160,129.794999 C160,132.679284 158.44741,135.340268 155.936458,136.759501 L83.9364581,177.455153 C81.4937465,178.835816 78.5062535,178.835816 76.0635419,177.455153 L4.06354195,136.759501 C1.55259028,135.340268 0,132.679284 0,129.794999 L0,48.6956522 C0,45.8113668 1.55259028,43.150383 4.06354195,41.7311495 L76.0635419,1.03549729 C78.5062535,-0.345165763 81.4937465,-0.345165763 83.9364581,1.03549729 Z M81.4761718,5.38831148 C80.6212227,4.90507942 79.5883117,4.87286394 78.7096344,5.29166507 L78.5238282,5.38831148 L6.52382823,46.0839637 C5.64107178,46.582913 5.07418152,47.4911305 5.0067685,48.4939254 L5,48.6956522 L5,129.794999 C5,130.809005 5.51171799,131.749414 6.35154289,132.301534 L6.52382823,132.406687 L78.5238282,173.102339 C79.3787773,173.585571 80.4116883,173.617787 81.2903656,173.198986 L81.4761718,173.102339 L153.476172,132.406687 C154.358928,131.907738 154.925818,130.99952 154.993231,129.996725 L155,129.794999 L155,48.6956522 C155,47.6816456 154.488282,46.741237 153.648457,46.1891172 L153.476172,46.0839637 L81.4761718,5.38831148 Z"></path>
                        <mask fill="white" id="mask-8">
                            <use xlink:href="#path-7"></use>
                        </mask>
                        <use xlink:href="#path-7" fill-rule="evenodd" fill="url(#linearGradient-6)" stroke="none" id="蒙版"></use>
                        <polygon points="97 1.81054274 86.342 74.6795427 130.204581 15.5643307 154.246212 39.6059613 94.888 83.6405427 168 72.8105427 168 106.810543 94.891 95.9745427 154.246212 140.015124 130.204581 164.056755 86.17 104.699543 97 177.810543 63 177.810543 73.792 104.993543 29.7954185 164.056755 5.75378798 140.015124 64.581 96.1995427 -8 106.810543 -8 72.8105427 64.578 83.4255427 5.75378798 39.6059613 29.7954185 15.5643307 73.609 74.3905427 63 1.81054274" mask="url(#mask-8)" opacity="0.179999992" fill-rule="evenodd" fill="#FFFFFF" stroke="none" id="路径"></polygon>
                        <path mask="url(#mask-8)" filter="url(#filter-9)" fill-rule="evenodd" fill="#0A4CDF" stroke="none" id="椭圆形" d="M80.5,159.310543 C116.674651,159.310543 146,129.985194 146,93.8105427 C146,57.6358916 116.674651,18.3105427 80.5,18.3105427 C44.3253489,18.3105427 15,57.6358916 15,93.8105427 C15,129.985194 44.3253489,159.310543 80.5,159.310543 Z"></path>
                        <g mask="url(#mask-8)" fill-rule="evenodd" fill="none" stroke-width="1" stroke="none" id="编组-10">
                            <g transform="translate(34.000000, 6.810543)">
                                <polygon points="35.4052336 0 47.3251639 4 24.4173799 50 10.4173799 50" transform="translate(28.871272, 25.000000) scale(-1, 1) translate(-28.871272, -25.000000)" fill="url(#linearGradient-10)" id="矩形"></polygon>
                                <g transform="translate(0.000000, 38.000000)" fill="none" stroke-width="1" id="编组-2">
                                    <g id="形状">
                                        <use xlink:href="#path-12" fill-rule="evenodd" fill="url(#linearGradient-11)"></use>
                                        <use xlink:href="#path-12" filter="url(#filter-13)" fill-opacity="1" fill="black"></use>
                                    </g>
                                    <mask fill="white" id="mask-16">
                                        <use xlink:href="#path-15"></use>
                                    </mask>
                                    <use xlink:href="#path-15" fill="url(#linearGradient-14)" id="椭圆形"></use>
                                    <g mask="url(#mask-16)" id="印章">
                                        <g transform="translate(26.000000, 40.000000)">
                                            <path fill-rule="nonzero" fill="url(#linearGradient-17)" stroke="none" id="路径" d="M40.0745293,42 L0.925470713,42 C0.413263193,42 0,42.4028366 0,42.902129 L0,45.097871 C0,45.5971599 0.413259596,46 0.925470713,46 L40.0745293,46 C40.5867368,46 41,45.5971634 41,45.097871 L41,42.902129 C41,42.4028401 40.5867404,42 40.0745293,42 Z"></path>
                                            <mask fill="white" id="mask-20">
                                                <use xlink:href="#path-19"></use>
                                            </mask>
                                            <g fill-rule="nonzero" fill="none" stroke="none" id="路径">
                                                <use xlink:href="#path-19" fill="url(#linearGradient-18)"></use>
                                                <use xlink:href="#path-19" filter="url(#filter-21)" fill-opacity="1" fill="black"></use>
                                            </g>
                                            <mask fill="white" id="mask-24">
                                                <use xlink:href="#path-23"></use>
                                            </mask>
                                            <use xlink:href="#path-23" opacity="0.2" fill-rule="nonzero" fill="url(#linearGradient-22)" stroke="none" id="路径"></use>
                                        </g>
                                    </g>
                                </g>
                                <polygon points="64.3251639 0 78.3251639 0 53.3373102 50 39.3373102 50" fill="url(#linearGradient-25)" id="矩形"></polygon>
                            </g>
                        </g>
                    </g>
                </g>
            </g>
        </g>
    </g>
</svg>