<svg xmlns:xlink="http://www.w3.org/1999/xlink" xmlns="http://www.w3.org/2000/svg" version="1.1" viewBox="0 0 184 208" height="208px" width="184px">
    <title>6.炉火纯青</title>
    <defs>
        <linearGradient id="linearGradient-1" y2="12.7274735%" x2="25.2178103%" y1="84.7046849%" x1="79.8436889%">
            <stop offset="0%" stop-color="#8357FF"></stop>
            <stop offset="100%" stop-color="#B982FF"></stop>
        </linearGradient>
        <path id="path-2" d="M96.9205726,2.78119319 L178.920573,49.1290193 C182.059262,50.9030612 184,54.2292909 184,57.8346477 L184,150.165352 C184,153.770709 182.059262,157.096939 178.920573,158.870981 L96.9205726,205.218807 C93.8671831,206.944636 90.1328169,206.944636 87.0794274,205.218807 L5.07942743,158.870981 C1.94073784,157.096939 0,153.770709 0,150.165352 L0,57.8346477 C0,54.2292909 1.94073784,50.9030612 5.07942743,49.1290193 L87.0794274,2.78119319 C90.1328169,1.05536437 93.8671831,1.05536437 96.9205726,2.78119319 Z"></path>
        <filter id="filter-4" filterUnits="objectBoundingBox" height="190.0%" width="181.4%" y="-45.0%" x="-40.7%">
            <feGaussianBlur in="SourceGraphic" stdDeviation="22"></feGaussianBlur>
        </filter>
        <linearGradient id="linearGradient-5" y2="13.0023533%" x2="25.2720595%" y1="88.8600417%" x1="73.8665507%">
            <stop offset="0%" stop-color="#D795FF"></stop>
            <stop offset="28.2501697%" stop-color="#FC74AB"></stop>
            <stop offset="61.0015848%" stop-color="#B452FD"></stop>
            <stop offset="100%" stop-color="#925DFF"></stop>
        </linearGradient>
        <linearGradient id="linearGradient-6" y2="0%" x2="50%" y1="90.384724%" x1="77.3001909%">
            <stop offset="0%" stop-color="#A040FE"></stop>
            <stop offset="52.1722689%" stop-color="#793EFF"></stop>
            <stop offset="100%" stop-color="#4938FD"></stop>
        </linearGradient>
        <path id="path-7" d="M81.968229,6.11247728 L152.97367,46.2459872 C154.22624,46.9539619 155.002073,48.2801059 155.00543,49.7189074 L155.195024,130.992192 C155.197555,132.077412 154.613805,133.079394 153.668498,133.612407 L81.4790512,174.316534 C80.5614098,174.833947 79.439619,174.83213 78.5236591,174.311745 L7.02409818,133.690688 C5.77293242,132.979863 5,131.651773 5,130.212785 L5,49.7251634 C5,48.2830207 5.77629514,46.9525288 7.03177097,46.2429121 L78.031771,6.11247728 C79.2531268,5.42214575 80.7468732,5.42214575 81.968229,6.11247728 Z"></path>
        <filter id="filter-9" filterUnits="objectBoundingBox" height="225.0%" width="225.0%" y="-62.5%" x="-62.5%">
            <feGaussianBlur in="SourceGraphic" stdDeviation="20"></feGaussianBlur>
        </filter>
        <linearGradient id="linearGradient-10" y2="47.1673501%" x2="5.81669089%" y1="46.4658816%" x1="100%">
            <stop offset="0%" stop-color="#FF86BD"></stop>
            <stop offset="28.9795013%" stop-color="#FF62AF"></stop>
            <stop offset="65.5913348%" stop-color="#B64BF8"></stop>
            <stop offset="100%" stop-color="#8E49F6"></stop>
        </linearGradient>
        <linearGradient id="linearGradient-11" y2="100%" x2="50%" y1="0%" x1="50%">
            <stop offset="0%" stop-color="#FF85CC"></stop>
            <stop offset="100%" stop-color="#B049FE"></stop>
        </linearGradient>
        <linearGradient id="linearGradient-12" y2="50%" x2="0%" y1="48.1508477%" x1="93.0449969%">
            <stop offset="0%" stop-color="#FFFDFE"></stop>
            <stop offset="100%" stop-color="#FFF5F9"></stop>
        </linearGradient>
        <linearGradient id="linearGradient-13" y2="0%" x2="0%" y1="0%" x1="105.15356%">
            <stop offset="0%" stop-opacity="0.154558088" stop-color="#FFFFFF"></stop>
            <stop offset="100%" stop-color="#D661E3"></stop>
        </linearGradient>
        <linearGradient id="linearGradient-14" y2="90.615461%" x2="18.5628405%" y1="20.5084699%" x1="67.9379086%">
            <stop offset="0%" stop-color="#FCCBE6"></stop>
            <stop offset="43.5022064%" stop-color="#FFF1F7"></stop>
            <stop offset="68.6972132%" stop-color="#FF8CE9"></stop>
            <stop offset="100%" stop-color="#9659FA"></stop>
        </linearGradient>
        <linearGradient id="linearGradient-15" y2="92.1026697%" x2="13.6270817%" y1="12.5235537%" x1="108.914859%">
            <stop offset="0%" stop-color="#FFE6F0"></stop>
            <stop offset="25.6611012%" stop-color="#FFDBEA"></stop>
            <stop offset="60.0487414%" stop-color="#E54DC8"></stop>
            <stop offset="100%" stop-color="#8248FC"></stop>
        </linearGradient>
        <linearGradient id="linearGradient-16" y2="60.2269023%" x2="4.79349614%" y1="49.0529169%" x1="105.348205%">
            <stop offset="0%" stop-color="#642BFF"></stop>
            <stop offset="25.4923758%" stop-color="#FF2E97"></stop>
            <stop offset="46.6487871%" stop-color="#9A34FB"></stop>
            <stop offset="100%" stop-color="#5C35FA"></stop>
        </linearGradient>
        <path id="path-17" d="M48.448,137.768 C53.056,137.768 57.568,136.328 60.64,133.448 C65.43232,128.93216 65.5355392,123.708531 65.536129,117.862048 L65.536129,117.128 L65.536129,117.128 C65.536129,113.288 65.536129,109.256 63.712,105.704 C62.752,103.88 61.408,102.44 59.68,101.096 C61.312,99.944 62.56,98.504 63.424,96.776 C64.96,93.512 65.056,89.96 65.056,86.408 C65.056,80.456 63.52,75.368 60.16,72.104 C57.472,69.416 53.632,67.88 48.448,67.88 C43.84,67.88 39.712,69.224 36.64,72.2 C33.568,75.08 31.936,78.824 31.936,84.392 L31.936,88.232 L44.8,88.232 L44.8,83.528 C44.8,80.744 46.432,79.4 48.448,79.4 C49.888,79.4 50.656,79.976 51.232,80.744 C52.333913,82.3050435 52.206155,85.1835917 52.1929626,87.1112452 L52.192,87.368 C52.192,89.384 52.384,92.936 51.04,94.568 C50.464,95.24 49.6,95.72 48.352,95.72 L45.28,95.72 L45.28,106.472 L48.352,106.472 C49.984,106.472 50.944,107.144 51.616,108.104 C52.58368,109.63616 52.6707712,112.726285 52.6738678,114.984592 L52.6731551,115.605124 C52.6728847,115.704085 52.672596,115.800644 52.6723748,115.894543 L52.6728975,116.657309 C52.6731179,116.74398 52.6733344,116.833064 52.6734879,116.924341 L52.6731809,117.496546 C52.665151,119.876499 52.5528276,123.265379 51.52,124.616 C50.944,125.384 49.984,126.248 48.448,126.248 C46.144,126.248 44.32,124.712 44.32,121.544 L44.32,117.416 L31.456,117.416 L31.456,121.064 C31.456,127.016 33.088,130.472 36.16,133.352 C39.232,136.328 43.84,137.768 48.448,137.768 Z M89.056,137.768 C93.664,137.768 98.176,136.328 101.248,133.352 C104.32,130.472 105.952,127.016 105.952,121.064 L105.952,84.584 C105.952,78.632 104.32,75.176 101.248,72.296 C98.176,69.32 93.664,67.88 89.056,67.88 C84.448,67.88 79.936,69.32 76.864,72.296 C73.792,75.176 72.16,78.632 72.16,84.584 L72.16,121.064 C72.16,127.016 73.792,130.472 76.864,133.352 C79.936,136.328 84.448,137.768 89.056,137.768 Z M89.056,126.248 C86.752,126.248 85.024,124.712 85.024,121.544 L85.024,84.104 C85.024,80.936 86.752,79.4 89.056,79.4 C91.36,79.4 93.088,80.936 93.088,84.104 L93.088,121.544 C93.088,124.712 91.36,126.248 89.056,126.248 Z M129.76,137.768 C134.368,137.768 138.88,136.328 141.952,133.352 C145.024,130.472 146.656,127.016 146.656,121.064 L146.656,84.584 C146.656,78.632 145.024,75.176 141.952,72.296 C138.88,69.32 134.368,67.88 129.76,67.88 C125.152,67.88 120.64,69.32 117.568,72.296 C114.496,75.176 112.864,78.632 112.864,84.584 L112.864,121.064 C112.864,127.016 114.496,130.472 117.568,133.352 C120.64,136.328 125.152,137.768 129.76,137.768 Z M129.76,126.248 C127.456,126.248 125.728,124.712 125.728,121.544 L125.728,84.104 C125.728,80.936 127.456,79.4 129.76,79.4 C132.064,79.4 133.792,80.936 133.792,84.104 L133.792,121.544 C133.792,124.712 132.064,126.248 129.76,126.248 Z"></path>
        <linearGradient id="linearGradient-18" y2="60.4171787%" x2="8.62702593%" y1="45.9449851%" x1="92.0610756%">
            <stop offset="0%" stop-color="#FFF8FB"></stop>
            <stop offset="30.8784175%" stop-color="#FFDEEB"></stop>
            <stop offset="63.753816%" stop-color="#FF64E0"></stop>
            <stop offset="100%" stop-color="#FF50A9"></stop>
        </linearGradient>
        <path id="path-19" d="M53.448,137.768 C58.056,137.768 62.568,136.328 65.64,133.448 C70.43232,128.93216 70.5355392,123.708531 70.536129,117.862048 L70.536129,117.128 L70.536129,117.128 C70.536129,113.288 70.536129,109.256 68.712,105.704 C67.752,103.88 66.408,102.44 64.68,101.096 C66.312,99.944 67.56,98.504 68.424,96.776 C69.96,93.512 70.056,89.96 70.056,86.408 C70.056,80.456 68.52,75.368 65.16,72.104 C62.472,69.416 58.632,67.88 53.448,67.88 C48.84,67.88 44.712,69.224 41.64,72.2 C38.568,75.08 36.936,78.824 36.936,84.392 L36.936,88.232 L49.8,88.232 L49.8,83.528 C49.8,80.744 51.432,79.4 53.448,79.4 C54.888,79.4 55.656,79.976 56.232,80.744 C57.333913,82.3050435 57.206155,85.1835917 57.1929626,87.1112452 L57.192,87.368 C57.192,89.384 57.384,92.936 56.04,94.568 C55.464,95.24 54.6,95.72 53.352,95.72 L50.28,95.72 L50.28,106.472 L53.352,106.472 C54.984,106.472 55.944,107.144 56.616,108.104 C57.58368,109.63616 57.6707712,112.726285 57.6738678,114.984592 L57.6731551,115.605124 C57.6728847,115.704085 57.672596,115.800644 57.6723748,115.894543 L57.6728975,116.657309 C57.6731179,116.74398 57.6733344,116.833064 57.6734879,116.924341 L57.6731809,117.496546 C57.665151,119.876499 57.5528276,123.265379 56.52,124.616 C55.944,125.384 54.984,126.248 53.448,126.248 C51.144,126.248 49.32,124.712 49.32,121.544 L49.32,117.416 L36.456,117.416 L36.456,121.064 C36.456,127.016 38.088,130.472 41.16,133.352 C44.232,136.328 48.84,137.768 53.448,137.768 Z M94.056,137.768 C98.664,137.768 103.176,136.328 106.248,133.352 C109.32,130.472 110.952,127.016 110.952,121.064 L110.952,84.584 C110.952,78.632 109.32,75.176 106.248,72.296 C103.176,69.32 98.664,67.88 94.056,67.88 C89.448,67.88 84.936,69.32 81.864,72.296 C78.792,75.176 77.16,78.632 77.16,84.584 L77.16,121.064 C77.16,127.016 78.792,130.472 81.864,133.352 C84.936,136.328 89.448,137.768 94.056,137.768 Z M94.056,126.248 C91.752,126.248 90.024,124.712 90.024,121.544 L90.024,84.104 C90.024,80.936 91.752,79.4 94.056,79.4 C96.36,79.4 98.088,80.936 98.088,84.104 L98.088,121.544 C98.088,124.712 96.36,126.248 94.056,126.248 Z M134.76,137.768 C139.368,137.768 143.88,136.328 146.952,133.352 C150.024,130.472 151.656,127.016 151.656,121.064 L151.656,84.584 C151.656,78.632 150.024,75.176 146.952,72.296 C143.88,69.32 139.368,67.88 134.76,67.88 C130.152,67.88 125.64,69.32 122.568,72.296 C119.496,75.176 117.864,78.632 117.864,84.584 L117.864,121.064 C117.864,127.016 119.496,130.472 122.568,133.352 C125.64,136.328 130.152,137.768 134.76,137.768 Z M134.76,126.248 C132.456,126.248 130.728,124.712 130.728,121.544 L130.728,84.104 C130.728,80.936 132.456,79.4 134.76,79.4 C137.064,79.4 138.792,80.936 138.792,84.104 L138.792,121.544 C138.792,124.712 137.064,126.248 134.76,126.248 Z"></path>
        <filter id="filter-20" filterUnits="objectBoundingBox" height="104.3%" width="102.6%" y="-2.1%" x="-1.3%">
            <feOffset result="shadowOffsetInner1" in="SourceAlpha" dy="-3" dx="3"></feOffset>
            <feComposite result="shadowInnerInner1" k3="1" k2="-1" operator="arithmetic" in2="SourceAlpha" in="shadowOffsetInner1"></feComposite>
            <feColorMatrix in="shadowInnerInner1" type="matrix" values="0 0 0 0 1   0 0 0 0 1   0 0 0 0 1  0 0 0 0.604458042 0"></feColorMatrix>
        </filter>
    </defs>
    <g fill-rule="evenodd" fill="none" stroke-width="1" stroke="none" id="页面-1">
        <g transform="translate(-1966.000000, -476.000000)" id="勋章">
            <g transform="translate(1966.000000, 476.000000)" id="6.炉火纯青">
                <mask fill="white" id="mask-3">
                    <use xlink:href="#path-2"></use>
                </mask>
                <use xlink:href="#path-2" fill="url(#linearGradient-1)" id="蒙版"></use>
                <polygon points="-21.275089 61.4694852 100.866578 -33.9580435 140.884574 17.2626555 18.7429069 112.690184" mask="url(#mask-3)" filter="url(#filter-4)" opacity="0.5" fill="#FFFFFF" id="矩形"></polygon>
                <g mask="url(#mask-3)" id="矩形-+-矩形-+-矩形-+-矩形蒙版">
                    <g transform="translate(12.000000, 14.000000)">
                        <path fill-rule="nonzero" fill="url(#linearGradient-5)" stroke="none" id="蒙版" d="M83.9364581,2.22495455 L155.936458,42.9206067 C158.44741,44.3398403 160,47.0008241 160,49.8851094 L160,130.984456 C160,133.868741 158.44741,136.529725 155.936458,137.948958 L83.9364581,178.644611 C81.4937465,180.025274 78.5062535,180.025274 76.0635419,178.644611 L4.06354195,137.948958 C1.55259028,136.529725 0,133.868741 0,130.984456 L0,49.8851094 C0,47.0008241 1.55259028,44.3398403 4.06354195,42.9206067 L76.0635419,2.22495455 C78.5062535,0.844291498 81.4937465,0.844291498 83.9364581,2.22495455 Z M81.4761718,6.57776875 C80.6212227,6.09453668 79.5883117,6.06232121 78.7096344,6.48112233 L78.5238282,6.57776875 L6.52382823,47.2734209 C5.64107178,47.7723702 5.07418152,48.6805878 5.0067685,49.6833827 L5,49.8851094 L5,130.984456 C5,131.998462 5.51171799,132.938871 6.35154289,133.490991 L6.52382823,133.596144 L78.5238282,174.291796 C79.3787773,174.775029 80.4116883,174.807244 81.2903656,174.388443 L81.4761718,174.291796 L153.476172,133.596144 C154.358928,133.097195 154.925818,132.188977 154.993231,131.186183 L155,130.984456 L155,49.8851094 C155,48.8711029 154.488282,47.9306942 153.648457,47.3785744 L153.476172,47.2734209 L81.4761718,6.57776875 Z"></path>
                        <mask fill="white" id="mask-8">
                            <use xlink:href="#path-7"></use>
                        </mask>
                        <use xlink:href="#path-7" fill-rule="evenodd" fill="url(#linearGradient-6)" stroke="none" id="蒙版"></use>
                        <circle r="48" cy="85" cx="80" mask="url(#mask-8)" filter="url(#filter-9)" opacity="0.800000012" fill-rule="evenodd" fill="#4D26D7" stroke="none" id="椭圆形"></circle>
                        <g mask="url(#mask-8)" fill-rule="evenodd" fill="none" stroke-width="1" stroke="none" id="编组-5">
                            <g transform="translate(-1.000000, 36.156716)">
                                <path fill="url(#linearGradient-10)" id="矩形" d="M0,89.5970149 L144,89.5970149 C139.160763,98.8955647 136.741145,107.258763 136.741145,114.686609 C136.741145,122.114456 138.494096,131.208969 142,141.970149 L0,141.970149 L0,89.5970149 Z"></path>
                                <g transform="translate(19.000000, 0.000000)" fill="none" stroke-width="1" id="xiewenzhang备份">
                                    <g id="xiewenzhang"></g>
                                </g>
                                <polygon points="0 87.5970149 145 87.5970149 141.994642 93.7164179 0 93.7164179" fill="url(#linearGradient-11)" id="矩形"></polygon>
                                <path fill="url(#linearGradient-12)" id="矩形" d="M36,97.8358209 L140.223445,97.8358209 C137.85213,104.549376 136.666473,110.337252 136.666473,115.199449 C136.666473,120.061645 137.59778,124.910934 139.460394,129.747315 L36,129.761194 L36,97.8358209 Z"></path>
                                <polygon points="36 103.858209 134 103.858209 134 106.947761 36 106.947761" opacity="0.600000024" fill="url(#linearGradient-13)" id="矩形"></polygon>
                                <polygon points="36 112.097015 134 112.097015 134 115.186567 36 115.186567" opacity="0.400000006" fill="url(#linearGradient-13)" id="矩形"></polygon>
                                <polygon points="36 119.30597 134 119.30597 134 122.395522 36 122.395522" opacity="0.200000003" fill="url(#linearGradient-13)" id="矩形"></polygon>
                            </g>
                        </g>
                    </g>
                </g>
                <g fill-rule="nonzero" mask="url(#mask-3)" id="火">
                    <g id="形状结合" transform="translate(86.999989, 76.500329) rotate(2.000000) translate(-86.999989, -76.500329) translate(24.002425, 13.860402)">
                        <path fill="url(#linearGradient-14)" d="M85.2539736,0.279195974 C80.6941119,28.7721517 73.8622975,43.5387433 85.1083178,62.9306561 C85.5291517,52.2063211 96.661528,32.9097846 117.233311,30.143109 C112.718955,57.2931784 120.390721,71.9791488 117.196972,91.9357535 C115.071917,105.214469 109.245584,115.514559 100.989579,122.803619 L23.6884726,125.279853 C6.81818232,114.67711 -2.9121296,96.7467752 0.77823823,73.686978 C3.00124776,59.7961814 16.7345204,40.4741081 29.688314,35.9319084 L29.688314,35.9319084 L29.680613,35.9634404 C29.4320359,36.9880384 23.3130613,62.7150057 32.8582394,73.9165823 C36.6893837,58.6322187 37.4928137,10.9242249 85.2539736,0.279195974 Z"></path>
                        <path fill="url(#linearGradient-15)" d="M85.8330291,1.13686838e-13 C82.7813161,28.7762896 79.8515828,42.0623678 92.1271439,60.9016354 C91.9800512,50.1379577 97.3835126,33.7684812 117.813224,29.9285532 C114.7359,57.3574036 127.896464,68.1318885 125.75903,88.2869415 C124.178554,103.190125 117.83134,114.64631 108.460548,122.520289 L31.3938062,124.999936 C15.5100338,115.012456 6.00405688,98.1633319 8.34846655,76.0565961 C9.83622809,62.0276695 17.5498518,40.9524595 30.2658789,35.7298824 L30.2658789,35.7298824 L30.2659704,35.933868 C30.275584,38.4820988 30.6174732,64.2242979 40.4475941,74.6199579 C43.4700288,59.1116472 38.6253166,13.1436618 85.8330291,1.13686838e-13 Z"></path>
                    </g>
                </g>
                <g mask="url(#mask-3)" fill-rule="nonzero" opacity="0.900000036" id="300">
                    <use xlink:href="#path-17" fill="#222222"></use>
                    <use xlink:href="#path-17" fill="url(#linearGradient-16)"></use>
                </g>
                <g mask="url(#mask-3)" fill-rule="nonzero" id="300">
                    <use xlink:href="#path-19" fill="#222222"></use>
                    <use xlink:href="#path-19" fill="url(#linearGradient-18)"></use>
                    <use xlink:href="#path-19" filter="url(#filter-20)" fill-opacity="1" fill="black"></use>
                </g>
            </g>
        </g>
    </g>
</svg>