<svg xmlns:xlink="http://www.w3.org/1999/xlink" xmlns="http://www.w3.org/2000/svg" version="1.1" viewBox="0 0 184 208" height="208px" width="184px">
    <title>17.评步青云</title>
    <defs>
        <linearGradient id="linearGradient-1" y2="17.2876616%" x2="23.6365672%" y1="87.3144849%" x1="74.4510804%">
            <stop offset="0%" stop-color="#5C77FF"></stop>
            <stop offset="100%" stop-color="#89D1FF"></stop>
        </linearGradient>
        <path id="path-2" d="M96.9205726,2.78119319 L178.920573,49.1290193 C182.059262,50.9030612 184,54.2292909 184,57.8346477 L184,150.165352 C184,153.770709 182.059262,157.096939 178.920573,158.870981 L96.9205726,205.218807 C93.8671831,206.944636 90.1328169,206.944636 87.0794274,205.218807 L5.07942743,158.870981 C1.94073784,157.096939 0,153.770709 0,150.165352 L0,57.8346477 C0,54.2292909 1.94073784,50.9030612 5.07942743,49.1290193 L87.0794274,2.78119319 C90.1328169,1.05536437 93.8671831,1.05536437 96.9205726,2.78119319 Z"></path>
        <filter id="filter-4" filterUnits="objectBoundingBox" height="190.0%" width="181.4%" y="-45.0%" x="-40.7%">
            <feGaussianBlur in="SourceGraphic" stdDeviation="22"></feGaussianBlur>
        </filter>
        <linearGradient id="linearGradient-5" y2="15.8518925%" x2="23.5685826%" y1="88.1652425%" x1="73.592004%">
            <stop offset="0%" stop-color="#B8C9FF"></stop>
            <stop offset="39.8918969%" stop-color="#5EBBFC"></stop>
            <stop offset="100%" stop-color="#526EFC"></stop>
        </linearGradient>
        <path id="path-6" d="M83.9364581,1.03549729 L155.936458,41.7311495 C158.44741,43.150383 160,45.8113668 160,48.6956522 L160,129.794999 C160,132.679284 158.44741,135.340268 155.936458,136.759501 L83.9364581,177.455153 C81.4937465,178.835816 78.5062535,178.835816 76.0635419,177.455153 L4.06354195,136.759501 C1.55259028,135.340268 0,132.679284 0,129.794999 L0,48.6956522 C0,45.8113668 1.55259028,43.150383 4.06354195,41.7311495 L76.0635419,1.03549729 C78.5062535,-0.345165763 81.4937465,-0.345165763 83.9364581,1.03549729 Z"></path>
        <linearGradient id="linearGradient-8" y2="3.74285867%" x2="50%" y1="105.210415%" x1="53.9901303%">
            <stop offset="0%" stop-color="#C66CFF"></stop>
            <stop offset="54.178599%" stop-color="#3762E9"></stop>
            <stop offset="100%" stop-color="#243FE3"></stop>
        </linearGradient>
        <path id="path-9" d="M81.968229,4.92302001 L152.968229,45.0534548 C154.223705,45.7630716 155,47.0935635 155,48.5357062 L155,129.798484 C155,130.87981 154.418079,131.877465 153.476856,132.409786 L81.4802847,173.128388 C80.5620648,173.647699 79.4385684,173.646582 78.5213831,173.125446 L7.02393901,132.501263 C5.7728627,131.790413 5,130.462373 5,129.02345 L5,48.5357062 C5,47.0935635 5.77629514,45.7630716 7.03177097,45.0534548 L78.031771,4.92302001 C79.2531268,4.23268849 80.7468732,4.23268849 81.968229,4.92302001 Z"></path>
        <filter id="filter-11" filterUnits="objectBoundingBox" height="191.6%" width="191.6%" y="-45.8%" x="-45.8%">
            <feGaussianBlur in="SourceGraphic" stdDeviation="20"></feGaussianBlur>
        </filter>
        <linearGradient id="linearGradient-12" y2="15.2130875%" x2="72.5478182%" y1="89.9251086%" x1="27.4521818%">
            <stop offset="0%" stop-color="#1937EB"></stop>
            <stop offset="50.5009962%" stop-color="#5AA6FC"></stop>
            <stop offset="100%" stop-color="#AABDFE"></stop>
        </linearGradient>
        <path id="path-13" d="M9.71269889,0 L82.9464272,0 C87.91699,-2.6894344e-15 91.9464272,4.02943725 91.9464272,9 C91.9464272,9.01780457 91.9463744,9.0356091 91.9462687,9.05341335 L91.2403292,128.000159 C91.2168205,132.970669 87.1635403,136.976122 82.1930651,136.946622 C82.1910675,136.94661 82.1890699,136.946598 82.1871119,136.940594 L8.99074012,136.457438 C4.02382671,136.424652 0.0225060513,132.37424 0.0502869712,127.407296 L0.71283966,8.94966233 C0.740530499,3.99882384 4.76178296,4.46218218e-15 9.71269889,0 Z"></path>
        <filter id="filter-14" filterUnits="objectBoundingBox" height="104.3%" width="106.4%" y="-2.2%" x="-3.2%">
            <feGaussianBlur result="shadowBlurInner1" in="SourceAlpha" stdDeviation="1.5"></feGaussianBlur>
            <feOffset result="shadowOffsetInner1" in="shadowBlurInner1" dy="3" dx="-2"></feOffset>
            <feComposite result="shadowInnerInner1" k3="1" k2="-1" operator="arithmetic" in2="SourceAlpha" in="shadowOffsetInner1"></feComposite>
            <feColorMatrix in="shadowInnerInner1" type="matrix" values="0 0 0 0 0.563586128   0 0 0 0 0.872537775   0 0 0 0 1  0 0 0 1 0"></feColorMatrix>
        </filter>
        <linearGradient id="linearGradient-15" y2="124.923369%" x2="44.2724555%" y1="-16.47289%" x1="79.6069836%">
            <stop offset="0%" stop-color="#E7F5FF"></stop>
            <stop offset="30.4816977%" stop-color="#F0F5FF"></stop>
            <stop offset="100%" stop-color="#95B7FF"></stop>
        </linearGradient>
        <linearGradient id="linearGradient-16" y2="100%" x2="50%" y1="0%" x1="50%">
            <stop offset="0%" stop-color="#95FFD4"></stop>
            <stop offset="0%" stop-color="#95FFF1"></stop>
            <stop offset="100%" stop-color="#78BDFF"></stop>
        </linearGradient>
        <linearGradient id="linearGradient-17" y2="100%" x2="50%" y1="0%" x1="50%">
            <stop offset="0%" stop-color="#95FFF5"></stop>
            <stop offset="100%" stop-color="#78BDFF"></stop>
        </linearGradient>
        <linearGradient id="linearGradient-18" y2="100%" x2="50%" y1="0%" x1="50%">
            <stop offset="0%" stop-color="#A9FFFA"></stop>
            <stop offset="100%" stop-color="#7199FF"></stop>
        </linearGradient>
        <linearGradient id="linearGradient-19" y2="84.8219902%" x2="50%" y1="0%" x1="50%">
            <stop offset="0%" stop-color="#A5F0FF"></stop>
            <stop offset="100%" stop-color="#6C93FF"></stop>
        </linearGradient>
        <linearGradient id="linearGradient-20" y2="90.7198096%" x2="9.51905875%" y1="45.5338933%" x1="102.128842%">
            <stop offset="0%" stop-color="#529EFF"></stop>
            <stop offset="43.189637%" stop-color="#9556FF"></stop>
            <stop offset="100%" stop-color="#F062FF"></stop>
        </linearGradient>
        <path id="path-21" d="M6.69530901,74 C4.63082875,74 4.13610785,74 3.33467106,73.5099338 C0.991428061,71.8952005 9.48313021,60.4906803 9.96548315,59.5105479 C4.6596008,52.8946539 0.183544304,44.5960265 0.183544304,36.7549669 C0.183544304,16.4172185 18.5129561,0 41.1835443,0 C63.8541325,0 82.1835443,16.4172185 82.1835443,36.7549669 C82.1835443,57.0927152 63.8541325,73.5099338 41.1835443,73.5099338 C35.6364855,73.5099338 30.0894267,72.5298013 25.0247208,70.5695364 C24.0600149,70.3245033 19.477662,71.3046358 16.5835443,72.0397351 C12.2423678,73.0198675 9.10703908,74 6.69530901,74 Z"></path>
        <filter id="filter-22" filterUnits="objectBoundingBox" height="112.2%" width="111.0%" y="-6.1%" x="-5.5%">
            <feGaussianBlur result="shadowBlurInner1" in="SourceAlpha" stdDeviation="3.5"></feGaussianBlur>
            <feOffset result="shadowOffsetInner1" in="shadowBlurInner1" dy="0" dx="2"></feOffset>
            <feComposite result="shadowInnerInner1" k3="1" k2="-1" operator="arithmetic" in2="SourceAlpha" in="shadowOffsetInner1"></feComposite>
            <feColorMatrix in="shadowInnerInner1" type="matrix" values="0 0 0 0 1   0 0 0 0 1   0 0 0 0 1  0 0 0 1 0"></feColorMatrix>
        </filter>
        <linearGradient id="linearGradient-23" y2="33.9191849%" x2="64.6363651%" y1="123.231441%" x1="12.4701312%">
            <stop offset="0%" stop-color="#AABDFE"></stop>
            <stop offset="100%" stop-color="#ECF5FF"></stop>
        </linearGradient>
        <linearGradient id="linearGradient-24" y2="100%" x2="50%" y1="0%" x1="50%">
            <stop offset="0%" stop-color="#7E44FF"></stop>
            <stop offset="100%" stop-color="#BD57FF"></stop>
        </linearGradient>
        <filter id="filter-25" filterUnits="objectBoundingBox" height="135.7%" width="135.7%" y="-17.9%" x="-17.9%">
            <feGaussianBlur in="SourceGraphic" stdDeviation="0.5"></feGaussianBlur>
        </filter>
        <linearGradient id="linearGradient-26" y2="100%" x2="50%" y1="0%" x1="50%">
            <stop offset="0%" stop-color="#5E8CFF"></stop>
            <stop offset="100%" stop-color="#815EFF"></stop>
        </linearGradient>
        <filter id="filter-27" filterUnits="objectBoundingBox" height="135.7%" width="135.7%" y="-17.9%" x="-17.9%">
            <feGaussianBlur in="SourceGraphic" stdDeviation="0.5"></feGaussianBlur>
        </filter>
    </defs>
    <g fill-rule="evenodd" fill="none" stroke-width="1" stroke="none" id="页面-1">
        <g transform="translate(-563.000000, -2425.000000)" id="勋章">
            <g transform="translate(563.000000, 2425.000000)" id="17.评步青云">
                <g id="矩形">
                    <mask fill="white" id="mask-3">
                        <use xlink:href="#path-2"></use>
                    </mask>
                    <use xlink:href="#path-2" fill="url(#linearGradient-1)" id="蒙版"></use>
                    <polygon points="-21.275089 61.4694852 100.866578 -33.9580435 140.884574 17.2626555 18.7429069 112.690184" mask="url(#mask-3)" filter="url(#filter-4)" opacity="0.5" fill="#FFFFFF"></polygon>
                </g>
                <g transform="translate(12.000000, 15.189457)" id="矩形-+-矩形-+-矩形-+-矩形蒙版">
                    <mask fill="white" id="mask-7">
                        <use xlink:href="#path-6"></use>
                    </mask>
                    <path d="M77.2936851,3.21190439 C78.9730493,2.26269854 81.0269507,2.26269854 82.7063149,3.21190439 L82.7063149,3.21190439 L154.706315,43.9075566 C155.569455,44.3954181 156.267876,45.0967054 156.750512,45.9238957 C157.233149,46.7510859 157.5,47.7041791 157.5,48.6956522 L157.5,48.6956522 L157.5,129.794999 C157.5,130.786472 157.233149,131.739565 156.750512,132.566755 C156.267876,133.393945 155.569455,134.095233 154.706315,134.583094 L154.706315,134.583094 L82.7063149,175.278746 C81.0269507,176.227952 78.9730493,176.227952 77.2936851,175.278746 L77.2936851,175.278746 L5.29368509,134.583094 C4.43054545,134.095233 3.73212418,133.393945 3.24948782,132.566755 C2.76685145,131.739565 2.5,130.786472 2.5,129.794999 L2.5,129.794999 L2.5,48.6956522 C2.5,47.7041791 2.76685145,46.7510859 3.24948782,45.9238957 C3.73212418,45.0967054 4.43054545,44.3954181 5.29368509,43.9075566 L5.29368509,43.9075566 Z" stroke-width="5" stroke="url(#linearGradient-5)"></path>
                    <mask fill="white" id="mask-10">
                        <use xlink:href="#path-9"></use>
                    </mask>
                    <use xlink:href="#path-9" fill="url(#linearGradient-8)" id="蒙版"></use>
                    <polygon points="98 2.81054274 87.342 75.6795427 131.204581 16.5643307 155.246212 40.6059613 95.888 84.6405427 169 73.8105427 169 107.810543 95.891 96.9745427 155.246212 141.015124 131.204581 165.056755 87.17 105.699543 98 178.810543 64 178.810543 74.792 105.993543 30.7954185 165.056755 6.75378798 141.015124 65.581 97.1995427 -7 107.810543 -7 73.8105427 65.578 84.4255427 6.75378798 40.6059613 30.7954185 16.5643307 74.609 75.3905427 64 2.81054274" mask="url(#mask-10)" opacity="0.149999991" fill="#FFFFFF" id="路径"></polygon>
                    <circle r="65.5" cy="120.810543" cx="79.5" mask="url(#mask-10)" filter="url(#filter-11)" opacity="0.699999988" fill="#4615D9" id="椭圆形"></circle>
                    <g mask="url(#mask-10)" id="编组-3">
                        <g transform="translate(27.658997, 39.466335)">
                            <g fill="none" id="矩形备份-5">
                                <use xlink:href="#path-13" fill-rule="evenodd" fill="url(#linearGradient-12)"></use>
                                <use xlink:href="#path-13" filter="url(#filter-14)" fill-opacity="1" fill="black"></use>
                            </g>
                            <path fill-rule="evenodd" fill="url(#linearGradient-15)" id="矩形备份-5" d="M14.3950845,8.10883081 L77.982149,9.08508261 C81.8476867,9.14443019 84.9332134,12.3261784 84.8738658,16.1917161 C84.8737704,16.1979331 84.8736666,16.2041499 84.8735546,16.2103666 L83.0401415,117.962194 C82.9704934,121.82756 79.7805345,124.904597 75.9151686,124.834949 C75.9022239,124.834716 75.8892798,124.834446 75.8763366,124.834141 L13.8532721,123.372287 C10.0453601,123.282536 7.00810424,120.164563 7.01823775,116.355607 L7.28765101,15.0893829 C7.29793623,11.2234033 10.4402697,8.0977455 14.3062493,8.10803073 C14.3358624,8.10810951 14.3654748,8.10837621 14.3950845,8.10883081 Z"></path>
                            <rect rx="4.5" height="9" width="64" y="22" x="14" fill-rule="evenodd" fill="url(#linearGradient-16)" id="矩形"></rect>
                            <rect rx="4.5" height="9" width="56" y="47.3442073" x="14" fill-rule="evenodd" fill="url(#linearGradient-17)" id="矩形备份"></rect>
                            <rect rx="4.5" height="9" width="35" y="73.3442073" x="14" fill-rule="evenodd" fill="url(#linearGradient-18)" id="矩形备份-2"></rect>
                            <rect rx="4.5" height="9" width="26" y="99.3442073" x="14" fill-rule="evenodd" fill="url(#linearGradient-19)" id="矩形备份-2"></rect>
                        </g>
                    </g>
                    <g mask="url(#mask-10)" id="评论">
                        <g transform="translate(66.000000, 67.810543)">
                            <g fill-rule="nonzero" fill="none" stroke="none" id="形状">
                                <use xlink:href="#path-21" fill="url(#linearGradient-20)"></use>
                                <use xlink:href="#path-21" filter="url(#filter-22)" fill-opacity="1" fill="black"></use>
                            </g>
                            <circle r="7.5" cy="35" cx="29" filter="url(#filter-25)" fill-rule="evenodd" fill="url(#linearGradient-23)" stroke-width="1" stroke="url(#linearGradient-24)" id="椭圆形"></circle>
                            <circle r="7.5" cy="35" cx="55" filter="url(#filter-27)" fill-rule="evenodd" fill="url(#linearGradient-23)" stroke-width="1" stroke="url(#linearGradient-26)" id="椭圆形备份"></circle>
                        </g>
                    </g>
                </g>
            </g>
        </g>
    </g>
</svg>