<svg xmlns:xlink="http://www.w3.org/1999/xlink" xmlns="http://www.w3.org/2000/svg" version="1.1" viewBox="0 0 184 208" height="208px" width="184px">
    <title>16.评易近人</title>
    <defs>
        <linearGradient id="linearGradient-1" y2="14.0319111%" x2="22.157416%" y1="88.0621668%" x1="76.7823015%">
            <stop offset="0%" stop-color="#2AAEFF"></stop>
            <stop offset="100%" stop-color="#94F4FF"></stop>
        </linearGradient>
        <path id="path-2" d="M96.9205726,2.78119319 L178.920573,49.1290193 C182.059262,50.9030612 184,54.2292909 184,57.8346477 L184,150.165352 C184,153.770709 182.059262,157.096939 178.920573,158.870981 L96.9205726,205.218807 C93.8671831,206.944636 90.1328169,206.944636 87.0794274,205.218807 L5.07942743,158.870981 C1.94073784,157.096939 0,153.770709 0,150.165352 L0,57.8346477 C0,54.2292909 1.94073784,50.9030612 5.07942743,49.1290193 L87.0794274,2.78119319 C90.1328169,1.05536437 93.8671831,1.05536437 96.9205726,2.78119319 Z"></path>
        <filter id="filter-4" filterUnits="objectBoundingBox" height="190.0%" width="181.4%" y="-45.0%" x="-40.7%">
            <feGaussianBlur in="SourceGraphic" stdDeviation="22"></feGaussianBlur>
        </filter>
        <linearGradient id="linearGradient-5" y2="16.3043788%" x2="25.1101777%" y1="93.7769779%" x1="66.712846%">
            <stop offset="0%" stop-color="#8EEEFF"></stop>
            <stop offset="35.879332%" stop-color="#59FF80"></stop>
            <stop offset="100%" stop-color="#2EB1FF"></stop>
        </linearGradient>
        <linearGradient id="linearGradient-6" y2="2.70498442%" x2="50%" y1="103.513333%" x1="50%">
            <stop offset="0%" stop-color="#32B6FF"></stop>
            <stop offset="58.3048901%" stop-color="#39A4E4"></stop>
            <stop offset="100%" stop-color="#227ED9"></stop>
        </linearGradient>
        <path id="path-7" d="M81.968229,4.92302001 L152.968229,45.0534548 C154.223705,45.7630716 155,47.0935635 155,48.5357062 L155,129.562469 C155,130.644076 154.417779,131.641945 153.476172,132.174157 L81.4761718,172.869809 C80.5601549,173.387558 79.4398451,173.387558 78.5238282,172.869809 L7.03177097,132.461255 C5.77629514,131.751639 5,130.421147 5,128.979004 L5,48.5357062 C5,47.0935635 5.77629514,45.7630716 7.03177097,45.0534548 L78.031771,4.92302001 C79.2531268,4.23268849 80.7468732,4.23268849 81.968229,4.92302001 Z"></path>
        <filter id="filter-9" filterUnits="objectBoundingBox" height="186.3%" width="186.3%" y="-43.2%" x="-43.2%">
            <feGaussianBlur in="SourceGraphic" stdDeviation="20"></feGaussianBlur>
        </filter>
        <linearGradient id="linearGradient-10" y2="61.0544974%" x2="45.9355389%" y1="74.0252296%" x1="78.7138054%">
            <stop offset="0%" stop-color="#63FC98"></stop>
            <stop offset="28.8797826%" stop-color="#31B3FF"></stop>
            <stop offset="100%" stop-color="#1F52FF"></stop>
        </linearGradient>
        <linearGradient id="linearGradient-11" y2="79.5860697%" x2="15.3190943%" y1="42.8804481%" x1="100%">
            <stop offset="0%" stop-color="#4BA7FF"></stop>
            <stop offset="24.6655186%" stop-color="#B2D9FF"></stop>
            <stop offset="39.7399887%" stop-color="#E2F9FF"></stop>
            <stop offset="68.643295%" stop-color="#79CCFF"></stop>
            <stop offset="85.9803554%" stop-color="#438EFF"></stop>
            <stop offset="100%" stop-color="#1C4DFF"></stop>
        </linearGradient>
        <path id="path-12" d="M27.9643467,0.432356143 L108.036871,5.11231544 L108.351041,1.0473424 L114.429811,6.84999027 C116.845153,8.62859962 118.098695,11.6523009 117.449207,14.9819757 L106.305838,72.1097152 C105.313207,77.1985506 100.251393,81.0750365 94.9999605,80.7680888 L52.3319955,78.2741347 L38.6652349,89.4013312 C37.1870023,90.604878 35.1954532,90.7314681 33.8608326,89.8106852 L33.8347603,89.8562999 L27.0192782,83.1474294 L29.989871,81.7703154 L27.9533944,76.8491988 L13.2263433,75.9883987 C11.7444797,75.9017833 10.4058646,75.4913088 9.26995383,74.832304 L9.19673122,74.8680542 L8.86663036,74.5823047 C8.27972731,74.1942489 7.75412886,73.7362675 7.29921971,73.2202506 L0.619871032,67.4153154 L5.34606463,68.0871086 C5.33637467,67.4797684 5.39099625,66.8547046 5.51510067,66.2184692 L16.658469,9.09072975 C17.6511001,4.00189438 22.7129139,0.125408472 27.9643467,0.432356143 Z"></path>
        <linearGradient id="linearGradient-14" y2="87.5049905%" x2="43.2265487%" y1="1.38304765%" x1="54.1308522%">
            <stop offset="0%" stop-color="#4EC6F7"></stop>
            <stop offset="41.8917366%" stop-color="#0C88F5"></stop>
            <stop offset="85.3445904%" stop-color="#449EFF"></stop>
            <stop offset="100%" stop-color="#80DDFF"></stop>
        </linearGradient>
        <linearGradient id="linearGradient-15" y2="50%" x2="15.0870987%" y1="50.4546616%" x1="129.006561%">
            <stop offset="0%" stop-color="#A9F2FF"></stop>
            <stop offset="100%" stop-color="#34B5FF"></stop>
        </linearGradient>
        <linearGradient id="linearGradient-16" y2="24.4520772%" x2="104.354379%" y1="65.3040699%" x1="-15.045646%">
            <stop offset="0%" stop-color="#D8ECFF"></stop>
            <stop offset="21.9983508%" stop-color="#E5FAFF"></stop>
            <stop offset="50.1519837%" stop-color="#F1FAFF"></stop>
            <stop offset="100%" stop-color="#CCECFF"></stop>
        </linearGradient>
        <path id="path-17" d="M25.566392,0.0170407064 L104.148465,2.79673084 C109.387597,3.10367851 112.831951,7.47782492 111.841645,12.5666603 L100.724379,69.6943998 C99.734073,74.7832351 94.6841158,78.659721 89.4449838,78.3527734 L46.8769628,75.8588192 L33.2422148,86.9860158 C31.5221956,88.3897082 29.1055743,88.3284729 27.84454,86.8492428 C27.6344417,86.6027914 27.4649008,86.3252411 27.3407162,86.0244482 L22.5554653,74.4338834 L7.86291044,73.5730832 C2.62377846,73.2661356 -0.820575589,68.8919892 0.169730339,63.8031538 L14.2869969,8.67541431 C15.2773028,3.58657894 20.32726,-0.289906965 25.566392,0.0170407064 Z"></path>
        <linearGradient id="linearGradient-19" y2="76.1233795%" x2="25.3669959%" y1="27.3955419%" x1="98.5171894%">
            <stop offset="0%" stop-color="#D2EEFF"></stop>
            <stop offset="47.9053431%" stop-color="#EFF8FF"></stop>
            <stop offset="78.9965823%" stop-color="#DFFFFF"></stop>
            <stop offset="100%" stop-color="#BEE8FF"></stop>
        </linearGradient>
        <linearGradient id="linearGradient-20" y2="91.1966529%" x2="80.0558944%" y1="60.2910018%" x1="56.2823545%">
            <stop offset="0%" stop-color="#3FAEEF"></stop>
            <stop offset="100%" stop-color="#0A58D9"></stop>
        </linearGradient>
        <linearGradient id="linearGradient-21" y2="96.5040016%" x2="57.5003156%" y1="11.9026957%" x1="23.7345415%">
            <stop offset="0%" stop-color="#C7FFEC"></stop>
            <stop offset="37.8571514%" stop-color="#5BEDD3"></stop>
            <stop offset="100%" stop-color="#3598F8"></stop>
        </linearGradient>
        <path id="path-22" d="M65.7816807,20.5867739 C70.8702698,21.6560051 75.9396547,18.1312099 77.1044687,12.7139233 C78.2692827,7.29663678 75.0884345,2.03827515 69.9998453,0.969043901 C64.9112562,-0.100187345 59.8418713,3.42460792 58.6770573,8.84189447 C57.5122433,14.259181 60.6930915,19.5175427 65.7816807,20.5867739 Z"></path>
        <filter id="filter-23" filterUnits="objectBoundingBox" height="110.0%" width="110.6%" y="-5.0%" x="-5.3%">
            <feGaussianBlur result="shadowBlurInner1" in="SourceAlpha" stdDeviation="0.5"></feGaussianBlur>
            <feOffset result="shadowOffsetInner1" in="shadowBlurInner1" dy="-1" dx="-1"></feOffset>
            <feComposite result="shadowInnerInner1" k3="1" k2="-1" operator="arithmetic" in2="SourceAlpha" in="shadowOffsetInner1"></feComposite>
            <feColorMatrix in="shadowInnerInner1" type="matrix" values="0 0 0 0 0.0921422447   0 0 0 0 0.839789808   0 0 0 0 1  0 0 0 1 0"></feColorMatrix>
        </filter>
        <path id="path-24" d="M36.7816807,20.5867739 C41.8702698,21.6560051 46.9396547,18.1312099 48.1044687,12.7139233 C49.2692827,7.29663678 46.0884345,2.03827515 40.9998453,0.969043901 C35.9112562,-0.100187345 30.8418713,3.42460792 29.6770573,8.84189447 C28.5122433,14.259181 31.6930915,19.5175427 36.7816807,20.5867739 Z"></path>
        <filter id="filter-25" filterUnits="objectBoundingBox" height="110.0%" width="110.6%" y="-5.0%" x="-5.3%">
            <feGaussianBlur result="shadowBlurInner1" in="SourceAlpha" stdDeviation="0.5"></feGaussianBlur>
            <feOffset result="shadowOffsetInner1" in="shadowBlurInner1" dy="-1" dx="-1"></feOffset>
            <feComposite result="shadowInnerInner1" k3="1" k2="-1" operator="arithmetic" in2="SourceAlpha" in="shadowOffsetInner1"></feComposite>
            <feColorMatrix in="shadowInnerInner1" type="matrix" values="0 0 0 0 0.0921422447   0 0 0 0 0.839789808   0 0 0 0 1  0 0 0 1 0"></feColorMatrix>
        </filter>
        <path id="path-26" d="M7.78168066,20.5867739 C12.8702698,21.6560051 17.9396547,18.1312099 19.1044687,12.7139233 C20.2692827,7.29663678 17.0884345,2.03827515 11.9998453,0.969043901 C6.9112562,-0.100187345 1.84187134,3.42460792 0.677057327,8.84189447 C-0.487756684,14.259181 2.69309153,19.5175427 7.78168066,20.5867739 Z"></path>
        <filter id="filter-27" filterUnits="objectBoundingBox" height="110.0%" width="110.6%" y="-5.0%" x="-5.3%">
            <feGaussianBlur result="shadowBlurInner1" in="SourceAlpha" stdDeviation="0.5"></feGaussianBlur>
            <feOffset result="shadowOffsetInner1" in="shadowBlurInner1" dy="-1" dx="-1"></feOffset>
            <feComposite result="shadowInnerInner1" k3="1" k2="-1" operator="arithmetic" in2="SourceAlpha" in="shadowOffsetInner1"></feComposite>
            <feColorMatrix in="shadowInnerInner1" type="matrix" values="0 0 0 0 0.0921422447   0 0 0 0 0.839789808   0 0 0 0 1  0 0 0 1 0"></feColorMatrix>
        </filter>
    </defs>
    <g fill-rule="evenodd" fill="none" stroke-width="1" stroke="none" id="页面-1">
        <g transform="translate(-201.000000, -2425.000000)" id="勋章">
            <g transform="translate(201.000000, 2425.000000)" id="16.评易近人">
                <g id="矩形">
                    <mask fill="white" id="mask-3">
                        <use xlink:href="#path-2"></use>
                    </mask>
                    <use xlink:href="#path-2" fill="url(#linearGradient-1)" id="蒙版"></use>
                    <polygon points="-21.275089 61.4694852 100.866578 -33.9580435 140.884574 17.2626555 18.7429069 112.690184" mask="url(#mask-3)" filter="url(#filter-4)" opacity="0.400000006" fill="#FFFFFF"></polygon>
                </g>
                <g transform="translate(12.000000, 15.189457)" id="矩形-+-矩形-+-矩形-+-矩形蒙版">
                    <path fill-rule="nonzero" fill="url(#linearGradient-5)" id="蒙版" d="M83.9364581,1.03549729 L155.936458,41.7311495 C158.44741,43.150383 160,45.8113668 160,48.6956522 L160,129.794999 C160,132.679284 158.44741,135.340268 155.936458,136.759501 L83.9364581,177.455153 C81.4937465,178.835816 78.5062535,178.835816 76.0635419,177.455153 L4.06354195,136.759501 C1.55259028,135.340268 0,132.679284 0,129.794999 L0,48.6956522 C0,45.8113668 1.55259028,43.150383 4.06354195,41.7311495 L76.0635419,1.03549729 C78.5062535,-0.345165763 81.4937465,-0.345165763 83.9364581,1.03549729 Z M81.4761718,5.38831148 C80.6212227,4.90507942 79.5883117,4.87286394 78.7096344,5.29166507 L78.5238282,5.38831148 L6.52382823,46.0839637 C5.64107178,46.582913 5.07418152,47.4911305 5.0067685,48.4939254 L5,48.6956522 L5,129.794999 C5,130.809005 5.51171799,131.749414 6.35154289,132.301534 L6.52382823,132.406687 L78.5238282,173.102339 C79.3787773,173.585571 80.4116883,173.617787 81.2903656,173.198986 L81.4761718,173.102339 L153.476172,132.406687 C154.358928,131.907738 154.925818,130.99952 154.993231,129.996725 L155,129.794999 L155,48.6956522 C155,47.6816456 154.488282,46.741237 153.648457,46.1891172 L153.476172,46.0839637 L81.4761718,5.38831148 Z"></path>
                    <mask fill="white" id="mask-8">
                        <use xlink:href="#path-7"></use>
                    </mask>
                    <use xlink:href="#path-7" fill="url(#linearGradient-6)" id="蒙版"></use>
                    <polygon points="98 1.81054274 87.342 74.6795427 131.204581 15.5643307 155.246212 39.6059613 95.888 83.6405427 169 72.8105427 169 106.810543 95.891 95.9745427 155.246212 140.015124 131.204581 164.056755 87.17 104.699543 98 177.810543 64 177.810543 74.792 104.993543 30.7954185 164.056755 6.75378798 140.015124 65.581 96.1995427 -7 106.810543 -7 72.8105427 65.578 83.4255427 6.75378798 39.6059613 30.7954185 15.5643307 74.609 74.3905427 64 1.81054274" mask="url(#mask-8)" opacity="0.219999999" fill="#FFFFFF" id="路径"></polygon>
                    <circle r="69.5" cy="90.3105427" cx="79.5" mask="url(#mask-8)" filter="url(#filter-9)" fill="#0A4CDF" id="椭圆形"></circle>
                    <g transform="translate(20.000000, 44.810543)" id="编组-6">
                        <path transform="translate(81.753638, 74.254221) scale(1, -1) rotate(-62.000000) translate(-81.753638, -74.254221)" fill-rule="nonzero" fill="url(#linearGradient-10)" id="路径备份-2" d="M80.6813219,24.6187704 C80.6813219,24.6187704 70.6304004,48.8723688 79.8150708,71.90904 C76.9275675,96.0095208 45.2905353,123.889672 45.2905353,123.889672 C45.2905353,123.889672 84.2175202,112.39597 118.216742,85.5941299 C71.429198,61.6756124 80.6813219,24.6187704 80.6813219,24.6187704 Z"></path>
                        <g transform="translate(1.380665, 3.584685)" id="矩形">
                            <mask fill="white" id="mask-13">
                                <use xlink:href="#path-12"></use>
                            </mask>
                            <use xlink:href="#path-12" fill="url(#linearGradient-11)" id="蒙版"></use>
                            <polygon points="105.586796 -1.58468456 129.619335 0.971276057 101.786063 86.4153154 94.6193353 70.156785" mask="url(#mask-13)" fill="url(#linearGradient-14)"></polygon>
                            <polygon points="43.6193353 67.4153154 94.3938106 67.4153154 101.619335 83.4153154 58.2986338 83.4153154" mask="url(#mask-13)" fill="url(#linearGradient-15)"></polygon>
                        </g>
                        <g id="路径-12">
                            <mask fill="white" id="mask-18">
                                <use xlink:href="#path-17"></use>
                            </mask>
                            <use xlink:href="#path-17" fill="url(#linearGradient-16)" id="蒙版"></use>
                            <path mask="url(#mask-18)" fill="url(#linearGradient-19)" d="M99.067646,8.37368235 L31.4323997,6.79843005 C28.2358386,6.72398085 25.3951123,8.82499728 24.5303091,11.9032534 L10.6756956,61.218574 C10.2275689,62.8136754 11.1573756,64.470039 12.752477,64.9181658 C12.9120814,64.9630049 13.0751279,64.9945371 13.2399419,65.0124384 L26.8082268,66.4861596 C28.2131499,66.6387556 29.3210767,67.7511449 29.4680239,69.1566701 L30.7643517,81.5558275 C30.8792081,82.6544092 31.862894,83.4518762 32.9614757,83.3370198 C33.2330928,83.3086223 33.4960163,83.2248983 33.7340408,83.091008 L47.3294511,75.4435038 L47.3294511,75.4435038 C42.3187225,85.6536036 36.0274295,90.6271408 28.4555722,90.3641154 C20.883715,90.1010899 7.12127506,83.6463848 -12.8317475,71 C-3.27594923,35.0361069 1.50194988,16.5755022 1.50194988,15.6181859 C1.50194988,14.6608697 9.93621403,5.14456669 26.8047423,-12.930723 L107.46075,-8.08617219 L111.463864,4.63202696 L109.235244,5.86832493 C106.128702,7.59163797 102.619204,8.45639957 99.067646,8.37368235 Z"></path>
                        </g>
                    </g>
                    <g transform="translate(37.452488, 67.395227)" id="矩形">
                        <path opacity="0.900000036" fill="url(#linearGradient-20)" id="椭圆形" d="M66.8254114,23.2583489 C71.4618468,24.2306722 77.5193617,21.4374175 78.7137038,16.0533856 C78.7234249,16.0095638 78.7327956,15.9658606 78.7416392,15.9222303 C79.1862378,13.7288007 78.404777,11.350279 77.6413014,9.4292148 C76.3875985,6.27463606 75.2017495,3.69867552 72.0496201,3.0609402 C66.661909,1.97090449 59.6895238,6.26968744 59.24777,11.8042247 C59.0623378,14.1274226 58.9128999,14.8555311 60.2473543,16.9630372 C62.2881839,20.1861229 63.9874289,22.6631856 66.8254114,23.2583489 Z"></path>
                        <g id="椭圆形">
                            <use xlink:href="#path-22" fill-rule="evenodd" fill="url(#linearGradient-21)"></use>
                            <use xlink:href="#path-22" filter="url(#filter-23)" fill-opacity="1" fill="black"></use>
                        </g>
                        <path opacity="0.900000036" fill="url(#linearGradient-20)" id="椭圆形" d="M37.8254114,23.2583489 C42.4618468,24.2306722 48.5193617,21.4374175 49.7137038,16.0533856 C49.7234249,16.0095638 49.7327956,15.9658606 49.7416392,15.9222303 C50.1862378,13.7288007 49.404777,11.350279 48.6413014,9.4292148 C47.3875985,6.27463606 46.2017495,3.69867552 43.0496201,3.0609402 C37.661909,1.97090449 30.6895238,6.26968744 30.24777,11.8042247 C30.0623378,14.1274226 29.9128999,14.8555311 31.2473543,16.9630372 C33.2881839,20.1861229 34.9874289,22.6631856 37.8254114,23.2583489 Z"></path>
                        <g id="椭圆形">
                            <use xlink:href="#path-24" fill-rule="evenodd" fill="url(#linearGradient-21)"></use>
                            <use xlink:href="#path-24" filter="url(#filter-25)" fill-opacity="1" fill="black"></use>
                        </g>
                        <path opacity="0.900000036" fill="url(#linearGradient-20)" id="椭圆形" d="M8.8254114,23.2583489 C13.4618468,24.2306722 19.5193617,21.4374175 20.7137038,16.0533856 C20.7234249,16.0095638 20.7327956,15.9658606 20.7416392,15.9222303 C21.1862378,13.7288007 20.404777,11.350279 19.6413014,9.4292148 C18.3875985,6.27463606 17.2017495,3.69867552 14.0496201,3.0609402 C8.66190895,1.97090449 1.68952383,6.26968744 1.24777002,11.8042247 C1.06233779,14.1274226 0.912899857,14.8555311 2.24735429,16.9630372 C4.28818387,20.1861229 5.98742888,22.6631856 8.8254114,23.2583489 Z"></path>
                        <g id="椭圆形">
                            <use xlink:href="#path-26" fill-rule="evenodd" fill="url(#linearGradient-21)"></use>
                            <use xlink:href="#path-26" filter="url(#filter-27)" fill-opacity="1" fill="black"></use>
                        </g>
                    </g>
                </g>
            </g>
        </g>
    </g>
</svg>