<svg xmlns:xlink="http://www.w3.org/1999/xlink" xmlns="http://www.w3.org/2000/svg" version="1.1" viewBox="0 0 184 208" height="208px" width="184px">
    <title>19.赞无不胜</title>
    <defs>
        <linearGradient id="linearGradient-1" y2="14.0319111%" x2="22.157416%" y1="88.0621668%" x1="76.7823015%">
            <stop offset="0%" stop-color="#FFAA00"></stop>
            <stop offset="100%" stop-color="#FFEC45"></stop>
        </linearGradient>
        <path id="path-2" d="M96.9205726,2.78119319 L178.920573,49.1290193 C182.059262,50.9030612 184,54.2292909 184,57.8346477 L184,150.165352 C184,153.770709 182.059262,157.096939 178.920573,158.870981 L96.9205726,205.218807 C93.8671831,206.944636 90.1328169,206.944636 87.0794274,205.218807 L5.07942743,158.870981 C1.94073784,157.096939 0,153.770709 0,150.165352 L0,57.8346477 C0,54.2292909 1.94073784,50.9030612 5.07942743,49.1290193 L87.0794274,2.78119319 C90.1328169,1.05536437 93.8671831,1.05536437 96.9205726,2.78119319 Z"></path>
        <filter id="filter-4" filterUnits="objectBoundingBox" height="190.0%" width="181.4%" y="-45.0%" x="-40.7%">
            <feGaussianBlur in="SourceGraphic" stdDeviation="22"></feGaussianBlur>
        </filter>
        <linearGradient id="linearGradient-5" y2="18.1691683%" x2="24.6404944%" y1="88.3783473%" x1="67.6474484%">
            <stop offset="0%" stop-color="#FEE464"></stop>
            <stop offset="45.0170647%" stop-color="#FFAA11"></stop>
            <stop offset="100%" stop-color="#FF9413"></stop>
        </linearGradient>
        <path id="path-6" d="M83.9364581,2.22495455 L155.936458,42.9206067 C158.44741,44.3398403 160,47.0008241 160,49.8851094 L160,130.984456 C160,133.868741 158.44741,136.529725 155.936458,137.948958 L83.9364581,178.644611 C81.4937465,180.025274 78.5062535,180.025274 76.0635419,178.644611 L4.06354195,137.948958 C1.55259028,136.529725 3.53223086e-16,133.868741 0,130.984456 L0,49.8851094 C8.52856111e-15,47.0008241 1.55259028,44.3398403 4.06354195,42.9206067 L76.0635419,2.22495455 C78.5062535,0.844291498 81.4937465,0.844291498 83.9364581,2.22495455 Z"></path>
        <linearGradient id="linearGradient-8" y2="2.70498442%" x2="50%" y1="100%" x1="50%">
            <stop offset="0%" stop-color="#FDD13C"></stop>
            <stop offset="63.0879105%" stop-color="#FF8D3A"></stop>
            <stop offset="100%" stop-color="#E04528"></stop>
        </linearGradient>
        <path id="path-9" d="M81.968229,6.78407003 L152.968229,46.9145048 C154.223705,47.6241216 155,48.9546135 155,50.3967562 L155,130.840054 C155,132.282197 154.223705,133.612689 152.968229,134.322305 L81.968229,174.45274 C80.7468732,175.143072 79.2531268,175.143072 78.031771,174.45274 L7.03177097,134.322305 C5.77629514,133.612689 5,132.282197 5,130.840054 L5,50.3967562 C5,48.9546135 5.77629514,47.6241216 7.03177097,46.9145048 L78.031771,6.78407003 C79.2531268,6.09373851 80.7468732,6.09373851 81.968229,6.78407003 Z"></path>
        <filter id="filter-11" filterUnits="objectBoundingBox" height="179.3%" width="189.6%" y="-39.7%" x="-44.8%">
            <feGaussianBlur in="SourceGraphic" stdDeviation="20"></feGaussianBlur>
        </filter>
        <linearGradient id="linearGradient-12" y2="83.0314321%" x2="50%" y1="-25.2815466%" x1="64.5194725%">
            <stop offset="0%" stop-color="#FFEEA0"></stop>
            <stop offset="48.7506755%" stop-color="#FFD22B"></stop>
            <stop offset="100%" stop-color="#FF5235"></stop>
            <stop offset="100%" stop-color="#FF5235"></stop>
        </linearGradient>
        <path id="path-13" d="M12.0804598,0 L33.5191355,0 C36.2805593,0 38.5191355,2.23857625 38.5191355,5 L38.5191355,82 C38.5191355,84.7614237 36.2805593,87 33.5191355,87 L5,87 C2.23857625,87 0,84.7614237 0,82 C0,81.8471463 0.00700927447,81.694373 0.0210057381,81.5421614 L7.10146551,4.54216145 C7.33807915,1.9689881 9.49643054,0 12.0804598,0 Z"></path>
        <linearGradient id="linearGradient-15" y2="92.3215199%" x2="46.7956842%" y1="0%" x1="50%">
            <stop offset="0%" stop-color="#FFEF7A"></stop>
            <stop offset="100%" stop-color="#F72714"></stop>
        </linearGradient>
        <linearGradient id="linearGradient-16" y2="93.3867576%" x2="50%" y1="10.0377026%" x1="52.3542127%">
            <stop offset="0%" stop-color="#FFD63B"></stop>
            <stop offset="100%" stop-color="#F8352D"></stop>
        </linearGradient>
        <linearGradient id="linearGradient-17" y2="77.8558025%" x2="66.6992982%" y1="13.6307987%" x1="31.3468356%">
            <stop offset="0%" stop-color="#FFF6D3"></stop>
            <stop offset="44.8894713%" stop-color="#FFF8BB"></stop>
            <stop offset="78.4404499%" stop-color="#FFECA6"></stop>
            <stop offset="100%" stop-color="#FFEA81"></stop>
        </linearGradient>
        <path id="path-18" d="M48.0067295,34.4314135 C48.0108374,37.8579263 48.0163413,41.6700038 48.0232411,45.867646 C48.0259614,47.5225768 49.3683117,48.8627225 51.0232447,48.8627148 L51.0232447,48.8627148 L81.9395196,48.8627148 C87.2635086,48.8627148 91.5794564,54.149024 91.5793672,59.4266237 C91.5793672,64.7043385 87.2634194,68.9827739 81.9394308,68.9827736 L81.9394308,68.9827736 L74.7094881,68.9827736 C76.4543213,68.9827723 81.546613,69.0568328 84.3494249,69.4701362 C90.1020538,70.3158625 93.9893617,73.1808945 93.9893617,79.1367634 C93.9893617,84.4144782 89.6734139,88.6929136 84.3494252,88.6929134 L84.3494252,88.6929134 L77.1194824,88.6929134 C82.4434715,88.6929134 86.7594189,93.5374766 86.7594193,98.8151914 C86.7594193,104.092906 82.4434715,108.371341 77.1194819,108.371341 L77.1194819,108.371341 L69.8895392,108.371341 C75.2135282,108.371341 79.5294756,113.166135 79.529476,118.44385 C79.529476,123.721565 75.2135282,128 69.8895386,128 L69.8895386,128 L0,128 L0,51.5508266 L4.81996182,51.5508266 C4.81996182,51.5508266 15.0674219,53.0070136 20.6895596,41.6453229 C22.3640772,38.2613164 23.1793755,33.7349017 23.4767193,27.6917971 L23.4767138,11.5 C23.4767138,5.14872538 28.6254391,1.16671022e-15 34.9767138,0 L36.5282882,0 C42.8795628,-2.94306706e-15 48.0282882,5.14872538 48.0282882,11.5 L48.0282882,32.8464567 C48.0282882,33.0825938 48.021171,33.3170687 48.0071395,33.5496784 L48.0056919,33.5484204 Z"></path>
        <filter id="filter-20" filterUnits="objectBoundingBox" height="104.7%" width="106.4%" y="-2.3%" x="-3.2%">
            <feOffset result="shadowOffsetInner1" in="SourceAlpha" dy="4" dx="6"></feOffset>
            <feComposite result="shadowInnerInner1" k3="1" k2="-1" operator="arithmetic" in2="SourceAlpha" in="shadowOffsetInner1"></feComposite>
            <feColorMatrix in="shadowInnerInner1" type="matrix" values="0 0 0 0 1   0 0 0 0 1   0 0 0 0 1  0 0 0 0.5 0"></feColorMatrix>
        </filter>
        <linearGradient id="linearGradient-21" y2="85.839638%" x2="28.6881704%" y1="66.608451%" x1="45.5709682%">
            <stop offset="0%" stop-color="#FFECA6"></stop>
            <stop offset="100%" stop-color="#FF9020"></stop>
        </linearGradient>
        <linearGradient id="linearGradient-22" y2="100%" x2="50%" y1="0%" x1="50%">
            <stop offset="0%" stop-color="#FFCF52"></stop>
            <stop offset="100%" stop-color="#FA872D"></stop>
        </linearGradient>
        <linearGradient id="linearGradient-23" y2="93.0250903%" x2="50%" y1="11.6361679%" x1="50%">
            <stop offset="0%" stop-opacity="0" stop-color="#FEA019"></stop>
            <stop offset="100%" stop-color="#F8472D"></stop>
        </linearGradient>
    </defs>
    <g fill-rule="evenodd" fill="none" stroke-width="1" stroke="none" id="页面-1">
        <g transform="translate(-199.000000, -2995.000000)" id="勋章">
            <g transform="translate(199.000000, 2995.000000)" id="19.赞无不胜">
                <g id="矩形">
                    <mask fill="white" id="mask-3">
                        <use xlink:href="#path-2"></use>
                    </mask>
                    <use xlink:href="#path-2" fill="url(#linearGradient-1)" id="蒙版"></use>
                    <polygon points="-21.275089 61.4694852 100.866578 -33.9580435 140.884574 17.2626555 18.7429069 112.690184" mask="url(#mask-3)" filter="url(#filter-4)" opacity="0.400000006" fill="#FFFFFF"></polygon>
                </g>
                <g transform="translate(12.000000, 14.000000)" id="矩形-+-矩形-+-矩形-+-矩形蒙版">
                    <mask fill="white" id="mask-7">
                        <use xlink:href="#path-6"></use>
                    </mask>
                    <path d="M77.2936851,4.40136165 C78.9730493,3.4521558 81.0269507,3.4521558 82.7063149,4.40136165 L82.7063149,4.40136165 L154.706315,45.0970138 C155.569455,45.5848754 156.267876,46.2861627 156.750512,47.113353 C157.233149,47.9405432 157.5,48.8936363 157.5,49.8851094 L157.5,49.8851094 L157.5,130.984456 C157.5,131.975929 157.233149,132.929022 156.750512,133.756212 C156.267876,134.583403 155.569455,135.28469 154.706315,135.772551 L154.706315,135.772551 L82.7063149,176.468204 C81.0269507,177.417409 78.9730493,177.417409 77.2936851,176.468204 L77.2936851,176.468204 L5.29368509,135.772551 C4.43054545,135.28469 3.73212418,134.583403 3.24948782,133.756212 C2.76685145,132.929022 2.5,131.975929 2.5,130.984456 L2.5,130.984456 L2.5,49.8851094 C2.5,48.8936363 2.76685145,47.9405432 3.24948782,47.113353 C3.73212418,46.2861627 4.43054545,45.5848754 5.29368509,45.0970138 L5.29368509,45.0970138 Z" stroke-width="5" stroke="url(#linearGradient-5)"></path>
                    <mask fill="white" id="mask-10">
                        <use xlink:href="#path-9"></use>
                    </mask>
                    <use xlink:href="#path-9" fill="url(#linearGradient-8)" id="蒙版"></use>
                    <polygon points="98 3 87.342 75.869 131.204581 16.753788 155.246212 40.7954185 95.888 84.83 169 74 169 108 95.891 97.164 155.246212 141.204581 131.204581 165.246212 87.17 105.889 98 179 64 179 74.792 106.183 30.7954185 165.246212 6.75378798 141.204581 65.581 97.389 -7 108 -7 74 65.578 84.615 6.75378798 40.7954185 30.7954185 16.753788 74.609 75.58 64 3" mask="url(#mask-10)" opacity="0.219999999" fill="#FFFFFF" id="路径"></polygon>
                    <path mask="url(#mask-10)" filter="url(#filter-11)" opacity="0.800000012" fill="#DB1720" id="椭圆形" d="M79.5,169 C116.503078,169 146.5,139.003078 146.5,102 C146.5,64.9969218 117.003078,17.7521362 80,17.7521362 C42.9969218,17.7521362 12.5,64.9969218 12.5,102 C12.5,139.003078 42.4969218,169 79.5,169 Z"></path>
                    <g mask="url(#mask-10)" id="赞">
                        <g transform="translate(11.480864, 30.000000)">
                            <g transform="translate(0.000000, 46.000000)" fill-rule="evenodd" fill="none" stroke-width="1" id="路径">
                                <mask fill="white" id="mask-14">
                                    <use xlink:href="#path-13"></use>
                                </mask>
                                <use xlink:href="#path-13" fill-rule="nonzero" fill="url(#linearGradient-12)" id="蒙版"></use>
                                <path mask="url(#mask-14)" fill-rule="nonzero" fill="url(#linearGradient-15)" id="蒙版" d="M33.5191355,0 C36.2805593,0 38.5191355,2.23857625 38.5191355,5 L38.5191355,82 C38.5191355,84.7614237 36.2805593,87 33.5191355,87 L5,87 C2.23857625,87 6.03961325e-13,84.7614237 6.03961325e-13,82 C6.03961325e-13,81.8471463 0.00700927447,81.694373 0.0210057381,81.5421614 L7.10146551,4.54216145 C7.33807915,1.9689881 9.49643054,0 12.0804598,0 L33.5191355,0 Z M33.5191355,2 L12.0804598,2 C10.5896737,2 9.33502544,3.09226411 9.11451014,4.54880947 L9.09306321,4.72529687 L2.01260344,81.7252969 C2.00420556,81.8166238 2,81.9082878 2,82 C2,83.5976809 3.24891996,84.9036609 4.82372721,84.9949073 L5,85 L33.5191355,85 C35.1168164,85 36.4227964,83.75108 36.5140428,82.1762728 L36.5191355,82 L36.5191355,5 C36.5191355,3.40231912 35.2702156,2.09633912 33.6954083,2.00509269 L33.5191355,2 Z"></path>
                                <rect height="16.1860465" width="40" y="73.8488372" x="8.51913553" mask="url(#mask-14)" opacity="0.800000012" fill="#F8352D" id="矩形"></rect>
                                <polygon points="6.51913553 -7.08139535 16.5191355 -7.08139535 9.51913553 75.872093 -1.48086447 75.872093" mask="url(#mask-14)" opacity="0.600000024" fill="url(#linearGradient-16)" id="矩形"></polygon>
                            </g>
                            <g transform="translate(38.001486, 0.000000)" fill-rule="evenodd" fill="none" stroke-width="1" id="椭圆形">
                                <mask fill="white" id="mask-19">
                                    <use xlink:href="#path-18"></use>
                                </mask>
                                <g fill-rule="nonzero" id="形状结合">
                                    <use xlink:href="#path-18" fill="url(#linearGradient-17)"></use>
                                    <use xlink:href="#path-18" filter="url(#filter-20)" fill-opacity="1" fill="black"></use>
                                </g>
                                <path mask="url(#mask-19)" fill="url(#linearGradient-21)" id="路径-26" d="M2.83996827,51.0972825 C5.06384876,54.1300474 6.18401499,55.6376967 6.20046697,55.6202304 C5.58948958,90.1207708 11.5919911,109.177096 22.3850149,114.169404 C33.6288485,119.370235 52.3329792,123.980433 78.4974069,128 L-9.19727508,147.763617 L-13.0242803,66.015748 L-4.24090022,46.3622047 L2.83996827,51.0972825 Z"></path>
                            </g>
                            <path fill-rule="nonzero" fill="url(#linearGradient-22)" id="形状" d="M94.9515377,67 C93.6148463,67 92.5312407,68.1397059 92.5312407,69.5456035 C92.5312407,70.9514996 93.614845,72.0912069 94.9515376,72.0912069 L129.002706,72.0912069 C127.628174,70.9149552 125.402508,69.9488571 123.416549,69.5456062 C119.95058,68.8418381 113.645984,69.5456048 111.893682,69.5456062 L119.068377,69.31449 C121.406439,69.3071994 123.747667,68.633058 125.49576,67 L94.9515377,67 Z M94.9243883,87.3648276 C93.6026911,87.3648275 92.5312407,88.5045334 92.5312407,89.9104308 C92.5312407,91.3163268 93.6026898,92.456034 94.9243884,92.456034 L122.859661,92.9756465 C122.089015,91.8249863 119.521239,88.5975742 116.716745,89.9104308 L121.24908,89.9104314 C123.560915,89.9031408 125.790651,88.8565206 127.519136,87.2234655 L94.9243883,87.3648276 Z M89.9412004,106.592207 C88.6035327,106.592207 87.5191355,107.731913 87.5191355,109.13781 C87.5191355,110.543706 88.6035314,111.683413 89.9412005,111.683413 L114.992824,111.683413 C112.879448,109.557904 111.603473,108.612843 108.975712,109.137811 L114.161878,109.137811 C116.501647,109.13052 118.815012,108.225262 120.564382,106.592207 L89.9412004,106.592207 Z"></path>
                        </g>
                    </g>
                    <path mask="url(#mask-10)" opacity="0.600000024" fill="url(#linearGradient-23)" id="路径-3" d="M19.0528497,140.547357 L77.3156238,173.876313 C79.1469882,174.923937 81.3940112,174.932687 83.2334797,173.89936 L142.604716,140.547357 L142.604716,140.547357 L142.604716,108.992641 L19.0528497,108.992641 L19.0528497,140.547357 Z"></path>
                </g>
            </g>
        </g>
    </g>
</svg>