<svg xmlns:xlink="http://www.w3.org/1999/xlink" xmlns="http://www.w3.org/2000/svg" version="1.1" viewBox="0 0 184 206" height="206px" width="184px">
    <title>20.身经百赞</title>
    <defs>
        <linearGradient id="linearGradient-1" y2="12.7274735%" x2="25.2178103%" y1="84.7046849%" x1="79.8436889%">
            <stop offset="0%" stop-color="#8357FF"></stop>
            <stop offset="100%" stop-color="#B982FF"></stop>
        </linearGradient>
        <path id="path-2" d="M96.9205726,1.29437161 L178.920573,47.6421977 C182.059262,49.4162396 184,52.7424694 184,56.3478261 L184,148.678531 C184,152.283887 182.059262,155.610117 178.920573,157.384159 L96.9205726,203.731985 C93.8671831,205.457814 90.1328169,205.457814 87.0794274,203.731985 L5.07942743,157.384159 C1.94073784,155.610117 0,152.283887 0,148.678531 L0,56.3478261 C0,52.7424694 1.94073784,49.4162396 5.07942743,47.6421977 L87.0794274,1.29437161 C90.1328169,-0.431457204 93.8671831,-0.431457204 96.9205726,1.29437161 Z"></path>
        <filter id="filter-4" filterUnits="objectBoundingBox" height="190.0%" width="181.4%" y="-45.0%" x="-40.7%">
            <feGaussianBlur in="SourceGraphic" stdDeviation="22"></feGaussianBlur>
        </filter>
        <linearGradient id="linearGradient-5" y2="13.0023533%" x2="25.2720595%" y1="88.8600417%" x1="73.8665507%">
            <stop offset="0%" stop-color="#D795FF"></stop>
            <stop offset="28.2501697%" stop-color="#FC74AB"></stop>
            <stop offset="61.0015848%" stop-color="#B452FD"></stop>
            <stop offset="100%" stop-color="#925DFF"></stop>
        </linearGradient>
        <linearGradient id="linearGradient-6" y2="0%" x2="50%" y1="100%" x1="79.4712568%">
            <stop offset="0%" stop-color="#A040FE"></stop>
            <stop offset="52.1722689%" stop-color="#893AED"></stop>
            <stop offset="100%" stop-color="#4938FD"></stop>
        </linearGradient>
        <path id="path-7" d="M81.968229,4.92302001 L152.968229,45.0534548 C154.223705,45.7630716 155,47.0935635 155,48.5357062 L155,129.855492 C155,130.937409 154.417448,131.935513 153.475419,132.467606 L81.4798593,173.133365 C80.5618319,173.651901 79.4389873,173.650455 78.5222986,173.129556 L7.02381065,132.501289 C5.77280648,131.790419 5,130.462419 5,129.023549 L5,48.5357062 C5,47.0935635 5.77629514,45.7630716 7.03177097,45.0534548 L78.031771,4.92302001 C79.2531268,4.23268849 80.7468732,4.23268849 81.968229,4.92302001 Z"></path>
        <filter id="filter-9" filterUnits="objectBoundingBox" height="176.8%" width="188.2%" y="-38.4%" x="-44.1%">
            <feGaussianBlur in="SourceGraphic" stdDeviation="20"></feGaussianBlur>
        </filter>
        <linearGradient id="linearGradient-10" y2="83.0314321%" x2="50%" y1="-25.2815466%" x1="65.1581046%">
            <stop offset="0%" stop-color="#FFEEA0"></stop>
            <stop offset="48.7506755%" stop-color="#FFD22B"></stop>
            <stop offset="100%" stop-color="#FF5235"></stop>
            <stop offset="100%" stop-color="#FF5235"></stop>
        </linearGradient>
        <path id="path-11" d="M12.352373,0 L33,0 C35.7614237,-5.07265313e-16 38,2.23857625 38,5 L38,79 C38,81.7614237 35.7614237,84 33,84 L5.4854621,84 C2.72403836,84 0.485462105,81.7614237 0.485462105,79 C0.485462105,78.845754 0.492599653,78.6915906 0.506851849,78.5380044 L7.37376272,4.53800442 C7.61237685,1.9666232 9.76994425,-4.1379396e-16 12.352373,0 Z"></path>
        <linearGradient id="linearGradient-13" y2="92.3215199%" x2="46.7396713%" y1="0%" x1="50%">
            <stop offset="0%" stop-color="#FFEF7A"></stop>
            <stop offset="100%" stop-color="#F72714"></stop>
        </linearGradient>
        <linearGradient id="linearGradient-14" y2="93.3867576%" x2="50%" y1="10.0377026%" x1="52.3975276%">
            <stop offset="0%" stop-color="#FFD63B"></stop>
            <stop offset="100%" stop-color="#F8352D"></stop>
        </linearGradient>
        <linearGradient id="linearGradient-15" y2="77.8558025%" x2="66.5937106%" y1="13.6307987%" x1="31.4647773%">
            <stop offset="0%" stop-color="#FFF6D3"></stop>
            <stop offset="44.8894713%" stop-color="#FFF8BB"></stop>
            <stop offset="78.4404499%" stop-color="#FFECA6"></stop>
            <stop offset="100%" stop-color="#FFEA81"></stop>
        </linearGradient>
        <path id="path-16" d="M34.9680851,0 C41.3193597,2.38600346e-15 46.4680851,5.14872538 46.4680851,11.5 L46.4680851,31.1141732 C46.4680851,31.35186 46.4608742,31.5878626 46.4466593,31.8219742 C46.4499864,35.4021695 46.4556836,39.4480414 46.463059,43.9589201 C46.4657649,45.6138587 47.8081174,46.9540182 49.4630582,46.954015 L49.4630582,46.954015 L78.9514752,46.954015 C84.0512963,46.954015 88.18552,52.0338277 88.1854345,57.1052712 C88.1854345,62.1768253 84.0512108,66.2881342 78.9513901,66.288134 L78.9513901,66.288134 L72.2169649,66.2884178 C74.0428552,66.293632 78.6709977,66.3734845 81.2599108,66.756459 C86.7703237,67.5691491 90.4939555,70.3222658 90.4939555,76.0454836 C90.4939555,81.1170377 86.3597318,85.2283467 81.259911,85.2283465 L81.259911,85.2283465 L74.334387,85.2283465 C79.434208,85.2283465 83.5684313,89.8836689 83.5684317,94.955223 C83.5684317,100.026777 79.434208,104.138085 74.3343864,104.138086 L74.3343864,104.138086 L67.4088624,104.138086 C72.5086834,104.138086 76.6429067,108.745583 76.6429071,113.817137 C76.6429071,118.888691 72.5086834,123 67.4088618,123 L67.4088618,123 L0.462040619,123 L0.462040619,49.5371224 L5.08230299,49.5375715 C5.28521814,49.5652167 14.9517334,50.8215021 20.2804609,40.0185525 C21.8857344,36.7641754 22.6666707,32.4102875 22.9509378,26.5963779 L22.9502612,11.5 C22.9502612,5.14872538 28.0989865,4.7194239e-15 34.4502612,0 L34.9680851,0 Z"></path>
        <filter id="filter-18" filterUnits="objectBoundingBox" height="104.9%" width="106.7%" y="-2.4%" x="-3.3%">
            <feOffset result="shadowOffsetInner1" in="SourceAlpha" dy="4" dx="6"></feOffset>
            <feComposite result="shadowInnerInner1" k3="1" k2="-1" operator="arithmetic" in2="SourceAlpha" in="shadowOffsetInner1"></feComposite>
            <feColorMatrix in="shadowInnerInner1" type="matrix" values="0 0 0 0 1   0 0 0 0 1   0 0 0 0 1  0 0 0 0.5 0"></feColorMatrix>
        </filter>
        <linearGradient id="linearGradient-19" y2="85.839638%" x2="28.8229225%" y1="66.608451%" x1="45.5989724%">
            <stop offset="0%" stop-color="#FFECA6"></stop>
            <stop offset="100%" stop-color="#FF9020"></stop>
        </linearGradient>
        <path id="path-20" d="M15.6350629,4.55011381 C17.7653063,7.46441129 18.8383076,8.91316805 18.8540669,8.89638408 C18.2688149,42.0492471 24.0185795,60.3611844 34.3571602,65.1584808 C45.1275692,70.1561537 63.0441575,74.5862664 88.1069251,78.4488189 L4.1046508,97.4404197 L0.438782624,18.8858268 L8.8523362,5.46229728e-14 L15.6350629,4.55011381 Z"></path>
        <linearGradient id="linearGradient-22" y2="50%" x2="50%" y1="47.8994399%" x1="50.6970398%">
            <stop offset="0%" stop-opacity="0" stop-color="#FFCB85"></stop>
            <stop offset="100%" stop-color="#CC60FF"></stop>
        </linearGradient>
        <linearGradient id="linearGradient-23" y2="100%" x2="50%" y1="0%" x1="50%">
            <stop offset="0%" stop-color="#FFCF52"></stop>
            <stop offset="100%" stop-color="#FA872D"></stop>
        </linearGradient>
        <linearGradient id="linearGradient-24" y2="50%" x2="100%" y1="95.2254249%" x1="30.0112566%">
            <stop offset="0%" stop-color="#AD85FF"></stop>
            <stop offset="100%" stop-color="#FFFFFF"></stop>
        </linearGradient>
        <path id="path-25" d="M39.7579192,61.9687843 L36.3390897,64.2704762 C35.8809556,64.5789103 35.2595293,64.4575544 34.9510952,63.9994203 C34.785552,63.7535299 34.7376287,63.4468681 34.8202585,63.1621946 L35.8932774,59.4654671 C36.1142758,58.704091 35.8646827,57.8840493 35.2569798,57.374902 L31.942977,54.5983552 C31.5196363,54.2436707 31.4639794,53.6129566 31.8186639,53.1896159 C32.0086659,52.9628352 32.2893349,52.831829 32.5851901,52.831829 L36.6901539,52.831829 C37.5441381,52.831829 38.3039099,52.2895946 38.5815252,51.4819939 L39.9645932,47.4585606 C40.1441313,46.9362728 40.7130736,46.6584193 41.2353614,46.8379574 C41.5189061,46.9354268 41.7437542,47.1549804 41.8479513,47.4361226 L43.3640657,51.52687 C43.654768,52.3112367 44.4029065,52.831829 45.2394105,52.831829 L49.0346817,52.831829 C49.5869665,52.831829 50.0346817,53.2795442 50.0346817,53.831829 C50.0346817,54.1378782 49.8945345,54.4270763 49.6543204,54.6167162 L46.2106969,57.3353258 C45.5448062,57.8610213 45.2830414,58.7496377 45.5576098,59.5523695 L46.7355973,62.9963487 C46.9143357,63.5189106 46.6356117,64.0874269 46.1130497,64.2661654 C45.8169587,64.3674411 45.4905311,64.3242715 45.2309458,64.1495084 L41.9917965,61.9687843 C41.3165548,61.5141848 40.4331608,61.5141848 39.7579192,61.9687843 Z"></path>
        <filter id="filter-26" filterUnits="objectBoundingBox" height="103.1%" width="101.7%" y="-0.1%" x="-1.1%">
            <feGaussianBlur result="shadowBlurInner1" in="SourceAlpha" stdDeviation="1"></feGaussianBlur>
            <feOffset result="shadowOffsetInner1" in="shadowBlurInner1" dy="1" dx="2"></feOffset>
            <feComposite result="shadowInnerInner1" k3="1" k2="-1" operator="arithmetic" in2="SourceAlpha" in="shadowOffsetInner1"></feComposite>
            <feColorMatrix in="shadowInnerInner1" type="matrix" values="0 0 0 0 0.670588235   0 0 0 0 0.494117647   0 0 0 0 1  0 0 0 1 0"></feColorMatrix>
        </filter>
        <linearGradient id="linearGradient-27" y2="81.7255433%" x2="24.282405%" y1="50%" x1="78.147317%">
            <stop offset="0%" stop-color="#FFFFFF"></stop>
            <stop offset="100%" stop-color="#FF60D4"></stop>
        </linearGradient>
        <path id="path-28" d="M121.603787,63.0284769 L113.790536,68.2828243 C113.103097,68.7451216 112.171051,68.562608 111.708754,67.8751687 C111.460692,67.5062998 111.389014,67.0464059 111.513054,66.619542 L113.989955,58.0956906 C114.211351,57.3337917 113.961436,56.5130594 113.352984,56.0038512 L105.886727,49.7554002 C105.251425,49.223721 105.167422,48.2776958 105.699101,47.6423937 C105.984102,47.3018467 106.405347,47.1050841 106.849417,47.1050841 L116.297999,47.1050841 C117.151732,47.1050841 117.911339,46.5631637 118.189148,45.7558956 L121.354634,36.5575248 C121.624209,35.7741852 122.477765,35.3576967 123.261105,35.6272717 C123.686022,35.7735008 124.022996,36.1025332 124.179316,36.523843 L127.621371,45.8008046 C127.912265,46.5848171 128.660225,47.1050841 129.496463,47.1050841 L138.395305,47.1050841 C139.223732,47.1050841 139.895305,47.776657 139.895305,48.6050841 C139.895305,49.0644424 139.684825,49.4984759 139.324126,49.7829172 L131.485573,55.9642826 C130.81889,56.4900185 130.556806,57.3793899 130.831857,58.1826401 L133.635669,66.3707939 C133.904044,67.1545455 133.486248,68.0074623 132.702496,68.2758368 C132.258499,68.4278718 131.768934,68.3633407 131.379498,68.1014478 L123.835955,63.0284769 C123.161102,62.5746438 122.27864,62.5746438 121.603787,63.0284769 Z"></path>
        <filter id="filter-29" filterUnits="objectBoundingBox" height="97.4%" width="96.4%" y="2.5%" x="1.6%">
            <feGaussianBlur result="shadowBlurInner1" in="SourceAlpha" stdDeviation="1"></feGaussianBlur>
            <feOffset result="shadowOffsetInner1" in="shadowBlurInner1" dy="2" dx="2"></feOffset>
            <feComposite result="shadowInnerInner1" k3="1" k2="-1" operator="arithmetic" in2="SourceAlpha" in="shadowOffsetInner1"></feComposite>
            <feColorMatrix in="shadowInnerInner1" type="matrix" values="0 0 0 0 1   0 0 0 0 0.862161578   0 0 0 0 0.304001524  0 0 0 1 0"></feColorMatrix>
        </filter>
        <linearGradient id="linearGradient-30" y2="100%" x2="64.8572055%" y1="18.3713726%" x1="64.8572055%">
            <stop offset="0%" stop-opacity="0" stop-color="#EF81CB"></stop>
            <stop offset="100%" stop-color="#5036F8"></stop>
        </linearGradient>
    </defs>
    <g fill-rule="evenodd" fill="none" stroke-width="1" stroke="none" id="页面-1">
        <g transform="translate(-563.000000, -2996.000000)" id="勋章">
            <g transform="translate(563.000000, 2996.486822)" id="20.身经百赞">
                <g id="矩形">
                    <mask fill="white" id="mask-3">
                        <use xlink:href="#path-2"></use>
                    </mask>
                    <use xlink:href="#path-2" fill="url(#linearGradient-1)" id="蒙版"></use>
                    <polygon points="-21.275089 59.9826636 100.866578 -35.444865 140.884574 15.7758339 18.7429069 111.203363" mask="url(#mask-3)" filter="url(#filter-4)" opacity="0.5" fill="#FFFFFF"></polygon>
                </g>
                <g transform="translate(12.000000, 13.702636)" id="矩形-+-矩形-+-矩形-+-矩形蒙版">
                    <path fill-rule="nonzero" fill="url(#linearGradient-5)" id="蒙版" d="M83.9364581,1.03549729 L155.936458,41.7311495 C158.44741,43.150383 160,45.8113668 160,48.6956522 L160,129.794999 C160,132.679284 158.44741,135.340268 155.936458,136.759501 L83.9364581,177.455153 C81.4937465,178.835816 78.5062535,178.835816 76.0635419,177.455153 L4.06354195,136.759501 C1.55259028,135.340268 0,132.679284 0,129.794999 L0,48.6956522 C0,45.8113668 1.55259028,43.150383 4.06354195,41.7311495 L76.0635419,1.03549729 C78.5062535,-0.345165763 81.4937465,-0.345165763 83.9364581,1.03549729 Z M81.4761718,5.38831148 C80.6212227,4.90507942 79.5883117,4.87286394 78.7096344,5.29166507 L78.5238282,5.38831148 L6.52382823,46.0839637 C5.64107178,46.582913 5.07418152,47.4911305 5.0067685,48.4939254 L5,48.6956522 L5,129.794999 C5,130.809005 5.51171799,131.749414 6.35154289,132.301534 L6.52382823,132.406687 L78.5238282,173.102339 C79.3787773,173.585571 80.4116883,173.617787 81.2903656,173.198986 L81.4761718,173.102339 L153.476172,132.406687 C154.358928,131.907738 154.925818,130.99952 154.993231,129.996725 L155,129.794999 L155,48.6956522 C155,47.6816456 154.488282,46.741237 153.648457,46.1891172 L153.476172,46.0839637 L81.4761718,5.38831148 Z"></path>
                    <mask fill="white" id="mask-8">
                        <use xlink:href="#path-7"></use>
                    </mask>
                    <use xlink:href="#path-7" fill="url(#linearGradient-6)" id="蒙版"></use>
                    <polygon points="97 1.81054274 85.613 79.6615427 130.204581 19.5643307 154.246212 43.6059613 94.888 87.6395427 168 76.8105427 168 110.810543 94.891 99.9755427 154.246212 144.015124 130.204581 168.056755 86.911 109.697543 97 177.810543 63 177.810543 73.052 109.987543 29.7954185 168.056755 5.75378798 144.015124 64.58 100.200543 -8 110.810543 -8 76.8105427 64.579 87.4265427 5.75378798 43.6059613 29.7954185 19.5643307 74.337 79.3675427 63 1.81054274" mask="url(#mask-8)" opacity="0.179999992" fill="#FFFFFF" id="路径"></polygon>
                    <path mask="url(#mask-8)" filter="url(#filter-9)" opacity="0.800000012" fill="#4D26D7" id="椭圆形" d="M80,172.810543 C117.555363,172.810543 148,142.365906 148,104.810543 C148,67.2551798 119.055363,16.5643307 81.5,16.5643307 C43.944637,16.5643307 12,67.2551798 12,104.810543 C12,142.365906 42.444637,172.810543 80,172.810543 Z"></path>
                    <g mask="url(#mask-8)" id="赞">
                        <g transform="translate(11.518797, 34.810543)">
                            <g transform="translate(0.481203, 44.000000)" fill-rule="evenodd" fill="none" stroke-width="1" id="路径">
                                <mask fill="white" id="mask-12">
                                    <use xlink:href="#path-11"></use>
                                </mask>
                                <use xlink:href="#path-11" fill-rule="nonzero" fill="url(#linearGradient-10)" id="蒙版"></use>
                                <path mask="url(#mask-12)" fill-rule="nonzero" fill="url(#linearGradient-13)" id="蒙版" d="M33,0 C35.7614237,0 38,2.23857625 38,5 L38,79 C38,81.7614237 35.7614237,84 33,84 L5.4854621,84 C2.72403836,84 0.485462105,81.7614237 0.485462105,79 C0.485462105,78.845754 0.492599653,78.6915906 0.506851849,78.5380044 L7.37376272,4.53800442 C7.61237685,1.9666232 9.76994425,0 12.352373,0 L33,0 Z M33,2 L12.352373,2 C10.8625102,2 9.60833243,3.09095222 9.38678489,4.54644075 L9.36520682,4.72280265 L2.49829595,78.7228027 C2.48974463,78.8149543 2.4854621,78.9074524 2.4854621,79 C2.4854621,80.5976809 3.73438207,81.9036609 5.30918932,81.9949073 L5.4854621,82 L33,82 C34.5976809,82 35.9036609,80.75108 35.9949073,79.1762728 L36,79 L36,5 C36,3.40231912 34.75108,2.09633912 33.1762728,2.00509269 L33,2 Z"></path>
                                <rect height="15.627907" width="38.974359" y="71.3023256" x="7.79487179" mask="url(#mask-12)" opacity="0.800000012" fill="#F8352D" id="矩形"></rect>
                                <polygon points="5.84615385 -6.8372093 15.5897436 -6.8372093 8.76923077 73.255814 -1.94871795 73.255814" mask="url(#mask-12)" opacity="0.600000024" fill="url(#linearGradient-14)" id="矩形"></polygon>
                            </g>
                            <g transform="translate(37.481203, 0.000000)" fill-rule="evenodd" fill="none" stroke-width="1" id="椭圆形">
                                <mask fill="white" id="mask-17">
                                    <use xlink:href="#path-16"></use>
                                </mask>
                                <g fill-rule="nonzero" id="形状结合">
                                    <use xlink:href="#path-16" fill="url(#linearGradient-15)"></use>
                                    <use xlink:href="#path-16" filter="url(#filter-18)" fill-opacity="1" fill="black"></use>
                                </g>
                                <g mask="url(#mask-17)" id="矩形">
                                    <g transform="translate(-12.452632, 44.551181)">
                                        <mask fill="white" id="mask-21">
                                            <use xlink:href="#path-20"></use>
                                        </mask>
                                        <use xlink:href="#path-20" fill-rule="evenodd" fill="url(#linearGradient-19)" stroke="none" id="蒙版"></use>
                                        <polygon points="-5.74736842 67.7824061 87.1684211 76.9863508 87.1684211 90.9410064 -5.74736842 90.9410064" mask="url(#mask-21)" fill-rule="evenodd" fill="url(#linearGradient-22)" stroke="none" id="矩形"></polygon>
                                    </g>
                                </g>
                            </g>
                            <path fill-rule="nonzero" fill="url(#linearGradient-23)" id="形状" d="M92.6478013,64 C91.3589138,64 90.314061,65.0967684 90.314061,66.4496998 C90.314061,67.8026299 91.3589125,68.8993996 92.6478012,68.8993996 L125.481203,68.8993996 C124.155828,67.7674623 122.009758,66.8377611 120.094823,66.4497025 C116.752807,65.7724482 110.673681,66.4497011 108.984047,66.4497025 L115.902154,66.2272933 C118.1566,66.2202775 120.414099,65.5715338 122.099675,64 L92.6478013,64 Z M92.6216229,83.5975984 C91.3471934,83.5975983 90.314061,84.6943667 90.314061,86.0472979 C90.314061,87.4002279 91.3471921,88.4969975 92.621623,88.4969975 L119.55785,88.997034 C118.814765,87.8897241 116.33882,84.7839022 113.634623,86.0472979 L118.004868,86.0472985 C120.234026,86.0402826 122.384021,85.033093 124.050689,83.461562 L92.6216229,83.5975984 Z M87.816648,102.100601 C86.5268191,102.100601 85.481203,103.197369 85.481203,104.5503 C85.481203,105.90323 86.5268178,107 87.816648,107 L111.972354,107 C109.934558,104.954568 108.704216,104.045111 106.170432,104.550301 L111.171125,104.550301 C113.427217,104.543285 115.657849,103.672132 117.344657,102.100601 L87.816648,102.100601 Z"></path>
                        </g>
                    </g>
                    <g mask="url(#mask-8)" opacity="0.800000012" id="星形">
                        <use xlink:href="#path-25" fill-rule="evenodd" fill="url(#linearGradient-24)"></use>
                        <use xlink:href="#path-25" filter="url(#filter-26)" fill-opacity="1" fill="black"></use>
                    </g>
                    <g transform="translate(122.719871, 51.590376) rotate(18.000000) translate(-122.719871, -51.590376)" id="星形">
                        <use xlink:href="#path-28" fill-rule="evenodd" fill="url(#linearGradient-27)"></use>
                        <use xlink:href="#path-28" filter="url(#filter-29)" fill-opacity="1" fill="black"></use>
                    </g>
                    <path opacity="0.600000024" fill="url(#linearGradient-30)" id="路径-3" d="M19.4663062,140.726354 L77.3020165,173.685508 C79.1409424,174.733467 81.3959745,174.73501 83.2363334,173.68957 L139.65995,141.637392 L139.65995,141.637392 L138.717195,121.810543 L18.5235515,120.899505 L19.4663062,140.726354 Z"></path>
                </g>
            </g>
        </g>
    </g>
</svg>