<svg xmlns:xlink="http://www.w3.org/1999/xlink" xmlns="http://www.w3.org/2000/svg" version="1.1" viewBox="0 0 184 209" height="209px" width="184px">
    <title>24.远近闻名</title>
    <defs>
        <linearGradient id="linearGradient-1" y2="12.7274735%" x2="25.2178103%" y1="84.7046849%" x1="79.8436889%">
            <stop offset="0%" stop-color="#8357FF"></stop>
            <stop offset="100%" stop-color="#B982FF"></stop>
        </linearGradient>
        <path id="path-2" d="M96.9205726,2.78119319 L178.920573,49.1290193 C182.059262,50.9030612 184,54.2292909 184,57.8346477 L184,150.165352 C184,153.770709 182.059262,157.096939 178.920573,158.870981 L96.9205726,205.218807 C93.8671831,206.944636 90.1328169,206.944636 87.0794274,205.218807 L5.07942743,158.870981 C1.94073784,157.096939 0,153.770709 0,150.165352 L0,57.8346477 C0,54.2292909 1.94073784,50.9030612 5.07942743,49.1290193 L87.0794274,2.78119319 C90.1328169,1.05536437 93.8671831,1.05536437 96.9205726,2.78119319 Z"></path>
        <filter id="filter-4" filterUnits="objectBoundingBox" height="190.0%" width="181.4%" y="-45.0%" x="-40.7%">
            <feGaussianBlur in="SourceGraphic" stdDeviation="22"></feGaussianBlur>
        </filter>
        <linearGradient id="linearGradient-5" y2="13.0023533%" x2="25.9182578%" y1="88.8600417%" x1="73.2428625%">
            <stop offset="0%" stop-color="#D795FF"></stop>
            <stop offset="28.2501697%" stop-color="#FC74AB"></stop>
            <stop offset="61.0015848%" stop-color="#B452FD"></stop>
            <stop offset="100%" stop-color="#925DFF"></stop>
        </linearGradient>
        <path id="path-6" d="M83.9364581,2.22495455 L155.936458,42.9206067 C158.44741,44.3398403 160,47.0008241 160,49.8851094 L160,130.984456 C160,133.868741 158.44741,136.529725 155.936458,137.948958 L83.9364581,178.644611 C81.4937465,180.025274 78.5062535,180.025274 76.0635419,178.644611 L4.06354195,137.948958 C1.55259028,136.529725 3.53223086e-16,133.868741 0,130.984456 L0,49.8851094 C8.52856111e-15,47.0008241 1.55259028,44.3398403 4.06354195,42.9206067 L76.0635419,2.22495455 C78.5062535,0.844291498 81.4937465,0.844291498 83.9364581,2.22495455 Z"></path>
        <linearGradient id="linearGradient-8" y2="0%" x2="50%" y1="90.384724%" x1="77.6841041%">
            <stop offset="0%" stop-color="#A040FE"></stop>
            <stop offset="52.1722689%" stop-color="#7744EC"></stop>
            <stop offset="100%" stop-color="#4D3EE8"></stop>
        </linearGradient>
        <path id="path-9" d="M81.968229,6.11247728 L152.968229,46.2429121 C154.223705,46.9525288 155,48.2830207 155,49.7251634 L155,130.206878 C155,131.649021 154.223705,132.979512 152.968229,133.689129 L81.968229,173.819564 C80.7468732,174.509895 79.2531268,174.509895 78.031771,173.819564 L7.03177097,133.689129 C5.77629514,132.979512 5,131.649021 5,130.206878 L5,49.7251634 C5,48.2830207 5.77629514,46.9525288 7.03177097,46.2429121 L78.031771,6.11247728 C79.2531268,5.42214575 80.7468732,5.42214575 81.968229,6.11247728 Z"></path>
        <linearGradient id="linearGradient-11" y2="57.1980705%" x2="93.3789277%" y1="57.1980705%" x1="8.74557293%">
            <stop offset="0%" stop-color="#4117DD"></stop>
            <stop offset="53.9962661%" stop-color="#733AFB"></stop>
            <stop offset="100%" stop-color="#FF44E7"></stop>
        </linearGradient>
        <filter id="filter-12" filterUnits="objectBoundingBox" height="225.0%" width="225.0%" y="-62.5%" x="-62.5%">
            <feGaussianBlur in="SourceGraphic" stdDeviation="20"></feGaussianBlur>
        </filter>
        <linearGradient id="linearGradient-13" y2="83.1580336%" x2="57.9215354%" y1="27.2003364%" x1="50%">
            <stop offset="0%" stop-color="#FFF343"></stop>
            <stop offset="45.2457997%" stop-color="#FFCE1E"></stop>
            <stop offset="100%" stop-color="#FF524C"></stop>
        </linearGradient>
        <path id="path-14" d="M41.9057138,132.958043 L78.3486923,132.958043 L78.3486923,116.469921 L41.9057138,116.469921 C37.3137779,116.467983 33.5896984,120.155828 33.5877364,124.706965 C33.5877364,129.267039 37.3118164,132.958043 41.9057138,132.958043 Z M68.2124825,10.9999411 C68.2116989,14.6240056 70.1807748,17.9674473 73.3650616,19.7488994 L52.0859805,57.0845077 L47.3754184,65.3496756 C46.9383243,66.1158462 45.9771017,66.4154784 45.1762057,66.035217 L19.5873923,53.9275139 C22.0480507,48.9452011 19.9676443,42.9292029 14.9406715,40.4903683 C9.91369472,38.0515728 3.84376564,40.1134949 1.38306789,45.0958034 C-1.07759036,50.0781159 1.00281606,56.094114 6.02978886,58.5329486 C8.5683727,59.7645237 11.5105505,59.8894093 14.1460938,58.8774662 L33.169282,107.04112 C33.4230456,107.681538 34.0464489,108.102829 34.740654,108.102829 L78.3488372,108.102829 L78.3488372,90.700697 L64.0185593,76.4942202 L78.3488372,62.2877434 L78.3488372,0.958042519 C72.7518452,0.956855202 68.2136804,5.45276946 68.2124825,10.9999411 Z"></path>
        <filter id="filter-15" filterUnits="objectBoundingBox" height="102.3%" width="103.8%" y="-1.1%" x="-1.9%">
            <feOffset result="shadowOffsetInner1" in="SourceAlpha" dy="3" dx="1"></feOffset>
            <feComposite result="shadowInnerInner1" k3="1" k2="-1" operator="arithmetic" in2="SourceAlpha" in="shadowOffsetInner1"></feComposite>
            <feColorMatrix in="shadowInnerInner1" type="matrix" values="0 0 0 0 1   0 0 0 0 0.96837614   0 0 0 0 0.168627451  0 0 0 1 0"></feColorMatrix>
        </filter>
        <linearGradient id="linearGradient-16" y2="69.3533811%" x2="67.4586777%" y1="46.8773748%" x1="28.5483934%">
            <stop offset="0%" stop-color="#FFE427"></stop>
            <stop offset="49.1558171%" stop-color="#FF3060"></stop>
            <stop offset="100%" stop-color="#934FFF"></stop>
        </linearGradient>
        <path id="path-17" d="M77.3488372,116.46989 L77.3488372,132.958043 L113.795553,132.958043 C118.389908,132.958043 122.114383,129.26705 122.114383,124.713967 C122.114383,120.160896 118.389921,116.46989 113.795553,116.46989 L77.3488372,116.46989 Z M135.080806,49.5087562 C135.080864,51.0391881 135.433825,52.5493593 136.112736,53.9239679 L110.521298,66.0352001 C109.720317,66.4154617 108.758999,66.11583 108.32186,65.3496583 L103.610815,57.0809766 L82.3331058,19.7453479 C87.2056793,17.0151387 88.9223375,10.8873578 86.1673724,6.05862202 C84.3698845,2.90806591 81.0010083,0.959517677 77.3488372,0.958043461 L77.3488372,62.2911686 L77.3488372,76.4941307 L77.3488372,90.6970928 L77.3488372,108.102756 L120.961567,108.102756 C121.656872,108.102756 122.281225,107.680885 122.533101,107.041047 L141.55824,58.8773671 C146.779553,60.8765868 152.647648,58.3026005 154.664995,53.128212 C156.682343,47.9538182 154.085017,42.1384537 148.86371,40.1392341 C147.699988,39.6936491 146.46325,39.4648169 145.215694,39.4642415 C139.61808,39.4645201 135.080595,43.9615685 135.080806,49.5087562 Z"></path>
        <filter id="filter-18" filterUnits="objectBoundingBox" height="102.3%" width="103.8%" y="-1.1%" x="-1.9%">
            <feOffset result="shadowOffsetInner1" in="SourceAlpha" dy="0" dx="-3"></feOffset>
            <feComposite result="shadowInnerInner1" k3="1" k2="-1" operator="arithmetic" in2="SourceAlpha" in="shadowOffsetInner1"></feComposite>
            <feColorMatrix in="shadowInnerInner1" type="matrix" values="0 0 0 0 1   0 0 0 0 0.6   0 0 0 0 0.243137255  0 0 0 1 0"></feColorMatrix>
        </filter>
        <linearGradient id="linearGradient-19" y2="81.7961479%" x2="24.282405%" y1="50%" x1="100%">
            <stop offset="0%" stop-color="#FFFFFF"></stop>
            <stop offset="100%" stop-color="#FF44A5"></stop>
        </linearGradient>
        <path id="path-20" d="M43.2520525,60.8091541 L40.1581428,62.8920971 C39.7000086,63.2005312 39.0785823,63.0791753 38.7701483,62.6210412 C38.604605,62.3751508 38.5566818,62.068489 38.6393116,61.7838155 L39.6073127,58.4488914 C39.8283111,57.6875153 39.5787181,56.8674736 38.9710151,56.3583263 L35.9628415,53.8380101 C35.5395008,53.4833256 35.4838439,52.8526115 35.8385283,52.4292708 C36.0285304,52.2024901 36.3091994,52.0714839 36.6050545,52.0714839 L40.3155893,52.0714839 C41.1695735,52.0714839 41.9293453,51.5292495 42.2069606,50.7216488 L43.4587266,47.0801815 C43.6382647,46.5578938 44.2072069,46.2800402 44.7294947,46.4595783 C45.0130395,46.5570478 45.2378876,46.7766013 45.3420846,47.0577435 L46.7166347,50.7665249 C47.007337,51.5508916 47.7554755,52.0714839 48.5919795,52.0714839 L52.003084,52.0714839 C52.5553687,52.0714839 53.003084,52.5191991 53.003084,53.0714839 C53.003084,53.3775331 52.8629367,53.6667312 52.6227226,53.8563711 L49.5036628,56.3187502 C48.837772,56.8444456 48.5760072,57.733062 48.8505757,58.5357938 L49.904811,61.6179696 C50.0835494,62.1405315 49.8048253,62.7090479 49.2822634,62.8877863 C48.9861724,62.989062 48.6597447,62.9458924 48.4001595,62.7711293 L45.4859298,60.8091541 C44.8106881,60.3545545 43.9272942,60.3545545 43.2520525,60.8091541 Z"></path>
        <filter id="filter-21" filterUnits="objectBoundingBox" height="93.3%" width="92.2%" y="4.9%" x="3.6%">
            <feGaussianBlur result="shadowBlurInner1" in="SourceAlpha" stdDeviation="0.5"></feGaussianBlur>
            <feOffset result="shadowOffsetInner1" in="shadowBlurInner1" dy="0" dx="-1"></feOffset>
            <feComposite result="shadowInnerInner1" k3="1" k2="-1" operator="arithmetic" in2="SourceAlpha" in="shadowOffsetInner1"></feComposite>
            <feColorMatrix in="shadowInnerInner1" type="matrix" values="0 0 0 0 0.611764706   0 0 0 0 0.42745098   0 0 0 0 1  0 0 0 1 0"></feColorMatrix>
        </filter>
        <linearGradient id="linearGradient-22" y2="96.4923469%" x2="50%" y1="41.5482785%" x1="87.5938226%">
            <stop offset="0%" stop-color="#FFF343"></stop>
            <stop offset="100%" stop-color="#FF5854"></stop>
        </linearGradient>
        <path id="path-23" d="M113.726809,54.2956223 L108.489282,57.8707819 C108.033136,58.182149 107.410944,58.0647828 107.099577,57.608637 C106.931919,57.3630222 106.882275,57.05553 106.964121,56.7696333 L108.64354,50.9032765 C108.859645,50.1484013 108.614042,49.3369085 108.015613,48.8285572 L102.928747,44.507382 C102.507831,44.1498235 102.456469,43.5187452 102.814028,43.097829 C103.004028,42.8741613 103.282689,42.745246 103.576164,42.745246 L109.924105,42.745246 C110.781195,42.745246 111.543006,42.1991237 111.818205,41.3874165 L113.942794,35.1208793 C114.120125,34.5978378 114.687888,34.3175837 115.21093,34.4949142 C115.497771,34.5921641 115.72508,34.814177 115.829064,35.0986463 L118.144088,41.4318824 C118.432402,42.2206237 119.182742,42.745246 120.022527,42.745246 L126.004821,42.745246 C126.557106,42.745246 127.004821,43.1929612 127.004821,43.745246 C127.004821,44.0489349 126.866817,44.3361688 126.629727,44.5259459 L121.304001,48.7888879 C120.647925,49.3140394 120.390118,50.1933109 120.658742,50.9895899 L122.552631,56.6036062 C122.729169,57.1269155 122.448056,57.6942542 121.924747,57.8707926 C121.627496,57.9710701 121.300416,57.9260453 121.041315,57.7491822 L115.981929,54.2956223 C115.301887,53.8314221 114.406851,53.8314221 113.726809,54.2956223 Z"></path>
        <filter id="filter-24" filterUnits="objectBoundingBox" height="94.8%" width="94.4%" y="3.7%" x="2.6%">
            <feGaussianBlur result="shadowBlurInner1" in="SourceAlpha" stdDeviation="0.5"></feGaussianBlur>
            <feOffset result="shadowOffsetInner1" in="shadowBlurInner1" dy="-1" dx="-1"></feOffset>
            <feComposite result="shadowInnerInner1" k3="1" k2="-1" operator="arithmetic" in2="SourceAlpha" in="shadowOffsetInner1"></feComposite>
            <feColorMatrix in="shadowInnerInner1" type="matrix" values="0 0 0 0 0.980392157   0 0 0 0 0.462745098   0 0 0 0 0.690196078  0 0 0 1 0"></feColorMatrix>
        </filter>
        <linearGradient id="linearGradient-25" y2="81.8279303%" x2="24.7486543%" y1="27.8948877%" x1="90.2268472%">
            <stop offset="0%" stop-color="#F43999"></stop>
            <stop offset="100%" stop-color="#BB44C4"></stop>
        </linearGradient>
        <filter id="filter-26" filterUnits="objectBoundingBox" height="131.5%" width="130.9%" y="-15.8%" x="-15.5%">
            <feOffset result="shadowOffsetOuter1" in="SourceAlpha" dy="-3" dx="-2"></feOffset>
            <feGaussianBlur result="shadowBlurOuter1" in="shadowOffsetOuter1" stdDeviation="3"></feGaussianBlur>
            <feColorMatrix result="shadowMatrixOuter1" in="shadowBlurOuter1" type="matrix" values="0 0 0 0 0.964705882   0 0 0 0 0.247058824   0 0 0 0 0.364705882  0 0 0 0.2 0"></feColorMatrix>
            <feMerge>
                <feMergeNode in="shadowMatrixOuter1"></feMergeNode>
                <feMergeNode in="SourceGraphic"></feMergeNode>
            </feMerge>
        </filter>
        <linearGradient id="linearGradient-27" y2="83.0314321%" x2="50%" y1="-25.2815466%" x1="66.4297681%">
            <stop offset="0%" stop-color="#FFEEA0"></stop>
            <stop offset="48.7506755%" stop-color="#FFD22B"></stop>
            <stop offset="100%" stop-color="#FF5235"></stop>
            <stop offset="100%" stop-color="#FF5235"></stop>
        </linearGradient>
        <path id="path-28" d="M27.166159,2.27373675e-13 C29.9275827,2.29319047e-13 32.166159,2.23857625 32.166159,5 L32.166,68.297 L0,47.03 L4.00907311,4.53036208 C4.25135806,1.96227924 6.4074816,2.27847519e-13 8.98696827,2.27373675e-13 L27.166159,2.27373675e-13 Z"></path>
        <linearGradient id="linearGradient-30" y2="92.3215199%" x2="46.3740993%" y1="0%" x1="50%">
            <stop offset="0%" stop-color="#FFEF7A"></stop>
            <stop offset="100%" stop-color="#F72714"></stop>
        </linearGradient>
        <linearGradient id="linearGradient-31" y2="93.3867576%" x2="50%" y1="10.0377026%" x1="52.4782155%">
            <stop offset="0%" stop-color="#FFD63B"></stop>
            <stop offset="100%" stop-color="#F8352D"></stop>
        </linearGradient>
        <linearGradient id="linearGradient-32" y2="77.8558025%" x2="66.4382513%" y1="13.6307987%" x1="31.6384257%">
            <stop offset="0%" stop-color="#FFF6D3"></stop>
            <stop offset="44.8894713%" stop-color="#FFF8BB"></stop>
            <stop offset="78.4404499%" stop-color="#FFECA6"></stop>
            <stop offset="100%" stop-color="#FFEA81"></stop>
        </linearGradient>
        <path id="path-33" d="M31.4760648,0.676750838 C37.2566767,0.676750838 41.9427886,5.36286272 41.9427886,11.1434747 L41.9427886,28.4465615 C41.9427886,28.6620785 41.9361954,28.8760555 41.9231995,29.0883019 C41.9265349,32.217313 41.9314526,35.7459692 41.9378013,39.6729964 C41.9404768,41.3279524 43.2828349,42.6681421 44.9377931,42.6681464 L44.9377931,42.6681464 L70.8565754,42.6681464 C75.3959766,42.6681464 79.07589,47.2110683 79.0758139,51.7465056 C79.0758139,56.2820417 75.3959005,59.9588221 70.8564997,59.9588219 L70.8564997,59.9588219 L64.8760728,59.9591172 C66.5108227,59.9641479 70.6134849,60.0361274 72.9113367,60.3776492 C77.8162098,61.1044452 81.1306513,63.566582 81.1306513,68.6849069 C81.1306513,73.2204431 77.4507379,76.8972235 72.911337,76.8972233 L72.911337,76.8972233 L66.7468595,76.8972233 C71.2862607,76.8972233 74.9661737,81.0605198 74.9661741,85.5960559 C74.9661741,90.1315921 71.2862607,93.808372 66.746859,93.8083723 L66.746859,93.8083723 L60.5823816,93.8083723 C65.1217827,93.8083723 68.8016958,97.9288983 68.8016961,102.464434 C68.8016961,106.999971 65.1217827,110.676751 60.5823811,110.676751 L60.5823811,110.676751 L1.16082169,108.267542 L0.992353419,44.9782424 L5.10537127,44.9787092 C5.14117812,44.9835923 5.46105788,45.0252363 5.98879116,45.0299114 L6.19628541,45.0297877 C8.69109134,45.005124 14.8742976,44.121527 18.6329253,36.4657002 C20.0594812,33.5599948 20.754661,29.6741693 21.0087105,24.4873792 L21.0093409,11.1434747 C21.0093409,5.36286272 25.6954528,0.676750838 31.4760648,0.676750838 Z"></path>
        <filter id="filter-35" filterUnits="objectBoundingBox" height="105.5%" width="107.5%" y="-2.7%" x="-3.7%">
            <feOffset result="shadowOffsetInner1" in="SourceAlpha" dy="4" dx="6"></feOffset>
            <feComposite result="shadowInnerInner1" k3="1" k2="-1" operator="arithmetic" in2="SourceAlpha" in="shadowOffsetInner1"></feComposite>
            <feColorMatrix in="shadowInnerInner1" type="matrix" values="0 0 0 0 1   0 0 0 0 1   0 0 0 0 1  0 0 0 0.5 0"></feColorMatrix>
        </filter>
        <linearGradient id="linearGradient-36" y2="85.839638%" x2="29.0213213%" y1="66.608451%" x1="45.6402037%">
            <stop offset="0%" stop-color="#FFECA6"></stop>
            <stop offset="100%" stop-color="#FF9020"></stop>
        </linearGradient>
        <path id="path-37" d="M14.4980106,4.74595831 C16.3941613,7.35224061 17.3492504,8.64787673 17.3632779,8.63286668 C16.8423393,38.2817685 21.9602616,54.6582979 31.1627345,58.948563 C40.7495821,63.4180265 56.6973146,67.3799159 79.0059319,70.8342312 L4.23467677,87.8185896 L0.971651248,17.5665146 L8.46063849,0.676750838 L14.4980106,4.74595831 Z"></path>
        <linearGradient id="linearGradient-39" y2="50%" x2="50%" y1="47.8795745%" x1="50.6970398%">
            <stop offset="0%" stop-opacity="0" stop-color="#FFCB85"></stop>
            <stop offset="100%" stop-color="#CC60FF"></stop>
        </linearGradient>
        <linearGradient id="linearGradient-40" y2="100%" x2="50%" y1="0%" x1="50%">
            <stop offset="0%" stop-color="#FFCF52"></stop>
            <stop offset="100%" stop-color="#FA872D"></stop>
        </linearGradient>
    </defs>
    <g fill-rule="evenodd" fill="none" stroke-width="1" stroke="none" id="页面-1">
        <g transform="translate(-925.000000, -3365.000000)" id="勋章">
            <g transform="translate(925.000000, 3365.958043)" id="24.远近闻名">
                <g id="矩形">
                    <mask fill="white" id="mask-3">
                        <use xlink:href="#path-2"></use>
                    </mask>
                    <use xlink:href="#path-2" fill="url(#linearGradient-1)" id="蒙版"></use>
                    <polygon points="-21.275089 61.4694852 100.866578 -33.9580435 140.884574 17.2626555 18.7429069 112.690184" mask="url(#mask-3)" filter="url(#filter-4)" opacity="0.5" fill="#FFFFFF"></polygon>
                </g>
                <g transform="translate(12.000000, 14.000000)" id="矩形-+-矩形-+-矩形-+-矩形蒙版">
                    <mask fill="white" id="mask-7">
                        <use xlink:href="#path-6"></use>
                    </mask>
                    <path d="M77.2936851,4.40136165 C78.9730493,3.4521558 81.0269507,3.4521558 82.7063149,4.40136165 L82.7063149,4.40136165 L154.706315,45.0970138 C155.569455,45.5848754 156.267876,46.2861627 156.750512,47.113353 C157.233149,47.9405432 157.5,48.8936363 157.5,49.8851094 L157.5,49.8851094 L157.5,130.984456 C157.5,131.975929 157.233149,132.929022 156.750512,133.756212 C156.267876,134.583403 155.569455,135.28469 154.706315,135.772551 L154.706315,135.772551 L82.7063149,176.468204 C81.0269507,177.417409 78.9730493,177.417409 77.2936851,176.468204 L77.2936851,176.468204 L5.29368509,135.772551 C4.43054545,135.28469 3.73212418,134.583403 3.24948782,133.756212 C2.76685145,132.929022 2.5,131.975929 2.5,130.984456 L2.5,130.984456 L2.5,49.8851094 C2.5,48.8936363 2.76685145,47.9405432 3.24948782,47.113353 C3.73212418,46.2861627 4.43054545,45.5848754 5.29368509,45.0970138 L5.29368509,45.0970138 Z" stroke-width="5" stroke="url(#linearGradient-5)"></path>
                    <mask fill="white" id="mask-10">
                        <use xlink:href="#path-9"></use>
                    </mask>
                    <use xlink:href="#path-9" fill="url(#linearGradient-8)" id="蒙版"></use>
                    <polygon points="21.309602 20.8910427 80.605 84.7780427 141.009015 21.9356436 161.941505 48.7280092 98.511 85.1440427 167 75 167 109 102.944 99.5060427 161.195875 134.168713 139.798982 160.591676 80.504 96.4670427 20.0995692 159.547075 -0.832920982 132.754709 57.804 99.2340427 -9 109 -9 75 64.146 85.6980427 -0.0872912561 47.3140054" mask="url(#mask-10)" opacity="0.400000006" fill="url(#linearGradient-11)" id="路径"></polygon>
                    <circle r="48" cy="85" cx="80" mask="url(#mask-10)" filter="url(#filter-12)" opacity="0.800000012" fill="#4D26D7" id="椭圆形"></circle>
                    <g fill-rule="nonzero" mask="url(#mask-10)" id="皇冠">
                        <g id="形状" transform="translate(77.348837, 78.541957) scale(-1, 1) translate(-77.348837, -78.541957) translate(-0.651163, 12.041957)">
                            <path fill="#4819B3" d="M49.1223259,65.1268513 L53.8304124,57.0415918 L21.3488372,53.9580435 L46.9277553,65.7971808 C47.7273924,66.1668461 48.6856457,65.8741396 49.1223259,65.1268513 Z M109.541194,65.1268464 C109.978059,65.8760214 110.938776,66.1690071 111.739251,65.7971808 L137.348837,54.114271 L104.833042,57.0415918 L109.541194,65.1268464 Z"></path>
                            <g fill="none">
                                <use xlink:href="#path-14" fill="url(#linearGradient-13)"></use>
                                <use xlink:href="#path-14" filter="url(#filter-15)" fill-opacity="1" fill="black"></use>
                            </g>
                            <g fill="none">
                                <use xlink:href="#path-17" fill="url(#linearGradient-16)"></use>
                                <use xlink:href="#path-17" filter="url(#filter-18)" fill-opacity="1" fill="black"></use>
                            </g>
                        </g>
                    </g>
                    <g transform="translate(44.368991, 54.432164) rotate(22.000000) translate(-44.368991, -54.432164)" mask="url(#mask-10)" opacity="0.600000024" id="星形">
                        <use xlink:href="#path-20" fill-rule="evenodd" fill="url(#linearGradient-19)"></use>
                        <use xlink:href="#path-20" filter="url(#filter-21)" fill-opacity="1" fill="black"></use>
                    </g>
                    <g transform="translate(114.854369, 45.932164) rotate(22.000000) translate(-114.854369, -45.932164)" mask="url(#mask-10)" opacity="0.900000036" id="星形">
                        <use xlink:href="#path-23" fill-rule="evenodd" fill="url(#linearGradient-22)"></use>
                        <use xlink:href="#path-23" filter="url(#filter-24)" fill-opacity="1" fill="black"></use>
                    </g>
                </g>
                <ellipse ry="10.5" rx="10.3754941" cy="75.62" cx="19.9436759" fill="#FF993E" id="椭圆形"></ellipse>
                <ellipse ry="10.5" rx="10.3754941" cy="75.62" cx="23.0563241" fill="url(#linearGradient-25)" id="椭圆形"></ellipse>
                <g transform="translate(93.847273, 125.917363) rotate(-4.000000) translate(-93.847273, -125.917363) translate(37.249769, 70.417363)" filter="url(#filter-26)" id="赞">
                    <g transform="translate(0.000000, 39.779246)" id="路径">
                        <mask fill="white" id="mask-29">
                            <use xlink:href="#path-28"></use>
                        </mask>
                        <use xlink:href="#path-28" fill-rule="nonzero" fill="url(#linearGradient-27)" id="形状结合"></use>
                        <path mask="url(#mask-29)" fill-rule="nonzero" fill="url(#linearGradient-30)" id="形状结合" d="M27.166159,2.27373675e-13 C29.9275827,2.27373675e-13 32.166159,2.23857625 32.166159,5 L32.166159,68.297 L0,47.03 L4.00907311,4.53036208 C4.25135806,1.96227924 6.4074816,2.27373675e-13 8.98696827,2.27373675e-13 L27.166159,2.27373675e-13 Z M27.166159,2 L8.98696827,2 C7.49880288,2 6.2454913,3.08854248 6.02205199,4.54206393 L6.00023354,4.71819209 L2.104,46.023 L30.166159,64.576 L30.166159,5 C30.166159,3.40231912 28.917239,2.09633912 27.3424318,2.00509269 L27.166159,2 Z"></path>
                        <rect height="14.1116279" width="35.7802198" y="64.3843023" x="4.43648867" mask="url(#mask-29)" opacity="0.800000012" fill="#F8352D" id="矩形"></rect>
                        <polygon points="2.64747768 -6.17383721 11.5925326 -6.17383721 5.33099416 66.1482558 -4.50856628 66.1482558" mask="url(#mask-29)" opacity="0.600000024" fill="url(#linearGradient-31)" id="矩形"></polygon>
                    </g>
                    <g transform="translate(31.195007, 0.000000)" id="椭圆形">
                        <mask fill="white" id="mask-34">
                            <use xlink:href="#path-33"></use>
                        </mask>
                        <g fill-rule="nonzero" id="形状结合">
                            <use xlink:href="#path-33" fill="url(#linearGradient-32)"></use>
                            <use xlink:href="#path-33" filter="url(#filter-35)" fill-opacity="1" fill="black"></use>
                        </g>
                        <g mask="url(#mask-34)" id="矩形">
                            <g transform="translate(-11.084211, 39.842520)">
                                <mask fill="white" id="mask-38">
                                    <use xlink:href="#path-37"></use>
                                </mask>
                                <use xlink:href="#path-37" fill-rule="evenodd" fill="url(#linearGradient-36)" stroke="none" id="蒙版"></use>
                                <polygon points="-4.53470298 61.2951628 78.1705602 69.5263329 78.1705602 82.0061062 -4.53470298 82.0061062" mask="url(#mask-38)" fill-rule="evenodd" fill="url(#linearGradient-39)" stroke="none" id="矩形"></polygon>
                            </g>
                        </g>
                    </g>
                    <path fill-rule="nonzero" fill="url(#linearGradient-40)" id="形状" d="M80.5308263,59.0904818 C79.4030496,59.0904818 78.4888035,60.059719 78.4888035,61.2553328 C78.4888035,62.4509454 79.4030485,63.4201838 80.5308262,63.4201838 L109.260053,63.4201838 C108.10035,62.4198671 106.222538,61.5982708 104.54697,61.2553352 C101.622706,60.6568314 96.3034713,61.255334 94.825041,61.2553352 L100.878385,61.0587876 C102.851025,61.0525875 104.826337,60.4792791 106.301216,59.0904818 L80.5308263,59.0904818 Z M80.5079201,76.4092897 C79.3927943,76.4092897 78.4888035,77.3785268 78.4888035,78.5741405 C78.4888035,79.769753 79.3927932,80.7389912 80.5079202,80.7389912 L104.077119,81.180884 C103.42692,80.202331 101.260468,77.4576512 98.8942952,78.5741405 L102.71826,78.574141 C104.668772,78.5679409 106.550018,77.6778663 108.008353,76.2890715 L80.5079201,76.4092897 Z M76.303567,92.7607804 C75.1749668,92.7607804 74.2600527,93.7300174 74.2600527,94.9256311 C74.2600527,96.1212436 75.1749656,97.0904818 76.3035671,97.0904818 L97.4398101,97.0904818 C95.6567385,95.2828905 94.5801893,94.479185 92.3631277,94.9256316 L96.7387342,94.9256316 C98.7128153,94.9194315 100.664618,94.1495751 102.140575,92.7607804 L76.303567,92.7607804 Z"></path>
                </g>
            </g>
        </g>
    </g>
</svg>