<svg xmlns:xlink="http://www.w3.org/1999/xlink" xmlns="http://www.w3.org/2000/svg" version="1.1" viewBox="0 0 184 209" height="209px" width="184px">
    <title>26.锋芒毕露</title>
    <defs>
        <linearGradient id="linearGradient-1" y2="17.2876616%" x2="23.6365672%" y1="87.3144849%" x1="74.4510804%">
            <stop offset="0%" stop-color="#506CFB"></stop>
            <stop offset="100%" stop-color="#89D1FF"></stop>
        </linearGradient>
        <path id="path-2" d="M96.9205726,2.78119319 L178.920573,49.1290193 C182.059262,50.9030612 184,54.2292909 184,57.8346477 L184,150.165352 C184,153.770709 182.059262,157.096939 178.920573,158.870981 L96.9205726,205.218807 C93.8671831,206.944636 90.1328169,206.944636 87.0794274,205.218807 L5.07942743,158.870981 C1.94073784,157.096939 0,153.770709 0,150.165352 L0,57.8346477 C0,54.2292909 1.94073784,50.9030612 5.07942743,49.1290193 L87.0794274,2.78119319 C90.1328169,1.05536437 93.8671831,1.05536437 96.9205726,2.78119319 Z"></path>
        <filter id="filter-4" filterUnits="objectBoundingBox" height="190.0%" width="181.4%" y="-45.0%" x="-40.7%">
            <feGaussianBlur in="SourceGraphic" stdDeviation="22"></feGaussianBlur>
        </filter>
        <linearGradient id="linearGradient-5" y2="15.8518925%" x2="23.5685826%" y1="88.1652425%" x1="73.592004%">
            <stop offset="0%" stop-color="#B8C9FF"></stop>
            <stop offset="39.8918969%" stop-color="#5EBBFC"></stop>
            <stop offset="100%" stop-color="#526EFC"></stop>
        </linearGradient>
        <path id="path-6" d="M83.9364581,1.03549729 L155.936458,41.7311495 C158.44741,43.150383 160,45.8113668 160,48.6956522 L160,129.794999 C160,132.679284 158.44741,135.340268 155.936458,136.759501 L83.9364581,177.455153 C81.4937465,178.835816 78.5062535,178.835816 76.0635419,177.455153 L4.06354195,136.759501 C1.55259028,135.340268 0,132.679284 0,129.794999 L0,48.6956522 C0,45.8113668 1.55259028,43.150383 4.06354195,41.7311495 L76.0635419,1.03549729 C78.5062535,-0.345165763 81.4937465,-0.345165763 83.9364581,1.03549729 Z"></path>
        <linearGradient id="linearGradient-8" y2="3.74285867%" x2="50%" y1="105.210415%" x1="54.0006096%">
            <stop offset="0%" stop-color="#6C78FF"></stop>
            <stop offset="54.178599%" stop-color="#3162FB"></stop>
            <stop offset="100%" stop-color="#1332EA"></stop>
        </linearGradient>
        <path id="path-9" d="M81.968229,4.92302001 L152.968229,45.0534548 C154.223705,45.7630716 155,47.0935635 155,48.5357062 L155,129.017421 C155,130.459563 154.223705,131.790055 152.968229,132.499672 L81.968229,172.630107 C80.7468732,173.320438 79.2531268,173.320438 78.031771,172.630107 L7.03177097,132.499672 C5.77629514,131.790055 5,130.459563 5,129.017421 L5,48.5357062 C5,47.0935635 5.77629514,45.7630716 7.03177097,45.0534548 L78.031771,4.92302001 C79.2531268,4.23268849 80.7468732,4.23268849 81.968229,4.92302001 Z"></path>
        <filter id="filter-11" filterUnits="objectBoundingBox" height="152.5%" width="152.5%" y="-26.2%" x="-26.2%">
            <feGaussianBlur in="SourceGraphic" stdDeviation="14"></feGaussianBlur>
        </filter>
        <linearGradient id="linearGradient-12" y2="54.5179127%" x2="17.0539309%" y1="58.9439636%" x1="92.8010748%">
            <stop offset="0%" stop-color="#5F86FC"></stop>
            <stop offset="100%" stop-color="#3B25ED"></stop>
        </linearGradient>
        <path id="path-13" d="M12.7609136,40.084425 L148.266052,47.4183466 L148.266052,47.4183466 L177.095871,113.4695 C177.537734,114.481839 177.075272,115.660703 176.062932,116.102566 C175.783045,116.224731 175.4789,116.281178 175.173816,116.26758 L47.6402716,110.58336 C45.4531376,110.485879 43.4927187,109.204871 42.5251703,107.240969 L10.85874,42.9653884 C10.370583,41.974542 10.7780934,40.7755729 11.7689398,40.287416 C12.0767127,40.1357866 12.4183179,40.0658827 12.7609136,40.084425 Z"></path>
        <filter id="filter-14" filterUnits="objectBoundingBox" height="104.8%" width="100.9%" y="-2.4%" x="-0.4%">
            <feGaussianBlur result="shadowBlurInner1" in="SourceAlpha" stdDeviation="1.5"></feGaussianBlur>
            <feOffset result="shadowOffsetInner1" in="shadowBlurInner1" dy="1" dx="0"></feOffset>
            <feComposite result="shadowInnerInner1" k3="1" k2="-1" operator="arithmetic" in2="SourceAlpha" in="shadowOffsetInner1"></feComposite>
            <feColorMatrix in="shadowInnerInner1" type="matrix" values="0 0 0 0 1   0 0 0 0 1   0 0 0 0 1  0 0 0 0.5 0"></feColorMatrix>
        </filter>
        <linearGradient id="linearGradient-15" y2="51.1726255%" x2="13.1870176%" y1="56.8782975%" x1="94.0017123%">
            <stop offset="0%" stop-color="#7FB1FE"></stop>
            <stop offset="100%" stop-color="#587AFB"></stop>
        </linearGradient>
        <linearGradient id="linearGradient-16" y2="68.5945659%" x2="100%" y1="21.6299783%" x1="-5.17794741%">
            <stop offset="0%" stop-color="#6C5AFF"></stop>
            <stop offset="100%" stop-color="#8DBBFF"></stop>
        </linearGradient>
        <linearGradient id="linearGradient-17" y2="77.6991266%" x2="9.34657232%" y1="29.0741045%" x1="86.7211%">
            <stop offset="0%" stop-color="#6F8CFF"></stop>
            <stop offset="100%" stop-color="#A1C4FF"></stop>
        </linearGradient>
        <linearGradient id="linearGradient-18" y2="73.43973%" x2="14.1443725%" y1="33.1965139%" x1="100%">
            <stop offset="0%" stop-color="#B3CFFF"></stop>
            <stop offset="100%" stop-color="#618BFC"></stop>
        </linearGradient>
        <linearGradient id="linearGradient-19" y2="53.9375229%" x2="34.0918692%" y1="43.6502206%" x1="61.7066644%">
            <stop offset="0%" stop-color="#C6D5FF"></stop>
            <stop offset="44.8178475%" stop-color="#E0ECFF"></stop>
            <stop offset="100%" stop-color="#F3F8FF"></stop>
        </linearGradient>
        <linearGradient id="linearGradient-20" y2="56.9675062%" x2="20.8483091%" y1="27.9025923%" x1="59.9675803%">
            <stop offset="0%" stop-color="#D8E3FF"></stop>
            <stop offset="53.1163655%" stop-color="#E1EDFF"></stop>
            <stop offset="100%" stop-color="#F7F9FF"></stop>
        </linearGradient>
        <linearGradient id="linearGradient-21" y2="53.5806243%" x2="2.5420575%" y1="37.3582387%" x1="95.949371%">
            <stop offset="0%" stop-color="#DA59F8"></stop>
            <stop offset="56.7800683%" stop-color="#4B54F6"></stop>
            <stop offset="82.1988868%" stop-color="#4164FF"></stop>
            <stop offset="100%" stop-color="#5BACFC"></stop>
        </linearGradient>
        <linearGradient id="linearGradient-22" y2="79.3462325%" x2="38.1122705%" y1="52.1588046%" x1="109.038507%">
            <stop offset="0%" stop-color="#FFB273"></stop>
            <stop offset="30.4809652%" stop-color="#FF4FBF"></stop>
            <stop offset="68.0023702%" stop-color="#D23BEE"></stop>
            <stop offset="100%" stop-color="#8C5AFF"></stop>
        </linearGradient>
        <path id="path-23" d="M125.717779,46.883084 L89.2132683,82.9029804 C88.5136421,83.5933187 87.4161005,83.6729846 86.6241157,83.0909159 L62.6063328,65.4390622 C61.7371263,64.8002395 60.5179187,64.965825 59.8505767,65.8133325 L46.7533577,82.4464703 C46.0700175,83.3142951 46.2195719,84.5717628 47.0873967,85.255103 C47.1144957,85.2764412 47.1421421,85.2970748 47.1703082,85.3169832 L88.5721692,114.580536 C90.1528183,115.697766 92.3066435,115.522907 93.6863752,114.165338 L143.977742,64.6817823 C144.765088,63.9070828 144.775341,62.6407943 144.000641,61.8534479 C143.989119,61.8417379 143.977453,61.8301702 143.965646,61.8187477 L128.513133,46.8692978 C127.732277,46.1138625 126.491146,46.1199836 125.717779,46.883084 Z"></path>
        <filter id="filter-24" filterUnits="objectBoundingBox" height="128.2%" width="119.3%" y="-6.6%" x="-9.6%">
            <feOffset result="shadowOffsetOuter1" in="SourceAlpha" dy="6" dx="0"></feOffset>
            <feGaussianBlur result="shadowBlurOuter1" in="shadowOffsetOuter1" stdDeviation="2.5"></feGaussianBlur>
            <feColorMatrix in="shadowBlurOuter1" type="matrix" values="0 0 0 0 0.185966192   0 0 0 0 0.0945260898   0 0 0 0 0.712326271  0 0 0 0.12 0"></feColorMatrix>
        </filter>
        <filter id="filter-25" filterUnits="objectBoundingBox" height="118.3%" width="112.3%" y="-1.7%" x="-6.1%">
            <feGaussianBlur result="shadowBlurInner1" in="SourceAlpha" stdDeviation="1.5"></feGaussianBlur>
            <feOffset result="shadowOffsetInner1" in="shadowBlurInner1" dy="1" dx="0"></feOffset>
            <feComposite result="shadowInnerInner1" k3="1" k2="-1" operator="arithmetic" in2="SourceAlpha" in="shadowOffsetInner1"></feComposite>
            <feColorMatrix in="shadowInnerInner1" type="matrix" values="0 0 0 0 0.978206281   0 0 0 0 0.738475372   0 0 0 0 1  0 0 0 1 0"></feColorMatrix>
        </filter>
    </defs>
    <g fill-rule="evenodd" fill="none" stroke-width="1" stroke="none" id="页面-1">
        <g transform="translate(-569.000000, -4160.000000)" id="勋章">
            <g transform="translate(569.000000, 4160.958043)" id="26.锋芒毕露">
                <g id="矩形">
                    <mask fill="white" id="mask-3">
                        <use xlink:href="#path-2"></use>
                    </mask>
                    <use xlink:href="#path-2" fill="url(#linearGradient-1)" id="蒙版"></use>
                    <polygon points="-21.275089 61.4694852 100.866578 -33.9580435 140.884574 17.2626555 18.7429069 112.690184" mask="url(#mask-3)" filter="url(#filter-4)" opacity="0.5" fill="#FFFFFF"></polygon>
                </g>
                <g transform="translate(12.000000, 15.189457)" id="矩形-+-矩形-+-矩形-+-矩形蒙版">
                    <mask fill="white" id="mask-7">
                        <use xlink:href="#path-6"></use>
                    </mask>
                    <path d="M77.2936851,3.21190439 C78.9730493,2.26269854 81.0269507,2.26269854 82.7063149,3.21190439 L82.7063149,3.21190439 L154.706315,43.9075566 C155.569455,44.3954181 156.267876,45.0967054 156.750512,45.9238957 C157.233149,46.7510859 157.5,47.7041791 157.5,48.6956522 L157.5,48.6956522 L157.5,129.794999 C157.5,130.786472 157.233149,131.739565 156.750512,132.566755 C156.267876,133.393945 155.569455,134.095233 154.706315,134.583094 L154.706315,134.583094 L82.7063149,175.278746 C81.0269507,176.227952 78.9730493,176.227952 77.2936851,175.278746 L77.2936851,175.278746 L5.29368509,134.583094 C4.43054545,134.095233 3.73212418,133.393945 3.24948782,132.566755 C2.76685145,131.739565 2.5,130.786472 2.5,129.794999 L2.5,129.794999 L2.5,48.6956522 C2.5,47.7041791 2.76685145,46.7510859 3.24948782,45.9238957 C3.73212418,45.0967054 4.43054545,44.3954181 5.29368509,43.9075566 L5.29368509,43.9075566 Z" stroke-width="5" stroke="url(#linearGradient-5)"></path>
                    <mask fill="white" id="mask-10">
                        <use xlink:href="#path-9"></use>
                    </mask>
                    <use xlink:href="#path-9" fill="url(#linearGradient-8)" id="蒙版"></use>
                    <path mask="url(#mask-10)" opacity="0.149999991" fill="#FFFFFF" id="形状结合" d="M98,2.81054274 L87.342,75.6795427 L131.204581,16.5643307 L155.246212,40.6059613 L95.888,84.6405427 L169,73.8105427 L169,107.810543 L95.891,96.9745427 L155.246212,141.015124 L131.204581,165.056755 L87.17,105.699543 L98,178.810543 L64,178.810543 L74.792,105.993543 L30.7954185,165.056755 L6.75378798,141.015124 L65.581,97.1995427 L-7,107.810543 L-7,73.8105427 L65.578,84.4255427 L6.75378798,40.6059613 L30.7954185,16.5643307 L74.609,75.3905427 L64,2.81054274 L98,2.81054274 Z"></path>
                    <circle r="80" cy="118.810543" cx="79.5" mask="url(#mask-10)" filter="url(#filter-11)" opacity="0.699999988" fill="#4615D9" id="椭圆形"></circle>
                    <g mask="url(#mask-10)" id="编组">
                        <g transform="translate(-8.648493, 45.552564)">
                            <g transform="translate(93.863963, 78.155095) rotate(-21.000000) translate(-93.863963, -78.155095)" fill="none" id="矩形">
                                <use xlink:href="#path-13" fill-rule="evenodd" fill="url(#linearGradient-12)"></use>
                                <use xlink:href="#path-13" filter="url(#filter-14)" fill-opacity="1" fill="black"></use>
                            </g>
                            <path transform="translate(95.022839, 70.528456) rotate(-21.000000) translate(-95.022839, -70.528456)" fill-rule="evenodd" fill="url(#linearGradient-15)" id="矩形" d="M13.9197897,32.4577862 L149.424928,39.7917078 L149.424928,39.7917078 L178.254747,105.842861 C178.69661,106.855201 178.234148,108.034065 177.221808,108.475928 C176.941922,108.598092 176.637776,108.654539 176.332692,108.640942 L48.7991477,102.956721 C46.6120137,102.85924 44.6515948,101.578232 43.6840464,99.6143307 L12.0176161,35.3387496 C11.5294591,34.3479032 11.9369695,33.1489341 12.9278159,32.6607772 C13.2355888,32.5091478 13.577194,32.439244 13.9197897,32.4577862 Z"></path>
                            <path transform="translate(94.491410, 69.977635) rotate(-21.000000) translate(-94.491410, -69.977635)" opacity="0.200000003" fill-rule="evenodd" fill="#522EED" id="矩形" d="M13.9860625,34.6895878 L151.459191,45.8294751 L174.996757,105.265682 L114.771463,103.698608 C113.839231,102.038313 112.735887,101.185556 111.461433,101.140337 C110.186978,101.095118 109.091262,101.581934 108.174284,102.600785 L46.8608025,101.16132 L13.9860625,34.6895878 Z"></path>
                            <path transform="translate(35.970580, 84.138133) rotate(12.000000) translate(-35.970580, -84.138133)" fill-rule="evenodd" fill="url(#linearGradient-16)" id="矩形" d="M5.05132168,59.0701577 L66.9081927,94.1784662 L67.2767806,109.206108 L4.66437892,72.06449 C5.29723392,70.7108358 5.74295097,68.8292556 6.00153009,66.4197494 C6.26010921,64.0102432 5.94337308,61.5603793 5.05132168,59.0701577 Z"></path>
                            <path transform="translate(150.768048, 77.652369) rotate(12.000000) translate(-150.768048, -77.652369)" fill-rule="evenodd" fill="url(#linearGradient-17)" id="形状结合" d="M179.548389,54.2894447 C178.904438,56.0781946 178.509924,58.2499939 178.364846,60.8048424 C178.219769,63.359691 178.662889,65.4783807 179.694209,67.1609116 L129.733806,98.147916 L127.956078,97.3153248 C127.023514,97.0555917 126.068959,97.07036 125.092415,97.3596298 C123.739393,97.7604191 122.758137,98.9789738 122.148648,101.015294 L121.841887,96.1605383 C122.726905,95.8774331 123.508447,95.6739859 124.186512,95.5501966 L124.137025,95.5286544 C138.061708,82.165559 148.886844,72.7423632 156.612432,67.2590669 C164.33802,61.7757706 171.983339,57.4525632 179.548389,54.2894447 Z"></path>
                            <path transform="translate(91.054045, 102.453528) rotate(12.000000) translate(-91.054045, -102.453528)" fill-rule="evenodd" fill="url(#linearGradient-18)" id="矩形" d="M63.8805413,107.121247 C67.2240638,102.411762 73.6727941,97.8792109 83.2267321,93.5235946 C92.7806702,89.1679784 104.447609,85.9428525 118.227549,83.848217 C117.236295,85.0632687 116.579771,86.0273537 116.257977,86.7404723 C115.936183,87.4535908 115.808268,88.4110466 115.87423,89.6128398 L64.6725016,121.05884 L63.8805413,107.121247 Z"></path>
                            <path transform="translate(66.440711, 71.222126) rotate(12.000000) translate(-66.440711, -71.222126)" fill-rule="evenodd" fill="#E4EEFF" id="矩形" d="M61.7985041,41.9598581 L124.479551,78.5612174 C109.060024,80.9480981 97.6746724,83.8341733 90.3234957,87.2194432 C82.972319,90.6047131 76.0914532,95.3539652 69.6808982,101.467199 L8.40187068,65.1230062 C16.4995538,57.5738612 25.8243816,51.2828409 36.3763542,46.2499455 C46.9283267,41.21705 55.4023767,39.7870209 61.7985041,41.9598581 Z"></path>
                            <path transform="translate(69.679124, 69.449235) rotate(12.000000) translate(-69.679124, -69.449235)" opacity="0.219999999" fill-rule="evenodd" fill="#3B58E5" id="矩形" d="M62.2376474,42.5944195 L124.918923,79.1957795 C118.954531,80.2521684 114.612669,81.0524023 111.893335,81.5964811 C104.673724,83.0409663 97.0744606,85.0460552 91.7421846,87.6353158 C83.3972317,91.6874799 78.1930852,94.8199419 76.129745,97.0327019 L14.4393258,60.8398144 C19.2428833,56.91678 26.9206677,52.4388151 37.4726788,47.4059198 C48.02469,42.3730245 56.2796795,40.769191 62.2376474,42.5944195 Z"></path>
                            <path transform="translate(68.218809, 63.725695) rotate(12.000000) translate(-68.218809, -63.725695)" fill-rule="evenodd" fill="url(#linearGradient-19)" id="矩形" d="M64.0738105,40.9869724 L126.077002,78.7670897 C118.51065,76.6412455 110.000653,76.5156799 100.547011,78.3903929 C91.0933685,80.2651059 82.2379789,83.3336049 73.9808418,87.5958899 L10.3606151,51.1326902 C20.9775915,45.7328728 30.1813166,42.3221543 37.9717906,40.9005348 C45.7622646,39.4789152 54.4629379,39.5077278 64.0738105,40.9869724 Z"></path>
                            <path transform="translate(127.457549, 51.257924) rotate(12.000000) translate(-127.457549, -51.257924)" fill-rule="evenodd" fill="url(#linearGradient-20)" id="矩形备份-7" d="M125.420862,11.7047826 L186.954584,48.7081116 C175.616325,53.5161753 165.180328,59.8999484 155.646594,67.8594309 C146.112859,75.8189133 137.551897,83.4694583 129.963706,90.8110656 L67.9605144,53.0309484 C79.2461856,39.6438983 88.8913075,30.6715717 96.8958801,26.1139684 C104.900453,21.5563652 114.40878,16.7533032 125.420862,11.7047826 Z"></path>
                        </g>
                    </g>
                    <path mask="url(#mask-10)" fill-rule="nonzero" fill="url(#linearGradient-21)" id="形状结合" d="M122.809014,44.8474758 L122.934737,44.8790706 L127.806098,46.4149491 L140.629738,59.557102 C141.358717,60.304188 141.385193,61.476522 140.717767,62.2544911 L140.600106,62.3803605 L90.4317536,111.680891 C89.104681,112.985007 87.0626082,113.196146 85.5025849,112.216499 L85.3247896,112.098173 L46.877382,85.0189132 L46.7067765,84.7224395 L46.6452467,84.7727012 L45.6987765,82.9654395 L44.3979699,80.6968012 C44.0168442,80.0324227 44.0506132,79.2136715 44.4728901,78.5858719 L44.569315,78.454392 L54.806735,65.6210831 L55.6627765,64.6104395 L56.367246,63.7111271 C56.5124172,63.5257364 56.6840106,63.3727383 56.8726416,63.2534638 C57.4612348,62.7981245 58.2651144,62.7045087 58.9494935,63.0292038 L59.0996002,63.1083404 L59.2289006,63.1836144 L83.2236825,80.738326 C83.9677084,81.2826594 84.9797355,81.2444482 85.6788111,80.6658307 L85.8060785,80.5510173 L121.95961,45.0397412 L122.06855,44.9694813 C122.29317,44.8427967 122.555624,44.7995524 122.809014,44.8474758 Z"></path>
                    <g mask="url(#mask-10)" fill-rule="nonzero" id="路径">
                        <use xlink:href="#path-23" filter="url(#filter-24)" fill-opacity="1" fill="black"></use>
                        <use xlink:href="#path-23" fill="url(#linearGradient-22)"></use>
                        <use xlink:href="#path-23" filter="url(#filter-25)" fill-opacity="1" fill="black"></use>
                    </g>
                </g>
            </g>
        </g>
    </g>
</svg>