<svg xmlns:xlink="http://www.w3.org/1999/xlink" xmlns="http://www.w3.org/2000/svg" version="1.1" viewBox="0 0 184 209" height="209px" width="184px">
    <title>23.颇有名气</title>
    <defs>
        <linearGradient id="linearGradient-1" y2="17.2876616%" x2="23.6365672%" y1="87.3144849%" x1="74.4510804%">
            <stop offset="0%" stop-color="#FF6952"></stop>
            <stop offset="100%" stop-color="#FF8B8B"></stop>
        </linearGradient>
        <path id="path-2" d="M96.9205726,2.78119319 L178.920573,49.1290193 C182.059262,50.9030612 184,54.2292909 184,57.8346477 L184,150.165352 C184,153.770709 182.059262,157.096939 178.920573,158.870981 L96.9205726,205.218807 C93.8671831,206.944636 90.1328169,206.944636 87.0794274,205.218807 L5.07942743,158.870981 C1.94073784,157.096939 0,153.770709 0,150.165352 L0,57.8346477 C0,54.2292909 1.94073784,50.9030612 5.07942743,49.1290193 L87.0794274,2.78119319 C90.1328169,1.05536437 93.8671831,1.05536437 96.9205726,2.78119319 Z"></path>
        <filter id="filter-4" filterUnits="objectBoundingBox" height="190.0%" width="181.4%" y="-45.0%" x="-40.7%">
            <feGaussianBlur in="SourceGraphic" stdDeviation="22"></feGaussianBlur>
        </filter>
        <linearGradient id="linearGradient-5" y2="15.8518925%" x2="24.2592966%" y1="88.1652425%" x1="72.9754903%">
            <stop offset="0%" stop-color="#FFACAC"></stop>
            <stop offset="39.8918969%" stop-color="#FF9342"></stop>
            <stop offset="100%" stop-color="#FF6853"></stop>
        </linearGradient>
        <path id="path-6" d="M83.9364581,2.22495455 L155.936458,42.9206067 C158.44741,44.3398403 160,47.0008241 160,49.8851094 L160,130.984456 C160,133.868741 158.44741,136.529725 155.936458,137.948958 L83.9364581,178.644611 C81.4937465,180.025274 78.5062535,180.025274 76.0635419,178.644611 L4.06354195,137.948958 C1.55259028,136.529725 3.53223086e-16,133.868741 0,130.984456 L0,49.8851094 C8.52856111e-15,47.0008241 1.55259028,44.3398403 4.06354195,42.9206067 L76.0635419,2.22495455 C78.5062535,0.844291498 81.4937465,0.844291498 83.9364581,2.22495455 Z"></path>
        <linearGradient id="linearGradient-8" y2="3.74285867%" x2="50%" y1="100%" x1="50%">
            <stop offset="0%" stop-color="#FDD13C"></stop>
            <stop offset="63.0879105%" stop-color="#F05F34"></stop>
            <stop offset="100%" stop-color="#EB292F"></stop>
        </linearGradient>
        <path id="path-9" d="M81.968229,6.11247728 L152.968229,46.2429121 C154.223705,46.9525288 155,48.2830207 155,49.7251634 L155,130.976514 C155,132.057773 154.41815,133.055378 153.477018,133.587724 L81.4802458,174.312339 C80.5620511,174.831712 79.438545,174.83066 78.5213242,174.30957 L7.02412854,133.690682 C5.77294572,132.979862 5,131.651762 5,130.212761 L5,49.7251634 C5,48.2830207 5.77629514,46.9525288 7.03177097,46.2429121 L78.031771,6.11247728 C79.2531268,5.42214575 80.7468732,5.42214575 81.968229,6.11247728 Z"></path>
        <filter id="filter-11" filterUnits="objectBoundingBox" height="182.2%" width="191.6%" y="-41.1%" x="-45.8%">
            <feGaussianBlur in="SourceGraphic" stdDeviation="20"></feGaussianBlur>
        </filter>
        <linearGradient id="linearGradient-12" y2="110.462095%" x2="36.6477732%" y1="3.91069759%" x1="36.6477732%">
            <stop offset="0%" stop-color="#FFB02D"></stop>
            <stop offset="70.4935522%" stop-color="#F42C65"></stop>
            <stop offset="100%" stop-color="#D62B22"></stop>
        </linearGradient>
        <linearGradient id="linearGradient-13" y2="50%" x2="102.625373%" y1="50%" x1="0%">
            <stop offset="0%" stop-color="#FFBB3F"></stop>
            <stop offset="52.2916303%" stop-color="#FB552E"></stop>
            <stop offset="100%" stop-color="#FD3469"></stop>
        </linearGradient>
        <linearGradient id="linearGradient-14" y2="58.06398%" x2="2.26578983%" y1="58.06398%" x1="104.397278%">
            <stop offset="0%" stop-color="#FE8521"></stop>
            <stop offset="12.8421454%" stop-color="#FFD462"></stop>
            <stop offset="46.9440904%" stop-color="#FECB44"></stop>
            <stop offset="100%" stop-color="#FFEB96"></stop>
        </linearGradient>
        <path id="path-15" d="M18.5555556,0.958043461 L112,0.958043461 C114.209139,0.958043461 116,2.74890446 116,4.95804346 L116,11.503498 C116,13.712637 114.209139,15.503498 112,15.503498 L18.5555556,15.503498 C16.3464166,15.503498 14.5555556,13.712637 14.5555556,11.503498 L14.5555556,4.95804346 C14.5555556,2.74890446 16.3464166,0.958043461 18.5555556,0.958043461 Z"></path>
        <filter id="filter-16" filterUnits="objectBoundingBox" height="127.5%" width="103.9%" y="-13.8%" x="-2.0%">
            <feGaussianBlur result="shadowBlurInner1" in="SourceAlpha" stdDeviation="1"></feGaussianBlur>
            <feOffset result="shadowOffsetInner1" in="shadowBlurInner1" dy="-2" dx="2"></feOffset>
            <feComposite result="shadowInnerInner1" k3="1" k2="-1" operator="arithmetic" in2="SourceAlpha" in="shadowOffsetInner1"></feComposite>
            <feColorMatrix in="shadowInnerInner1" type="matrix" values="0 0 0 0 1   0 0 0 0 0.940445713   0 0 0 0 0.310538538  0 0 0 1 0"></feColorMatrix>
        </filter>
        <linearGradient id="linearGradient-17" y2="50%" x2="23.0557962%" y1="50%" x1="100%">
            <stop offset="0%" stop-color="#FD5C2E"></stop>
            <stop offset="100%" stop-color="#FFB437"></stop>
        </linearGradient>
        <path id="path-18" d="M93.2988567,36.2391793 C94.9095025,36.2391793 96.2151889,37.5448657 96.2151889,39.1555115 C96.2151889,39.2152439 96.2133538,39.2749623 96.2096861,39.334582 L95.5203181,50.54041 C95.413309,52.2798661 93.9713829,53.6358127 92.2286384,53.6358127 C90.6179926,53.6358127 89.3123062,52.3301263 89.3123062,50.7194804 C89.3123062,50.659748 89.3141414,50.6000297 89.3178091,50.54041 L90.0071771,39.334582 C90.1141862,37.5951259 91.5561122,36.2391793 93.2988567,36.2391793 Z"></path>
        <filter id="filter-19" filterUnits="objectBoundingBox" height="117.2%" width="136.2%" y="-8.6%" x="-18.1%">
            <feGaussianBlur result="shadowBlurInner1" in="SourceAlpha" stdDeviation="1"></feGaussianBlur>
            <feOffset result="shadowOffsetInner1" in="shadowBlurInner1" dy="-1" dx="1"></feOffset>
            <feComposite result="shadowInnerInner1" k3="1" k2="-1" operator="arithmetic" in2="SourceAlpha" in="shadowOffsetInner1"></feComposite>
            <feColorMatrix in="shadowInnerInner1" type="matrix" values="0 0 0 0 1   0 0 0 0 0.82745098   0 0 0 0 0.192156863  0 0 0 1 0"></feColorMatrix>
        </filter>
        <linearGradient id="linearGradient-20" y2="61.3199072%" x2="23.2094015%" y1="61.3199072%" x1="100%">
            <stop offset="0%" stop-color="#FF952D"></stop>
            <stop offset="100%" stop-color="#FFDA6F"></stop>
        </linearGradient>
        <path id="path-21" d="M46.7597955,39.9580435 C48.7413586,39.9580435 50.3477328,41.5644177 50.3477328,43.5459808 C50.3477328,43.6384363 50.3441592,43.7308573 50.3370199,43.8230368 L49.5979345,53.3657774 C49.4289987,55.5470019 47.6097794,57.2307707 45.4220227,57.2307707 C43.4404596,57.2307707 41.8340854,55.6243965 41.8340854,53.6428334 C41.8340854,53.5503779 41.837659,53.4579569 41.8447983,53.3657774 L42.5838837,43.8230368 C42.7528195,41.6418123 44.5720388,39.9580435 46.7597955,39.9580435 Z"></path>
        <filter id="filter-22" filterUnits="objectBoundingBox" height="117.4%" width="126.7%" y="-8.7%" x="-13.3%">
            <feGaussianBlur result="shadowBlurInner1" in="SourceAlpha" stdDeviation="1"></feGaussianBlur>
            <feOffset result="shadowOffsetInner1" in="shadowBlurInner1" dy="-1" dx="1"></feOffset>
            <feComposite result="shadowInnerInner1" k3="1" k2="-1" operator="arithmetic" in2="SourceAlpha" in="shadowOffsetInner1"></feComposite>
            <feColorMatrix in="shadowInnerInner1" type="matrix" values="0 0 0 0 1   0 0 0 0 0.860757506   0 0 0 0 0.192156863  0 0 0 1 0"></feColorMatrix>
        </filter>
        <linearGradient id="linearGradient-23" y2="50%" x2="20.7176096%" y1="50%" x1="100%">
            <stop offset="0%" stop-color="#FC532F"></stop>
            <stop offset="100%" stop-color="#FFC52C"></stop>
        </linearGradient>
        <path id="path-24" d="M102.080564,48.3216798 C103.655359,48.3216798 104.931983,49.5983038 104.931983,51.1730992 C104.931983,51.2528473 104.928638,51.3325602 104.921955,51.4120278 L104.371463,57.9586046 C104.224551,59.7057155 102.763622,61.0489526 101.010345,61.0489526 C99.4355499,61.0489526 98.158926,59.7723286 98.158926,58.1975332 C98.158926,58.1177851 98.1622716,58.0380722 98.1689539,57.9586046 L98.7194462,51.4120278 C98.8663583,49.6649169 100.327287,48.3216798 102.080564,48.3216798 Z"></path>
        <filter id="filter-25" filterUnits="objectBoundingBox" height="123.6%" width="134.4%" y="-11.8%" x="-17.2%">
            <feGaussianBlur result="shadowBlurInner1" in="SourceAlpha" stdDeviation="1"></feGaussianBlur>
            <feOffset result="shadowOffsetInner1" in="shadowBlurInner1" dy="-1" dx="1"></feOffset>
            <feComposite result="shadowInnerInner1" k3="1" k2="-1" operator="arithmetic" in2="SourceAlpha" in="shadowOffsetInner1"></feComposite>
            <feColorMatrix in="shadowInnerInner1" type="matrix" values="0 0 0 0 1   0 0 0 0 0.811764706   0 0 0 0 0.294117647  0 0 0 1 0"></feColorMatrix>
        </filter>
        <linearGradient id="linearGradient-26" y2="95.6455407%" x2="50%" y1="-12.4123199%" x1="50%">
            <stop offset="0%" stop-opacity="0" stop-color="#FEC319"></stop>
            <stop offset="100%" stop-color="#E83420"></stop>
        </linearGradient>
        <filter id="filter-27" filterUnits="objectBoundingBox" height="121.2%" width="121.2%" y="-10.6%" x="-10.6%">
            <feOffset result="shadowOffsetOuter1" in="SourceAlpha" dy="6" dx="0"></feOffset>
            <feColorMatrix result="shadowMatrixOuter1" in="shadowOffsetOuter1" type="matrix" values="0 0 0 0 0.841143622   0 0 0 0 0.168677762   0 0 0 0 0.132328256  0 0 0 1 0"></feColorMatrix>
            <feMerge>
                <feMergeNode in="shadowMatrixOuter1"></feMergeNode>
                <feMergeNode in="SourceGraphic"></feMergeNode>
            </feMerge>
        </filter>
        <linearGradient id="linearGradient-28" y2="112.739324%" x2="54.9633993%" y1="-25.2815466%" x1="65.1362551%">
            <stop offset="0%" stop-color="#FFEEA0"></stop>
            <stop offset="48.7506755%" stop-color="#FFD22B"></stop>
            <stop offset="100%" stop-color="#FF5235"></stop>
            <stop offset="100%" stop-color="#FF5235"></stop>
        </linearGradient>
        <path id="path-29" d="M11.3270356,0 L28,0 C30.7614237,-1.39544373e-15 33,2.23857625 33,5 L33,68 C33,70.7614237 30.7614237,73 28,73 L5.48509669,73 C2.72367294,73 0.485096686,70.7614237 0.485096686,68 C0.485096686,67.8458646 0.492224,67.6918116 0.506455795,67.5383347 L6.34839468,4.53833467 C6.58684998,1.96681102 8.7444797,4.74407816e-16 11.3270356,0 Z"></path>
        <linearGradient id="linearGradient-31" y2="111.119683%" x2="50%" y1="0%" x1="50%">
            <stop offset="0%" stop-color="#FFEF7A"></stop>
            <stop offset="100%" stop-color="#F72714"></stop>
        </linearGradient>
        <linearGradient id="linearGradient-32" y2="93.3867576%" x2="50%" y1="10.0377026%" x1="52.3940717%">
            <stop offset="0%" stop-color="#FFD63B"></stop>
            <stop offset="100%" stop-color="#F8352D"></stop>
        </linearGradient>
        <linearGradient id="linearGradient-33" y2="77.8558025%" x2="67.0527127%" y1="13.6307987%" x1="30.9520706%">
            <stop offset="0%" stop-color="#FFF6D3"></stop>
            <stop offset="44.8894713%" stop-color="#FFF8BB"></stop>
            <stop offset="78.4404499%" stop-color="#FFECA6"></stop>
            <stop offset="100%" stop-color="#FFEA81"></stop>
        </linearGradient>
        <path id="path-34" d="M30.8949783,0.958043461 C36.6755902,0.958043461 41.3617021,5.64415534 41.3617021,11.4247673 L41.3617021,28.0349408 C41.3617021,28.2504577 41.3551089,28.4644347 41.342113,28.6766811 C41.3452447,31.778391 41.3501987,35.2833971 41.3566253,39.1908931 C41.3593471,40.845817 42.7016922,42.1859562 44.3566184,42.1859591 L44.3566184,42.1859591 L70.2754889,42.1859591 C74.8148901,42.1859591 78.4948035,46.6462824 78.4947274,51.0992572 C78.4947274,55.5523291 74.814814,59.1622589 70.2754132,59.1622587 L70.2754132,59.1622587 L64.2949863,59.1625486 C65.9297362,59.1674878 70.0323984,59.2381586 72.3302502,59.5734709 C77.2351233,60.2870524 80.5495648,62.7044232 80.5495648,67.7296876 C80.5495648,72.1827595 76.8696514,75.7926893 72.3302505,75.7926891 L72.3302505,75.7926891 L66.165773,75.7926891 C70.7051742,75.7926891 74.3850872,79.8802893 74.3850876,84.3333612 C74.3850876,88.7864331 70.7051742,92.3963624 66.1657726,92.3963627 L66.1657726,92.3963627 L60.0012951,92.3963627 C64.5406962,92.3963627 68.2206093,96.4419701 68.2206096,100.895042 C68.2206096,105.348114 64.5406962,108.958043 60.0012946,108.958043 L60.0012946,108.958043 L0.411266925,108.958043 L0.411266925,44.4540534 L4.52428478,44.4545117 C4.71898451,44.4805808 13.3126996,45.5737745 18.0518388,36.0962847 C19.4784565,33.2432868 20.1736347,29.4279057 20.427657,24.3350898 L20.4282544,11.4247673 C20.4282544,5.64415534 25.1143663,0.958043461 30.8949783,0.958043461 Z"></path>
        <filter id="filter-36" filterUnits="objectBoundingBox" height="105.6%" width="107.5%" y="-2.8%" x="-3.7%">
            <feOffset result="shadowOffsetInner1" in="SourceAlpha" dy="4" dx="6"></feOffset>
            <feComposite result="shadowInnerInner1" k3="1" k2="-1" operator="arithmetic" in2="SourceAlpha" in="shadowOffsetInner1"></feComposite>
            <feColorMatrix in="shadowInnerInner1" type="matrix" values="0 0 0 0 1   0 0 0 0 1   0 0 0 0 1  0 0 0 0.5 0"></feColorMatrix>
        </filter>
        <linearGradient id="linearGradient-37" y2="85.839638%" x2="28.2371389%" y1="66.608451%" x1="45.4772346%">
            <stop offset="0%" stop-color="#FFECA6"></stop>
            <stop offset="100%" stop-color="#FF9020"></stop>
        </linearGradient>
        <linearGradient id="linearGradient-38" y2="100%" x2="50%" y1="0%" x1="50%">
            <stop offset="0%" stop-color="#FFCF52"></stop>
            <stop offset="100%" stop-color="#FA872D"></stop>
        </linearGradient>
    </defs>
    <g fill-rule="evenodd" fill="none" stroke-width="1" stroke="none" id="页面-1">
        <g transform="translate(-563.000000, -3365.000000)" id="勋章">
            <g transform="translate(563.000000, 3365.958043)" id="23.颇有名气">
                <g id="矩形">
                    <mask fill="white" id="mask-3">
                        <use xlink:href="#path-2"></use>
                    </mask>
                    <use xlink:href="#path-2" fill="url(#linearGradient-1)" id="蒙版"></use>
                    <polygon points="-21.275089 61.4694852 100.866578 -33.9580435 140.884574 17.2626555 18.7429069 112.690184" mask="url(#mask-3)" filter="url(#filter-4)" opacity="0.5" fill="#FFFFFF"></polygon>
                </g>
                <g transform="translate(12.000000, 14.000000)" id="矩形-+-矩形-+-矩形-+-矩形蒙版">
                    <mask fill="white" id="mask-7">
                        <use xlink:href="#path-6"></use>
                    </mask>
                    <path d="M77.2936851,4.40136165 C78.9730493,3.4521558 81.0269507,3.4521558 82.7063149,4.40136165 L82.7063149,4.40136165 L154.706315,45.0970138 C155.569455,45.5848754 156.267876,46.2861627 156.750512,47.113353 C157.233149,47.9405432 157.5,48.8936363 157.5,49.8851094 L157.5,49.8851094 L157.5,130.984456 C157.5,131.975929 157.233149,132.929022 156.750512,133.756212 C156.267876,134.583403 155.569455,135.28469 154.706315,135.772551 L154.706315,135.772551 L82.7063149,176.468204 C81.0269507,177.417409 78.9730493,177.417409 77.2936851,176.468204 L77.2936851,176.468204 L5.29368509,135.772551 C4.43054545,135.28469 3.73212418,134.583403 3.24948782,133.756212 C2.76685145,132.929022 2.5,131.975929 2.5,130.984456 L2.5,130.984456 L2.5,49.8851094 C2.5,48.8936363 2.76685145,47.9405432 3.24948782,47.113353 C3.73212418,46.2861627 4.43054545,45.5848754 5.29368509,45.0970138 L5.29368509,45.0970138 Z" stroke-width="5" stroke="url(#linearGradient-5)"></path>
                    <mask fill="white" id="mask-10">
                        <use xlink:href="#path-9"></use>
                    </mask>
                    <use xlink:href="#path-9" fill="url(#linearGradient-8)" id="蒙版"></use>
                    <polygon points="98 4 87.342 76.869 131.204581 17.753788 155.246212 41.7954185 95.888 85.83 169 75 169 109 95.891 98.164 155.246212 142.204581 131.204581 166.246212 87.17 106.889 98 180 64 180 74.792 107.183 30.7954185 166.246212 6.75378798 142.204581 65.581 98.389 -7 109 -7 75 65.578 85.615 6.75378798 41.7954185 30.7954185 17.753788 74.609 76.58 64 4" mask="url(#mask-10)" opacity="0.25" fill="#FFFFFF" id="路径"></polygon>
                    <path mask="url(#mask-10)" filter="url(#filter-11)" opacity="0.800000012" fill="#C91820" id="椭圆形" d="M81.5,162.5 C117.674651,162.5 147,133.174651 147,97 C147,60.8253489 117.674651,16.5 81.5,16.5 C45.3253489,16.5 16,60.8253489 16,97 C16,133.174651 45.3253489,162.5 81.5,162.5 Z"></path>
                    <g mask="url(#mask-10)" id="编组-22">
                        <g transform="translate(14.545455, 35.041957)">
                            <g transform="translate(0.454545, 0.000000)" fill-rule="evenodd" stroke-width="1" id="奖杯">
                                <polygon points="55.4930556 92.7762253 75.5069444 92.7762253 75.5069444 111.867134 55.4930556 111.867134" fill-rule="nonzero" fill="#FFB300" id="路径"></polygon>
                                <path fill-rule="nonzero" fill="#FFCA28" id="路径" d="M50.0347222,118.230771 L50.0347222,109.424591 C50.0347222,107.761342 51.5138664,106.418642 53.3377324,106.412589 L77.6559951,106.412589 C79.4861336,106.418637 80.9590053,107.761337 80.9652778,109.424591 L80.9652778,118.230771 L80.9527427,118.230771 L50.0347222,118.230771 Z"></path>
                                <path fill-rule="nonzero" fill="url(#linearGradient-12)" id="形状" d="M31.6844316,27.8141336 L31.6844316,70.2032081 C18.4544859,68.452622 8.24923343,57.7240598 8.24923343,44.7822187 L8.24923343,27.8141336 L31.6844316,27.8141336 Z M6.59309728,20.0489526 C4.84326427,20.0489526 3.16843854,20.7055233 1.93106008,21.8684094 C0.70636763,23.0050674 0.00723561742,24.5986126 4.12114787e-13,26.2698657 L4.12114787e-13,44.7947177 C4.12114787e-13,63.2633011 15.873392,78.2307707 35.4464695,78.2307707 L39.9148731,78.2307707 L39.9148731,20.0489526 L6.59309728,20.0489526 Z M122.763172,27.8141336 L122.763172,44.007059 C122.763172,57.0989059 112.607925,68.0087295 99.3342724,70.0782154 L99.3342724,27.8141336 L122.76947,27.8141336 L122.763172,27.8141336 Z M91.1037868,20.0490554 L91.1037868,78.2121173 L94.7471839,78.2121173 C114.763919,78.2121173 131,62.9007346 131,44.0195143 L131,26.2636676 C131.018572,22.831278 128.050109,20.0490554 124.419221,20.0490554 L91.1037868,20.0490554 Z"></path>
                                <path fill-rule="nonzero" fill="url(#linearGradient-13)" id="路径" d="M65.5062414,96.4125889 C39.8812151,96.4125889 19.1041667,76.7452171 19.1041667,52.4853506 L19.1041667,3.90908172 C19.1041667,2.28006337 20.5017814,0.964313829 22.2238387,0.958043461 L108.776156,0.958043461 C110.498217,0.958043461 111.895833,2.28005897 111.895833,3.90908172 L111.895833,52.4790362 C111.908306,76.7389026 91.1374974,96.4062745 65.5061829,96.4062745 L65.5062414,96.4125889 Z"></path>
                                <g id="矩形">
                                    <use xlink:href="#path-15" fill-rule="evenodd" fill="url(#linearGradient-14)"></use>
                                    <use xlink:href="#path-15" filter="url(#filter-16)" fill-opacity="1" fill="black"></use>
                                </g>
                            </g>
                            <g transform="translate(92.763748, 44.937496) rotate(-345.000000) translate(-92.763748, -44.937496)" id="矩形">
                                <use xlink:href="#path-18" fill-rule="evenodd" fill="url(#linearGradient-17)"></use>
                                <use xlink:href="#path-18" filter="url(#filter-19)" fill-opacity="1" fill="black"></use>
                            </g>
                            <g transform="translate(46.090909, 48.594407) rotate(-410.000000) translate(-46.090909, -48.594407)" id="矩形备份-8">
                                <use xlink:href="#path-21" fill-rule="evenodd" fill="url(#linearGradient-20)"></use>
                                <use xlink:href="#path-21" filter="url(#filter-22)" fill-opacity="1" fill="black"></use>
                            </g>
                            <g transform="translate(101.545455, 54.685316) rotate(-316.000000) translate(-101.545455, -54.685316)" id="矩形备份-9">
                                <use xlink:href="#path-24" fill-rule="evenodd" fill="url(#linearGradient-23)"></use>
                                <use xlink:href="#path-24" filter="url(#filter-25)" fill-opacity="1" fill="black"></use>
                            </g>
                        </g>
                    </g>
                    <path mask="url(#mask-10)" opacity="0.600000024" fill="url(#linearGradient-26)" id="路径-3" d="M22.4280694,161.38072 L78.3050259,192.894151 C80.1429357,193.930694 82.3902292,193.925625 84.2234447,192.880803 L137.249191,162.659318 L137.249191,162.659318 L141,108.927211 L20.4663062,108.565217 L22.4280694,161.38072 Z"></path>
                    <g mask="url(#mask-10)" filter="url(#filter-27)" id="赞">
                        <g transform="translate(22.000000, 59.041957)">
                            <g transform="translate(0.000000, 39.958043)" fill-rule="evenodd" fill="none" stroke-width="1" id="路径">
                                <mask fill="white" id="mask-30">
                                    <use xlink:href="#path-29"></use>
                                </mask>
                                <use xlink:href="#path-29" fill-rule="nonzero" fill="url(#linearGradient-28)" id="蒙版"></use>
                                <path mask="url(#mask-30)" fill-rule="nonzero" fill="url(#linearGradient-31)" id="蒙版" d="M28,-4.54747351e-13 C30.7614237,-4.54747351e-13 33,2.23857625 33,5 L33,68 C33,70.7614237 30.7614237,73 28,73 L5.48509669,73 C2.72367294,73 0.485096686,70.7614237 0.485096686,68 C0.485096686,67.8458646 0.492224,67.6918116 0.506455795,67.5383347 L6.34839468,4.53833467 C6.58684998,1.96681102 8.7444797,-4.54747351e-13 11.3270356,-4.54747351e-13 L28,-4.54747351e-13 Z M28,2 L11.3270356,2 C9.83709949,2 8.58288428,3.09105641 8.3614187,4.54662892 L8.33985103,4.7230008 L2.49791215,67.7230008 C2.48937307,67.815087 2.48509669,67.9075188 2.48509669,68 C2.48509669,69.5976809 3.73401665,70.9036609 5.3088239,70.9949073 L5.48509669,71 L28,71 C29.5976809,71 30.9036609,69.75108 30.9949073,68.1762728 L31,68 L31,5 C31,3.40231912 29.75108,2.09633912 28.1762728,2.00509269 L28,2 Z"></path>
                                <rect height="13.5813953" width="33.8461538" y="61.9651163" x="6.61538462" mask="url(#mask-30)" opacity="0.800000012" fill="#F25215" id="矩形"></rect>
                                <polygon points="4.92307692 -5.94186047 13.3846154 -5.94186047 7.46153846 63.6627907 -1.84615385 63.6627907" mask="url(#mask-30)" opacity="0.600000024" fill="url(#linearGradient-32)" id="矩形"></polygon>
                            </g>
                            <g transform="translate(32.000000, 0.000000)" fill-rule="evenodd" fill="none" stroke-width="1" id="椭圆形">
                                <mask fill="white" id="mask-35">
                                    <use xlink:href="#path-34"></use>
                                </mask>
                                <g fill-rule="nonzero" id="形状结合">
                                    <use xlink:href="#path-34" fill="url(#linearGradient-33)"></use>
                                    <use xlink:href="#path-34" filter="url(#filter-36)" fill-opacity="1" fill="black"></use>
                                </g>
                                <path mask="url(#mask-35)" fill="url(#linearGradient-37)" id="路径-26" d="M2.83271355,44.0713756 C4.72886429,46.6302709 5.68395339,47.90235 5.69798087,47.8876129 C5.17704225,76.9974438 10.2949646,93.0762181 19.4974375,97.2884783 C29.0842851,101.676679 45.0320176,105.566534 67.3406349,108.958043 L-7.43062025,125.633595 L-10.6936458,56.6588309 L-3.20465853,40.0761537 L2.83271355,44.0713756 Z"></path>
                            </g>
                            <path fill-rule="nonzero" fill="url(#linearGradient-38)" id="形状" d="M80.2707735,56.9580435 C79.1429969,56.9580435 78.2287507,57.9272806 78.2287507,59.1228944 C78.2287507,60.3185071 79.1429958,61.2877454 80.2707735,61.2877454 L109,61.2877454 C107.840297,60.2874287 105.962486,59.4658324 104.286917,59.1228968 C101.362653,58.5243931 96.0434186,59.1228956 94.5649882,59.1228968 L100.618332,58.9263492 C102.590972,58.9201491 104.566284,58.3468408 106.041163,56.9580435 L80.2707735,56.9580435 Z M80.2478674,74.2768514 C79.1327416,74.2768513 78.2287507,75.2460884 78.2287507,76.4417021 C78.2287507,77.6373146 79.1327405,78.6065529 80.2478675,78.6065529 L103.817067,79.0484456 C103.166867,78.0698926 101.000415,75.3252129 98.6342425,76.4417021 L102.458207,76.4417026 C104.40872,76.4355025 106.289965,75.5454279 107.7483,74.1566332 L80.2478674,74.2768514 Z M76.0435143,90.628342 C74.914914,90.628342 74,91.597579 74,92.7931927 C74,93.9888052 74.9149129,94.9580435 76.0435144,94.9580435 L97.1797574,94.9580435 C95.3966858,93.1504521 94.3201366,92.3467466 92.103075,92.7931932 L96.4786815,92.7931932 C98.4527626,92.7869931 100.404566,92.0171368 101.880522,90.628342 L76.0435143,90.628342 Z"></path>
                        </g>
                    </g>
                </g>
            </g>
        </g>
    </g>
</svg>